<?xml  version="1.0" encoding="UTF-8"?>
<!DOCTYPE svg PUBLIC "-//W3C//DTD SVG 1.0//EN" "http://www.w3.org/TR/2001/REC-SVG-20010904/DTD/svg10.dtd" >
<svg xmlns="http://www.w3.org/2000/svg" >
<metadata>
<version>1.0</version>
<id><![CDATA[ITC Franklin Gothic W01 Md CnIt]]></id>
<vendor>Monotype Imaging Inc.</vendor>
<credits>
<name>Fonts.com WebFonts</name>
<URL>http://webfonts.fonts.com</URL>
<role>Home of the Web fonts</role>
</credits>
<license>
<URL>http://webfonts.fonts.com/Legal</URL>
</license>
<copyright><![CDATA[Part of the digitally encoded machine readable outline data for producing the Typefaces provided is copyrighted ¨ 2004 - 2006 Linotype GmbH, www.linotype.com. All rights reserved. This software is the property of Linotype GmbH, and may not be reproduced, modified, disclosed or transferred without the express written approval of Linotype GmbH.  Copyright ¨ 1995 Adobe Systems Incorporated. All Rights Reserved.]]></copyright>
<trademark><![CDATA[ITC Franklin Gothic is a registered trademark of International Typeface Corporation.]]></trademark>
<licensee>
<name></name>
</licensee>
</metadata>
<defs >
<font horiz-adv-x="454" id="3d855152-df90-4b54-92f2-14070998cba8">
<font-face font-family="" panose-1="2 11 6 6 5 0 0 9 0 4" ascent="889" descent="-250" units-per-em="1000" alphabetic="0">
</font-face>
<missing-glyph horiz-adv-x="250" />

<glyph unicode="&#xA;" />
<glyph unicode="&#xD;" horiz-adv-x="0" />
<glyph unicode=" " horiz-adv-x="250" />
<glyph unicode="!" horiz-adv-x="341" d="M96 119H208L189 0H76L96 119ZM178 667H302L195 184H131L178 667Z"  />
<glyph unicode="&quot;" horiz-adv-x="341" d="M120 667H219L159 401H89L120 667ZM272 667H371L310 401H241L272 667Z"  />
<glyph unicode="#" horiz-adv-x="511" d="M47 0L108 209H27L47 278H128L165 403H83L104 472H185L242 667H314L258 472H361L418 667H491L434 472H514L494 403H414L378 278H458L437 209H357L297 0H224L285 209H181L120 0H47ZM343 403H236L200 278H306L343 403Z"  />
<glyph unicode="$" horiz-adv-x="511" d="M304 732H364L351 651Q362 648 379 642T416 622T454 582T485 515L395 482Q388 506 381 520T367 544T353 558T337 567L305 379Q336 365 363 351T412 317T445 270T457 204Q457 182 452 158T436 110T406 66T361 30Q332 14 300 10T242 5L227 -88H167L183 11Q172 14 152 21T109 45T65 94T33 177L123 205Q132 174 141 155T159 125T178 108T198 97L232 301Q205 314 180 328T137 361T107 405T95 465Q95 494 105 527T138 590T199 638T292 658L304 732ZM256 89Q293 91 313 105T342 137T352 168T354 186Q354 220 339 239T288 276L256 89ZM278 575Q266 573 254 570T227 555Q209 540 203 522T196 484Q196 449 211 434T249 405L278 575Z"  />
<glyph unicode="%" horiz-adv-x="681" d="M226 678Q259 678 281 667T318 637T339 592T345 537Q345 495 335 458T306 392T258 348T192 331Q151 331 127 346T91 383T76 428T73 469Q73 507 82 544T111 611T158 659T226 678ZM224 615Q198 615 184 593T162 544T153 492T151 462Q151 457 151 446T156 424T169 403T194 394Q220 394 234 414T256 461T265 511T267 541Q267 547 267 559T262 583T249 605T224 615ZM88 0L549 667H614L154 0H88ZM516 336Q552 336 575 323T612 290T630 245T635 196Q635 155 626 118T597 52T548 6T480 -11Q420 -11 392 25T363 126Q363 166 373 203T402 270T449 318T516 336ZM514 273Q496 273 484 262T464 234T451 198T444 161T442 132T441 118Q441 113 441 103T446 81T459 61T484 52Q509 52 523 72T545 117T555 166T557 198Q557 204 557 216T552 241T539 263T514 273Z"  />
<glyph unicode="&amp;" horiz-adv-x="596" d="M534 -1Q523 -4 510 -7T478 -11Q440 -11 419 6T382 49Q373 42 359 32T324 11T277 -6T219 -13Q183 -13 149 -2T89 33T48 90T32 168Q32 225 54 263T106 326T166 364T212 382Q202 403 190 438T177 518Q177 551 188 580T219 632T270 667T339 680Q376 680 403 669T448 639T475 594T484 539Q484 496 470 466T434 415T386 380T335 354Q338 345 347 323T367 275T390 224T411 182Q431 208 447 235T476 288T497 334T510 370L588 349Q571 300 553 263T517 198T483 149T453 112Q461 97 473 86T503 75Q517 75 527 78T546 83L534 -1ZM303 417Q313 421 328 429T359 450T385 485T396 536Q396 557 391 571T376 593T357 605T338 608Q307 608 291 583T274 522Q274 488 284 461T303 417ZM244 320Q224 310 205 298T171 270T147 231T138 177Q138 155 144 135T162 100T191 77T233 68Q273 68 300 84T342 114Q333 131 328 142T314 168Q310 176 300 197T279 243T258 289T244 320Z"  />
<glyph unicode="&apos;" horiz-adv-x="204" d="M125 667H225L164 401H95L125 667Z"  />
<glyph unicode="(" horiz-adv-x="307" d="M126 -168Q76 -90 52 -10T27 164Q27 254 49 331T107 471T183 583T262 667H339Q332 659 313 638T270 583T220 502T173 398T138 273T124 128Q124 72 131 27T148 -56T171 -121T193 -168H126Z"  />
<glyph unicode=")" horiz-adv-x="307" d="M-33 -168Q13 -120 52 -60T119 69T163 215T179 375Q179 421 174 460T160 533T139 600T110 666H173Q224 591 250 505T276 328Q276 244 253 168T196 28T121 -87T45 -168H-33Z"  />
<glyph unicode="*" horiz-adv-x="511" d="M360 657L326 529L445 584L467 514L345 484L451 415L407 357L312 448L303 316L232 327L266 455L147 400L125 470L247 500L141 569L185 628L280 536L289 669L360 657Z"  />
<glyph unicode="+" horiz-adv-x="511" d="M474 372V295H309V130H230V295H65V372H230V537H309V372H474Z"  />
<glyph unicode="&#x2c;" horiz-adv-x="239" d="M-3 -139L73 0H21L42 125H157L137 7L41 -139H-3Z"  />
<glyph unicode="-" horiz-adv-x="255" d="M27 209L41 291H228L214 209H27Z"  />
<glyph unicode="." horiz-adv-x="238" d="M20 0L41 125H155L134 0H20Z"  />
<glyph unicode="/" horiz-adv-x="426" d="M-90 -168L388 667H462L-16 -168H-90Z"  />
<glyph unicode="0" horiz-adv-x="511" d="M230 -13Q177 -13 142 7T85 61T55 143T46 245Q46 283 51 330T68 425T99 519T148 601T218 658T312 680Q367 680 402 658T457 600T484 518T492 424Q492 383 487 335T470 238T438 144T389 64T320 8T230 -13ZM235 70Q272 70 294 94T329 147Q345 186 355 228T372 311T380 387T383 446Q383 459 382 484T373 535T349 578T302 597Q274 597 252 579T214 531T186 463T168 386T157 309T154 242Q154 146 174 108T235 70Z"  />
<glyph unicode="1" horiz-adv-x="511" d="M85 88H201L275 531Q263 517 250 508T220 492T180 482T125 477L141 570Q169 573 193 578T240 596T282 627T322 675H405L307 88H426L411 0H70L85 88Z"  />
<glyph unicode="2" horiz-adv-x="511" d="M36 104Q118 164 182 218T292 321T360 416T384 505Q384 517 380 532T366 561T340 583T300 592Q270 592 250 578T217 542T197 496T184 451L88 476Q93 497 104 531T138 599T201 656T303 680Q349 680 384 665T443 626T479 570T491 506Q491 442 461 385T382 278T274 182T156 94H436L420 0H20L36 104Z"  />
<glyph unicode="3" horiz-adv-x="511" d="M108 193Q112 178 118 157T138 117T173 84T229 70Q251 70 271 78T307 101T332 139T341 192Q341 226 331 248T303 283T264 300T218 305H175L190 389H238Q271 389 296 395T341 420Q356 434 365 457T375 507Q375 543 354 570T286 597Q261 597 244 589T214 567T194 536T178 503L92 539Q97 551 108 574T142 621T201 662T293 680Q332 680 369 670T435 633Q464 604 473 570T483 509Q483 494 481 477T472 441T454 406T425 375Q406 359 389 354T355 344Q401 325 425 289T449 195Q449 156 437 119T399 53T333 5T235 -13Q217 -13 195 -11T150 -1T105 20T65 55Q39 85 30 114T16 164L108 193Z"  />
<glyph unicode="4" horiz-adv-x="511" d="M291 153H16L30 238L367 670H478L405 238H492L478 153H391L366 0H265L291 153ZM305 236L359 552L120 236H305Z"  />
<glyph unicode="5" horiz-adv-x="511" d="M121 183Q131 142 148 121T184 89T218 77T238 75Q262 75 284 84T322 113T348 163T358 235Q358 242 357 263T346 307T316 346T258 364Q234 364 218 356T190 336T172 312T161 290L74 318L153 667H499L477 570H220L181 393Q187 400 195 409T215 427T247 441T293 447Q344 447 377 427T430 377T458 310T466 240Q466 205 456 161T421 79T351 14T238 -13Q178 -13 140 5T79 49T46 102T30 148L121 183Z"  />
<glyph unicode="6" horiz-adv-x="511" d="M407 513Q405 521 401 535T388 563T362 587T320 597Q278 597 250 566T205 493T179 409T166 343Q172 354 181 369T206 399T245 423T302 433Q337 433 368 421T422 384T458 322T471 235Q471 200 462 157T429 76T364 13T259 -13Q243 -13 225 -11T187 -2T149 14T116 41Q95 65 83 94T64 152T55 207T53 251Q53 286 58 331T77 424T111 518T162 600T234 658T330 680Q372 680 409 664T469 619Q486 598 492 577T503 539L407 513ZM256 70Q279 70 299 79T335 111Q354 142 358 175T363 229Q363 236 362 256T352 296T326 333T275 349Q250 349 230 337T194 304T171 255T163 193Q163 161 170 138T191 99T221 77T256 70Z"  />
<glyph unicode="7" horiz-adv-x="511" d="M115 0Q130 161 207 307T412 574H106L126 667H523L510 589Q463 534 418 475T336 346T272 191T236 0H115Z"  />
<glyph unicode="8" horiz-adv-x="511" d="M362 358Q374 352 391 342T423 314T450 269T462 201Q462 165 451 128T413 59T343 7T234 -13Q195 -13 157 -4T89 25T41 76T22 154Q22 203 40 236T82 291T132 324T171 341Q159 349 146 359T120 386T100 425T92 480Q92 515 104 550T143 615T210 662T307 680Q394 680 442 637T491 522Q491 478 475 449T438 401T396 372T362 358ZM292 391Q305 397 323 405T357 428T384 462T395 512Q395 560 365 585T295 610Q274 610 256 603T223 583T201 550T193 506Q193 479 202 460T225 429T256 407T292 391ZM241 301Q223 294 202 285T163 260T133 223T121 168Q121 148 127 129T148 95T184 70T238 60Q271 60 294 70T331 96T352 132T359 172Q359 198 351 217T326 250T289 277T241 302V301Z"  />
<glyph unicode="9" horiz-adv-x="511" d="M123 161Q125 152 130 137T145 106T174 81T220 70Q247 70 266 80T300 107T325 142T341 178Q355 212 362 247T375 319Q355 282 326 261T245 240Q207 240 176 253T122 290T86 351T73 436Q73 489 88 534T131 611T199 662T289 680Q331 680 369 665T431 622Q441 610 450 594T467 554T478 498T482 423Q482 336 466 257T417 118T333 23T209 -13Q156 -13 123 3T71 42T44 87T32 123L123 161ZM271 321Q300 321 320 336T354 373T374 423T380 477Q380 514 371 537T347 573T316 592T285 597Q257 597 237 585T204 550T185 500T178 440Q178 431 179 412T189 372T217 337T271 321Z"  />
<glyph unicode=":" horiz-adv-x="238" d="M82 368L102 493H217L196 368H82ZM20 0L41 125H155L134 0H20Z"  />
<glyph unicode=";" horiz-adv-x="239" d="M-3 -139L73 0H21L42 125H157L137 7L41 -139H-3ZM83 368L104 493H218L197 368H83Z"  />
<glyph unicode="&lt;" horiz-adv-x="511" d="M486 493L159 338L486 183V85L53 296V381L486 592V493Z"  />
<glyph unicode="=" horiz-adv-x="511" d="M64 364V441H474V364H64ZM64 226V303H474V226H64Z"  />
<glyph unicode="&gt;" horiz-adv-x="511" d="M53 183L380 338L53 493V592L486 380V295L53 84V183Z"  />
<glyph unicode="?" horiz-adv-x="443" d="M113 0L133 118H246L226 0H113ZM149 181Q152 211 155 237T167 285T190 325T227 357Q257 375 275 387T304 407T323 424T336 443Q352 471 352 504Q352 551 329 576T270 601Q239 601 218 585T184 549T163 508T154 479L69 510Q93 595 145 639T276 683Q361 683 408 638T455 511Q455 464 442 432T408 375T361 334T310 302Q290 290 278 280T258 257T247 226T240 181H149Z"  />
<glyph unicode="@" horiz-adv-x="664" d="M545 42Q535 36 518 26T475 7T416 -9T341 -16Q281 -16 228 1T134 56T71 149T47 284Q47 356 69 427T136 556T247 648T399 684Q455 684 503 667T585 617T639 537T659 428Q659 374 645 323T604 231T536 166T444 141Q419 141 398 151T372 185Q353 157 331 148T293 139Q276 139 259 147T230 169Q221 180 215 197T208 248Q208 293 220 340T256 426T310 490T379 515Q399 515 411 508T429 491T437 472T440 457L457 507H522L461 309Q459 302 456 291T449 267T443 245T440 229Q440 217 447 213T463 208Q489 208 512 225T551 272T577 339T587 418Q587 516 535 569T395 623Q328 623 277 594T190 517T137 409T119 285Q119 219 137 174T187 99T260 57T346 44Q381 44 410 51T463 68T502 88T528 105L545 42ZM375 442Q354 442 338 420T310 368T292 306T286 256Q286 252 286 245T289 231T298 218T315 212Q337 212 354 235T382 290T399 351T405 396Q405 400 405 407T401 422T392 436T375 442Z"  />
<glyph unicode="A" horiz-adv-x="494" d="M454 0H345L327 174H144L71 0H-31L261 667H375L454 0ZM297 554L179 260H318L297 554Z"  />
<glyph unicode="B" horiz-adv-x="528" d="M136 667H311Q335 667 368 664T432 645T484 599T506 513Q506 468 493 438T462 390T424 363T392 349Q403 344 418 336T448 311T473 270T484 204Q484 181 480 157T466 110T442 69T407 38Q362 11 315 6T226 0H24L136 667ZM195 386H241Q273 386 299 389T348 403Q370 415 383 443T397 501Q397 532 385 549T354 573T316 582T281 584H228L195 386ZM144 84H215Q236 84 263 86T314 100T354 137T371 211Q371 245 360 264T330 293T290 304T248 306H181L144 84Z"  />
<glyph unicode="C" horiz-adv-x="511" d="M411 434Q411 452 410 478T401 530T376 572T325 590Q292 590 267 570T224 519T194 448T175 371T165 299T162 245Q162 219 165 190T178 136T207 94T258 77Q289 77 310 92T346 130T369 178T383 225L484 198Q473 149 451 104T386 27Q357 6 323 -3T254 -13Q210 -13 167 3T96 57Q86 70 77 87T61 126T50 179T46 248Q46 293 52 342T73 440T109 531T164 608T239 660T335 680Q359 680 387 674T441 652T486 606T514 530Q518 505 518 487T518 448L411 434Z"  />
<glyph unicode="D" horiz-adv-x="545" d="M136 667H270Q295 667 324 665T382 656T437 632T484 588T517 516T529 411Q529 371 522 320T499 217T455 121T386 49Q359 31 332 21T278 7T227 1T183 0H25L136 667ZM145 86H188Q217 86 252 92T323 131Q343 149 357 175T381 232T397 292T407 350T412 397T414 428Q414 482 400 512T365 558T317 577T265 581H228L145 86Z"  />
<glyph unicode="E" horiz-adv-x="477" d="M136 667H509L494 579H227L195 387H420L406 301H181L145 88H425L411 0H24L136 667Z"  />
<glyph unicode="F" horiz-adv-x="426" d="M136 667H497L482 579H227L194 381H412L398 293H179L130 0H24L136 667Z"  />
<glyph unicode="G" horiz-adv-x="545" d="M412 -3L405 76Q399 65 389 50T361 21T317 -3T251 -13Q207 -13 167 4T102 52Q49 120 49 256Q49 328 65 403T115 539T204 640T337 680Q373 680 407 669T468 633T513 571T536 481L437 458Q436 469 432 491T417 535T386 573T332 590Q301 590 276 573T232 528T200 463T178 388T166 312T162 244Q162 235 163 208T175 151T207 100T269 77Q290 77 307 84T336 103T358 126T372 148Q388 179 394 206T404 259H283L298 347H520L462 -3H412Z"  />
<glyph unicode="H" horiz-adv-x="545" d="M136 667H242L196 391H397L442 667H548L437 0H331L382 303H181L130 0H24L136 667Z"  />
<glyph unicode="I" horiz-adv-x="239" d="M136 667H242L130 0H24L136 667Z"  />
<glyph unicode="J" horiz-adv-x="324" d="M-22 87Q-4 82 6 80T36 77Q70 77 90 86T123 115T141 162T154 226L228 667H334L262 235Q253 180 243 135T211 57T154 6T55 -12Q17 -12 -4 -8T-37 0L-22 87Z"  />
<glyph unicode="K" horiz-adv-x="511" d="M363 0L277 330L163 193L130 0H24L136 667H242L187 335L440 667H559L357 422L479 0H363Z"  />
<glyph unicode="L" horiz-adv-x="409" d="M136 667H242L145 88H386L372 0H24L136 667Z"  />
<glyph unicode="M" horiz-adv-x="698" d="M136 667H290L333 168L544 667H702L590 0H487L585 572L337 0H260L206 561L115 0H24L136 667Z"  />
<glyph unicode="N" horiz-adv-x="562" d="M136 667H249L396 194L471 667H565L454 0H366L203 528L119 0H24L136 667Z"  />
<glyph unicode="O" horiz-adv-x="562" d="M543 410Q543 369 537 322T518 227T483 137T430 60T358 7T264 -13Q154 -13 102 52T49 252Q49 296 55 344T75 440T111 531T165 608T239 660T334 680Q345 680 367 678T416 666T468 636T512 579Q524 555 530 528T539 476T542 434T543 410ZM267 76Q295 76 322 92T372 155Q389 190 401 227T420 301T430 372T433 433Q433 481 425 509T401 557Q390 571 371 581T329 591Q295 591 269 571T225 520T193 449T173 370T162 295T159 236Q159 224 161 198T173 144T206 97T267 76Z"  />
<glyph unicode="P" horiz-adv-x="494" d="M136 667H296Q344 667 382 661T449 635Q484 612 499 572T514 490Q514 466 510 440T496 390T472 344T438 308Q414 290 390 281T343 267T303 262T274 261H174L131 0H25L136 667ZM189 348H258Q276 348 300 350T348 365Q366 375 376 391T393 424T401 458T403 486Q403 517 394 535T367 563T326 576T274 579H227L189 348Z"  />
<glyph unicode="Q" horiz-adv-x="562" d="M436 -142Q428 -144 409 -147T363 -150Q249 -150 249 -45Q249 -33 249 -26T251 -12Q236 -11 215 -9T172 2T127 27T88 73T60 146T49 253Q49 297 55 345T75 441T111 532T165 608T238 660T334 680Q346 680 368 678T416 665T467 634T510 577Q522 553 528 527T537 477T540 435T541 411Q541 388 539 350T526 267T498 172T448 79Q432 58 416 44T384 20T355 7T333 -1Q332 -9 332 -12Q332 -15 332 -17Q332 -38 344 -53T385 -68Q402 -68 419 -65T445 -60L436 -142ZM266 76Q274 76 286 77T313 86T342 110T371 155Q388 191 400 228T419 301T429 370T432 431Q432 442 431 468T419 522T388 570T327 591Q291 591 265 569T219 513T189 437T170 356T161 284T158 235Q158 220 160 193T173 140T206 95T266 76Z"  />
<glyph unicode="R" horiz-adv-x="528" d="M136 667H317Q346 667 381 663T447 643T499 592T520 497Q520 441 505 405T470 346T428 314T393 298L471 0H356L287 280H177L131 0H25L136 667ZM192 365H270Q295 365 318 369T366 390Q380 400 389 414T403 444T410 474T412 498Q412 528 403 545T378 571T342 582T300 584H228L192 365Z"  />
<glyph unicode="S" horiz-adv-x="511" d="M115 204Q121 183 129 161T153 120T191 89T249 77Q279 77 300 86T333 110T352 142T358 177Q358 201 351 218T331 248T297 272T251 295Q221 308 192 323T139 360T100 411T85 483Q85 516 96 551T132 614T194 661T284 680Q345 680 384 659T446 611T479 557T492 519L392 486Q389 496 383 513T364 548T332 577T283 590Q242 590 218 564T193 500Q193 479 199 464T220 435T258 410T316 381Q340 369 367 355T416 319T454 269T469 200Q469 187 467 167T456 122T432 74T392 31T330 -1T242 -13Q173 -13 131 9T64 63T30 126T16 177L115 204Z"  />
<glyph unicode="T" horiz-adv-x="392" d="M197 576H47L62 667H468L453 576H303L207 0H101L197 576Z"  />
<glyph unicode="U" horiz-adv-x="545" d="M235 667L170 281Q169 274 167 261T163 231T159 199T157 171Q157 152 162 135T178 105T206 85T248 77Q284 77 307 87T346 121T371 182T390 274L456 667H555L486 254Q476 198 464 152T429 70Q410 41 384 25T330 0T280 -11T243 -13Q206 -13 171 -6T107 25Q76 49 63 85T50 155Q50 171 51 189T55 224T60 254T63 276L129 667H235Z"  />
<glyph unicode="V" horiz-adv-x="477" d="M72 667H179L227 135L434 667H537L260 0H145L72 667Z"  />
<glyph unicode="W" horiz-adv-x="732" d="M80 667H188L205 164L386 667H483L513 164L684 667H783L535 0H437L406 499L223 0H122L80 667Z"  />
<glyph unicode="X" horiz-adv-x="443" d="M177 351L62 667H178L251 438L400 667H507L291 351L419 0H299L217 261L50 0H-61L177 351Z"  />
<glyph unicode="Y" horiz-adv-x="426" d="M170 280L42 667H154L241 383L411 667H516L276 278L229 0H123L170 280Z"  />
<glyph unicode="Z" horiz-adv-x="477" d="M8 83L364 581H98L113 667H507L494 592L135 88H431L417 0H-6L8 83Z"  />
<glyph unicode="[" horiz-adv-x="307" d="M9 -168L148 667H316L307 613H232L110 -114H190L181 -168H9Z"  />
<glyph unicode="\" horiz-adv-x="392" d="M94 667H161L360 -168H292L94 667Z"  />
<glyph unicode="]" horiz-adv-x="307" d="M-10 -168L-1 -114H74L196 613H116L125 667H297L158 -168H-10Z"  />
<glyph unicode="^" horiz-adv-x="511" d="M410 316L265 594L121 316H25L214 674H317L506 316H410Z"  />
<glyph unicode="_" horiz-adv-x="500" d="M0 -75H500V-125H0V-75Z"  />
<glyph unicode="`" horiz-adv-x="460" d="M164 643L206 708L354 588L328 544L164 643Z"  />
<glyph unicode="a" horiz-adv-x="460" d="M276 0Q274 19 274 32T279 68Q270 55 260 41T234 14T196 -5T142 -13Q100 -13 74 1T35 35T17 78T12 118Q12 168 30 201T78 256T142 287T212 302T274 306Q303 306 318 305Q322 320 324 336T327 367Q327 388 319 401T299 422T274 432T250 435Q226 435 211 428T185 409T168 384T156 358L67 383Q72 398 82 419T113 459T167 492T253 506Q306 506 339 492T390 458T415 416T422 377Q422 371 421 352T415 308L381 101Q375 69 374 54T372 28Q372 22 372 16Q372 11 374 0H276ZM308 243Q282 245 249 243T186 229T137 193T117 128Q117 90 135 76T174 62Q211 62 235 83T274 133T296 193T308 243Z"  />
<glyph unicode="b" horiz-adv-x="477" d="M130 667H231L191 433Q196 442 204 454T226 478T260 498T309 506Q357 506 384 486T424 438T441 379T445 325Q445 296 441 259T428 185T404 112T365 49T309 4T233 -13Q197 -13 174 -2T138 24T118 54T109 79Q104 69 101 63T93 48T85 29T72 0H18L130 667ZM220 62Q238 62 251 69T275 86T291 109T302 130Q314 162 321 195T333 257T338 309T340 341Q340 349 339 364T333 394T315 420T281 431Q257 431 239 416T206 376T182 321T166 260T156 204T153 161Q153 142 157 124T171 93T192 71T220 62Z"  />
<glyph unicode="c" horiz-adv-x="426" d="M391 156Q386 138 377 110T347 54T292 7T204 -13Q153 -13 120 4T68 51T41 118T33 194Q33 241 44 296T81 397T149 475T255 506Q289 506 318 495T369 462T402 406T412 327L319 319Q319 332 318 351T310 388T290 418T252 431Q217 431 195 403T160 334T142 252T137 181Q137 164 139 144T149 105T171 75T210 62Q246 62 267 89T303 174L391 156Z"  />
<glyph unicode="d" horiz-adv-x="477" d="M486 667L374 0H286L296 63Q290 53 280 40T255 15T217 -5T165 -13Q118 -13 91 7T51 57T34 117T30 171Q30 218 40 276T74 386T139 471T242 506Q272 506 290 499T320 480T337 457T346 437L385 667H486ZM203 62Q229 62 249 81T280 126Q290 152 299 182T314 241T323 297T327 340Q327 350 325 366T315 396T294 420T258 431Q228 431 210 414T181 375Q169 351 161 324T147 270T138 215T135 165Q135 151 137 133T147 99T167 73T203 62Z"  />
<glyph unicode="e" horiz-adv-x="443" d="M138 233Q136 222 135 212T134 184Q134 175 135 155T144 114T169 78T217 62Q249 62 271 83T313 156L394 131Q385 106 372 81T336 34T283 0T209 -13Q161 -13 128 3T72 47T40 113T30 197Q30 248 43 302T83 402T153 477T256 506Q284 506 307 499T347 481T377 456T396 429Q404 412 413 383T422 299Q422 276 421 262T417 233H138ZM322 299Q324 310 324 317Q324 324 324 333Q324 338 323 354T315 387T294 417T252 431Q230 431 216 423T193 407Q179 395 171 380T158 349T150 321T146 299H322Z"  />
<glyph unicode="f" horiz-adv-x="256" d="M100 416H36L49 493H112Q119 530 127 565T154 627T203 671T287 688Q307 688 319 687T342 683L329 602Q321 603 314 603T298 604Q275 604 261 598T237 579T222 545T212 493H299L286 416H200L131 0H30L100 416Z"  />
<glyph unicode="g" horiz-adv-x="443" d="M446 527Q437 528 433 528T423 529Q403 529 392 523T374 508T366 491T363 477Q369 472 378 465T396 444T411 410T418 362Q418 333 409 302T379 243T323 199T236 181Q209 181 193 186T162 197Q149 190 135 179T120 145Q120 115 145 109T219 103Q240 103 271 101T330 88T379 51T400 -20Q400 -58 384 -89T334 -143Q313 -157 288 -164T240 -175T200 -179T177 -180Q138 -180 103 -175T40 -156T-3 -121T-19 -65Q-19 -39 -11 -22T10 8T35 27T59 39Q55 42 49 47T38 61T28 81T24 109Q24 134 33 153T56 186T85 209T115 227Q108 233 100 241T86 261T75 290T70 330Q70 368 82 400T117 456T174 493T250 507Q271 507 286 504T319 497Q320 505 323 519T335 549T358 579T396 599Q401 601 416 603T454 604L446 527ZM319 351Q319 357 318 371T311 401T290 427T250 439Q236 439 222 434T196 415T177 381T169 329Q169 323 170 310T177 283T198 259T238 248Q261 248 276 257T301 282T315 315T319 351ZM110 19Q99 12 85 -1T70 -40Q70 -62 82 -75T113 -95T154 -104T197 -107Q204 -107 222 -106T260 -99T294 -78T309 -38Q309 -21 302 -11T282 4T250 11T208 13Q198 13 185 13Q172 13 159 14T132 16T110 19Z"  />
<glyph unicode="h" horiz-adv-x="477" d="M130 667H231L191 427Q198 438 207 452T231 478T267 498T321 506Q342 506 363 500T401 481T428 445T439 389Q439 361 435 331T428 285L380 0H280L329 292Q334 318 335 337T337 365Q337 370 336 380T330 400T314 418T281 426Q266 426 254 421T232 410T218 396T209 383Q186 345 176 309T157 223L119 0H19L130 667Z"  />
<glyph unicode="i" horiz-adv-x="221" d="M101 493H201L119 0H19L101 493ZM128 670H234L216 563H110L128 670Z"  />
<glyph unicode="j" horiz-adv-x="221" d="M-86 -89Q-77 -91 -67 -92T-45 -93Q-27 -93 -16 -86T3 -64T16 -24T27 37L103 493H204L125 20Q117 -25 109 -61T85 -124T41 -164T-34 -178Q-58 -178 -75 -176T-100 -171L-86 -89ZM131 670H237L219 563H114L131 670Z"  />
<glyph unicode="k" horiz-adv-x="426" d="M389 0H282L225 252L148 169L119 0H19L130 667H231L167 284L344 493H457L298 323L389 0Z"  />
<glyph unicode="l" horiz-adv-x="221" d="M130 667H231L119 0H19L130 667Z"  />
<glyph unicode="m" horiz-adv-x="698" d="M101 493H189L174 401Q179 413 188 431T213 465T252 494T310 506Q344 506 363 494T392 465T404 431T408 404Q415 420 425 438T452 471T491 496T546 506Q600 506 630 474T661 386Q661 355 652 301L602 0H501L549 287Q550 294 552 305T555 327T558 350T559 369Q559 401 542 414T509 427Q480 427 461 409T430 362T412 300T400 236L360 0H259L304 266Q312 312 315 333T318 369Q318 402 302 414T272 427Q243 427 223 406T190 356T170 294T159 239L119 0H18L101 493Z"  />
<glyph unicode="n" horiz-adv-x="477" d="M101 493H189L174 401Q181 416 190 434T216 468T258 495T320 506Q358 506 381 494T417 465T434 429T439 393Q439 386 438 360T428 285L380 0H280L327 281Q328 285 329 295T332 319T335 344T337 364Q337 399 320 413T279 427Q250 427 230 411T196 365T172 297T155 213L119 0H19L101 493Z"  />
<glyph unicode="o" horiz-adv-x="460" d="M427 304Q427 286 425 257T415 192T392 119T349 50Q332 30 313 18T273 -2T233 -11T199 -13Q191 -13 178 -12T149 -6T117 5T88 24Q53 56 42 103T30 196Q30 251 42 306T82 405T152 478T259 506Q312 506 345 487T396 438T420 373T427 304ZM135 165Q135 155 136 138T145 104T166 75T206 62Q235 62 255 81T286 127Q298 155 305 185T315 241T320 289T322 323Q322 334 321 352T314 388T293 418T254 431Q226 431 207 413T174 366T153 304T141 242T136 191T135 165Z"  />
<glyph unicode="p" horiz-adv-x="477" d="M101 493H189L177 420Q194 449 212 466T249 492T283 503T311 506Q344 506 367 495T405 466T428 426T440 384T444 347T445 322Q445 277 435 219T402 110T339 23T240 -13Q210 -13 190 -4T158 18T139 44T130 65L91 -167H-10L101 493ZM220 62Q240 62 254 70T277 88T292 108T299 121Q310 147 318 176T331 235T338 290T340 336Q340 353 338 370T328 400T309 422T277 431Q241 431 217 398T178 321T157 232T151 163Q151 120 169 91T220 62Z"  />
<glyph unicode="q" horiz-adv-x="477" d="M244 -167L282 57Q278 49 271 38T250 15T217 -5T167 -13Q123 -13 96 4T54 47T34 106T29 167Q29 194 32 228T45 300T72 375T115 443Q138 472 175 489T251 506Q285 506 306 496T340 471T359 442T367 419Q376 436 382 450T400 493H457Q452 467 448 443T439 392L345 -167H244ZM202 62Q226 62 245 79T278 124T301 183T316 247T324 303T327 341Q327 366 321 383T305 411T284 426T263 431Q232 431 208 408T168 347T143 263T134 171Q134 161 135 143T142 106T162 75T202 62Z"  />
<glyph unicode="r" horiz-adv-x="307" d="M101 493H189L171 381Q187 413 203 437T240 476T285 498T345 502L327 394Q308 395 288 394T249 384T213 358T182 307Q177 294 171 270T159 220T148 168T141 129L119 0H19L101 493Z"  />
<glyph unicode="s" horiz-adv-x="392" d="M88 150Q97 108 120 85T183 62Q204 62 218 68T242 84T255 105T260 128Q260 157 239 173T175 209Q152 220 130 233T90 263T61 302T50 357Q50 379 59 405T87 454T138 491T215 506Q261 506 290 492T336 458T362 416T374 379L297 353Q291 368 285 382T269 407T246 424T214 431Q184 431 164 414T144 371Q144 357 149 346T166 326T194 307T235 286Q260 274 282 262T320 234T346 197T356 146Q356 119 347 91T318 40T264 2T180 -13Q123 -13 89 4T36 44T11 91T1 128L88 150Z"  />
<glyph unicode="t" horiz-adv-x="290" d="M289 416H195L156 185Q154 171 151 149T148 116Q148 102 153 93T166 80T182 74T197 72Q200 72 213 72T247 77L234 -3Q216 -8 196 -9T156 -11Q135 -11 115 -7T79 8T54 37T44 83Q44 94 45 108T48 135T52 160T55 177L95 416H31L44 493H112L136 623L228 628L206 493H302L289 416Z"  />
<glyph unicode="u" horiz-adv-x="477" d="M287 0L301 86Q292 70 280 53T251 21T209 -3T151 -13Q97 -13 66 14T34 93Q34 104 34 114T36 136T40 161T46 194L96 493H196L149 211Q145 189 142 164T138 122Q138 117 139 108T145 89T161 73T191 66Q212 66 228 74T256 96T276 124T290 152Q296 165 301 184T310 223T318 264T325 301L357 493H458L375 0H287Z"  />
<glyph unicode="v" horiz-adv-x="375" d="M27 493H128L168 141L315 493H407L187 0H97L27 493Z"  />
<glyph unicode="w" horiz-adv-x="579" d="M35 493H133L154 146L276 493H371L391 146L520 493H605L405 0H321L297 360L170 0H85L35 493Z"  />
<glyph unicode="x" horiz-adv-x="375" d="M135 262L44 493H150L206 337L308 493H402L242 258L341 0H235L172 183L51 0H-45L135 262Z"  />
<glyph unicode="y" horiz-adv-x="392" d="M186 155L326 493H416L188 -15Q167 -62 149 -93T110 -142T65 -168T6 -176Q-9 -176 -18 -175T-37 -173L-28 -91Q-17 -93 -8 -93T13 -94Q32 -94 45 -89T71 -70T95 -33T122 27L38 493H142L186 155Z"  />
<glyph unicode="z" horiz-adv-x="375" d="M-4 66L255 418H62L74 493H384L373 426L117 80H325L311 0H-15L-4 66Z"  />
<glyph unicode="{" horiz-adv-x="307" d="M48 298Q62 300 72 304T91 320T105 354T118 414L136 522Q145 574 156 603T186 646T236 663T311 667L302 611Q280 611 268 607T248 591T236 561T226 512L207 395Q202 365 196 343T180 304T155 278T118 261Q123 259 132 255T149 244T164 224T170 193Q170 181 167 162T159 114L138 -11Q137 -15 136 -24T133 -43T130 -64T129 -79Q129 -96 140 -104T180 -112L171 -168Q144 -168 119 -167T76 -158T46 -136T35 -94Q35 -80 39 -52T48 0L69 125Q71 138 74 157T77 186Q77 213 64 221T37 231L48 298Z"  />
<glyph unicode="|" horiz-adv-x="500" d="M314 -250H214V750H314V-250Z"  />
<glyph unicode="}" horiz-adv-x="307" d="M263 226Q250 225 240 221T222 206T208 174T195 117L172 -17Q163 -72 151 -102T118 -147T69 -165T-5 -168L4 -112Q26 -114 39 -110T60 -93T72 -61T81 -13L104 119Q111 159 118 184T136 225T160 248T195 262Q174 272 158 285T142 332Q142 345 144 362T153 416L170 516Q172 530 175 549T178 579Q178 591 173 597T161 607T144 610T125 611L135 667Q162 667 187 666T230 658T260 635T271 590Q271 576 269 558T260 506L242 401Q241 396 240 388T238 370T236 353T235 338Q235 324 238 316T247 303T260 296T274 293L263 226Z"  />
<glyph unicode="~" horiz-adv-x="511" d="M26 289Q37 312 49 334T77 375T115 404T169 415Q174 415 181 415T201 411T232 402T278 385Q297 377 310 372T333 363T351 359T370 357Q404 357 421 376T451 417L509 383Q501 367 490 346T460 306T417 274T356 261Q333 261 298 274T214 307Q206 310 191 314T161 319Q145 319 133 313T111 296T94 274T82 252L26 289Z"  />
<glyph unicode="&#xA0;" horiz-adv-x="250" />
<glyph unicode="&#xA1;" horiz-adv-x="341" d="M251 374H138L158 493H271L251 374ZM168 -174H45L156 309H221L168 -174Z"  />
<glyph unicode="&#xA2;" horiz-adv-x="511" d="M439 258Q428 212 411 183T371 136T325 112T277 103L259 -5H201L220 107Q161 123 135 169T108 288Q108 319 115 365T143 455T201 533T298 572L314 669H372L355 568Q389 558 409 542T439 505T453 460T459 408L371 400Q370 438 364 456T342 487L290 181Q315 189 329 211T355 275L439 258ZM284 491Q255 479 239 450T214 386T203 322T200 278Q200 255 205 229T234 191L284 491Z"  />
<glyph unicode="&#xA3;" horiz-adv-x="511" d="M2 91H32Q110 91 147 142T182 312H103L115 385H182Q182 400 182 421T185 466T193 517T210 567Q227 604 250 626T296 658T341 672T374 675Q415 675 441 662T483 631T506 596T516 570L435 526Q433 533 429 544T418 565T400 582T372 589Q340 589 323 566T298 511T289 444T288 385H396L384 312H286Q283 278 279 249T265 192T236 140T184 91H287Q320 91 342 95T381 110T410 136T433 176L509 137Q491 86 465 58T408 18T345 3T285 0H-14L2 91Z"  />
<glyph unicode="&#xA4;" horiz-adv-x="511" d="M425 554L481 498L412 428Q419 417 427 397T436 344Q436 312 429 293T413 260L482 190L424 133L355 202Q338 192 321 185T271 178Q239 178 220 186T187 202L118 133L62 189L130 258Q125 268 116 289T106 343Q106 376 115 397T130 428L60 497L118 555L187 486Q203 495 221 502T271 509Q304 509 325 500T356 485L425 554ZM271 258Q306 258 331 282T356 344Q356 379 331 404T271 429Q235 429 211 404T186 343Q186 308 211 283T271 258Z"  />
<glyph unicode="&#xA5;" horiz-adv-x="511" d="M52 204L61 261H210L213 279L200 324H72L81 381H184L101 667H206L281 371L440 667H540L372 381H487L477 324H339L312 279L309 261H466L457 204H300L266 0H166L200 204H52Z"  />
<glyph unicode="&#xA6;" horiz-adv-x="500" d="M314 325H214V675H314V325ZM314 -175H214V175H314V-175Z"  />
<glyph unicode="&#xA7;" horiz-adv-x="511" d="M397 542Q395 549 391 560T377 582T351 601T309 609Q266 609 245 586T224 536Q224 517 231 503T253 477T287 454T335 428Q357 417 377 405T411 376T433 339T442 290Q442 244 419 205T357 142Q364 136 374 127T393 104T408 70T414 23Q414 -16 400 -51T360 -113T294 -154T205 -170Q169 -170 128 -159T59 -121Q35 -98 26 -73T12 -28L105 -9Q107 -17 112 -31T128 -58T159 -80T211 -90Q244 -90 264 -81T297 -57T313 -28T318 -1Q318 19 312 33T291 58T255 80T202 105Q143 132 108 165T72 254Q72 270 76 290T92 331T123 372T174 409Q167 416 159 425T144 446T132 474T127 512Q127 536 136 565T167 619T224 662T312 679Q362 679 393 665T442 632T468 593T479 561L397 542ZM292 175Q315 191 333 210T351 263Q351 285 342 301T307 332Q303 335 292 340T269 352T247 365T232 374Q223 368 211 360T189 342T171 317T163 285Q163 261 176 244T206 217Q210 214 215 211T230 204T254 192T292 175Z"  />
<glyph unicode="&#xA8;" horiz-adv-x="460" d="M217 569Q197 569 182 583T166 620Q166 640 180 655T218 671Q241 671 255 656T269 620Q269 601 256 585T217 569ZM366 569Q345 569 330 584T315 620Q315 640 329 655T366 671Q390 671 404 656T418 620Q418 601 405 585T366 569Z"  />
<glyph unicode="&#xA9;" horiz-adv-x="781" d="M479 386Q479 399 478 415T473 445T458 468T428 478Q400 478 382 456T354 402T339 338T334 283Q334 268 336 251T344 221T362 198T391 189Q409 189 422 198T443 220T456 248T465 277L541 259Q539 249 535 236T524 207T506 177T476 150Q453 134 429 130T388 126Q339 126 311 144T269 187T252 241T248 288Q248 331 258 376T290 458T348 518T435 541Q475 541 504 525T547 480Q558 457 559 435T560 396L479 386ZM404 -12Q332 -12 269 15T159 89T84 199T56 334Q56 405 83 467T158 577T268 651T404 679Q477 679 540 652T651 577T725 468T753 334Q753 262 726 199T651 89T540 15T404 -12ZM404 54Q461 54 511 76T599 136T658 225T680 334Q680 391 659 442T600 531T512 591T404 613Q347 613 297 591T210 531T151 442T129 334Q129 276 150 225T209 136T297 76T404 54Z"  />
<glyph unicode="&#xAA;" horiz-adv-x="511" d="M334 339Q334 350 334 358Q334 367 336 388Q332 382 326 372T308 353T281 337T243 330Q213 330 194 339T165 363T151 392T147 421Q147 457 164 482T210 522T277 543T360 547Q362 555 363 564T365 583Q365 595 360 602T347 614T331 619T317 621Q288 621 278 608T260 577L186 597Q192 610 200 624T224 651T262 672T320 680Q360 680 384 670T421 646T439 617T444 591Q444 590 444 578T439 545L417 410Q414 393 413 383T411 366Q411 361 411 356T414 339H334ZM234 429Q234 406 246 399T271 391Q293 391 308 403T332 433T345 467T351 496Q343 496 324 496T285 489T250 470T234 429Z"  />
<glyph unicode="&#xAB;" horiz-adv-x="392" d="M364 413L292 251L315 95H264L197 251L306 413H364ZM213 413L141 251L163 95H113L45 251L154 413H213Z"  />
<glyph unicode="&#xAC;" horiz-adv-x="511" d="M395 364H64V441H474V226H395V364Z"  />
<glyph unicode="&#xAD;" horiz-adv-x="255" d="M27 209L41 291H228L214 209H27Z"  />
<glyph unicode="&#xAE;" horiz-adv-x="511" d="M241 586H308Q320 586 332 584T356 576T374 559T381 528Q381 510 376 498T365 479T351 468T340 463L367 366H319L294 455H263L248 366H204L241 586ZM269 490H293Q297 490 304 490T318 495T330 506T335 527Q335 544 325 548T301 552H279L269 490ZM91 474Q91 515 106 551T149 615T213 658T292 674Q333 674 369 659T433 616T476 553T492 474Q492 432 476 396T433 332T370 290T292 274Q250 274 214 289T150 332T107 395T91 474ZM139 474Q139 441 151 412T185 362T233 329T292 317Q323 317 350 329T399 362T432 412T444 474Q444 507 432 535T400 585T351 618T291 630Q261 630 234 619T185 586T152 537T139 474Z"  />
<glyph unicode="&#xAF;" horiz-adv-x="460" d="M153 585L162 644H429L419 585H153Z"  />
<glyph unicode="&#xB0;" horiz-adv-x="511" d="M301 371Q267 371 238 383T188 417T155 467T143 525Q143 555 154 583T187 632T237 666T301 679Q334 679 362 667T413 635T447 586T460 525Q460 492 447 464T413 416T362 383T301 371ZM302 436Q318 436 333 442T361 461T380 489T387 525Q387 544 380 560T362 589T335 608T301 615Q283 615 268 608T241 589T223 560T216 525Q216 507 222 491T240 463T268 444T302 436Z"  />
<glyph unicode="&#xB1;" horiz-adv-x="511" d="M474 372V295H309V129H230V295H65V372H230V537H309V372H474ZM65 10V87H474V10H65Z"  />
<glyph unicode="&#xB2;" horiz-adv-x="324" d="M49 336Q78 356 115 383T184 440T239 503T262 567Q262 584 251 598T215 613Q198 613 187 605T169 585T157 558T149 532L78 550Q82 564 89 585T111 627T152 661T218 675Q250 675 273 666T312 641T334 607T342 570Q342 532 323 498T275 435T212 380T146 335H311L300 267H39L49 336Z"  />
<glyph unicode="&#xB3;" horiz-adv-x="324" d="M103 392Q106 383 110 370T122 346T143 327T176 319Q202 319 219 335T237 383Q237 404 231 416T214 434T191 443T166 445H137L148 504H179Q186 504 198 505T224 512T246 530T256 566Q256 588 243 601T205 615Q177 615 165 598T143 558L79 583Q82 592 89 607T112 638T151 664T212 675Q252 675 276 664T314 637T332 602T337 570Q337 540 327 522T302 494T272 479T246 472Q255 469 267 464T291 450T310 425T318 384Q318 362 311 340T286 300T243 271T178 259Q133 259 106 272T64 304T43 341T35 371L103 392Z"  />
<glyph unicode="&#xB4;" horiz-adv-x="460" d="M246 545L219 586L387 708L421 645L246 545Z"  />
<glyph unicode="&#xB5;" horiz-adv-x="477" d="M-15 -167L95 493H196L146 192Q140 158 139 143T138 122Q138 99 149 83T190 66Q226 66 249 88T286 144T309 220T324 301L356 493H457L375 0H286L301 85Q292 71 281 54T255 22T221 -3T178 -13Q160 -13 149 -7T132 8T124 27T121 44L86 -167H-15Z"  />
<glyph unicode="&#xB6;" horiz-adv-x="511" d="M446 -167H382V616H332V-167H268V280H246Q227 280 209 280T174 284T139 294T105 314Q86 327 74 346T53 386T42 429T38 471Q38 526 58 569T110 636Q126 648 145 654T184 663T220 666T246 667H446V-167Z"  />
<glyph unicode="&#xB7;" horiz-adv-x="238" d="M53 194L73 319H188L167 194H53Z"  />
<glyph unicode="&#xB8;" horiz-adv-x="460" d="M117 -127Q134 -135 149 -141T185 -148Q210 -148 219 -137T229 -115Q229 -104 224 -98T210 -87T192 -82T174 -81Q168 -81 162 -81Q156 -81 146 -83L192 0H237L214 -47Q239 -45 255 -50T280 -65T293 -87T297 -109Q297 -144 269 -169T193 -194Q178 -194 151 -189T95 -163L117 -127Z"  />
<glyph unicode="&#xB9;" horiz-adv-x="324" d="M80 329H152L192 567Q183 561 175 557T156 551T133 547T101 544L112 609Q151 613 176 625T226 672H287L230 329H304L293 267H70L80 329Z"  />
<glyph unicode="&#xBA;" horiz-adv-x="511" d="M278 330Q238 330 214 344T177 380T160 427T155 475Q155 511 163 547T191 613T241 661T318 680Q354 680 377 669T415 638T434 592T440 538Q440 521 436 486T415 417T366 356T278 330ZM285 390Q307 390 321 408T342 452T352 506T355 552Q355 559 355 571T350 593T338 612T313 620Q288 620 274 598T252 546T242 490T240 455Q240 445 241 434T247 413T261 397T285 390Z"  />
<glyph unicode="&#xBB;" horiz-adv-x="392" d="M29 95L101 257L78 413H129L196 257L87 95H29ZM180 95L252 257L230 413H280L348 257L239 95H180Z"  />
<glyph unicode="&#xBC;" horiz-adv-x="784" d="M65 329H138L177 567Q168 561 160 557T141 551T118 547T86 544L97 609Q136 613 161 625T211 672H273L215 329H289L279 267H55L65 329ZM141 0L601 667H675L215 0H141ZM599 89H428L438 146L648 401H726L684 150H738L728 89H674L659 0H584L599 89ZM610 149L645 326L511 149H610Z"  />
<glyph unicode="&#xBD;" horiz-adv-x="784" d="M60 329H132L172 567Q163 561 155 557T136 551T113 547T81 544L92 609Q131 613 156 625T206 672H267L210 329H284L273 267H50L60 329ZM132 0L593 667H667L206 0H132ZM466 69Q499 91 536 119T605 177T658 238T679 299Q679 315 668 330T632 345Q615 345 604 337T585 317T573 291T566 265L495 282Q499 296 506 317T528 359T569 393T635 407Q667 407 690 398T729 373T751 339T759 302Q759 264 740 230T691 167T627 112T563 68H728L716 0H455L466 69Z"  />
<glyph unicode="&#xBE;" horiz-adv-x="784" d="M98 392Q101 383 105 370T117 346T138 327T171 319Q197 319 214 335T232 383Q232 404 226 416T209 434T186 443T161 445H133L144 504H175Q182 504 194 505T220 512T242 530T252 566Q252 588 239 601T201 615Q173 615 161 598T139 558L75 583Q78 592 85 607T108 638T147 664T208 675Q248 675 272 664T310 637T328 602T333 570Q333 540 323 522T298 494T267 479T241 472Q250 469 262 464T286 450T305 425T313 384Q313 362 306 340T281 300T238 271T173 259Q128 259 101 272T59 304T38 341T30 371L98 392ZM151 0L612 667H686L226 0H151ZM614 89H443L452 146L663 402H741L699 150H753L743 89H689L674 0H599L614 89ZM625 149L659 326L526 149H625Z"  />
<glyph unicode="&#xBF;" horiz-adv-x="443" d="M328 493L308 375H195L214 493H328ZM292 312Q289 282 286 256T274 208T251 168T214 136Q185 118 167 107T137 86T118 69T105 50Q89 22 89 -11Q89 -59 112 -83T171 -108Q202 -108 223 -93T257 -57T277 -16T287 14L372 -17Q346 -105 293 -147T165 -190Q82 -190 34 -145T-14 -18Q-14 28 -1 61T33 118T79 159T131 191Q152 203 164 213T184 237T194 267T201 312H292Z"  />
<glyph unicode="&#xC0;" horiz-adv-x="494" d="M454 0H345L327 174H144L71 0H-31L261 667H375L454 0ZM297 554L179 260H318L297 554ZM155 788L186 862L372 762L353 714L155 788Z"  />
<glyph unicode="&#xC1;" horiz-adv-x="494" d="M454 0H345L327 174H144L71 0H-31L261 667H375L454 0ZM297 554L179 260H318L297 554ZM300 714L280 760L486 860L509 789L300 714Z"  />
<glyph unicode="&#xC2;" horiz-adv-x="494" d="M454 0H345L327 174H144L71 0H-31L261 667H375L454 0ZM297 554L179 260H318L297 554ZM138 734L335 849L502 734L412 729L326 773L233 729L138 734Z"  />
<glyph unicode="&#xC3;" horiz-adv-x="494" d="M454 0H345L327 174H144L71 0H-31L261 667H375L454 0ZM297 554L179 260H318L297 554ZM165 775Q172 784 181 794T202 813T231 828T268 834Q283 834 297 831T338 816Q360 806 369 805T384 803Q408 803 422 814T445 837L479 797Q455 765 431 751T382 737Q370 737 355 740T315 754Q292 764 282 767T261 770Q258 770 252 770T238 766T219 755T198 735L165 775Z"  />
<glyph unicode="&#xC4;" horiz-adv-x="494" d="M454 0H345L327 174H144L71 0H-31L261 667H375L454 0ZM297 554L179 260H318L297 554ZM248 734Q225 734 210 749T195 786Q195 806 209 822T249 839Q274 839 288 823T302 786Q302 768 288 751T248 734ZM396 734Q373 734 358 749T343 786Q343 807 358 823T396 839Q421 839 435 823T450 786Q450 767 436 751T396 734Z"  />
<glyph unicode="&#xC5;" horiz-adv-x="494" d="M454 0H345L327 174H144L71 0H-31L261 667H375L454 0ZM297 554L179 260H318L297 554ZM322 703Q302 703 285 711T256 731T237 761T230 796Q230 814 236 830T255 860T285 881T323 889Q364 889 390 861T416 796Q416 778 409 761T390 732T361 711T322 703ZM324 755Q338 755 350 766T363 796Q363 813 352 825T323 837Q306 837 295 825T283 796Q283 779 294 767T324 755Z"  />
<glyph unicode="&#xC6;" horiz-adv-x="750" d="M378 667H784L769 579H511L479 387H695L680 301H465L429 88H698L683 0H308L342 200H193L68 0H-40L378 667ZM418 598L242 289H357L418 598Z"  />
<glyph unicode="&#xC7;" horiz-adv-x="511" d="M235 -51Q246 -50 259 -50Q272 -50 287 -58Q304 -66 313 -82T322 -117Q322 -154 293 -181T212 -208Q207 -208 197 -208T172 -204T141 -194T107 -175L131 -135Q143 -142 161 -150T204 -158Q227 -158 239 -147T251 -123Q251 -106 236 -97T193 -88Q186 -88 179 -88T161 -90L206 -10Q187 -5 160 5T107 42T64 118T46 248Q46 293 52 342T73 440T109 531T164 608T238 660T334 680Q358 680 386 674T441 652T486 606T514 530Q518 505 518 487T518 448L411 434Q411 452 410 478T401 530T376 572T325 590Q292 590 267 570T224 519T194 448T175 371T165 299T162 245Q162 219 165 190T178 136T207 94T258 77Q288 77 309 92T345 130T369 178T383 225L484 198Q479 177 471 150T446 94T403 41T336 0Q308 -11 288 -12T254 -13L235 -51Z"  />
<glyph unicode="&#xC8;" horiz-adv-x="477" d="M136 667H509L494 579H227L195 387H420L406 301H181L145 88H425L411 0H24L136 667ZM192 788L223 862L409 762L390 714L192 788Z"  />
<glyph unicode="&#xC9;" horiz-adv-x="477" d="M136 667H509L494 579H227L195 387H420L406 301H181L145 88H425L411 0H24L136 667ZM264 714L244 760L450 860L473 789L264 714Z"  />
<glyph unicode="&#xCA;" horiz-adv-x="477" d="M136 667H509L494 579H227L195 387H420L406 301H181L145 88H425L411 0H24L136 667ZM144 734L341 849L508 734L418 729L332 773L239 729L144 734Z"  />
<glyph unicode="&#xCB;" horiz-adv-x="477" d="M136 667H509L494 579H227L195 387H420L406 301H181L145 88H425L411 0H24L136 667ZM258 734Q235 734 220 749T205 786Q205 806 219 822T259 839Q284 839 298 823T312 786Q312 768 298 751T258 734ZM406 734Q383 734 368 749T353 786Q353 807 368 823T406 839Q431 839 445 823T460 786Q460 767 446 751T406 734Z"  />
<glyph unicode="&#xCC;" horiz-adv-x="239" d="M136 667H242L130 0H24L136 667ZM28 788L59 862L245 762L226 714L28 788Z"  />
<glyph unicode="&#xCD;" horiz-adv-x="239" d="M136 667H242L130 0H24L136 667ZM168 714L148 760L354 860L377 789L168 714Z"  />
<glyph unicode="&#xCE;" horiz-adv-x="239" d="M136 667H242L130 0H24L136 667ZM13 734L210 849L377 734L287 729L201 773L108 729L13 734Z"  />
<glyph unicode="&#xCF;" horiz-adv-x="239" d="M136 667H242L130 0H24L136 667ZM130 734Q107 734 92 749T77 786Q77 806 91 822T131 839Q156 839 170 823T184 786Q184 768 170 751T130 734ZM278 734Q255 734 240 749T225 786Q225 807 240 823T278 839Q303 839 317 823T332 786Q332 767 318 751T278 734Z"  />
<glyph unicode="&#xD0;" horiz-adv-x="545" d="M23 301L36 387H89L136 667H270Q295 667 324 666T382 656T437 632T484 588T517 516T529 411Q529 370 522 319T499 217T455 121T386 49Q359 31 332 21T278 7T227 1T183 0H25L74 301H23ZM181 301L145 86H188Q217 86 252 92T323 131Q353 159 370 203T398 293T411 376T414 428Q414 482 401 512T365 558T317 577T265 581H228L195 387H319L305 301H181Z"  />
<glyph unicode="&#xD1;" horiz-adv-x="562" d="M136 667H249L396 194L471 667H565L454 0H366L203 528L119 0H24L136 667ZM206 775Q213 784 222 794T243 813T272 828T309 834Q324 834 338 831T379 816Q401 806 410 805T425 803Q449 803 463 814T486 837L520 797Q496 765 472 751T423 737Q411 737 396 740T356 754Q333 764 323 767T302 770Q299 770 293 770T279 766T260 755T239 735L206 775Z"  />
<glyph unicode="&#xD2;" horiz-adv-x="562" d="M543 410Q543 369 537 322T518 227T483 137T430 60T358 7T264 -13Q154 -13 102 52T49 252Q49 296 55 344T75 440T111 531T165 608T239 660T334 680Q345 680 367 678T416 666T468 636T512 579Q524 555 530 528T539 476T542 434T543 410ZM267 76Q295 76 322 92T372 155Q389 190 401 227T420 301T430 372T433 433Q433 481 425 509T401 557Q390 571 371 581T329 591Q295 591 269 571T225 520T193 449T173 370T162 295T159 236Q159 224 161 198T173 144T206 97T267 76ZM220 788L251 862L437 762L418 714L220 788Z"  />
<glyph unicode="&#xD3;" horiz-adv-x="562" d="M543 410Q543 369 537 322T518 227T483 137T430 60T358 7T264 -13Q154 -13 102 52T49 252Q49 296 55 344T75 440T111 531T165 608T239 660T334 680Q345 680 367 678T416 666T468 636T512 579Q524 555 530 528T539 476T542 434T543 410ZM267 76Q295 76 322 92T372 155Q389 190 401 227T420 301T430 372T433 433Q433 481 425 509T401 557Q390 571 371 581T329 591Q295 591 269 571T225 520T193 449T173 370T162 295T159 236Q159 224 161 198T173 144T206 97T267 76ZM297 714L277 760L483 860L506 789L297 714Z"  />
<glyph unicode="&#xD4;" horiz-adv-x="562" d="M543 410Q543 369 537 322T518 227T483 137T430 60T358 7T264 -13Q154 -13 102 52T49 252Q49 296 55 344T75 440T111 531T165 608T239 660T334 680Q345 680 367 678T416 666T468 636T512 579Q524 555 530 528T539 476T542 434T543 410ZM267 76Q295 76 322 92T372 155Q389 190 401 227T420 301T430 372T433 433Q433 481 425 509T401 557Q390 571 371 581T329 591Q295 591 269 571T225 520T193 449T173 370T162 295T159 236Q159 224 161 198T173 144T206 97T267 76ZM170 734L367 849L534 734L444 729L358 773L265 729L170 734Z"  />
<glyph unicode="&#xD5;" horiz-adv-x="562" d="M543 410Q543 369 537 322T518 227T483 137T430 60T358 7T264 -13Q154 -13 102 52T49 252Q49 296 55 344T75 440T111 531T165 608T239 660T334 680Q345 680 367 678T416 666T468 636T512 579Q524 555 530 528T539 476T542 434T543 410ZM267 76Q295 76 322 92T372 155Q389 190 401 227T420 301T430 372T433 433Q433 481 425 509T401 557Q390 571 371 581T329 591Q295 591 269 571T225 520T193 449T173 370T162 295T159 236Q159 224 161 198T173 144T206 97T267 76ZM206 775Q213 784 222 794T243 813T272 828T309 834Q324 834 338 831T379 816Q401 806 410 805T425 803Q449 803 463 814T486 837L520 797Q496 765 472 751T423 737Q411 737 396 740T356 754Q333 764 323 767T302 770Q299 770 293 770T279 766T260 755T239 735L206 775Z"  />
<glyph unicode="&#xD6;" horiz-adv-x="562" d="M543 410Q543 369 537 322T518 227T483 137T430 60T358 7T264 -13Q154 -13 102 52T49 252Q49 296 55 344T75 440T111 531T165 608T239 660T334 680Q345 680 367 678T416 666T468 636T512 579Q524 555 530 528T539 476T542 434T543 410ZM267 76Q295 76 322 92T372 155Q389 190 401 227T420 301T430 372T433 433Q433 481 425 509T401 557Q390 571 371 581T329 591Q295 591 269 571T225 520T193 449T173 370T162 295T159 236Q159 224 161 198T173 144T206 97T267 76ZM288 734Q265 734 250 749T235 786Q235 806 249 822T289 839Q314 839 328 823T342 786Q342 768 328 751T288 734ZM436 734Q413 734 398 749T383 786Q383 807 398 823T436 839Q461 839 475 823T490 786Q490 767 476 751T436 734Z"  />
<glyph unicode="&#xD7;" horiz-adv-x="511" d="M396 515L452 460L325 333L452 207L397 151L270 278L143 151L87 207L214 333L87 460L142 515L269 388L396 515Z"  />
<glyph unicode="&#xD8;" horiz-adv-x="562" d="M68 -20H-7L76 95Q68 112 63 133T54 176T50 219T48 258Q48 298 54 344T74 438T109 528T163 606T237 660T333 680Q361 680 383 675T422 663T450 648T469 635L511 694H588L508 584Q529 537 535 492T541 411Q541 372 536 326T517 232T483 141T431 62T358 8T261 -13Q227 -13 202 -7T159 8T130 26T112 41L68 -20ZM407 559Q396 573 384 581T359 592T338 596T326 597Q293 597 267 578T222 529T189 461T167 384T156 309T152 247Q152 230 152 218T155 195L407 559ZM176 117Q188 99 202 90T228 76T251 71T267 70Q303 70 330 91T376 150Q398 195 410 241T429 325T436 391T438 427Q438 450 437 464T433 490L176 117Z"  />
<glyph unicode="&#xD9;" horiz-adv-x="545" d="M235 667L170 281Q169 274 167 261T163 231T159 199T157 171Q157 152 162 135T178 105T206 85T248 77Q284 77 307 87T346 121T371 182T390 274L456 667H555L486 254Q476 198 464 152T429 70Q410 41 384 25T330 0T280 -11T243 -13Q206 -13 171 -6T107 25Q76 49 63 85T50 155Q50 171 51 189T55 224T60 254T63 276L129 667H235ZM184 788L215 862L401 762L382 714L184 788Z"  />
<glyph unicode="&#xDA;" horiz-adv-x="545" d="M235 667L170 281Q169 274 167 261T163 231T159 199T157 171Q157 152 162 135T178 105T206 85T248 77Q284 77 307 87T346 121T371 182T390 274L456 667H555L486 254Q476 198 464 152T429 70Q410 41 384 25T330 0T280 -11T243 -13Q206 -13 171 -6T107 25Q76 49 63 85T50 155Q50 171 51 189T55 224T60 254T63 276L129 667H235ZM320 714L300 760L506 860L529 789L320 714Z"  />
<glyph unicode="&#xDB;" horiz-adv-x="545" d="M235 667L170 281Q169 274 167 261T163 231T159 199T157 171Q157 152 162 135T178 105T206 85T248 77Q284 77 307 87T346 121T371 182T390 274L456 667H555L486 254Q476 198 464 152T429 70Q410 41 384 25T330 0T280 -11T243 -13Q206 -13 171 -6T107 25Q76 49 63 85T50 155Q50 171 51 189T55 224T60 254T63 276L129 667H235ZM164 734L361 849L528 734L438 729L352 773L259 729L164 734Z"  />
<glyph unicode="&#xDC;" horiz-adv-x="545" d="M235 667L170 281Q169 274 167 261T163 231T159 199T157 171Q157 152 162 135T178 105T206 85T248 77Q284 77 307 87T346 121T371 182T390 274L456 667H555L486 254Q476 198 464 152T429 70Q410 41 384 25T330 0T280 -11T243 -13Q206 -13 171 -6T107 25Q76 49 63 85T50 155Q50 171 51 189T55 224T60 254T63 276L129 667H235ZM277 734Q254 734 239 749T224 786Q224 806 238 822T278 839Q303 839 317 823T331 786Q331 768 317 751T277 734ZM425 734Q402 734 387 749T372 786Q372 807 387 823T425 839Q450 839 464 823T479 786Q479 767 465 751T425 734Z"  />
<glyph unicode="&#xDD;" horiz-adv-x="426" d="M170 280L42 667H154L241 383L411 667H516L276 278L229 0H123L170 280ZM247 714L227 760L433 860L456 789L247 714Z"  />
<glyph unicode="&#xDE;" horiz-adv-x="494" d="M136 667H242L222 552H276Q325 552 362 546T429 520Q464 497 479 458T494 376Q494 352 490 326T476 275T452 229T419 193Q395 175 370 166T323 152T283 147T254 146H155L130 0H24L136 667ZM169 233H238Q257 233 281 235T328 250Q345 260 356 276T373 309T381 343T383 371Q383 402 374 420T347 449T306 461T255 464H208L169 233Z"  />
<glyph unicode="&#xDF;" horiz-adv-x="494" d="M81 374H29L43 457H95Q102 496 115 541T161 629Q188 664 233 685T327 707Q359 707 387 698T436 672T469 631T481 575Q481 560 475 534T449 482T394 437T301 414Q297 406 297 402Q297 391 310 383T355 356Q371 347 391 334T430 302T460 256T472 193Q472 159 460 123T424 56T361 7T271 -13Q225 -13 199 -2T162 15L194 82Q211 74 228 68T270 61Q298 61 317 70T349 95T367 130T373 169Q373 178 372 189T366 213T351 239T323 264Q289 288 268 303T236 330T221 355T217 387Q217 395 220 416T240 465Q318 469 351 496T384 562Q384 589 368 610T316 632Q283 632 262 615T228 574T209 522T198 473L112 -41H12L81 374Z"  />
<glyph unicode="&#xE0;" horiz-adv-x="460" d="M276 0Q274 19 274 32T279 68Q270 55 260 41T234 14T196 -5T142 -13Q100 -13 74 1T35 35T17 78T12 118Q12 168 30 201T78 256T142 287T212 302T274 306Q303 306 318 305Q322 320 324 336T327 367Q327 388 319 401T299 422T274 432T250 435Q226 435 211 428T185 409T168 384T156 358L67 383Q72 398 82 419T113 459T167 492T253 506Q306 506 339 492T390 458T415 416T422 377Q422 371 421 352T415 308L381 101Q375 69 374 54T372 28Q372 22 372 16Q372 11 374 0H276ZM308 243Q282 245 249 243T186 229T137 193T117 128Q117 90 135 76T174 62Q211 62 235 83T274 133T296 193T308 243ZM164 643L206 708L354 588L328 544L164 643Z"  />
<glyph unicode="&#xE1;" horiz-adv-x="460" d="M276 0Q274 19 274 32T279 68Q270 55 260 41T234 14T196 -5T142 -13Q100 -13 74 1T35 35T17 78T12 118Q12 168 30 201T78 256T142 287T212 302T274 306Q303 306 318 305Q322 320 324 336T327 367Q327 388 319 401T299 422T274 432T250 435Q226 435 211 428T185 409T168 384T156 358L67 383Q72 398 82 419T113 459T167 492T253 506Q306 506 339 492T390 458T415 416T422 377Q422 371 421 352T415 308L381 101Q375 69 374 54T372 28Q372 22 372 16Q372 11 374 0H276ZM308 243Q282 245 249 243T186 229T137 193T117 128Q117 90 135 76T174 62Q211 62 235 83T274 133T296 193T308 243ZM246 545L219 586L387 708L421 645L246 545Z"  />
<glyph unicode="&#xE2;" horiz-adv-x="460" d="M276 0Q274 19 274 32T279 68Q270 55 260 41T234 14T196 -5T142 -13Q100 -13 74 1T35 35T17 78T12 118Q12 168 30 201T78 256T142 287T212 302T274 306Q303 306 318 305Q322 320 324 336T327 367Q327 388 319 401T299 422T274 432T250 435Q226 435 211 428T185 409T168 384T156 358L67 383Q72 398 82 419T113 459T167 492T253 506Q306 506 339 492T390 458T415 416T422 377Q422 371 421 352T415 308L381 101Q375 69 374 54T372 28Q372 22 372 16Q372 11 374 0H276ZM308 243Q282 245 249 243T186 229T137 193T117 128Q117 90 135 76T174 62Q211 62 235 83T274 133T296 193T308 243ZM127 562L294 692L428 563L354 556L286 614L205 555L127 562Z"  />
<glyph unicode="&#xE3;" horiz-adv-x="460" d="M276 0Q274 19 274 32T279 68Q270 55 260 41T234 14T196 -5T142 -13Q100 -13 74 1T35 35T17 78T12 118Q12 168 30 201T78 256T142 287T212 302T274 306Q303 306 318 305Q322 320 324 336T327 367Q327 388 319 401T299 422T274 432T250 435Q226 435 211 428T185 409T168 384T156 358L67 383Q72 398 82 419T113 459T167 492T253 506Q306 506 339 492T390 458T415 416T422 377Q422 371 421 352T415 308L381 101Q375 69 374 54T372 28Q372 22 372 16Q372 11 374 0H276ZM308 243Q282 245 249 243T186 229T137 193T117 128Q117 90 135 76T174 62Q211 62 235 83T274 133T296 193T308 243ZM143 613Q149 622 157 632T175 651T200 666T233 672Q246 672 260 668T300 650Q321 639 329 637T345 635Q362 635 372 644T397 671L428 633Q407 601 385 588T343 574Q330 574 316 578T279 594Q256 605 247 608T228 612Q221 612 207 607T173 576L143 613Z"  />
<glyph unicode="&#xE4;" horiz-adv-x="460" d="M276 0Q274 19 274 32T279 68Q270 55 260 41T234 14T196 -5T142 -13Q100 -13 74 1T35 35T17 78T12 118Q12 168 30 201T78 256T142 287T212 302T274 306Q303 306 318 305Q322 320 324 336T327 367Q327 388 319 401T299 422T274 432T250 435Q226 435 211 428T185 409T168 384T156 358L67 383Q72 398 82 419T113 459T167 492T253 506Q306 506 339 492T390 458T415 416T422 377Q422 371 421 352T415 308L381 101Q375 69 374 54T372 28Q372 22 372 16Q372 11 374 0H276ZM308 243Q282 245 249 243T186 229T137 193T117 128Q117 90 135 76T174 62Q211 62 235 83T274 133T296 193T308 243ZM210 569Q190 569 175 583T159 620Q159 640 173 655T211 671Q234 671 248 656T262 620Q262 601 249 585T210 569ZM359 569Q338 569 323 584T308 620Q308 640 322 655T359 671Q383 671 397 656T411 620Q411 601 398 585T359 569Z"  />
<glyph unicode="&#xE5;" horiz-adv-x="460" d="M276 0Q274 19 274 32T279 68Q270 55 260 41T234 14T196 -5T142 -13Q100 -13 74 1T35 35T17 78T12 118Q12 168 30 201T78 256T142 287T212 302T274 306Q303 306 318 305Q322 320 324 336T327 367Q327 388 319 401T299 422T274 432T250 435Q226 435 211 428T185 409T168 384T156 358L67 383Q72 398 82 419T113 459T167 492T253 506Q306 506 339 492T390 458T415 416T422 377Q422 371 421 352T415 308L381 101Q375 69 374 54T372 28Q372 22 372 16Q372 11 374 0H276ZM308 243Q282 245 249 243T186 229T137 193T117 128Q117 90 135 76T174 62Q211 62 235 83T274 133T296 193T308 243ZM286 549Q248 549 223 575T197 638Q197 674 222 700T287 727Q306 727 322 720T351 701T369 672T376 638Q376 620 370 604T351 576T323 557T286 549ZM287 596Q302 596 315 608T328 638Q328 656 316 668T287 680Q270 680 258 668T245 638Q245 621 257 609T287 596Z"  />
<glyph unicode="&#xE6;" horiz-adv-x="716" d="M407 233Q405 222 404 213T403 186Q403 172 404 151T413 111T438 77T486 62Q524 62 546 87T585 156L666 130Q661 117 650 93T618 46T564 5T481 -13Q441 -13 415 -2T373 27T347 64T332 100Q327 90 315 71T282 34T229 1T152 -13Q113 -13 87 -2T44 28T20 71T12 120Q12 135 15 156T30 198T61 241T116 277Q170 300 222 303T317 305Q320 322 322 337T325 367Q325 397 306 416T250 435Q227 435 212 428T186 409T169 384T157 359L68 383Q73 397 83 418T113 458T167 492T254 506Q284 506 305 501T343 487T370 467T392 443Q398 450 408 461T435 482T474 499T527 506Q555 506 578 499T618 481T647 456T667 428Q681 404 687 376T694 299Q694 274 693 261T689 233H407ZM597 299Q598 307 598 314T599 330Q599 336 598 353T590 387T567 417T523 431Q497 431 477 418T445 384Q429 360 424 339T416 299H597ZM307 243Q274 245 241 241T180 225T135 189T118 129Q118 110 123 97T138 77T157 66T178 62Q215 62 238 83T276 133T297 193T307 243Z"  />
<glyph unicode="&#xE7;" horiz-adv-x="426" d="M391 156Q386 137 377 109T347 53T292 7T205 -12L187 -47Q212 -45 228 -50T253 -65T266 -87T270 -109Q270 -144 242 -169T166 -194Q146 -194 121 -189T69 -163L90 -127Q108 -136 123 -142T158 -148Q184 -148 193 -137T203 -114Q203 -80 148 -80Q141 -80 135 -80T120 -82L161 -8Q120 -1 95 21T56 73T38 135T33 194Q33 241 44 296T81 397T149 475T255 506Q289 506 318 495T369 462T402 406T412 327L319 319Q319 332 318 351T310 388T290 418T252 431Q217 431 195 403T160 334T142 252T137 181Q137 164 139 144T149 105T171 75T211 62Q246 62 267 89T303 174L391 156Z"  />
<glyph unicode="&#xE8;" horiz-adv-x="443" d="M138 233Q136 222 135 212T134 184Q134 175 135 155T144 114T169 78T217 62Q249 62 271 83T313 156L394 131Q385 106 372 81T336 34T283 0T209 -13Q161 -13 128 3T72 47T40 113T30 197Q30 248 43 302T83 402T153 477T256 506Q284 506 307 499T347 481T377 456T396 429Q404 412 413 383T422 299Q422 276 421 262T417 233H138ZM322 299Q324 310 324 317Q324 324 324 333Q324 338 323 354T315 387T294 417T252 431Q230 431 216 423T193 407Q179 395 171 380T158 349T150 321T146 299H322ZM160 643L202 708L350 588L324 544L160 643Z"  />
<glyph unicode="&#xE9;" horiz-adv-x="443" d="M138 233Q136 222 135 212T134 184Q134 175 135 155T144 114T169 78T217 62Q249 62 271 83T313 156L394 131Q385 106 372 81T336 34T283 0T209 -13Q161 -13 128 3T72 47T40 113T30 197Q30 248 43 302T83 402T153 477T256 506Q284 506 307 499T347 481T377 456T396 429Q404 412 413 383T422 299Q422 276 421 262T417 233H138ZM322 299Q324 310 324 317Q324 324 324 333Q324 338 323 354T315 387T294 417T252 431Q230 431 216 423T193 407Q179 395 171 380T158 349T150 321T146 299H322ZM241 545L214 586L382 708L416 645L241 545Z"  />
<glyph unicode="&#xEA;" horiz-adv-x="443" d="M138 233Q136 222 135 212T134 184Q134 175 135 155T144 114T169 78T217 62Q249 62 271 83T313 156L394 131Q385 106 372 81T336 34T283 0T209 -13Q161 -13 128 3T72 47T40 113T30 197Q30 248 43 302T83 402T153 477T256 506Q284 506 307 499T347 481T377 456T396 429Q404 412 413 383T422 299Q422 276 421 262T417 233H138ZM322 299Q324 310 324 317Q324 324 324 333Q324 338 323 354T315 387T294 417T252 431Q230 431 216 423T193 407Q179 395 171 380T158 349T150 321T146 299H322ZM120 562L287 692L421 563L347 556L279 614L198 555L120 562Z"  />
<glyph unicode="&#xEB;" horiz-adv-x="443" d="M138 233Q136 222 135 212T134 184Q134 175 135 155T144 114T169 78T217 62Q249 62 271 83T313 156L394 131Q385 106 372 81T336 34T283 0T209 -13Q161 -13 128 3T72 47T40 113T30 197Q30 248 43 302T83 402T153 477T256 506Q284 506 307 499T347 481T377 456T396 429Q404 412 413 383T422 299Q422 276 421 262T417 233H138ZM322 299Q324 310 324 317Q324 324 324 333Q324 338 323 354T315 387T294 417T252 431Q230 431 216 423T193 407Q179 395 171 380T158 349T150 321T146 299H322ZM205 569Q185 569 170 583T154 620Q154 640 168 655T206 671Q229 671 243 656T257 620Q257 601 244 585T205 569ZM354 569Q333 569 318 584T303 620Q303 640 317 655T354 671Q378 671 392 656T406 620Q406 601 393 585T354 569Z"  />
<glyph unicode="&#xEC;" horiz-adv-x="221" d="M101 493H201L119 0H19L101 493ZM26 643L68 708L216 588L190 544L26 643Z"  />
<glyph unicode="&#xED;" horiz-adv-x="221" d="M101 493H201L119 0H19L101 493ZM138 545L111 586L279 708L313 645L138 545Z"  />
<glyph unicode="&#xEE;" horiz-adv-x="221" d="M101 493H201L119 0H19L101 493ZM8 562L175 692L309 563L235 556L167 614L86 555L8 562Z"  />
<glyph unicode="&#xEF;" horiz-adv-x="221" d="M101 493H201L119 0H19L101 493ZM89 569Q69 569 54 583T38 620Q38 640 52 655T90 671Q113 671 127 656T141 620Q141 601 128 585T89 569ZM238 569Q217 569 202 584T187 620Q187 640 201 655T238 671Q262 671 276 656T290 620Q290 601 277 585T238 569Z"  />
<glyph unicode="&#xF0;" horiz-adv-x="460" d="M206 62Q226 62 240 70T264 90T279 112T286 127Q297 154 304 183T314 239T319 288T321 323Q321 334 320 352T313 388T293 418T254 431Q226 431 207 413T174 366T153 304T141 241T136 190T135 165Q135 155 136 138T145 104T166 75T206 62ZM360 596Q390 523 407 449T425 301Q425 247 414 191T376 90T308 16T203 -13Q152 -13 119 4T66 50T38 116T30 196Q30 272 48 330T97 427T165 486T242 506Q249 506 268 504T308 487Q303 508 297 528T282 568L162 524L138 589L252 631Q247 642 243 651T234 670L312 699Q317 689 321 680T331 660L458 706L481 641L360 596Z"  />
<glyph unicode="&#xF1;" horiz-adv-x="477" d="M101 493H189L174 401Q181 416 190 434T216 468T258 495T320 506Q358 506 381 494T417 465T434 429T439 393Q439 386 438 360T428 285L380 0H280L327 281Q328 285 329 295T332 319T335 344T337 364Q337 399 320 413T279 427Q250 427 230 411T196 365T172 297T155 213L119 0H19L101 493ZM149 613Q155 622 163 632T181 651T206 666T239 672Q252 672 266 668T306 650Q327 639 335 637T351 635Q368 635 378 644T403 671L434 633Q413 601 391 588T349 574Q336 574 322 578T285 594Q262 605 253 608T234 612Q227 612 213 607T179 576L149 613Z"  />
<glyph unicode="&#xF2;" horiz-adv-x="460" d="M427 304Q427 286 425 257T415 192T392 119T349 50Q332 30 313 18T273 -2T233 -11T199 -13Q191 -13 178 -12T149 -6T117 5T88 24Q53 56 42 103T30 196Q30 251 42 306T82 405T152 478T259 506Q312 506 345 487T396 438T420 373T427 304ZM135 165Q135 155 136 138T145 104T166 75T206 62Q235 62 255 81T286 127Q298 155 305 185T315 241T320 289T322 323Q322 334 321 352T314 388T293 418T254 431Q226 431 207 413T174 366T153 304T141 242T136 191T135 165ZM155 643L197 708L345 588L319 544L155 643Z"  />
<glyph unicode="&#xF3;" horiz-adv-x="460" d="M427 304Q427 286 425 257T415 192T392 119T349 50Q332 30 313 18T273 -2T233 -11T199 -13Q191 -13 178 -12T149 -6T117 5T88 24Q53 56 42 103T30 196Q30 251 42 306T82 405T152 478T259 506Q312 506 345 487T396 438T420 373T427 304ZM135 165Q135 155 136 138T145 104T166 75T206 62Q235 62 255 81T286 127Q298 155 305 185T315 241T320 289T322 323Q322 334 321 352T314 388T293 418T254 431Q226 431 207 413T174 366T153 304T141 242T136 191T135 165ZM240 545L213 586L381 708L415 645L240 545Z"  />
<glyph unicode="&#xF4;" horiz-adv-x="460" d="M427 304Q427 286 425 257T415 192T392 119T349 50Q332 30 313 18T273 -2T233 -11T199 -13Q191 -13 178 -12T149 -6T117 5T88 24Q53 56 42 103T30 196Q30 251 42 306T82 405T152 478T259 506Q312 506 345 487T396 438T420 373T427 304ZM135 165Q135 155 136 138T145 104T166 75T206 62Q235 62 255 81T286 127Q298 155 305 185T315 241T320 289T322 323Q322 334 321 352T314 388T293 418T254 431Q226 431 207 413T174 366T153 304T141 242T136 191T135 165ZM127 562L294 692L428 563L354 556L286 614L205 555L127 562Z"  />
<glyph unicode="&#xF5;" horiz-adv-x="460" d="M427 304Q427 286 425 257T415 192T392 119T349 50Q332 30 313 18T273 -2T233 -11T199 -13Q191 -13 178 -12T149 -6T117 5T88 24Q53 56 42 103T30 196Q30 251 42 306T82 405T152 478T259 506Q312 506 345 487T396 438T420 373T427 304ZM135 165Q135 155 136 138T145 104T166 75T206 62Q235 62 255 81T286 127Q298 155 305 185T315 241T320 289T322 323Q322 334 321 352T314 388T293 418T254 431Q226 431 207 413T174 366T153 304T141 242T136 191T135 165ZM141 613Q147 622 155 632T173 651T198 666T231 672Q244 672 258 668T298 650Q319 639 327 637T343 635Q360 635 370 644T395 671L426 633Q405 601 383 588T341 574Q328 574 314 578T277 594Q254 605 245 608T226 612Q219 612 205 607T171 576L141 613Z"  />
<glyph unicode="&#xF6;" horiz-adv-x="460" d="M427 304Q427 286 425 257T415 192T392 119T349 50Q332 30 313 18T273 -2T233 -11T199 -13Q191 -13 178 -12T149 -6T117 5T88 24Q53 56 42 103T30 196Q30 251 42 306T82 405T152 478T259 506Q312 506 345 487T396 438T420 373T427 304ZM135 165Q135 155 136 138T145 104T166 75T206 62Q235 62 255 81T286 127Q298 155 305 185T315 241T320 289T322 323Q322 334 321 352T314 388T293 418T254 431Q226 431 207 413T174 366T153 304T141 242T136 191T135 165ZM202 569Q182 569 167 583T151 620Q151 640 165 655T203 671Q226 671 240 656T254 620Q254 601 241 585T202 569ZM351 569Q330 569 315 584T300 620Q300 640 314 655T351 671Q375 671 389 656T403 620Q403 601 390 585T351 569Z"  />
<glyph unicode="&#xF7;" horiz-adv-x="511" d="M64 295V372H474V295H64ZM221 418V524H317V418H221ZM221 143V249H317V143H221Z"  />
<glyph unicode="&#xF8;" horiz-adv-x="460" d="M70 -38H9L65 49Q60 58 54 70T43 99T34 141T30 197Q30 251 42 306T82 405T152 478T259 506Q293 506 310 500T345 486L379 538H439L386 454Q392 446 399 434T412 405T422 362T427 303Q427 277 424 244T411 175T385 107T345 47T285 4T204 -13Q175 -13 152 -7T103 13L70 -38ZM149 80Q166 62 183 59T207 56Q236 56 258 75T292 123Q306 154 313 187T325 248T329 297T330 320Q330 340 329 350T325 371L149 80ZM300 421Q292 427 282 432T254 437Q227 437 207 422T173 383T150 330T137 272T130 219T128 181Q128 167 128 157T130 139L300 421Z"  />
<glyph unicode="&#xF9;" horiz-adv-x="477" d="M287 0L301 86Q292 70 280 53T251 21T209 -3T151 -13Q97 -13 66 14T34 93Q34 104 34 114T36 136T40 161T46 194L96 493H196L149 211Q145 189 142 164T138 122Q138 117 139 108T145 89T161 73T191 66Q212 66 228 74T256 96T276 124T290 152Q296 165 301 184T310 223T318 264T325 301L357 493H458L375 0H287ZM146 643L188 708L336 588L310 544L146 643Z"  />
<glyph unicode="&#xFA;" horiz-adv-x="477" d="M287 0L301 86Q292 70 280 53T251 21T209 -3T151 -13Q97 -13 66 14T34 93Q34 104 34 114T36 136T40 161T46 194L96 493H196L149 211Q145 189 142 164T138 122Q138 117 139 108T145 89T161 73T191 66Q212 66 228 74T256 96T276 124T290 152Q296 165 301 184T310 223T318 264T325 301L357 493H458L375 0H287ZM264 545L237 586L405 708L439 645L264 545Z"  />
<glyph unicode="&#xFB;" horiz-adv-x="477" d="M287 0L301 86Q292 70 280 53T251 21T209 -3T151 -13Q97 -13 66 14T34 93Q34 104 34 114T36 136T40 161T46 194L96 493H196L149 211Q145 189 142 164T138 122Q138 117 139 108T145 89T161 73T191 66Q212 66 228 74T256 96T276 124T290 152Q296 165 301 184T310 223T318 264T325 301L357 493H458L375 0H287ZM136 562L303 692L437 563L363 556L295 614L214 555L136 562Z"  />
<glyph unicode="&#xFC;" horiz-adv-x="477" d="M287 0L301 86Q292 70 280 53T251 21T209 -3T151 -13Q97 -13 66 14T34 93Q34 104 34 114T36 136T40 161T46 194L96 493H196L149 211Q145 189 142 164T138 122Q138 117 139 108T145 89T161 73T191 66Q212 66 228 74T256 96T276 124T290 152Q296 165 301 184T310 223T318 264T325 301L357 493H458L375 0H287ZM217 569Q197 569 182 583T166 620Q166 640 180 655T218 671Q241 671 255 656T269 620Q269 601 256 585T217 569ZM366 569Q345 569 330 584T315 620Q315 640 329 655T366 671Q390 671 404 656T418 620Q418 601 405 585T366 569Z"  />
<glyph unicode="&#xFD;" horiz-adv-x="392" d="M186 155L326 493H416L188 -15Q167 -62 149 -93T110 -142T65 -168T6 -176Q-9 -176 -18 -175T-37 -173L-28 -91Q-17 -93 -8 -93T13 -94Q32 -94 45 -89T71 -70T95 -33T122 27L38 493H142L186 155ZM225 545L198 586L366 708L400 645L225 545Z"  />
<glyph unicode="&#xFE;" horiz-adv-x="477" d="M130 667H230L190 426Q205 452 222 468T255 492T287 503T313 506Q340 506 365 495T406 466Q430 437 438 399T446 322Q446 278 436 221T403 111T340 23T240 -13Q210 -13 190 -4T158 18T139 44T130 65L91 -168H-10L130 667ZM217 62Q246 62 266 81T301 129T323 192T335 256T340 309T341 336Q341 352 339 369T329 400T310 422T279 431Q257 431 239 417T207 379T182 326T164 267T154 209T150 162Q150 136 156 117T172 86T194 68T217 62Z"  />
<glyph unicode="&#xFF;" horiz-adv-x="392" d="M186 155L326 493H416L188 -15Q167 -62 149 -93T110 -142T65 -168T6 -176Q-9 -176 -18 -175T-37 -173L-28 -91Q-17 -93 -8 -93T13 -94Q32 -94 45 -89T71 -70T95 -33T122 27L38 493H142L186 155ZM171 569Q151 569 136 583T120 620Q120 640 134 655T172 671Q195 671 209 656T223 620Q223 601 210 585T171 569ZM320 569Q299 569 284 584T269 620Q269 640 283 655T320 671Q344 671 358 656T372 620Q372 601 359 585T320 569Z"  />
<glyph unicode="&#x131;" horiz-adv-x="221" d="M101 493H201L119 0H19L101 493Z"  />
<glyph unicode="&#x152;" horiz-adv-x="801" d="M347 0L360 78Q354 68 344 53T319 23T281 -2T228 -13Q202 -13 171 -3T116 30Q92 53 78 83T56 145T46 205T44 252Q44 318 59 393T108 532T193 638T319 680Q354 680 377 670T414 645T435 616T446 592L459 667H832L817 579H550L518 387H742L728 301H503L468 88H749L734 0H347ZM428 484Q424 497 418 515T400 550T370 579T323 591Q290 591 265 571T220 520T188 448T168 369T157 294T153 234Q153 209 158 176T181 115Q192 98 211 87T253 76Q281 76 301 89T337 123T363 165T381 205L428 484Z"  />
<glyph unicode="&#x153;" horiz-adv-x="733" d="M424 233Q422 222 421 211T419 181Q419 170 420 150T430 111T455 77T504 62Q542 62 563 86T603 156L684 131Q676 111 664 86T630 39T577 2T499 -13Q398 -13 356 68Q348 58 337 44T307 18T264 -4T206 -13Q174 -13 144 -3T94 26Q74 43 62 66T43 113T34 160T32 204Q32 254 43 307T81 405T151 477T260 506Q319 506 350 483T397 426Q403 434 414 447T444 474T487 496T546 506Q599 506 634 482T685 428Q698 405 705 377T712 301Q712 276 711 262T707 233H424ZM615 299Q616 307 616 314T617 329Q617 336 616 353T607 387T585 418T541 431Q520 431 505 423T481 407Q467 394 458 379T444 348T437 320T433 299H615ZM209 62Q230 62 244 69T269 87T285 109T294 126Q314 173 321 222T329 322Q329 334 328 352T320 388T299 418T257 431Q232 431 214 419T181 385T158 337T144 282T136 225T134 174Q134 166 135 148T143 110T165 77T209 62Z"  />
<glyph unicode="&#x160;" horiz-adv-x="511" d="M115 204Q121 183 129 161T153 120T191 89T249 77Q279 77 300 86T333 110T352 142T358 177Q358 201 351 218T331 248T297 272T251 295Q221 308 192 323T139 360T100 411T85 483Q85 516 96 551T132 614T194 661T284 680Q345 680 384 659T446 611T479 557T492 519L392 486Q389 496 383 513T364 548T332 577T283 590Q242 590 218 564T193 500Q193 479 199 464T220 435T258 410T316 381Q340 369 367 355T416 319T454 269T469 200Q469 187 467 167T456 122T432 74T392 31T330 -1T242 -13Q173 -13 131 9T64 63T30 126T16 177L115 204ZM229 840L314 796L407 840L502 834L306 718L140 834L229 840Z"  />
<glyph unicode="&#x161;" horiz-adv-x="392" d="M88 150Q97 108 120 85T183 62Q204 62 218 68T242 84T255 105T260 128Q260 157 239 173T175 209Q152 220 130 233T90 263T61 302T50 357Q50 379 59 405T87 454T138 491T215 506Q261 506 290 492T336 458T362 416T374 379L297 353Q291 368 285 382T269 407T246 424T214 431Q184 431 164 414T144 371Q144 357 149 346T166 326T194 307T235 286Q260 274 282 262T320 234T346 197T356 146Q356 119 347 91T318 40T264 2T180 -13Q123 -13 89 4T36 44T11 91T1 128L88 150ZM169 685L237 627L316 686L395 679L230 547L96 678L169 685Z"  />
<glyph unicode="&#x178;" horiz-adv-x="426" d="M170 280L42 667H154L241 383L411 667H516L276 278L229 0H123L170 280ZM218 734Q195 734 180 749T165 786Q165 806 179 822T219 839Q244 839 258 823T272 786Q272 768 258 751T218 734ZM366 734Q343 734 328 749T313 786Q313 807 328 823T366 839Q391 839 405 823T420 786Q420 767 406 751T366 734Z"  />
<glyph unicode="&#x17D;" horiz-adv-x="477" d="M8 83L364 581H98L113 667H507L494 592L135 88H431L417 0H-6L8 83ZM232 840L317 796L410 840L505 834L309 718L143 834L232 840Z"  />
<glyph unicode="&#x17E;" horiz-adv-x="375" d="M-4 66L255 418H62L74 493H384L373 426L117 80H325L311 0H-15L-4 66ZM171 685L239 627L318 686L397 679L232 547L98 678L171 685Z"  />
<glyph unicode="&#x192;" horiz-adv-x="511" d="M421 381H329L224 52Q209 5 194 -32T157 -95T102 -135T19 -149Q1 -149 -10 -148T-33 -145L-7 -62Q-1 -63 5 -63T19 -64Q42 -64 58 -58T87 -38T110 1T132 61L234 381H162L187 461H259L268 487Q280 524 293 558T328 619T382 662T462 678Q482 678 496 676T520 672L496 593Q489 594 482 594T464 595Q449 595 436 592T410 577T385 544T361 485L354 461H446L421 381Z"  />
<glyph unicode="&#x2C6;" horiz-adv-x="460" d="M131 562L298 692L432 563L358 556L290 614L209 555L131 562Z"  />
<glyph unicode="&#x2C7;" horiz-adv-x="460" d="M226 685L294 627L373 686L452 679L287 547L153 678L226 685Z"  />
<glyph unicode="&#x2DA;" horiz-adv-x="460" d="M294 549Q256 549 231 575T205 638Q205 674 230 700T295 727Q314 727 330 720T359 701T377 672T384 638Q384 620 378 604T359 576T331 557T294 549ZM295 596Q310 596 323 608T336 638Q336 656 324 668T295 680Q278 680 266 668T253 638Q253 621 265 609T295 596Z"  />
<glyph unicode="&#x2DC;" horiz-adv-x="460" d="M150 613Q156 622 164 632T182 651T207 666T240 672Q253 672 267 668T307 650Q328 639 336 637T352 635Q369 635 379 644T404 671L435 633Q414 601 392 588T350 574Q337 574 323 578T286 594Q263 605 254 608T235 612Q228 612 214 607T180 576L150 613Z"  />
<glyph unicode="&#x2013;" horiz-adv-x="426" d="M28 213L40 288H398L385 213H28Z"  />
<glyph unicode="&#x2014;" horiz-adv-x="647" d="M-3 213L9 288H650L638 213H-3Z"  />
<glyph unicode="&#x2018;" horiz-adv-x="204" d="M232 667L158 539H200L180 420H76L95 539L186 667H232Z"  />
<glyph unicode="&#x2019;" horiz-adv-x="204" d="M70 420L145 548H102L122 667H227L207 548L117 420H70Z"  />
<glyph unicode="&#x201A;" horiz-adv-x="204" d="M-22 -128L53 0H10L30 119H135L115 0L25 -128H-22Z"  />
<glyph unicode="&#x201C;" horiz-adv-x="341" d="M374 667L300 539H342L322 420H222L241 539L332 667H374ZM223 667L149 539H190L171 420H70L90 539L180 667H223Z"  />
<glyph unicode="&#x201D;" horiz-adv-x="341" d="M64 420L139 548H97L116 667H217L197 548L107 420H64ZM216 420L290 548H248L268 667H369L349 548L258 420H216Z"  />
<glyph unicode="&#x201E;" horiz-adv-x="341" d="M-25 -128L49 0H7L27 119H128L108 0L17 -128H-25ZM127 -128L201 0H159L179 119H279L260 0L169 -128H127Z"  />
<glyph unicode="&#x2020;" horiz-adv-x="511" d="M93 398L105 473H244L277 667H371L338 473H478L465 398H326L231 -168H137L232 398H93Z"  />
<glyph unicode="&#x2021;" horiz-adv-x="511" d="M93 398L105 473H244L277 667H371L339 473H478L465 398H326L278 112H417L405 37H266L231 -168H137L171 37H32L45 112H184L232 398H93Z"  />
<glyph unicode="&#x2022;" horiz-adv-x="121" d="M1 278L23 409H144L122 278H1Z"  />
<glyph unicode="&#x2026;" horiz-adv-x="715" d="M20 0L41 125H155L134 0H20ZM258 0L279 125H394L373 0H258ZM497 0L518 125H632L611 0H497Z"  />
<glyph unicode="&#x2030;" horiz-adv-x="988" d="M226 678Q259 678 281 667T318 637T339 592T345 537Q345 495 335 458T306 392T258 348T192 331Q151 331 127 346T91 383T76 428T73 469Q73 507 82 544T111 611T158 659T226 678ZM224 615Q198 615 184 593T162 544T153 492T151 462Q151 457 151 446T156 424T169 403T194 394Q220 394 234 414T256 461T265 511T267 541Q267 547 267 559T262 583T249 605T224 615ZM88 0L549 667H614L154 0H88ZM516 336Q552 336 575 323T612 290T630 245T635 196Q635 155 626 118T597 52T548 6T480 -11Q420 -11 392 25T363 126Q363 166 373 203T402 270T449 318T516 336ZM514 273Q496 273 484 262T464 234T451 198T444 161T442 132T441 118Q441 113 441 103T446 81T459 61T484 52Q509 52 523 72T545 117T555 166T557 198Q557 204 557 216T552 241T539 263T514 273ZM823 336Q858 336 881 324T917 291T936 246T941 196Q941 155 932 118T903 52T855 6T787 -11Q724 -11 697 27T670 126Q670 165 679 202T708 269T755 317T823 336ZM820 273Q802 273 790 262T770 234T758 197T751 160T749 131T748 118Q748 113 748 103T753 81T766 61T791 52Q816 52 830 73T852 120T861 169T863 198Q863 204 863 216T858 241T845 263T820 273Z"  />
<glyph unicode="&#x2039;" horiz-adv-x="222" d="M203 413L131 251L154 95H103L36 251L145 413H203Z"  />
<glyph unicode="&#x203A;" horiz-adv-x="222" d="M20 95L91 257L69 413H119L187 257L78 95H20Z"  />
<glyph unicode="&#x20AC;" horiz-adv-x="511" d="M414 472Q414 492 412 514T402 554T379 584T338 596Q307 596 285 580T248 540T224 488T210 435H401L380 374H199Q197 357 194 340T189 305H355L334 244H186Q185 236 185 229Q185 223 185 215Q185 192 188 167T200 121T228 85T275 71Q302 71 320 84T352 118T372 162T386 208L484 197Q473 154 456 116T412 50T350 5T264 -12Q206 -12 169 9T111 67T83 149T77 244H-14L7 305H80Q82 322 84 339T90 374H8L29 435H102Q113 483 131 527T179 605T248 659T345 679Q391 679 423 664T475 623T504 560T515 482L414 472Z"  />
<glyph unicode="&#x2122;" horiz-adv-x="716" d="M300 608H214V287H140V608H56V667H300V608ZM330 667H439L509 394L583 667H689V287H620V606L533 287H474L392 607V287H330V667Z"  />
<glyph unicode="&#xE300;" horiz-adv-x="460" d="M142 788L173 862L359 762L340 714L142 788Z"  />
<glyph unicode="&#xE301;" horiz-adv-x="460" d="M221 714L201 760L407 860L430 789L221 714Z"  />
<glyph unicode="&#xE302;" horiz-adv-x="460" d="M99 734L296 849L463 734L373 729L287 773L194 729L99 734Z"  />
<glyph unicode="&#xE303;" horiz-adv-x="460" d="M239 840L324 796L417 840L512 834L316 718L150 834L239 840Z"  />
<glyph unicode="&#xE304;" horiz-adv-x="460" d="M158 775Q165 784 174 794T195 813T224 828T261 834Q276 834 290 831T331 816Q353 806 362 805T377 803Q401 803 415 814T438 837L472 797Q448 765 424 751T375 737Q363 737 348 740T308 754Q285 764 275 767T254 770Q251 770 245 770T231 766T212 755T191 735L158 775Z"  />
<glyph unicode="&#xE305;" horiz-adv-x="460" d="M235 734Q212 734 197 749T182 786Q182 806 196 822T236 839Q261 839 275 823T289 786Q289 768 275 751T235 734ZM383 734Q360 734 345 749T330 786Q330 807 345 823T383 839Q408 839 422 823T437 786Q437 767 423 751T383 734Z"  />
<glyph unicode="&#xE308;" horiz-adv-x="460" d="M320 703Q300 703 283 711T254 731T235 761T228 796Q228 814 234 830T253 860T283 881T321 889Q362 889 388 861T414 796Q414 778 407 761T388 732T359 711T320 703ZM322 755Q336 755 348 766T361 796Q361 813 350 825T321 837Q304 837 293 825T281 796Q281 779 292 767T322 755Z"  />

</font>
</defs>
</svg>
