<?xml  version="1.0" encoding="UTF-8"?>
<!DOCTYPE svg PUBLIC "-//W3C//DTD SVG 1.0//EN" "http://www.w3.org/TR/2001/REC-SVG-20010904/DTD/svg10.dtd" >
<svg xmlns="http://www.w3.org/2000/svg" >
<metadata>
<version>1.0</version>
<id><![CDATA[ITC Franklin Gothic W01 Hv It]]></id>
<vendor>Monotype Imaging Inc.</vendor>
<credits>
<name>Fonts.com WebFonts</name>
<URL>http://webfonts.fonts.com</URL>
<role>Home of the Web fonts</role>
</credits>
<license>
<URL>http://webfonts.fonts.com/Legal</URL>
</license>
<copyright><![CDATA[Part of the digitally encoded machine readable outline data for producing the Typefaces provided is copyrighted ¨ 2004 - 2006 Linotype GmbH, www.linotype.com. All rights reserved. This software is the property of Linotype GmbH, and may not be reproduced, modified, disclosed or transferred without the express written approval of Linotype GmbH.  Copyright ¨ 1995 Adobe Systems Incorporated. All Rights Reserved.]]></copyright>
<trademark><![CDATA[ITC Franklin Gothic is a registered trademark of International Typeface Corporation.]]></trademark>
<licensee>
<name></name>
</licensee>
</metadata>
<defs >
<font horiz-adv-x="545" id="4d0943db-1dc2-4618-8b52-c08fc0e76611">
<font-face font-family="" panose-1="2 11 9 3 5 0 0 9 0 4" ascent="917" descent="-250" units-per-em="1000" alphabetic="0">
</font-face>
<missing-glyph horiz-adv-x="290" />

<glyph unicode="&#xA;" />
<glyph unicode="&#xD;" horiz-adv-x="0" />
<glyph unicode=" " horiz-adv-x="290" />
<glyph unicode="!" horiz-adv-x="316" d="M208 223H95L105 667H332L208 223ZM211 0H22L52 177H241L211 0Z"  />
<glyph unicode="&quot;" horiz-adv-x="468" d="M206 389H113L136 667H276L206 389ZM390 389H297L320 667H461L390 389Z"  />
<glyph unicode="#" horiz-adv-x="587" d="M527 199H430L383 0H272L318 199H240L193 0H90L136 199H27L51 303H161L178 377H70L94 480H202L246 667H349L305 480H384L427 667H539L495 480H591L566 377H471L454 303H551L527 199ZM360 377H281L264 303H343L360 377Z"  />
<glyph unicode="$" horiz-adv-x="587" d="M424 445Q421 455 416 468T400 491T370 509T319 517Q286 517 264 504T241 468Q241 443 263 434T330 417Q370 411 410 399T481 364T532 307T552 223Q552 187 542 158T514 105T475 64T430 34Q398 19 365 14T302 6L287 -89H179L197 16Q136 27 99 52T42 105T13 161T1 205L169 239Q173 221 179 206T197 178T229 159T285 152Q291 152 304 152T331 157T355 171T366 199Q366 212 360 221T342 236T310 246T266 256Q205 268 176 281T131 306Q100 329 82 366T64 447Q64 498 90 545T170 624Q209 646 242 650T304 657L317 738H425L409 646Q454 636 483 617T531 576T561 531T579 490L424 445Z"  />
<glyph unicode="%" horiz-adv-x="768" d="M728 186Q728 159 719 125T688 60T635 9T556 -12Q524 -12 498 0T454 33T425 81T415 141Q415 179 427 216T463 281T518 327T589 345Q617 345 642 335T687 305T717 255T728 186ZM526 122Q526 105 533 90T561 75Q569 75 579 79T599 104Q603 113 606 126T612 155T616 185T618 212Q618 216 618 224T614 239T604 253T585 259Q570 259 560 249T543 221Q540 212 537 199T532 173T528 146T526 122ZM382 525Q382 495 372 460T340 394T287 343T209 322Q143 322 107 366T71 480Q71 519 83 555T117 619T172 664T243 681Q273 681 298 670T342 639T371 590T382 525ZM180 456Q180 439 187 424T215 409Q223 409 233 413T253 438Q257 447 260 460T266 489T270 519T272 546Q272 550 272 558T268 573T258 587T239 593Q224 593 214 583T197 555Q194 546 191 533T186 507T182 480T180 456ZM217 0H123L583 667H676L217 0Z"  />
<glyph unicode="&amp;" horiz-adv-x="719" d="M657 -7Q644 -10 629 -13T593 -16Q541 -16 510 1T452 43Q443 35 428 25T391 6T339 -10T269 -17Q217 -17 171 -4T90 36T35 99T14 186Q14 237 35 275T82 335Q108 356 137 369T200 395Q189 413 181 427T167 455T159 482T156 513Q156 550 169 581T209 636T273 672T359 685Q406 685 443 673T507 638T548 587T563 525Q563 486 545 454T502 398Q481 379 461 369T423 350L488 259Q501 272 512 289T533 322T550 354T563 382L717 350Q712 338 700 313T668 259T626 200T576 151Q587 140 598 134T636 127Q642 127 652 127T680 129L657 -7ZM276 285Q256 277 244 267T226 245T218 224T216 206Q216 192 220 178T235 153T260 134T299 127Q306 127 326 130T370 151L276 285ZM323 519Q323 495 333 478T353 450Q376 457 389 467T408 488T415 507T417 519Q417 536 405 551T370 566Q365 566 358 565T342 558T329 544T323 519Z"  />
<glyph unicode="&apos;" horiz-adv-x="261" d="M201 389H109L131 667H271L201 389Z"  />
<glyph unicode="(" horiz-adv-x="335" d="M379 667Q334 616 297 561T233 443Q220 414 209 377T190 300T177 216T172 130Q172 55 189 -17T241 -156H132Q93 -90 71 -31T39 75T26 153T24 194Q24 207 26 238T40 313T72 408T132 511Q163 553 195 593T269 667H379Z"  />
<glyph unicode=")" horiz-adv-x="336" d="M-42 -156Q3 -105 40 -50T105 68Q117 97 128 134T147 211T160 295T165 380Q165 455 148 527T96 667H206Q223 638 245 594T288 477Q291 465 295 448T304 409T311 364T314 317Q314 305 312 274T299 200T267 105T206 0Q175 -43 142 -83T68 -156H-42Z"  />
<glyph unicode="*" horiz-adv-x="547" d="M349 248L295 387L199 273L114 356L228 449L93 506L148 606L273 525L284 674L400 655L360 510L512 545L528 433L379 423L456 299L349 248Z"  />
<glyph unicode="+" horiz-adv-x="587" d="M552 275H371V88H246V275H65V399H246V586H371V399H552V275Z"  />
<glyph unicode="&#x2c;" horiz-adv-x="283" d="M195 16L61 -171H-17L90 0H9L38 177H221L195 16Z"  />
<glyph unicode="-" horiz-adv-x="250" d="M-12 173L12 320H262L238 173H-12Z"  />
<glyph unicode="." horiz-adv-x="283" d="M192 0H9L38 177H221L192 0Z"  />
<glyph unicode="/" horiz-adv-x="424" d="M-13 -156H-108L374 667H467L-13 -156Z"  />
<glyph unicode="0" horiz-adv-x="587" d="M44 267Q44 341 62 415T118 548T211 645T341 683Q393 683 435 663T508 606T554 515T570 395Q570 376 569 358T565 321Q561 295 553 260T530 188T493 114T439 49T367 3T272 -15Q207 -15 164 11T94 78T56 169T44 267ZM394 453Q394 461 393 476T387 505T369 531T334 542Q293 542 274 501T241 384Q238 367 235 346T228 302T222 258T220 221Q220 213 221 198T227 166T245 138T280 126Q319 126 343 174T382 331Q383 335 385 350T389 383T392 421T394 453Z"  />
<glyph unicode="1" horiz-adv-x="587" d="M396 146H567L543 0H28L52 146H214L267 463Q258 458 247 453T221 444T185 438T132 435Q125 435 118 435Q112 435 101 437L124 577Q148 577 176 579T235 592T294 623T347 682H486L396 146Z"  />
<glyph unicode="2" horiz-adv-x="587" d="M499 0H-2L25 159Q31 162 52 174T103 205T168 247T238 296Q303 344 342 383T382 464Q382 494 363 509T318 525Q284 525 258 498T214 414L66 473Q73 493 89 528T137 597T216 656T336 681Q385 681 428 667T502 625T552 560T570 474Q570 414 547 370T482 289T382 222T255 159H525L499 0Z"  />
<glyph unicode="3" horiz-adv-x="587" d="M164 216Q172 184 188 166T222 140T253 131T271 129Q309 129 332 153T355 208Q355 232 344 245T317 265T285 272T258 273H193L216 410H280Q311 410 327 413T357 427Q369 436 377 450T385 481Q385 511 362 526T312 541Q274 541 250 520T214 464L63 513Q73 538 89 568T147 630Q192 664 235 674T315 684Q360 684 405 673T487 639T546 579T569 493Q569 484 567 463T552 419T515 374T443 341Q453 336 470 328T504 303T532 261T544 196Q544 161 530 124T484 55T402 3T281 -18Q265 -18 241 -16T189 -7T133 13T80 49Q47 80 32 114T7 179L164 216Z"  />
<glyph unicode="4" horiz-adv-x="587" d="M559 151H463L438 0H253L278 151H18L43 301L368 688H553L486 289H582L559 151ZM311 289L336 440Q338 453 341 471T346 497Q336 483 327 472T309 450L176 289H311Z"  />
<glyph unicode="5" horiz-adv-x="587" d="M554 502H263L235 383Q243 392 254 402T280 422T315 437T363 443Q408 443 444 426T505 381T544 316T558 241Q558 200 541 155T490 73T402 10T277 -15Q210 -15 163 5T84 54Q51 83 37 110T13 162L177 203Q193 166 218 152T270 138Q295 138 313 147T344 169T362 199T368 231Q368 246 363 260T347 285T321 303T285 310Q253 310 235 298T203 266L56 300L145 667H596L554 502Z"  />
<glyph unicode="6" horiz-adv-x="587" d="M431 472Q424 504 404 521T355 539Q335 539 320 531T295 512T277 487T266 461Q265 458 261 447T252 420T243 385T237 348Q245 361 260 377T306 408Q340 425 380 425Q409 425 440 415T498 382T542 323T560 235Q560 196 545 153T498 73T416 13T294 -11Q228 -11 181 11T104 71T60 159T46 265Q46 303 52 348T74 440T113 529T173 606T255 660T362 681Q397 681 424 675T471 660T507 640T533 619Q550 602 561 586T578 555T587 527T593 502L431 472ZM378 209Q378 238 368 254T344 278T320 287T306 289Q291 289 277 283T251 265T232 237T225 200Q225 181 232 167T249 144T273 129T299 124Q321 124 336 134T361 158T374 186T378 209Z"  />
<glyph unicode="7" horiz-adv-x="587" d="M582 535Q519 475 472 405T391 263T339 123T312 0H82Q102 92 138 173T219 319T309 432T396 505H70L113 667H604L582 535Z"  />
<glyph unicode="8" horiz-adv-x="587" d="M462 360Q482 347 499 334T530 302T550 261T558 205Q558 165 542 126T492 56T405 5T275 -15Q253 -15 224 -13T165 -2T106 22T55 62Q37 82 25 110T13 170Q13 181 15 196T24 227T43 261T75 296Q95 313 112 321T145 336Q137 343 126 353T104 380T86 419T79 471Q79 511 94 549T142 617T224 665T339 684Q404 684 450 669T525 629T567 574T580 513Q580 481 566 450T528 398Q511 383 494 375T462 360ZM360 414Q379 423 390 433T406 453T413 471T415 485Q415 517 391 533T336 549Q301 549 282 533T262 492Q262 478 268 468T282 452Q286 448 295 444T315 434T338 423T360 414ZM255 270Q233 263 219 252T198 230T188 207T185 188Q185 153 212 136T280 118Q305 118 322 124T349 139T364 159T369 182Q369 204 357 216T330 235L255 270Z"  />
<glyph unicode="9" horiz-adv-x="587" d="M182 191Q184 183 187 173T201 152Q213 140 228 134T258 128Q287 128 308 146T344 193T367 254T378 319Q367 304 351 287T300 256Q287 251 271 247T235 243Q200 243 168 256T110 294T69 354T53 434Q53 468 66 511T109 591T188 653T309 679Q383 679 433 655T514 590T558 500T571 399Q571 334 552 262T493 128T394 26T253 -15Q211 -15 167 -2T84 48Q53 78 42 106T26 156L182 191ZM389 468Q389 490 382 504T365 527T342 539T317 543Q296 543 281 536T255 516T240 488T235 457Q235 416 258 398T308 379Q339 379 364 402T389 468Z"  />
<glyph unicode=":" horiz-adv-x="283" d="M192 0H9L38 177H221L192 0ZM245 320H62L92 497H275L245 320Z"  />
<glyph unicode=";" horiz-adv-x="283" d="M195 16L61 -171H-17L90 0H9L38 177H221L195 16ZM245 320H62L92 497H275L245 320Z"  />
<glyph unicode="&lt;" horiz-adv-x="587" d="M521 479L233 334L521 189V53L88 277V392L521 616V479Z"  />
<glyph unicode="=" horiz-adv-x="587" d="M550 361H64V485H550V361ZM550 175H64V299H550V175Z"  />
<glyph unicode="&gt;" horiz-adv-x="587" d="M83 190L370 335L83 480V616L516 392V277L83 53V190Z"  />
<glyph unicode="?" horiz-adv-x="512" d="M300 0H117L146 170H328L300 0ZM163 212Q163 241 171 265T192 309T221 345T254 374Q291 405 314 429T337 489Q337 512 322 529T281 547Q257 547 243 535T220 507T207 475T202 448L49 481Q55 498 62 519T82 562T113 605T160 644Q179 656 213 669T300 682Q334 682 374 673T448 642T506 583T529 490Q529 447 515 416T481 363T439 325T399 300Q370 283 354 271T330 250T319 231T314 212H163Z"  />
<glyph unicode="@" horiz-adv-x="767" d="M542 281Q540 273 539 262T537 245Q537 228 559 228Q578 228 596 239T630 271T654 318T663 379Q663 427 644 468T592 540T513 588T415 606Q358 606 310 585T225 526T169 439T148 330Q148 249 185 186T289 88Q302 81 338 71T432 61Q462 61 486 64T533 72T576 86T623 104L651 24Q631 15 616 9T580 -3Q556 -10 516 -17T421 -24Q322 -24 252 8T137 91T71 204T50 326Q50 404 79 470T158 584T276 660T418 687Q490 687 551 663T657 598T727 501T752 382Q752 334 737 290T694 212T629 158T549 138Q523 138 498 147T460 180Q456 175 449 168T430 154T403 141T368 136Q339 136 315 148T272 183T244 237T233 307Q233 353 247 390T285 454T339 494T403 509Q432 509 448 500T479 480L485 501H577L542 281ZM466 345Q466 380 446 397T404 415Q372 415 352 385T331 308Q331 279 342 255T379 230Q395 230 411 239T439 264T458 301T466 345Z"  />
<glyph unicode="A" horiz-adv-x="630" d="M194 136L132 0H-33L276 667H485L588 0H392L373 136H194ZM361 274L334 467L247 274H361Z"  />
<glyph unicode="B" horiz-adv-x="646" d="M128 667H403Q433 667 455 666T494 661T525 654T552 643Q587 626 613 590T639 501Q639 484 635 462T615 416T572 372T497 340Q523 329 536 322T560 304Q581 285 593 256T606 195Q606 147 586 105T535 42Q502 18 465 9T380 0H17L128 667ZM279 412H355Q364 412 379 413T410 419T435 437T446 473Q446 485 440 496T423 515Q409 523 394 524T374 526H298L279 412ZM234 147H334Q360 147 372 151T392 162Q415 182 415 210Q415 220 412 231T401 252T377 267T339 273H255L234 147Z"  />
<glyph unicode="C" horiz-adv-x="633" d="M614 235Q604 203 587 163T529 78Q479 25 426 6T316 -14Q248 -14 197 10T111 76T59 173T42 290Q42 348 60 416T118 544T224 642T384 682Q432 682 478 668T561 622T621 542T646 423L458 409Q458 424 457 444T448 484T424 517T378 531Q357 531 342 523T316 504T298 480T287 456Q278 433 271 403T259 344T252 289T249 248Q249 240 250 223T258 189T282 158T329 145Q375 145 397 175T435 258L614 235Z"  />
<glyph unicode="D" horiz-adv-x="686" d="M128 667H350Q380 667 409 666T468 658T525 638T580 602Q631 557 651 497T672 368Q672 271 635 189T523 55Q494 35 466 24T405 8T338 1T260 0H16L128 667ZM240 149H285Q294 149 309 149T341 153T375 162T406 181Q437 210 454 262T472 375Q472 402 467 428T450 476T415 510T360 523H303L240 149Z"  />
<glyph unicode="E" horiz-adv-x="573" d="M508 0H17L128 667H607L582 521H297L280 416H519L495 271H255L236 153H534L508 0Z"  />
<glyph unicode="F" horiz-adv-x="534" d="M466 254H252L210 0H17L128 667H597L572 517H296L277 399H491L466 254Z"  />
<glyph unicode="G" horiz-adv-x="681" d="M651 365L590 0H493L487 74Q478 62 466 47T432 19T380 -4T303 -13Q239 -13 190 9T107 71T56 162T38 274Q38 343 58 415T121 546T230 644T387 682Q411 682 437 679T490 667T542 645T591 609Q627 574 642 538T668 467L485 438Q483 447 478 461T462 490T433 515T385 526Q344 526 316 498T270 407Q262 379 258 354T251 309T249 276T248 258Q248 249 249 230T259 192T286 157T340 142Q366 142 383 150T412 172T430 199T442 224H333L357 365H651Z"  />
<glyph unicode="H" horiz-adv-x="676" d="M255 268L210 0H17L128 667H321L280 421H454L495 667H688L577 0H383L428 268H255Z"  />
<glyph unicode="I" horiz-adv-x="305" d="M206 0H17L128 667H317L206 0Z"  />
<glyph unicode="J" horiz-adv-x="417" d="M362 226Q355 184 345 142T307 65T229 9T91 -13Q69 -13 52 -12T20 -9T-8 -5T-35 0L-9 154Q8 151 28 149T68 146Q75 146 86 147T108 152T131 164T149 185Q154 193 157 199T162 216T167 243T175 288L238 667H436L362 226Z"  />
<glyph unicode="K" horiz-adv-x="641" d="M602 0H406L331 275L229 162L202 0H17L128 667H313L293 542Q291 532 287 510T279 460T270 406T262 360Q270 377 276 389T300 424Q306 432 322 451T357 493T392 534T414 560L508 667H699L475 414L602 0Z"  />
<glyph unicode="L" horiz-adv-x="527" d="M472 0H17L128 667H330L245 160H499L472 0Z"  />
<glyph unicode="M" horiz-adv-x="849" d="M750 0H563L622 355Q625 376 627 388T633 415T641 449T654 504Q656 510 658 523T662 543Q660 538 656 526T646 500T637 474T630 457Q625 446 622 439T616 424T610 408T601 388L429 0H309L263 388Q262 392 261 404T259 431T256 457T255 472Q254 491 254 502T253 522T252 536T250 551Q245 503 242 469T235 409T228 361T220 313L167 0H17L128 667H396L431 372Q432 369 433 361T435 345T438 330T439 320Q445 339 449 349T459 372L591 667H861L750 0Z"  />
<glyph unicode="N" horiz-adv-x="681" d="M582 0H434L306 256Q297 274 287 295T268 338T252 381T240 422Q242 410 242 390T234 327L179 0H17L128 667H308L381 513Q394 484 409 452T437 389T462 328T480 275Q479 283 479 290T478 305Q478 315 479 329T483 359T487 388T492 414L534 667H693L582 0Z"  />
<glyph unicode="O" horiz-adv-x="687" d="M458 335Q458 337 460 347T464 371T467 399T469 425Q469 437 467 455T455 489T429 517T383 529Q350 529 328 510T289 455Q278 432 271 400T258 337T251 279T248 241Q248 232 249 215T259 181T284 152T333 139Q363 139 383 152T417 191T440 253T458 335ZM677 388Q677 307 653 234T584 105T475 17T331 -16Q274 -16 222 2T129 58T64 152T39 283Q39 357 61 429T128 557T237 649T390 684Q452 684 504 663T595 604T655 511T677 388Z"  />
<glyph unicode="P" horiz-adv-x="599" d="M210 0H17L128 667H348Q381 667 405 666T450 662T488 653T525 635Q570 608 593 565T617 470Q617 438 607 399T569 325T497 267T381 244H251L210 0ZM275 387H321Q336 387 354 389T388 398T415 420T426 459Q426 483 415 496T388 515T359 522T338 523H298L275 387Z"  />
<glyph unicode="Q" horiz-adv-x="695" d="M611 -143Q594 -145 579 -147T544 -149Q487 -149 455 -135T405 -100T383 -54T374 -7Q368 -8 363 -8T351 -10Q346 -10 340 -10T325 -11Q248 -11 195 16T107 87T57 184T41 290Q41 329 49 373T75 460T120 543T185 613T272 661T382 679Q445 679 498 659T591 599T651 504T673 376Q673 369 672 347T665 293T647 224T612 150T556 80T472 24Q474 19 477 13T489 2T510 -7T547 -11Q551 -11 561 -11T581 -10T601 -8T615 -7L611 -143ZM460 327Q465 365 466 390T468 420Q468 430 466 448T456 484T429 515T380 528Q342 528 322 507T288 452Q279 430 272 401T259 341T250 284T247 240Q247 230 249 213T259 178T284 149T334 136Q356 136 375 143T409 172T438 230T460 327Z"  />
<glyph unicode="R" horiz-adv-x="664" d="M584 0H387L328 253H249L206 0H16L128 667H419Q453 667 478 664T521 655T553 644T576 630Q615 602 633 560T651 473Q651 426 633 386T583 318Q563 301 545 293T511 279L584 0ZM272 392H347Q376 392 392 395T425 408Q439 417 447 432T455 465Q455 488 443 500T416 519T385 526T364 527H294L272 392Z"  />
<glyph unicode="S" horiz-adv-x="617" d="M452 469Q449 480 444 490T422 512Q402 526 383 529T351 533Q331 533 318 529T298 517T289 503T286 489Q286 472 302 461T347 439L461 399Q487 390 511 374T555 336T585 285T597 222Q597 178 580 137T526 63T434 10T303 -10Q279 -10 251 -8T194 2T135 22T78 55Q36 86 19 118T-9 176L183 214Q186 205 192 193T212 170T248 151T306 143Q352 143 368 159T384 192Q384 212 367 222T313 246L242 272Q208 285 183 297T140 322T109 351T87 385Q77 406 74 426T71 461Q71 477 74 499T88 546T117 593T165 636T237 666T339 678Q378 678 409 674T464 662T506 644T539 624Q583 592 599 563T624 513L452 469Z"  />
<glyph unicode="T" horiz-adv-x="501" d="M306 0H113L199 516H56L82 669H565L539 516H392L306 0Z"  />
<glyph unicode="U" horiz-adv-x="644" d="M594 257Q582 186 568 144T522 70Q498 45 469 30T409 5T351 -7T298 -10Q286 -10 264 -9T216 -2T163 13T112 40Q101 47 90 60T69 91T53 133T46 185Q46 195 47 214T53 257L121 667H324L256 257Q255 253 253 236T250 207Q250 189 258 177T278 156T305 145T334 141Q364 141 382 151T411 176T426 211T434 250L503 667H663L594 257Z"  />
<glyph unicode="V" horiz-adv-x="611" d="M382 0H188L59 667H263L314 360Q317 343 319 332T323 308T328 279T336 236Q337 239 340 248T347 266Q356 287 361 301T372 327T384 353T399 389L518 667H681L382 0Z"  />
<glyph unicode="W" horiz-adv-x="886" d="M671 0H496L466 400Q463 392 457 375T444 340T430 304T419 277L308 0H144L69 667H256L279 365Q280 359 281 346T283 317T286 287T288 268Q293 283 296 292T301 309T307 325T315 345L447 667H608L631 365Q632 351 633 343T634 328T635 312T637 291Q637 285 637 278T639 268Q646 289 650 301T658 325T666 348T679 379L792 667H946L671 0Z"  />
<glyph unicode="X" horiz-adv-x="606" d="M418 346L581 0H370L296 170Q292 179 290 185T285 195T280 205T274 218Q272 215 268 210T260 198T251 185T245 177L122 0H-58L202 356L54 667H266L326 532Q328 528 331 520T346 481Q349 485 356 495T371 515T385 535T395 548L481 667H660L418 346Z"  />
<glyph unicode="Y" horiz-adv-x="585" d="M396 289L348 0H149L199 298L42 667H253L320 489Q327 473 330 465T338 438Q342 444 347 452T358 468T366 482T371 489L490 667H672L396 289Z"  />
<glyph unicode="Z" horiz-adv-x="578" d="M520 0H-25L-2 137L345 522H79L104 667H615L594 540L336 258Q306 224 288 204T260 173T246 157T238 148H545L520 0Z"  />
<glyph unicode="[" horiz-adv-x="336" d="M224 -157H-8L130 667H362L351 600H239L124 -90H236L224 -157Z"  />
<glyph unicode="\" horiz-adv-x="424" d="M386 -156H299L95 667H180L386 -156Z"  />
<glyph unicode="]" horiz-adv-x="335" d="M114 667H345L208 -157H-24L-13 -90H99L214 600H103L114 667Z"  />
<glyph unicode="^" horiz-adv-x="587" d="M224 686H372L576 261H406L299 510L194 261H23L224 686Z"  />
<glyph unicode="_" horiz-adv-x="500" d="M500 -75V-125H0V-75H500Z"  />
<glyph unicode="`" horiz-adv-x="500" d="M369 567L155 651L195 743L397 630L369 567Z"  />
<glyph unicode="a" horiz-adv-x="594" d="M65 370Q73 386 87 409T131 454T209 491T331 507Q359 507 398 503T473 484T534 441T559 364Q559 353 556 328T547 271T535 204T524 137T515 80T511 44Q511 31 512 21T516 0H323Q321 8 321 15Q321 22 321 26Q321 33 321 45T325 82Q317 70 305 54T273 24T227 -1T162 -11Q130 -11 102 -2T52 26T18 71T5 131Q5 151 11 175T33 222T80 266T157 298Q173 302 185 304T217 309T269 314T359 323Q361 330 363 337T365 352Q365 366 353 379T308 392Q288 392 274 386T250 371T234 353T225 337L65 370ZM250 107Q260 107 279 113T315 141Q329 159 334 183T342 234Q321 232 298 228T254 215T221 191T207 148Q207 125 221 116T250 107Z"  />
<glyph unicode="b" horiz-adv-x="586" d="M272 432Q284 446 297 459T326 483T362 500T409 507Q449 507 478 492T527 451T556 388T566 307Q566 263 553 208T510 104T431 22T310 -11Q269 -11 241 -1T195 23T167 54T150 83L95 0H10L121 667H311L272 432ZM375 316Q375 329 373 342T365 366T349 382T323 389Q305 389 293 381T272 360T258 335T252 314Q249 296 246 274T238 230T232 193T229 173Q229 138 240 123T282 107Q309 107 324 123T352 174Q358 192 362 212T370 251T374 288T375 316Z"  />
<glyph unicode="c" horiz-adv-x="523" d="M494 155Q488 140 480 123T459 89T430 54T389 23Q327 -14 255 -14Q208 -14 167 1T93 47T43 120T24 218Q24 267 41 318T92 412T179 482T302 510Q338 510 376 499T446 465T498 405T521 315L353 295Q354 327 343 351T299 375Q284 375 273 368T253 351T240 327T230 301Q222 270 218 240T214 195Q214 190 215 179T221 155T237 133T269 123Q289 123 302 131T325 151T338 174T345 192L494 155Z"  />
<glyph unicode="d" horiz-adv-x="588" d="M495 0H320L332 75Q309 42 286 24T243 -3T207 -12T186 -14Q167 -14 139 -6T85 24T41 85T22 187Q22 241 37 297T83 400T157 477T260 507Q292 507 312 501T346 484T367 461T381 437L419 667H607L495 0ZM361 318Q364 341 359 354T344 374T326 383T312 385Q289 385 273 370T246 329Q240 314 235 292T225 248T219 207T217 178Q217 174 218 163T223 141T238 120T269 111Q288 111 300 119T320 137T332 159T338 179L361 318Z"  />
<glyph unicode="e" horiz-adv-x="584" d="M213 210Q212 205 211 196T210 180Q210 162 216 149T233 128T257 117T283 113Q305 113 319 120T344 136T359 156T368 174L534 147Q528 135 519 120T496 87T461 53T409 19Q390 9 356 -2T270 -14Q216 -14 171 2T93 48T42 121T23 219Q23 275 43 326T100 418T191 481T312 505Q372 505 418 487T495 437T542 362T558 266Q558 249 557 237T553 210H213ZM375 305Q376 310 376 316T377 328Q377 338 374 349T364 371T345 387T315 394Q310 394 298 392T272 381T246 354T227 305H375Z"  />
<glyph unicode="f" horiz-adv-x="387" d="M401 367H278L217 0H35L97 367H17L38 493H118Q126 542 136 576T175 639Q194 658 217 669T263 686T307 694T346 696Q376 696 410 692T474 679L462 561Q439 565 420 567T383 569Q357 569 342 564T318 550T306 526T300 493H422L401 367Z"  />
<glyph unicode="g" horiz-adv-x="555" d="M573 510Q559 512 550 512T529 513Q491 513 477 500T456 474Q468 466 481 457T506 434T524 401T531 357Q531 319 515 288T473 239Q461 230 447 222T413 208T366 199T301 196Q296 196 284 197T259 198T234 200T218 201Q199 201 188 190T177 166Q177 156 182 150T194 141T207 138T216 137L366 132Q399 131 427 122T477 96T510 54T522 -1Q522 -25 515 -46T494 -86T465 -118T430 -141Q417 -147 401 -153T361 -163T307 -171T233 -174Q167 -174 119 -168T35 -146Q6 -134 -13 -109T-32 -54Q-32 -32 -24 -17T-3 8T25 26T55 40Q40 51 24 68T8 119Q8 201 128 236Q122 240 111 247T88 268T68 300T60 346Q60 387 82 421T137 472Q174 492 219 499T307 506Q335 506 350 504T383 498Q387 517 393 541T415 586T459 621T534 636Q548 636 561 635T585 633L573 510ZM359 -34Q359 -25 356 -21T342 -13T313 -9T267 -7Q234 -6 215 -5T184 -3T165 -2T151 0Q141 -6 132 -13T123 -34Q123 -48 137 -55T172 -66T213 -70T246 -71Q280 -71 301 -69T336 -62T354 -50T359 -34ZM359 347Q360 358 359 369T351 390T334 405T306 411Q282 411 269 401T248 377T240 351T238 335Q238 308 255 297T293 285Q311 285 323 291T342 307T354 328T359 347Z"  />
<glyph unicode="h" horiz-adv-x="588" d="M270 433Q277 442 288 454T317 479T358 499T415 507Q435 507 460 501T510 478Q529 464 541 442T554 378Q554 359 552 340T547 311L495 0H308L357 291Q357 294 358 300T360 313T362 326T363 334Q363 353 350 363T315 374Q294 374 282 366T262 345T251 318T246 291L197 0H10L122 667H309L270 433Z"  />
<glyph unicode="i" horiz-adv-x="294" d="M291 537H100L124 682H315L291 537ZM201 0H10L92 493H284L201 0Z"  />
<glyph unicode="j" horiz-adv-x="295" d="M292 537H100L124 682H317L292 537ZM206 18Q201 -13 192 -47T159 -109T89 -156T-33 -175Q-56 -175 -71 -174T-110 -167L-96 -32Q-87 -34 -80 -35T-61 -36Q-41 -36 -22 -31T5 -10Q7 -6 8 -2T11 10T15 31T21 68L93 494H285L206 18Z"  />
<glyph unicode="k" horiz-adv-x="580" d="M528 416Q504 395 489 382T464 358T445 340T428 323L547 0H359L291 211L206 134L184 0H10L122 667H295L259 449Q254 423 252 407T247 376T241 344T234 298Q236 300 240 304T250 314T260 324T266 331Q274 339 284 349T296 361L441 494H614L528 416Z"  />
<glyph unicode="l" horiz-adv-x="290" d="M197 0H10L121 667H309L197 0Z"  />
<glyph unicode="m" horiz-adv-x="851" d="M260 493L248 416Q255 428 267 443T297 473T340 498T400 508Q434 508 457 497T493 472T514 442T524 417Q530 427 540 442T568 471T610 495T672 505Q738 505 777 469T816 369Q816 356 815 343T812 321L758 0H571L620 293Q621 300 622 310T623 327Q623 333 622 340T616 354T604 365T584 370Q565 370 554 361T535 339T525 310T519 283L472 0H290L339 292Q341 300 342 311T343 330Q343 345 338 353T325 366T312 371T304 372Q285 372 274 364T255 344T245 318T240 292L191 0H10L93 493H260Z"  />
<glyph unicode="n" horiz-adv-x="585" d="M264 493L251 413Q257 427 267 443T300 475Q329 495 360 501T412 508Q478 508 515 474T553 387Q553 379 552 366T548 337L492 0H305L354 296Q356 304 357 315T359 334Q359 348 351 361T315 375Q282 375 265 353T243 296L193 0H10L93 493H264Z"  />
<glyph unicode="o" horiz-adv-x="582" d="M557 283Q557 204 531 148T462 55T369 3T267 -14Q221 -14 178 0T100 42T45 113T24 215Q24 280 46 333T106 425T197 484T311 505Q374 505 420 486T496 435T542 364T557 283ZM217 182Q217 171 219 158T227 133T244 113T275 105Q289 105 304 112T332 146Q338 160 344 180T354 222T360 267T363 309Q363 318 362 331T354 357T337 377T306 386Q290 386 279 380T261 364T249 346T243 330Q238 316 233 296T225 255T219 215T217 182Z"  />
<glyph unicode="p" horiz-adv-x="587" d="M268 493L255 413Q265 429 276 445T303 475T341 497T394 506Q431 506 462 492T515 452T550 386T563 295Q563 249 550 196T508 96T435 20T330 -11Q300 -11 280 -4T246 13T223 35T207 58L171 -156H-16L92 493H268ZM250 315Q248 304 245 284T238 242T232 199T229 167Q229 158 231 148T239 128T255 114T280 108Q295 108 305 113T322 128T334 147T342 167Q346 180 351 199T359 239T365 278T368 310Q368 320 367 332T360 356T344 374T315 382Q298 382 287 376T269 359T258 337T250 315Z"  />
<glyph unicode="q" horiz-adv-x="583" d="M314 67Q303 52 290 37T251 8Q217 -12 176 -12Q143 -12 115 1T65 41T33 104T21 190Q21 245 38 301T88 402T170 476T285 505Q324 505 349 496T392 474T419 445T435 419L492 493H587Q570 454 563 421T550 356L464 -156H276L314 67ZM212 178Q212 168 213 156T220 132T235 113T262 105Q281 105 294 113T315 134T328 161T334 187Q338 209 342 232T349 275T354 311T356 334Q356 366 340 380T305 395Q289 395 278 388T258 371T246 351T239 335Q233 319 228 298T220 254T214 211T212 178Z"  />
<glyph unicode="r" horiz-adv-x="391" d="M257 493L237 375Q244 393 255 416T285 459T329 494T394 508Q399 508 403 508T417 506L395 330Q378 331 372 331Q366 331 361 331Q342 331 322 329T285 313T253 274T231 201L197 0H10L93 493H257Z"  />
<glyph unicode="s" horiz-adv-x="523" d="M357 347Q345 376 319 385T265 395Q242 395 228 388T213 366Q213 348 228 342T273 330Q309 322 332 317T370 308T396 298T418 287Q492 244 492 166Q492 145 483 115T448 56T373 9T245 -11Q192 -11 144 0T57 38Q20 63 8 89T-11 137L143 159Q146 152 151 143T167 126T197 112T247 106Q287 106 299 117T312 137Q312 144 309 148T296 157T267 165T215 177Q194 182 164 190T105 216T56 261T36 332Q36 363 48 394T87 450T157 490T263 506Q308 506 348 497T427 464Q467 441 481 419T501 379L357 347Z"  />
<glyph unicode="t" horiz-adv-x="361" d="M359 370H269L239 192Q238 184 237 174T235 159Q235 136 251 130T281 123Q295 123 306 125T327 129L306 0Q286 -4 263 -7T204 -11Q176 -11 157 -8T123 1T98 15T78 35Q67 48 59 67T50 120Q50 123 50 127Q50 132 51 139T54 159T59 192L89 370H21L41 493H122L156 628L315 642L290 493H379L359 370Z"  />
<glyph unicode="u" horiz-adv-x="585" d="M492 0H315L330 92Q322 78 310 60T278 26T231 -1T166 -13Q128 -13 102 -2T61 27T38 66T31 106Q31 114 32 125T35 149T38 171T41 185L93 493H282L235 211Q233 199 231 185T228 163Q228 160 228 154T232 141T242 131T262 126Q282 126 296 137T320 165T336 204T346 249L387 493H574L492 0Z"  />
<glyph unicode="v" horiz-adv-x="498" d="M283 0H135L10 493H202L258 224L389 493H527L283 0Z"  />
<glyph unicode="w" horiz-adv-x="725" d="M518 0H379L352 283L235 0H101L20 493H203L232 244L337 493H481L505 244L614 493H744L518 0Z"  />
<glyph unicode="x" horiz-adv-x="529" d="M373 265L501 0H297L220 163L106 0H-55L152 274L47 493H247L306 372L394 493H550L373 265Z"  />
<glyph unicode="y" horiz-adv-x="485" d="M294 -7Q276 -45 257 -76T212 -130T149 -164T59 -176Q33 -176 16 -174T-19 -168V-36Q1 -38 27 -40T74 -42Q106 -42 127 -35T149 -1Q149 7 147 17T143 31L25 493H221L263 295Q265 286 266 280T269 268T272 253T275 231Q276 234 279 242T287 258T294 274T298 285L396 493H529L294 -7Z"  />
<glyph unicode="z" horiz-adv-x="475" d="M417 0H-25L-6 111L239 373H54L75 493H499L483 397L225 123H437L417 0Z"  />
<glyph unicode="{" horiz-adv-x="360" d="M183 -20Q181 -35 180 -41T179 -54Q179 -75 198 -81T272 -85L260 -155Q257 -155 243 -155T212 -156Q196 -156 183 -156T169 -157Q95 -157 66 -134T36 -58Q36 -51 37 -43T40 -21L67 148Q69 153 69 162T70 179Q70 183 70 190T65 205T51 219T26 229L36 290Q47 292 59 296T82 312Q90 320 95 336T103 362L131 530Q138 573 153 599T191 641T243 661T306 667Q311 667 321 667Q332 667 345 667T371 666T397 665L385 597Q348 598 328 596T297 587T282 566T275 532L249 375Q244 345 236 325T217 293T194 272T169 255Q178 248 186 242T200 226T209 205T212 175Q212 157 209 135L183 -20Z"  />
<glyph unicode="|" horiz-adv-x="527" d="M334 -250H196V750H334V-250Z"  />
<glyph unicode="}" horiz-adv-x="360" d="M179 530Q181 545 182 551T183 564Q183 585 164 591T90 595L102 665Q105 665 119 665T149 666Q166 666 179 666T193 667Q262 667 294 646T326 568Q326 561 325 553T322 531L295 362Q292 344 292 330Q292 326 292 319T297 305T310 291T336 281L326 220Q315 218 304 214T280 198Q272 189 267 174T259 148L231 -20Q224 -63 209 -89T171 -131T119 -151T56 -157Q51 -157 40 -157Q30 -157 17 -157T-9 -156T-35 -155L-23 -87Q14 -88 34 -86T65 -77T80 -56T87 -22L114 135Q119 165 127 184T145 217T168 238T193 255Q175 268 163 283T150 334Q150 355 154 375L179 530Z"  />
<glyph unicode="~" horiz-adv-x="587" d="M60 282Q89 355 123 388T211 421Q215 421 222 421T241 418T270 410T315 394Q334 387 347 383T369 376T385 372T401 371Q432 371 447 386T473 422L546 379Q537 359 525 336T494 293T449 260T387 246Q373 246 350 252T285 274Q267 280 255 284T233 291T218 295T204 296Q173 296 159 278T131 235L60 282Z"  />
<glyph unicode="&#xA0;" horiz-adv-x="290" />
<glyph unicode="&#xA1;" horiz-adv-x="316" d="M110 287H224L213 -157H-13L110 287ZM107 510H297L267 333H78L107 510Z"  />
<glyph unicode="&#xA2;" horiz-adv-x="587" d="M515 264Q508 240 498 221T479 189T460 166T445 151Q426 134 407 125T370 110T337 102T312 98L291 -25H205L228 108Q210 115 186 127T139 163T102 222T87 313Q87 385 117 444T193 540Q225 565 255 572T307 582L324 685H410L392 581Q443 567 472 544T515 494T534 444T539 404L394 390Q394 417 387 432T369 454T349 463T336 465Q312 465 297 445T273 397T261 340T257 293Q257 285 258 273T263 250T278 231T308 223Q328 223 348 237T380 291L515 264Z"  />
<glyph unicode="&#xA3;" horiz-adv-x="587" d="M572 196Q570 187 566 174T555 145T537 111T508 74Q482 46 456 31T405 9T360 1T327 0H-24L0 136H37Q73 136 94 148T126 175T141 205T146 223Q149 241 149 258Q149 276 148 298H63L82 411H141Q141 436 142 461T149 512T168 561T205 611Q227 633 254 646T308 666T358 676T396 679Q428 679 467 671T540 641Q558 630 569 617T587 591T598 565T605 540L448 488Q442 509 432 525T390 541Q372 541 361 536T343 522T333 504T329 489Q328 484 328 475T327 454Q327 443 327 431Q327 420 327 411H435L416 298H327Q324 267 318 245T302 204T276 170T236 136H300Q327 136 347 140T381 154T405 183T420 228L572 196Z"  />
<glyph unicode="&#xA4;" horiz-adv-x="587" d="M471 95L404 162Q376 147 351 140T294 133Q262 133 237 140T183 162L116 95L32 179L99 247Q84 274 77 299T70 356Q70 388 77 413T99 467L32 534L116 618L184 551Q211 565 237 573T294 581Q325 581 351 573T404 551L470 618L554 534L488 467Q502 440 510 414T518 356Q518 327 510 300T488 246L555 179L471 95ZM392 356Q392 398 364 427T293 456Q272 456 254 448T223 427T202 395T194 356Q194 336 202 318T223 287T255 266T293 258Q335 258 363 286T392 356Z"  />
<glyph unicode="&#xA5;" horiz-adv-x="587" d="M154 447L76 667H266L321 489Q322 488 324 482T327 474Q330 465 333 454T338 438Q342 444 347 452T356 468T364 481T369 489L482 667H640L495 447H590L574 353H432L394 294H564L548 200H375L342 0H157L190 200H28L44 294H206L188 353H53L69 447H154Z"  />
<glyph unicode="&#xA6;" horiz-adv-x="500" d="M334 325H196V675H334V325ZM334 -175H196V175H334V-175Z"  />
<glyph unicode="&#xA7;" horiz-adv-x="583" d="M430 529Q426 535 421 543T406 559T383 572T350 578Q338 578 325 575T301 567T283 552T276 531Q276 515 288 505T339 476Q345 473 351 470T367 463T393 451T438 430Q492 405 510 371T529 298Q529 255 509 220T450 154Q473 137 487 109T501 49Q501 -7 480 -47T425 -115T348 -155T260 -168Q213 -168 169 -155T87 -116Q50 -91 33 -66T4 -20L151 4Q159 -7 168 -18T190 -37T218 -51T256 -57Q292 -57 315 -42T339 -2Q339 24 321 37T258 71Q205 95 169 113T110 150T77 191T66 246Q66 276 74 301T96 346T123 382T149 408Q139 422 128 444T117 503Q117 540 131 572T174 627T243 664T336 678Q394 678 433 664T497 630T535 590T555 557L430 529ZM382 264Q382 274 376 283T350 305Q345 308 333 314T306 327T278 340T260 350Q246 338 234 322T222 288Q222 275 233 264T271 241Q275 239 285 235T306 225T328 215T343 208Q354 217 368 231T382 264Z"  />
<glyph unicode="&#xA8;" horiz-adv-x="500" d="M469 645Q469 616 450 598T405 580Q378 580 359 599T340 645Q340 671 359 690T405 709Q431 709 450 690T469 645ZM295 644Q295 617 276 599T231 580Q204 580 185 599T166 645Q166 671 184 690T231 709Q257 709 276 690T295 644Z"  />
<glyph unicode="&#xA9;" horiz-adv-x="733" d="M555 278Q541 233 520 204T474 157T421 132T365 125Q320 125 287 140T231 181T199 240T188 309Q188 345 200 386T238 461T305 519T405 542Q441 542 467 533T512 510T542 481T559 453Q567 435 569 420T573 383L446 374Q446 384 445 396T440 420T426 438T400 446Q389 446 378 441T359 422Q350 407 344 386T335 345T330 309T328 285Q328 278 329 268T334 249T348 233T374 226Q400 226 412 244T434 293L555 278ZM725 333Q725 261 698 199T623 90T514 17T381 -10Q310 -10 248 17T139 90T65 199T38 333Q38 403 64 466T137 575T246 649T381 677Q451 677 514 650T623 577T697 468T725 333ZM645 333Q645 388 624 436T567 521T483 579T381 600Q325 600 277 579T194 521T139 436T118 333Q118 279 138 231T194 146T278 88T381 67Q435 67 483 87T567 144T624 228T645 333Z"  />
<glyph unicode="&#xAA;" horiz-adv-x="388" d="M88 594Q93 608 103 619T116 634Q144 659 183 666T255 674Q267 674 291 672T340 662T383 635T402 585Q402 575 398 549T388 492T378 436T373 399Q373 389 374 383T377 368H246Q245 376 245 382T245 403Q242 399 235 392T216 378T189 366T152 361Q108 361 79 385T49 449Q49 473 58 489T80 516T105 532T122 540Q135 544 149 547T180 553T220 558T271 562Q273 570 273 573T274 580Q274 589 270 593T259 600T248 602T241 603Q219 603 210 592T197 573L88 594ZM182 459Q182 435 207 435Q215 435 222 438T235 446Q249 457 253 473T260 509Q248 508 234 506T209 498T190 484T182 459Z"  />
<glyph unicode="&#xAB;" horiz-adv-x="371" d="M29 243L138 381H204L123 235L158 109H102L29 243ZM181 243L290 381H357L278 243L311 109H255L181 243Z"  />
<glyph unicode="&#xAC;" horiz-adv-x="587" d="M425 361H64V485H550V175H425V361Z"  />
<glyph unicode="&#xAD;" horiz-adv-x="250" d="M-12 173L12 320H262L238 173H-12Z"  />
<glyph unicode="&#xAE;" horiz-adv-x="506" d="M258 351H184L223 571H332Q337 571 350 570T378 563T402 544T413 506Q413 503 413 495T408 477T394 457T366 441L391 351H311L292 428H272L258 351ZM281 478H299Q302 478 308 479T319 482T329 490T333 503Q333 510 330 513T322 517T313 518T306 517H288L281 478ZM52 460Q52 511 71 555T123 633T200 685T295 704Q344 704 388 685T465 633T517 556T537 460Q537 410 518 366T466 290T389 238T295 219Q245 219 201 238T123 289T71 366T52 460ZM295 629Q262 629 232 616T178 579T141 525T127 460Q127 427 140 397T177 343T231 307T295 293Q328 293 358 306T412 343T449 397T463 460Q463 494 449 524T412 578T359 615T295 629Z"  />
<glyph unicode="&#xAF;" horiz-adv-x="500" d="M145 590L158 667H481L468 590H145Z"  />
<glyph unicode="&#xB0;" horiz-adv-x="587" d="M341 384Q310 384 283 395T236 427T205 474T193 531Q193 562 204 588T236 635T284 666T341 678Q371 678 398 667T445 635T477 589T489 531Q489 501 478 474T446 427T399 396T341 384ZM341 463Q369 463 388 482T408 530Q408 559 388 579T340 599Q312 599 293 579T274 531Q274 502 294 483T341 463Z"  />
<glyph unicode="&#xB1;" horiz-adv-x="587" d="M552 275H371V87H246V275H65V399H246V586H371V399H552V275ZM552 -59H65V65H552V-59Z"  />
<glyph unicode="&#xB2;" horiz-adv-x="387" d="M360 267H29L45 365Q51 368 66 376T101 395T142 420T184 447Q235 482 254 503T274 544Q274 561 262 570T234 579Q214 579 198 564T170 512L68 549Q74 562 84 584T115 626T166 661T245 676Q276 676 304 668T355 643T389 603T402 549Q402 516 389 490T350 443T290 404T210 366H376L360 267Z"  />
<glyph unicode="&#xB3;" horiz-adv-x="387" d="M140 400Q146 380 156 370T178 355T198 349T210 348Q232 348 246 360T260 391Q260 405 253 412T235 423T215 427T198 428H153L167 515H212Q218 515 229 515T250 519T268 531T276 553Q276 570 262 578T230 587Q213 587 202 582T184 569T174 553T169 541L66 572Q73 589 83 607T121 645Q150 665 179 671T232 678Q262 678 292 671T346 650T386 614T401 561Q401 529 382 505T327 471Q334 468 341 465T357 453Q372 440 380 423T388 385Q388 362 378 339T347 298T294 268T216 256Q163 256 130 269T77 301T48 341T33 377L140 400Z"  />
<glyph unicode="&#xB4;" horiz-adv-x="500" d="M424 743L458 651L225 567L199 630L424 743Z"  />
<glyph unicode="&#xB5;" horiz-adv-x="501" d="M65 493H221L177 228Q175 211 173 197T171 175Q171 163 172 150T179 125T196 106T227 98Q253 98 279 131T317 231L361 493H517L434 0H300L309 55Q304 48 296 37T276 16T247 -2T207 -10Q186 -10 172 -4T149 12T135 32T127 50L90 -173H-46L65 493Z"  />
<glyph unicode="&#xB6;" horiz-adv-x="583" d="M585 588H519L393 -157H305L431 588H355L229 -157H141L207 233Q170 237 139 247T84 279T47 333T34 414Q34 458 54 503T106 584T180 644T266 667H598L585 588Z"  />
<glyph unicode="&#xB7;" horiz-adv-x="283" d="M218 158H35L65 335H248L218 158Z"  />
<glyph unicode="&#xB8;" horiz-adv-x="500" d="M258 0L237 -49Q278 -48 305 -64T332 -121Q332 -146 321 -162T294 -188T259 -201T226 -205Q186 -205 158 -193T115 -173L134 -133Q148 -140 167 -148T215 -156Q218 -156 224 -156T238 -152T251 -142T257 -122Q257 -108 248 -101T227 -89T200 -85T173 -85L208 0H258Z"  />
<glyph unicode="&#xB9;" horiz-adv-x="387" d="M272 359H370L355 267H42L57 359H149L179 540Q152 527 122 526T72 526L86 614Q104 614 123 615T160 622T197 640T231 676H325L272 359Z"  />
<glyph unicode="&#xBA;" horiz-adv-x="388" d="M399 516Q399 492 386 463T353 416Q344 407 332 398T302 380T264 367T215 361Q186 361 158 369T107 395T72 438T58 500Q58 540 72 572T111 626T169 661T241 674Q254 674 271 672T306 664T341 647T372 618Q393 591 396 567T399 516ZM187 480Q187 474 188 467T192 452T202 440T220 435Q232 435 237 440T245 447Q256 461 260 483T267 517Q269 531 269 540T270 554Q270 557 270 565T266 581T256 595T237 601Q232 601 225 599T210 585Q204 576 200 561T193 530T189 501T187 480Z"  />
<glyph unicode="&#xBB;" horiz-adv-x="371" d="M341 247L232 109H167L247 255L212 381H268L341 247ZM190 247L81 109H14L93 247L59 381H115L190 247Z"  />
<glyph unicode="&#xBC;" horiz-adv-x="919" d="M727 166L750 308L626 166H727ZM692 667H785L257 0H163L692 667ZM885 89H823L808 0H689L704 89H528L543 182L753 413H877L838 176H900L885 89ZM272 359H370L355 267H42L57 359H149L179 540Q152 527 122 526T72 526L86 614Q104 614 123 615T160 622T197 640T231 676H325L272 359Z"  />
<glyph unicode="&#xBD;" horiz-adv-x="919" d="M272 359H370L355 267H41L57 359H149L179 540Q151 527 121 526T71 526L86 614Q104 614 123 615T160 622T197 640T231 676H325L272 359ZM692 667H784L256 0H162L692 667ZM847 0H516L532 98Q539 101 554 109T588 129T629 153T671 180Q722 215 741 236T761 277Q761 294 749 303T721 312Q700 312 684 296T657 245L555 281Q560 294 570 316T601 358T653 394T732 409Q764 409 792 401T842 376T876 336T889 282Q889 248 875 222T836 175T775 136T697 99H863L847 0Z"  />
<glyph unicode="&#xBE;" horiz-adv-x="919" d="M727 166L751 307L627 166H727ZM693 667H785L258 0H164L693 667ZM886 89H824L809 0H689L704 89H528L544 181L753 413H878L838 176H900L886 89ZM140 400Q146 380 156 370T178 355T198 349T210 348Q232 348 246 360T260 391Q260 405 253 412T235 423T215 427T198 428H153L167 515H212Q218 515 229 515T250 519T268 531T276 553Q276 570 262 578T230 587Q213 587 202 582T184 569T174 553T169 541L66 572Q73 589 83 607T121 645Q150 665 179 671T232 678Q262 678 292 671T346 650T386 614T401 561Q401 529 382 505T327 471Q334 468 341 465T357 453Q372 440 380 423T388 385Q388 362 378 339T347 298T294 268T216 256Q163 256 130 269T77 301T48 341T33 377L140 400Z"  />
<glyph unicode="&#xBF;" horiz-adv-x="513" d="M215 510H398L370 340H187L215 510ZM353 298Q353 269 345 246T325 202T296 166T262 136Q224 105 201 80T178 20Q178 -3 193 -20T234 -37Q258 -37 273 -25T296 4T308 37T314 62L466 29Q461 12 454 -9T434 -51T403 -94T356 -134Q336 -146 302 -159T215 -172Q181 -172 141 -163T67 -132T9 -73T-14 20Q-14 62 0 93T34 147T76 185T116 210Q144 226 160 238T184 260T196 279T201 298H353Z"  />
<glyph unicode="&#xC0;" horiz-adv-x="630" d="M194 136L132 0H-33L276 667H485L588 0H392L373 136H194ZM361 274L334 467L247 274H361ZM459 727L243 801L279 897L485 794L459 727Z"  />
<glyph unicode="&#xC1;" horiz-adv-x="630" d="M194 136L132 0H-33L276 667H485L588 0H392L373 136H194ZM361 274L334 467L247 274H361ZM519 897L553 801L320 727L294 794L519 897Z"  />
<glyph unicode="&#xC2;" horiz-adv-x="630" d="M194 136L132 0H-33L276 667H485L588 0H392L373 136H194ZM361 274L334 467L247 274H361ZM465 733L393 791L300 733L190 743L409 890L578 743L465 733Z"  />
<glyph unicode="&#xC3;" horiz-adv-x="630" d="M194 136L132 0H-33L276 667H485L588 0H392L373 136H194ZM361 274L334 467L247 274H361ZM556 799Q518 759 489 748T437 737Q408 737 374 754Q360 761 351 766T336 773T324 776T312 777Q287 777 271 763T246 739L198 796Q204 803 215 813T241 834T273 851T311 858Q321 858 336 855T378 839Q402 827 412 823T436 818Q456 818 473 829T507 856L556 799Z"  />
<glyph unicode="&#xC4;" horiz-adv-x="630" d="M194 136L132 0H-33L276 667H485L588 0H392L373 136H194ZM361 274L334 467L247 274H361ZM536 803Q536 774 517 756T472 738Q445 738 426 757T407 803Q407 829 426 848T472 867Q498 867 517 848T536 803ZM357 802Q357 775 338 757T293 738Q266 738 247 757T228 803Q228 829 246 848T293 867Q319 867 338 848T357 802Z"  />
<glyph unicode="&#xC5;" horiz-adv-x="630" d="M194 136L132 0H-33L276 667H485L588 0H392L373 136H194ZM361 274L334 467L247 274H361ZM388 717Q366 717 348 725T316 747T296 779T288 817Q288 837 295 855T316 887T348 909T387 917Q429 917 457 888T486 817Q486 796 478 778T457 746T425 725T388 717ZM388 783Q402 783 412 792T422 816Q422 830 412 840T387 850Q373 850 363 841T353 817Q353 802 363 793T388 783Z"  />
<glyph unicode="&#xC6;" horiz-adv-x="891" d="M827 0H347L373 153H210L116 0H-55L366 667H926L901 520H622L605 415H840L816 269H580L561 153H852L827 0ZM396 289L434 520L290 289H396Z"  />
<glyph unicode="&#xC7;" horiz-adv-x="633" d="M290 -51Q305 -50 321 -51T355 -62Q374 -73 381 -91T389 -126Q389 -152 378 -168T350 -195T314 -209T278 -213Q236 -213 208 -201T163 -180L182 -138Q196 -146 216 -154T266 -162Q269 -162 276 -162T291 -158T305 -147T311 -127Q311 -113 303 -105T281 -93T253 -88T223 -88L256 -9Q205 1 166 27T99 93T57 182T42 290Q42 348 60 416T118 544T224 642T384 682Q453 682 503 659T590 591Q609 567 620 544T636 500T643 459T646 423L458 409Q458 424 457 444T448 484T424 517T378 531Q357 531 342 523T316 504T299 480T288 456Q279 433 272 403T259 344T252 289T249 248Q249 240 250 223T259 189T283 158T330 145Q375 145 397 175T435 258L614 235Q608 215 599 191T575 140T537 86T478 33Q431 0 385 -7T306 -14L290 -51Z"  />
<glyph unicode="&#xC8;" horiz-adv-x="573" d="M508 0H17L128 667H607L582 521H297L280 416H519L495 271H255L236 153H534L508 0ZM440 727L224 801L260 897L466 794L440 727Z"  />
<glyph unicode="&#xC9;" horiz-adv-x="573" d="M508 0H17L128 667H607L582 521H297L280 416H519L495 271H255L236 153H534L508 0ZM505 897L539 801L306 727L280 794L505 897Z"  />
<glyph unicode="&#xCA;" horiz-adv-x="573" d="M508 0H17L128 667H607L582 521H297L280 416H519L495 271H255L236 153H534L508 0ZM452 733L380 791L287 733L177 743L396 890L565 743L452 733Z"  />
<glyph unicode="&#xCB;" horiz-adv-x="573" d="M508 0H17L128 667H607L582 521H297L280 416H519L495 271H255L236 153H534L508 0ZM530 803Q530 774 511 756T466 738Q439 738 420 757T401 803Q401 829 420 848T466 867Q492 867 511 848T530 803ZM351 802Q351 775 332 757T287 738Q260 738 241 757T222 803Q222 829 240 848T287 867Q313 867 332 848T351 802Z"  />
<glyph unicode="&#xCC;" horiz-adv-x="305" d="M206 0H17L128 667H317L206 0ZM290 727L74 801L110 897L316 794L290 727Z"  />
<glyph unicode="&#xCD;" horiz-adv-x="305" d="M206 0H17L128 667H317L206 0ZM376 897L410 801L177 727L151 794L376 897Z"  />
<glyph unicode="&#xCE;" horiz-adv-x="305" d="M206 0H17L128 667H317L206 0ZM309 733L237 791L144 733L34 743L253 890L422 743L309 733Z"  />
<glyph unicode="&#xCF;" horiz-adv-x="305" d="M206 0H17L128 667H317L206 0ZM390 803Q390 774 371 756T326 738Q299 738 280 757T261 803Q261 829 280 848T326 867Q352 867 371 848T390 803ZM211 802Q211 775 192 757T147 738Q120 738 101 757T82 803Q82 829 100 848T147 867Q173 867 192 848T211 802Z"  />
<glyph unicode="&#xD0;" horiz-adv-x="686" d="M31 416H86L128 667H350Q380 667 409 666T468 658T525 638T580 602Q607 579 624 551T652 493T667 431T672 368Q672 265 633 185T523 55Q495 35 466 24T406 8T338 1T260 0H16L61 271H7L31 416ZM261 271L240 149H285Q294 149 309 149T341 153T376 162T406 181Q437 209 454 261T472 374Q472 402 467 428T450 476T415 510T360 523H303L285 416H393L369 271H261Z"  />
<glyph unicode="&#xD1;" horiz-adv-x="681" d="M582 0H434L306 256Q297 274 287 295T268 338T252 381T240 422Q242 410 242 390T234 327L179 0H17L128 667H308L381 513Q394 484 409 452T437 389T462 328T480 275Q479 283 479 290T478 305Q478 315 479 329T483 359T487 388T492 414L534 667H693L582 0ZM607 799Q569 759 540 748T488 737Q459 737 425 754Q411 761 402 766T387 773T375 776T363 777Q338 777 322 763T297 739L249 796Q255 803 266 813T292 834T324 851T362 858Q372 858 387 855T429 839Q453 827 463 823T487 818Q507 818 524 829T558 856L607 799Z"  />
<glyph unicode="&#xD2;" horiz-adv-x="687" d="M458 335Q458 337 460 347T464 371T467 399T469 425Q469 437 467 455T455 489T429 517T383 529Q350 529 328 510T289 455Q278 432 271 400T258 337T251 279T248 241Q248 232 249 215T259 181T284 152T333 139Q363 139 383 152T417 191T440 253T458 335ZM677 388Q677 307 653 234T584 105T475 17T331 -16Q274 -16 222 2T129 58T64 152T39 283Q39 357 61 429T128 557T237 649T390 684Q452 684 504 663T595 604T655 511T677 388ZM484 727L268 801L304 897L510 794L484 727Z"  />
<glyph unicode="&#xD3;" horiz-adv-x="687" d="M458 335Q458 337 460 347T464 371T467 399T469 425Q469 437 467 455T455 489T429 517T383 529Q350 529 328 510T289 455Q278 432 271 400T258 337T251 279T248 241Q248 232 249 215T259 181T284 152T333 139Q363 139 383 152T417 191T440 253T458 335ZM677 388Q677 307 653 234T584 105T475 17T331 -16Q274 -16 222 2T129 58T64 152T39 283Q39 357 61 429T128 557T237 649T390 684Q452 684 504 663T595 604T655 511T677 388ZM563 897L597 801L364 727L338 794L563 897Z"  />
<glyph unicode="&#xD4;" horiz-adv-x="687" d="M458 335Q458 337 460 347T464 371T467 399T469 425Q469 437 467 455T455 489T429 517T383 529Q350 529 328 510T289 455Q278 432 271 400T258 337T251 279T248 241Q248 232 249 215T259 181T284 152T333 139Q363 139 383 152T417 191T440 253T458 335ZM677 388Q677 307 653 234T584 105T475 17T331 -16Q274 -16 222 2T129 58T64 152T39 283Q39 357 61 429T128 557T237 649T390 684Q452 684 504 663T595 604T655 511T677 388ZM502 733L430 791L337 733L227 743L446 890L615 743L502 733Z"  />
<glyph unicode="&#xD5;" horiz-adv-x="687" d="M458 335Q458 337 460 347T464 371T467 399T469 425Q469 437 467 455T455 489T429 517T383 529Q350 529 328 510T289 455Q278 432 271 400T258 337T251 279T248 241Q248 232 249 215T259 181T284 152T333 139Q363 139 383 152T417 191T440 253T458 335ZM677 388Q677 307 653 234T584 105T475 17T331 -16Q274 -16 222 2T129 58T64 152T39 283Q39 357 61 429T128 557T237 649T390 684Q452 684 504 663T595 604T655 511T677 388ZM603 799Q565 759 536 748T484 737Q455 737 421 754Q407 761 398 766T383 773T371 776T359 777Q334 777 318 763T293 739L245 796Q251 803 262 813T288 834T320 851T358 858Q368 858 383 855T425 839Q449 827 459 823T483 818Q503 818 520 829T554 856L603 799Z"  />
<glyph unicode="&#xD6;" horiz-adv-x="687" d="M458 335Q458 337 460 347T464 371T467 399T469 425Q469 437 467 455T455 489T429 517T383 529Q350 529 328 510T289 455Q278 432 271 400T258 337T251 279T248 241Q248 232 249 215T259 181T284 152T333 139Q363 139 383 152T417 191T440 253T458 335ZM677 388Q677 307 653 234T584 105T475 17T331 -16Q274 -16 222 2T129 58T64 152T39 283Q39 357 61 429T128 557T237 649T390 684Q452 684 504 663T595 604T655 511T677 388ZM580 803Q580 774 561 756T516 738Q489 738 470 757T451 803Q451 829 470 848T516 867Q542 867 561 848T580 803ZM401 802Q401 775 382 757T337 738Q310 738 291 757T272 803Q272 829 290 848T337 867Q363 867 382 848T401 802Z"  />
<glyph unicode="&#xD7;" horiz-adv-x="587" d="M533 478L396 341L533 204L445 116L308 253L171 116L83 204L220 341L83 478L171 566L308 429L445 566L533 478Z"  />
<glyph unicode="&#xD8;" horiz-adv-x="687" d="M594 604Q604 594 618 577T646 534T668 471T677 382Q677 312 656 241T591 113T484 20T333 -16Q301 -16 276 -12T232 -1T199 12T176 24L122 -51H16L107 80Q99 90 88 107T65 149T47 207T39 284Q39 347 58 417T120 546T229 644T391 683Q434 683 464 675T524 656L576 722H682L594 604ZM276 158Q285 150 296 145T331 139Q348 139 363 143T392 159T417 191T437 242Q444 267 450 295T460 348T467 393T469 421Q469 432 469 439T466 458L276 158ZM420 522Q409 527 402 528T384 529Q343 529 320 503T281 434Q273 411 267 385T257 334T251 286T248 248L420 522Z"  />
<glyph unicode="&#xD9;" horiz-adv-x="644" d="M594 257Q582 186 568 144T522 70Q498 45 469 30T409 5T351 -7T298 -10Q286 -10 264 -9T216 -2T163 13T112 40Q101 47 90 60T69 91T53 133T46 185Q46 195 47 214T53 257L121 667H324L256 257Q255 253 253 236T250 207Q250 189 258 177T278 156T305 145T334 141Q364 141 382 151T411 176T426 211T434 250L503 667H663L594 257ZM446 727L230 801L266 897L472 794L446 727Z"  />
<glyph unicode="&#xDA;" horiz-adv-x="644" d="M594 257Q582 186 568 144T522 70Q498 45 469 30T409 5T351 -7T298 -10Q286 -10 264 -9T216 -2T163 13T112 40Q101 47 90 60T69 91T53 133T46 185Q46 195 47 214T53 257L121 667H324L256 257Q255 253 253 236T250 207Q250 189 258 177T278 156T305 145T334 141Q364 141 382 151T411 176T426 211T434 250L503 667H663L594 257ZM573 897L607 801L374 727L348 794L573 897Z"  />
<glyph unicode="&#xDB;" horiz-adv-x="644" d="M594 257Q582 186 568 144T522 70Q498 45 469 30T409 5T351 -7T298 -10Q286 -10 264 -9T216 -2T163 13T112 40Q101 47 90 60T69 91T53 133T46 185Q46 195 47 214T53 257L121 667H324L256 257Q255 253 253 236T250 207Q250 189 258 177T278 156T305 145T334 141Q364 141 382 151T411 176T426 211T434 250L503 667H663L594 257ZM490 733L418 791L325 733L215 743L434 890L603 743L490 733Z"  />
<glyph unicode="&#xDC;" horiz-adv-x="644" d="M594 257Q582 186 568 144T522 70Q498 45 469 30T409 5T351 -7T298 -10Q286 -10 264 -9T216 -2T163 13T112 40Q101 47 90 60T69 91T53 133T46 185Q46 195 47 214T53 257L121 667H324L256 257Q255 253 253 236T250 207Q250 189 258 177T278 156T305 145T334 141Q364 141 382 151T411 176T426 211T434 250L503 667H663L594 257ZM564 803Q564 774 545 756T500 738Q473 738 454 757T435 803Q435 829 454 848T500 867Q526 867 545 848T564 803ZM385 802Q385 775 366 757T321 738Q294 738 275 757T256 803Q256 829 274 848T321 867Q347 867 366 848T385 802Z"  />
<glyph unicode="&#xDD;" horiz-adv-x="585" d="M396 289L348 0H149L199 298L42 667H253L320 489Q327 473 330 465T338 438Q342 444 347 452T358 468T366 482T371 489L490 667H672L396 289ZM558 897L592 801L359 727L333 794L558 897Z"  />
<glyph unicode="&#xDE;" horiz-adv-x="606" d="M16 0L128 667H321L306 573H332Q365 573 389 572T434 568T472 559T508 541Q553 514 577 471T601 377Q601 344 590 305T552 231T480 174T365 151H235L210 0H16ZM259 294H305Q320 294 338 296T372 305T399 327T410 365Q410 389 399 402T372 421T343 428T322 429H282L259 294Z"  />
<glyph unicode="&#xDF;" horiz-adv-x="626" d="M0 -81L69 334H29L49 454H89Q98 488 106 516T125 567T150 610T186 649Q231 688 281 702T385 717Q445 717 483 702T543 664T573 616T582 571Q582 551 574 528T548 482T499 443T422 416Q419 416 414 415T408 409Q408 404 417 400T459 383Q521 358 560 314T599 202Q599 158 582 119T533 51T461 5T370 -13Q333 -13 300 -4T236 28L295 138Q309 129 325 121T364 113Q373 113 384 115T406 123T423 138T430 163Q430 183 419 196T381 224Q334 249 305 275T275 346Q275 367 281 388T298 429T319 464T338 493Q349 495 362 497T386 506T406 522T414 548Q414 571 396 582T361 594Q346 594 329 587T302 566Q291 552 286 537T276 493L183 -61L0 -81Z"  />
<glyph unicode="&#xE0;" horiz-adv-x="594" d="M65 370Q73 386 87 409T131 454T209 491T331 507Q359 507 398 503T473 484T534 441T559 364Q559 353 556 328T547 271T535 204T524 137T515 80T511 44Q511 31 512 21T516 0H323Q321 8 321 15Q321 22 321 26Q321 33 321 45T325 82Q317 70 305 54T273 24T227 -1T162 -11Q130 -11 102 -2T52 26T18 71T5 131Q5 151 11 175T33 222T80 266T157 298Q173 302 185 304T217 309T269 314T359 323Q361 330 363 337T365 352Q365 366 353 379T308 392Q288 392 274 386T250 371T234 353T225 337L65 370ZM250 107Q260 107 279 113T315 141Q329 159 334 183T342 234Q321 232 298 228T254 215T221 191T207 148Q207 125 221 116T250 107ZM423 567L209 651L249 743L451 630L423 567Z"  />
<glyph unicode="&#xE1;" horiz-adv-x="594" d="M65 370Q73 386 87 409T131 454T209 491T331 507Q359 507 398 503T473 484T534 441T559 364Q559 353 556 328T547 271T535 204T524 137T515 80T511 44Q511 31 512 21T516 0H323Q321 8 321 15Q321 22 321 26Q321 33 321 45T325 82Q317 70 305 54T273 24T227 -1T162 -11Q130 -11 102 -2T52 26T18 71T5 131Q5 151 11 175T33 222T80 266T157 298Q173 302 185 304T217 309T269 314T359 323Q361 330 363 337T365 352Q365 366 353 379T308 392Q288 392 274 386T250 371T234 353T225 337L65 370ZM250 107Q260 107 279 113T315 141Q329 159 334 183T342 234Q321 232 298 228T254 215T221 191T207 148Q207 125 221 116T250 107ZM490 743L524 651L291 567L265 630L490 743Z"  />
<glyph unicode="&#xE2;" horiz-adv-x="594" d="M65 370Q73 386 87 409T131 454T209 491T331 507Q359 507 398 503T473 484T534 441T559 364Q559 353 556 328T547 271T535 204T524 137T515 80T511 44Q511 31 512 21T516 0H323Q321 8 321 15Q321 22 321 26Q321 33 321 45T325 82Q317 70 305 54T273 24T227 -1T162 -11Q130 -11 102 -2T52 26T18 71T5 131Q5 151 11 175T33 222T80 266T157 298Q173 302 185 304T217 309T269 314T359 323Q361 330 363 337T365 352Q365 366 353 379T308 392Q288 392 274 386T250 371T234 353T225 337L65 370ZM250 107Q260 107 279 113T315 141Q329 159 334 183T342 234Q321 232 298 228T254 215T221 191T207 148Q207 125 221 116T250 107ZM430 573L358 636L264 573L155 583L375 737L542 583L430 573Z"  />
<glyph unicode="&#xE3;" horiz-adv-x="594" d="M65 370Q73 386 87 409T131 454T209 491T331 507Q359 507 398 503T473 484T534 441T559 364Q559 353 556 328T547 271T535 204T524 137T515 80T511 44Q511 31 512 21T516 0H323Q321 8 321 15Q321 22 321 26Q321 33 321 45T325 82Q317 70 305 54T273 24T227 -1T162 -11Q130 -11 102 -2T52 26T18 71T5 131Q5 151 11 175T33 222T80 266T157 298Q173 302 185 304T217 309T269 314T359 323Q361 330 363 337T365 352Q365 366 353 379T308 392Q288 392 274 386T250 371T234 353T225 337L65 370ZM250 107Q260 107 279 113T315 141Q329 159 334 183T342 234Q321 232 298 228T254 215T221 191T207 148Q207 125 221 116T250 107ZM534 642Q495 602 466 591T415 580Q398 580 384 584T352 597Q323 612 313 616T289 620Q265 620 249 606T223 582L175 639Q181 646 192 656T218 677T251 694T289 701Q299 701 314 698T355 682Q379 670 389 666T413 661Q433 661 450 672T485 699L534 642Z"  />
<glyph unicode="&#xE4;" horiz-adv-x="594" d="M65 370Q73 386 87 409T131 454T209 491T331 507Q359 507 398 503T473 484T534 441T559 364Q559 353 556 328T547 271T535 204T524 137T515 80T511 44Q511 31 512 21T516 0H323Q321 8 321 15Q321 22 321 26Q321 33 321 45T325 82Q317 70 305 54T273 24T227 -1T162 -11Q130 -11 102 -2T52 26T18 71T5 131Q5 151 11 175T33 222T80 266T157 298Q173 302 185 304T217 309T269 314T359 323Q361 330 363 337T365 352Q365 366 353 379T308 392Q288 392 274 386T250 371T234 353T225 337L65 370ZM250 107Q260 107 279 113T315 141Q329 159 334 183T342 234Q321 232 298 228T254 215T221 191T207 148Q207 125 221 116T250 107ZM511 645Q511 616 492 598T447 580Q420 580 401 599T382 645Q382 671 401 690T447 709Q473 709 492 690T511 645ZM337 644Q337 617 318 599T273 580Q246 580 227 599T208 645Q208 671 226 690T273 709Q299 709 318 690T337 644Z"  />
<glyph unicode="&#xE5;" horiz-adv-x="594" d="M65 370Q73 386 87 409T131 454T209 491T331 507Q359 507 398 503T473 484T534 441T559 364Q559 353 556 328T547 271T535 204T524 137T515 80T511 44Q511 31 512 21T516 0H323Q321 8 321 15Q321 22 321 26Q321 33 321 45T325 82Q317 70 305 54T273 24T227 -1T162 -11Q130 -11 102 -2T52 26T18 71T5 131Q5 151 11 175T33 222T80 266T157 298Q173 302 185 304T217 309T269 314T359 323Q361 330 363 337T365 352Q365 366 353 379T308 392Q288 392 274 386T250 371T234 353T225 337L65 370ZM250 107Q260 107 279 113T315 141Q329 159 334 183T342 234Q321 232 298 228T254 215T221 191T207 148Q207 125 221 116T250 107ZM360 563Q316 563 288 592T260 662Q260 704 288 733T359 762Q401 762 429 733T458 662Q458 641 450 623T429 592T398 571T360 563ZM359 628Q372 628 383 637T394 663Q394 677 384 687T359 697Q344 697 334 687T324 662Q324 650 333 639T359 628Z"  />
<glyph unicode="&#xE6;" horiz-adv-x="795" d="M746 150Q735 127 721 101T673 46Q642 20 602 4T508 -13Q467 -13 438 -4T387 18T353 45T330 71Q316 57 299 42T261 15T215 -6T156 -14Q83 -14 44 23T5 126Q5 180 27 214T80 268T146 298T207 311Q214 312 230 313T266 317T301 320T324 323Q326 330 328 337T330 352Q330 371 314 381T273 392Q258 392 247 386T228 371T215 353T206 336L65 369Q76 395 93 419T137 463T204 493T301 505Q328 505 347 503T380 496T406 487T428 475Q444 483 476 495T560 508Q599 508 636 495T704 452T752 378T770 268Q770 251 768 239T764 213H460Q460 210 459 202T458 186Q458 177 460 165T470 141T489 122T520 114Q535 114 551 120T582 142Q590 150 593 158T599 178L746 150ZM606 308Q607 312 608 320T609 335Q609 365 593 381T552 397Q531 397 517 387T494 362T481 332T475 308H606ZM186 145Q186 130 191 122T203 111T216 106T225 105Q242 105 255 113T274 130Q293 153 298 183T307 234Q283 232 262 227T223 212T196 185T186 145Z"  />
<glyph unicode="&#xE7;" horiz-adv-x="523" d="M245 -49Q265 -48 282 -51T312 -63T332 -86T339 -121Q339 -146 328 -162T301 -188T266 -201T233 -205Q193 -205 165 -193T122 -173L141 -133Q155 -140 174 -148T222 -156Q225 -156 231 -156T245 -152T258 -142T264 -122Q264 -108 255 -101T234 -89T207 -85T180 -85L211 -10Q166 -1 135 17T83 57T50 103T33 150T26 191T24 218Q24 267 41 318T92 412T179 482T302 510Q338 510 376 499T446 465T498 405T521 315L353 295Q354 327 343 351T299 375Q283 375 272 368T253 351T239 327T230 301Q222 270 218 240T214 195Q214 190 215 179T221 155T237 133T269 123Q289 123 302 131T325 151T338 174T345 192L494 155Q485 135 471 107T430 53T362 8T259 -14L245 -49Z"  />
<glyph unicode="&#xE8;" horiz-adv-x="584" d="M213 210Q212 205 211 196T210 180Q210 162 216 149T233 128T257 117T283 113Q305 113 319 120T344 136T359 156T368 174L534 147Q528 135 519 120T496 87T461 53T409 19Q390 9 356 -2T270 -14Q216 -14 171 2T93 48T42 121T23 219Q23 275 43 326T100 418T191 481T312 505Q372 505 418 487T495 437T542 362T558 266Q558 249 557 237T553 210H213ZM375 305Q376 310 376 316T377 328Q377 338 374 349T364 371T345 387T315 394Q310 394 298 392T272 381T246 354T227 305H375ZM396 567L182 651L222 743L424 630L396 567Z"  />
<glyph unicode="&#xE9;" horiz-adv-x="584" d="M213 210Q212 205 211 196T210 180Q210 162 216 149T233 128T257 117T283 113Q305 113 319 120T344 136T359 156T368 174L534 147Q528 135 519 120T496 87T461 53T409 19Q390 9 356 -2T270 -14Q216 -14 171 2T93 48T42 121T23 219Q23 275 43 326T100 418T191 481T312 505Q372 505 418 487T495 437T542 362T558 266Q558 249 557 237T553 210H213ZM375 305Q376 310 376 316T377 328Q377 338 374 349T364 371T345 387T315 394Q310 394 298 392T272 381T246 354T227 305H375ZM487 743L521 651L288 567L262 630L487 743Z"  />
<glyph unicode="&#xEA;" horiz-adv-x="584" d="M213 210Q212 205 211 196T210 180Q210 162 216 149T233 128T257 117T283 113Q305 113 319 120T344 136T359 156T368 174L534 147Q528 135 519 120T496 87T461 53T409 19Q390 9 356 -2T270 -14Q216 -14 171 2T93 48T42 121T23 219Q23 275 43 326T100 418T191 481T312 505Q372 505 418 487T495 437T542 362T558 266Q558 249 557 237T553 210H213ZM375 305Q376 310 376 316T377 328Q377 338 374 349T364 371T345 387T315 394Q310 394 298 392T272 381T246 354T227 305H375ZM415 573L343 636L249 573L140 583L360 737L527 583L415 573Z"  />
<glyph unicode="&#xEB;" horiz-adv-x="584" d="M213 210Q212 205 211 196T210 180Q210 162 216 149T233 128T257 117T283 113Q305 113 319 120T344 136T359 156T368 174L534 147Q528 135 519 120T496 87T461 53T409 19Q390 9 356 -2T270 -14Q216 -14 171 2T93 48T42 121T23 219Q23 275 43 326T100 418T191 481T312 505Q372 505 418 487T495 437T542 362T558 266Q558 249 557 237T553 210H213ZM375 305Q376 310 376 316T377 328Q377 338 374 349T364 371T345 387T315 394Q310 394 298 392T272 381T246 354T227 305H375ZM499 645Q499 616 480 598T435 580Q408 580 389 599T370 645Q370 671 389 690T435 709Q461 709 480 690T499 645ZM325 644Q325 617 306 599T261 580Q234 580 215 599T196 645Q196 671 214 690T261 709Q287 709 306 690T325 644Z"  />
<glyph unicode="&#xEC;" horiz-adv-x="294" d="M201 0H10L92 493H284L201 0ZM264 567L50 651L90 743L292 630L264 567Z"  />
<glyph unicode="&#xED;" horiz-adv-x="294" d="M201 0H10L92 493H284L201 0ZM330 743L364 651L131 567L105 630L330 743Z"  />
<glyph unicode="&#xEE;" horiz-adv-x="294" d="M201 0H10L92 493H284L201 0ZM276 573L204 636L110 573L1 583L221 737L388 583L276 573Z"  />
<glyph unicode="&#xEF;" horiz-adv-x="294" d="M201 0H10L92 493H284L201 0ZM357 645Q357 616 338 598T293 580Q266 580 247 599T228 645Q228 671 247 690T293 709Q319 709 338 690T357 645ZM183 644Q183 617 164 599T119 580Q92 580 73 599T54 645Q54 671 72 690T119 709Q145 709 164 690T183 644Z"  />
<glyph unicode="&#xF0;" horiz-adv-x="572" d="M214 183Q214 177 215 165T221 139T238 116T272 106Q280 106 288 107T306 115T323 135T339 170Q352 208 356 244T360 301Q360 336 342 352T301 369Q283 369 267 358T236 311Q231 299 227 282T220 247T216 212T214 183ZM481 602Q505 563 520 524T543 448T554 377T557 316Q557 258 540 200T487 94T396 16T265 -14Q216 -14 172 0T95 43T41 115T21 214Q21 266 40 316T93 405T175 468T282 492Q302 492 322 486T356 464Q353 484 345 506T324 552L184 508L155 596L270 632Q262 642 256 650T242 665L388 711Q397 703 405 696T421 680L579 730L608 642L481 602Z"  />
<glyph unicode="&#xF1;" horiz-adv-x="585" d="M264 493L251 413Q257 427 267 443T300 475Q329 495 360 501T412 508Q478 508 515 474T553 387Q553 379 552 366T548 337L492 0H305L354 296Q356 304 357 315T359 334Q359 348 351 361T315 375Q282 375 265 353T243 296L193 0H10L93 493H264ZM523 642Q484 602 455 591T404 580Q387 580 373 584T341 597Q312 612 302 616T278 620Q254 620 238 606T212 582L164 639Q170 646 181 656T207 677T240 694T278 701Q288 701 303 698T344 682Q368 670 378 666T402 661Q422 661 439 672T474 699L523 642Z"  />
<glyph unicode="&#xF2;" horiz-adv-x="582" d="M557 283Q557 204 531 148T462 55T369 3T267 -14Q221 -14 178 0T100 42T45 113T24 215Q24 280 46 333T106 425T197 484T311 505Q374 505 420 486T496 435T542 364T557 283ZM217 182Q217 171 219 158T227 133T244 113T275 105Q289 105 304 112T332 146Q338 160 344 180T354 222T360 267T363 309Q363 318 362 331T354 357T337 377T306 386Q290 386 279 380T261 364T249 346T243 330Q238 316 233 296T225 255T219 215T217 182ZM403 567L189 651L229 743L431 630L403 567Z"  />
<glyph unicode="&#xF3;" horiz-adv-x="582" d="M557 283Q557 204 531 148T462 55T369 3T267 -14Q221 -14 178 0T100 42T45 113T24 215Q24 280 46 333T106 425T197 484T311 505Q374 505 420 486T496 435T542 364T557 283ZM217 182Q217 171 219 158T227 133T244 113T275 105Q289 105 304 112T332 146Q338 160 344 180T354 222T360 267T363 309Q363 318 362 331T354 357T337 377T306 386Q290 386 279 380T261 364T249 346T243 330Q238 316 233 296T225 255T219 215T217 182ZM482 743L516 651L283 567L257 630L482 743Z"  />
<glyph unicode="&#xF4;" horiz-adv-x="582" d="M557 283Q557 204 531 148T462 55T369 3T267 -14Q221 -14 178 0T100 42T45 113T24 215Q24 280 46 333T106 425T197 484T311 505Q374 505 420 486T496 435T542 364T557 283ZM217 182Q217 171 219 158T227 133T244 113T275 105Q289 105 304 112T332 146Q338 160 344 180T354 222T360 267T363 309Q363 318 362 331T354 357T337 377T306 386Q290 386 279 380T261 364T249 346T243 330Q238 316 233 296T225 255T219 215T217 182ZM417 573L345 636L251 573L142 583L362 737L529 583L417 573Z"  />
<glyph unicode="&#xF5;" horiz-adv-x="582" d="M557 283Q557 204 531 148T462 55T369 3T267 -14Q221 -14 178 0T100 42T45 113T24 215Q24 280 46 333T106 425T197 484T311 505Q374 505 420 486T496 435T542 364T557 283ZM217 182Q217 171 219 158T227 133T244 113T275 105Q289 105 304 112T332 146Q338 160 344 180T354 222T360 267T363 309Q363 318 362 331T354 357T337 377T306 386Q290 386 279 380T261 364T249 346T243 330Q238 316 233 296T225 255T219 215T217 182ZM528 642Q489 602 460 591T409 580Q392 580 378 584T346 597Q317 612 307 616T283 620Q259 620 243 606T217 582L169 639Q175 646 186 656T212 677T245 694T283 701Q293 701 308 698T349 682Q373 670 383 666T407 661Q427 661 444 672T479 699L528 642Z"  />
<glyph unicode="&#xF6;" horiz-adv-x="582" d="M557 283Q557 204 531 148T462 55T369 3T267 -14Q221 -14 178 0T100 42T45 113T24 215Q24 280 46 333T106 425T197 484T311 505Q374 505 420 486T496 435T542 364T557 283ZM217 182Q217 171 219 158T227 133T244 113T275 105Q289 105 304 112T332 146Q338 160 344 180T354 222T360 267T363 309Q363 318 362 331T354 357T337 377T306 386Q290 386 279 380T261 364T249 346T243 330Q238 316 233 296T225 255T219 215T217 182ZM497 645Q497 616 478 598T433 580Q406 580 387 599T368 645Q368 671 387 690T433 709Q459 709 478 690T497 645ZM323 644Q323 617 304 599T259 580Q232 580 213 599T194 645Q194 671 212 690T259 709Q285 709 304 690T323 644Z"  />
<glyph unicode="&#xF7;" horiz-adv-x="587" d="M385 446H230V596H385V446ZM551 275H65V399H551V275ZM386 80H231V230H386V80Z"  />
<glyph unicode="&#xF8;" horiz-adv-x="582" d="M487 445Q497 435 509 422T531 388T549 340T557 274Q557 210 535 157T473 66T381 7T265 -14Q224 -14 201 -8T153 9L112 -44H15L89 52Q80 62 69 75T47 107T31 153T24 216Q24 281 46 334T106 425T197 484T311 505Q351 505 376 499T421 485L467 542H563L487 445ZM358 249Q362 273 362 290T363 310Q363 314 362 326T356 352T339 376T306 386Q290 386 279 380T261 365T249 347T243 331Q238 317 234 298T225 257T219 217T217 183Q217 169 219 155T229 130T246 112T274 105Q288 105 300 110T324 131T343 175T358 249Z"  />
<glyph unicode="&#xF9;" horiz-adv-x="585" d="M492 0H315L330 92Q322 78 310 60T278 26T231 -1T166 -13Q128 -13 102 -2T61 27T38 66T31 106Q31 114 32 125T35 149T38 171T41 185L93 493H282L235 211Q233 199 231 185T228 163Q228 160 228 154T232 141T242 131T262 126Q282 126 296 137T320 165T336 204T346 249L387 493H574L492 0ZM395 567L181 651L221 743L423 630L395 567Z"  />
<glyph unicode="&#xFA;" horiz-adv-x="585" d="M492 0H315L330 92Q322 78 310 60T278 26T231 -1T166 -13Q128 -13 102 -2T61 27T38 66T31 106Q31 114 32 125T35 149T38 171T41 185L93 493H282L235 211Q233 199 231 185T228 163Q228 160 228 154T232 141T242 131T262 126Q282 126 296 137T320 165T336 204T346 249L387 493H574L492 0ZM492 743L526 651L293 567L267 630L492 743Z"  />
<glyph unicode="&#xFB;" horiz-adv-x="585" d="M492 0H315L330 92Q322 78 310 60T278 26T231 -1T166 -13Q128 -13 102 -2T61 27T38 66T31 106Q31 114 32 125T35 149T38 171T41 185L93 493H282L235 211Q233 199 231 185T228 163Q228 160 228 154T232 141T242 131T262 126Q282 126 296 137T320 165T336 204T346 249L387 493H574L492 0ZM430 573L358 636L264 573L155 583L375 737L542 583L430 573Z"  />
<glyph unicode="&#xFC;" horiz-adv-x="585" d="M492 0H315L330 92Q322 78 310 60T278 26T231 -1T166 -13Q128 -13 102 -2T61 27T38 66T31 106Q31 114 32 125T35 149T38 171T41 185L93 493H282L235 211Q233 199 231 185T228 163Q228 160 228 154T232 141T242 131T262 126Q282 126 296 137T320 165T336 204T346 249L387 493H574L492 0ZM499 645Q499 616 480 598T435 580Q408 580 389 599T370 645Q370 671 389 690T435 709Q461 709 480 690T499 645ZM325 644Q325 617 306 599T261 580Q234 580 215 599T196 645Q196 671 214 690T261 709Q287 709 306 690T325 644Z"  />
<glyph unicode="&#xFD;" horiz-adv-x="485" d="M294 -7Q276 -45 257 -76T212 -130T149 -164T59 -176Q33 -176 16 -174T-19 -168V-36Q1 -38 27 -40T74 -42Q106 -42 127 -35T149 -1Q149 7 147 17T143 31L25 493H221L263 295Q265 286 266 280T269 268T272 253T275 231Q276 234 279 242T287 258T294 274T298 285L396 493H529L294 -7ZM459 743L493 651L260 567L234 630L459 743Z"  />
<glyph unicode="&#xFE;" horiz-adv-x="587" d="M309 667L269 428Q276 438 286 452T312 478T349 498T397 507Q428 507 457 495T510 457T548 391T563 296Q563 249 550 196T508 96T435 20T330 -11Q300 -11 280 -4T246 13T223 35T207 58L171 -156H-16L121 667H309ZM250 316Q248 305 245 285T238 242T232 199T229 167Q229 158 231 148T239 128T255 114T280 108Q295 108 305 113T322 128T334 147T342 167Q346 180 351 199T359 239T365 278T368 310Q368 320 367 332T360 356T344 375T315 383Q298 383 287 377T269 360T258 338T250 316Z"  />
<glyph unicode="&#xFF;" horiz-adv-x="485" d="M294 -7Q276 -45 257 -76T212 -130T149 -164T59 -176Q33 -176 16 -174T-19 -168V-36Q1 -38 27 -40T74 -42Q106 -42 127 -35T149 -1Q149 7 147 17T143 31L25 493H221L263 295Q265 286 266 280T269 268T272 253T275 231Q276 234 279 242T287 258T294 274T298 285L396 493H529L294 -7ZM465 645Q465 616 446 598T401 580Q374 580 355 599T336 645Q336 671 355 690T401 709Q427 709 446 690T465 645ZM291 644Q291 617 272 599T227 580Q200 580 181 599T162 645Q162 671 180 690T227 709Q253 709 272 690T291 644Z"  />
<glyph unicode="&#x131;" horiz-adv-x="294" d="M201 0H10L92 493H284L201 0Z"  />
<glyph unicode="&#x152;" horiz-adv-x="944" d="M862 265H614L595 150H905L879 0H432Q379 -16 320 -14Q281 -14 233 1T142 51T71 144T42 289Q42 346 59 414T116 542T221 642T382 682Q417 682 444 679T507 668H976L951 515H656L639 410H887L862 265ZM452 483Q449 501 439 510T418 524T396 529T381 530Q360 530 346 524T321 509T304 490T293 470Q282 448 274 419T259 360T250 302T247 251Q247 228 250 208T264 173T291 150T335 141Q342 141 352 142T371 146T389 157T400 177L452 483Z"  />
<glyph unicode="&#x153;" horiz-adv-x="844" d="M496 211Q495 209 494 200T493 183Q493 151 512 133T560 115Q581 115 595 122T618 138T632 158T640 176L794 150Q788 138 780 122T758 89T724 53T672 18Q654 7 624 -2T542 -12Q515 -12 495 -9T458 1T427 16T398 34Q386 26 372 18T341 2T303 -9T254 -13Q209 -13 168 0T94 42T43 112T23 213Q23 269 40 322T92 416T177 483T294 509Q326 509 349 504T389 492T417 476T438 460Q447 466 460 474T492 489T536 502T594 507Q655 507 697 486T767 432T806 357T818 273Q818 257 817 244T813 211H496ZM646 308Q649 320 649 325T650 335Q650 361 635 378T591 396Q570 396 556 387T532 365T518 336T510 308H646ZM335 234Q338 256 341 278T344 323Q344 328 343 339T338 361T322 380T292 389Q276 389 266 383T249 369T238 351T232 334Q216 286 210 243T204 177Q204 170 205 159T211 136T227 116T257 108Q274 108 284 115T302 132Q310 144 315 159T325 188T331 215T335 234Z"  />
<glyph unicode="&#x160;" horiz-adv-x="617" d="M452 469Q449 480 444 490T422 512Q402 526 383 529T351 533Q331 533 318 529T298 517T289 503T286 489Q286 472 302 461T347 439L461 399Q487 390 511 374T555 336T585 285T597 222Q597 178 580 137T526 63T434 10T303 -10Q279 -10 251 -8T194 2T135 22T78 55Q36 86 19 118T-9 176L183 214Q186 205 192 193T212 170T248 151T306 143Q352 143 368 159T384 192Q384 212 367 222T313 246L242 272Q208 285 183 297T140 322T109 351T87 385Q77 406 74 426T71 461Q71 477 74 499T88 546T117 593T165 636T237 666T339 678Q378 678 409 674T464 662T506 644T539 624Q583 592 599 563T624 513L452 469ZM304 883L376 825L470 883L579 873L361 727L192 873L304 883Z"  />
<glyph unicode="&#x161;" horiz-adv-x="523" d="M357 347Q345 376 319 385T265 395Q242 395 228 388T213 366Q213 348 228 342T273 330Q309 322 332 317T370 308T396 298T418 287Q492 244 492 166Q492 145 483 115T448 56T373 9T245 -11Q192 -11 144 0T57 38Q20 63 8 89T-11 137L143 159Q146 152 151 143T167 126T197 112T247 106Q287 106 299 117T312 137Q312 144 309 148T296 157T267 165T215 177Q194 182 164 190T105 216T56 261T36 332Q36 363 48 394T87 450T157 490T263 506Q308 506 348 497T427 464Q467 441 481 419T501 379L357 347ZM234 731L306 668L400 731L509 721L290 568L122 721L234 731Z"  />
<glyph unicode="&#x178;" horiz-adv-x="585" d="M396 289L348 0H149L199 298L42 667H253L320 489Q327 473 330 465T338 438Q342 444 347 452T358 468T366 482T371 489L490 667H672L396 289ZM540 803Q540 774 521 756T476 738Q449 738 430 757T411 803Q411 829 430 848T476 867Q502 867 521 848T540 803ZM361 802Q361 775 342 757T297 738Q270 738 251 757T232 803Q232 829 250 848T297 867Q323 867 342 848T361 802Z"  />
<glyph unicode="&#x17D;" horiz-adv-x="578" d="M520 0H-25L-2 137L345 522H79L104 667H615L594 540L336 258Q306 224 288 204T260 173T246 157T238 148H545L520 0ZM303 883L375 825L469 883L578 873L360 727L191 873L303 883Z"  />
<glyph unicode="&#x17E;" horiz-adv-x="475" d="M417 0H-25L-6 111L239 373H54L75 493H499L483 397L225 123H437L417 0ZM234 731L306 668L400 731L509 721L290 568L122 721L234 731Z"  />
<glyph unicode="&#x192;" horiz-adv-x="587" d="M253 521Q267 562 283 598T326 662T397 705T513 721Q540 721 558 720T590 716T613 710T630 704L595 589Q575 595 560 598T526 601Q496 601 477 593T447 572T431 546T422 521H551L511 392H389L281 37Q260 -31 230 -69T166 -125T101 -148T45 -152Q13 -152 -10 -150T-51 -145T-79 -137T-100 -130L-51 -10Q-39 -13 -24 -16T12 -19Q60 -19 83 10T124 95L215 392H141L179 521H253Z"  />
<glyph unicode="&#x2C6;" horiz-adv-x="500" d="M386 573L314 636L220 573L111 583L331 737L498 583L386 573Z"  />
<glyph unicode="&#x2C7;" horiz-adv-x="500" d="M246 731L318 668L412 731L521 721L302 568L134 721L246 731Z"  />
<glyph unicode="&#x2DA;" horiz-adv-x="500" d="M320 563Q276 563 248 592T220 662Q220 704 248 733T319 762Q361 762 389 733T418 662Q418 641 410 623T389 592T358 571T320 563ZM319 628Q332 628 343 637T354 663Q354 677 344 687T319 697Q304 697 294 687T284 662Q284 650 293 639T319 628Z"  />
<glyph unicode="&#x2DC;" horiz-adv-x="500" d="M495 642Q456 602 427 591T376 580Q359 580 345 584T313 597Q284 612 274 616T250 620Q226 620 210 606T184 582L136 639Q142 646 153 656T179 677T212 694T250 701Q260 701 275 698T316 682Q340 670 350 666T374 661Q394 661 411 672T446 699L495 642Z"  />
<glyph unicode="&#x2013;" horiz-adv-x="500" d="M452 173H26L51 320H476L452 173Z"  />
<glyph unicode="&#x2014;" horiz-adv-x="1000" d="M-12 173L12 320H1012L987 173H-12Z"  />
<glyph unicode="&#x2018;" horiz-adv-x="261" d="M96 520L205 667H281L194 535H259L234 383H73L96 520Z"  />
<glyph unicode="&#x2019;" horiz-adv-x="261" d="M258 529L149 383H73L160 514H95L120 667H281L258 529Z"  />
<glyph unicode="&#x201A;" horiz-adv-x="261" d="M172 15L63 -131H-13L74 0H9L34 153H195L172 15Z"  />
<glyph unicode="&#x201C;" horiz-adv-x="468" d="M441 383H277L300 521L407 667H479L395 536H466L441 383ZM239 383H73L96 521L205 667H279L196 536H265L239 383Z"  />
<glyph unicode="&#x201D;" horiz-adv-x="468" d="M120 667H284L261 528L154 383H82L166 513H95L120 667ZM322 667H488L465 528L356 383H283L366 513H296L322 667Z"  />
<glyph unicode="&#x201E;" horiz-adv-x="468" d="M34 154H198L175 15L68 -131H-4L80 0H9L34 154ZM236 154H402L379 15L270 -131H197L280 0H211L236 154Z"  />
<glyph unicode="&#x2020;" horiz-adv-x="583" d="M452 667L425 505H589L565 359H400L314 -157H134L220 359H56L80 505H245L272 667H452Z"  />
<glyph unicode="&#x2021;" horiz-adv-x="583" d="M452 667L425 505H589L565 359H400L367 157H531L507 11H342L314 -157H134L162 11H-2L22 157H187L220 359H56L80 505H245L272 667H452Z"  />
<glyph unicode="&#x2022;" horiz-adv-x="587" d="M496 343Q496 307 483 276T446 222T391 185T324 171Q288 171 257 184T203 221T167 276T153 343Q153 379 166 410T203 464T257 500T324 514Q360 514 391 501T445 464T482 410T496 343Z"  />
<glyph unicode="&#x2026;" horiz-adv-x="1000" d="M214 0H30L60 177H243L214 0ZM547 0H363L393 177H576L547 0ZM880 0H696L726 177H909L880 0Z"  />
<glyph unicode="&#x2030;" horiz-adv-x="1119" d="M728 186Q728 159 719 125T688 60T635 9T556 -12Q524 -12 498 0T454 33T425 81T415 141Q415 179 427 216T463 281T518 327T589 345Q617 345 642 335T687 305T717 255T728 186ZM526 122Q526 105 533 90T561 75Q569 75 579 79T599 104Q603 113 606 126T612 155T616 185T618 212Q618 216 618 224T614 239T604 253T585 259Q570 259 560 249T543 221Q540 212 537 199T532 173T528 146T526 122ZM382 525Q382 495 372 460T340 394T287 343T209 322Q143 322 107 366T71 480Q71 519 83 555T117 619T172 664T243 681Q273 681 298 670T342 639T371 590T382 525ZM180 456Q180 439 187 424T215 409Q223 409 233 413T253 438Q257 447 260 460T266 489T270 519T272 546Q272 550 272 558T268 573T258 587T239 593Q224 593 214 583T197 555Q194 546 191 533T186 507T182 480T180 456ZM1078 186Q1078 159 1069 125T1038 60T985 9T906 -12Q874 -12 848 0T804 33T776 81T766 140Q766 179 778 215T813 281T868 327T939 345Q967 345 992 335T1037 304T1067 255T1078 186ZM876 122Q876 105 883 90T911 75Q919 75 929 79T949 104Q953 113 956 126T962 155T966 185T968 212Q968 216 968 224T964 239T954 253T935 259Q920 259 910 249T893 221Q890 212 887 199T882 173T878 146T876 122ZM217 0H123L582 667H676L217 0Z"  />
<glyph unicode="&#x2039;" horiz-adv-x="218" d="M29 243L138 381H204L123 235L158 109H102L29 243Z"  />
<glyph unicode="&#x203A;" horiz-adv-x="218" d="M188 247L79 109H14L94 255L59 381H115L188 247Z"  />
<glyph unicode="&#x20AC;" horiz-adv-x="587" d="M599 512Q543 556 463 556Q379 556 340 471H578L520 375H314Q312 367 310 360T307 346Q305 338 304 331T302 315H486L430 219H291Q290 214 290 205Q290 170 312 151T377 131Q447 131 480 193L605 129Q570 60 492 20Q424 -13 345 -13Q230 -13 168 47T100 219H4L57 315H108Q110 329 110 333Q110 337 112 342Q113 348 114 354T119 375H34L86 471H151Q201 589 279 642T481 696Q603 696 676 638L599 512Z"  />
<glyph unicode="&#x2122;" horiz-adv-x="824" d="M224 288H95L144 576H57L72 669H377L362 576H272L224 288ZM800 287H676L717 530L604 287H522L486 543Q484 529 483 520T481 504T479 488T475 466L445 287H342L406 667H579L605 489L690 667H864L800 287Z"  />
<glyph unicode="&#xE300;" horiz-adv-x="500" d="M381 727L165 801L201 897L407 794L381 727Z"  />
<glyph unicode="&#xE301;" horiz-adv-x="500" d="M416 897L450 801L217 727L191 794L416 897Z"  />
<glyph unicode="&#xE302;" horiz-adv-x="500" d="M393 733L321 791L228 733L118 743L337 890L506 743L393 733Z"  />
<glyph unicode="&#xE303;" horiz-adv-x="500" d="M272 883L344 825L438 883L547 873L329 727L160 873L272 883Z"  />
<glyph unicode="&#xE304;" horiz-adv-x="500" d="M516 799Q478 759 449 748T397 737Q368 737 334 754Q320 761 311 766T296 773T284 776T272 777Q247 777 231 763T206 739L158 796Q164 803 175 813T201 834T233 851T271 858Q281 858 296 855T338 839Q362 827 372 823T396 818Q416 818 433 829T467 856L516 799Z"  />
<glyph unicode="&#xE305;" horiz-adv-x="500" d="M488 803Q488 774 469 756T424 738Q397 738 378 757T359 803Q359 829 378 848T424 867Q450 867 469 848T488 803ZM309 802Q309 775 290 757T245 738Q218 738 199 757T180 803Q180 829 198 848T245 867Q271 867 290 848T309 802Z"  />
<glyph unicode="&#xE308;" horiz-adv-x="500" d="M341 717Q319 717 301 725T269 747T249 779T241 817Q241 837 248 855T269 887T301 909T340 917Q382 917 410 888T439 817Q439 796 431 778T410 746T378 725T341 717ZM341 783Q355 783 365 792T375 816Q375 830 365 840T340 850Q326 850 316 841T306 817Q306 802 316 793T341 783Z"  />

</font>
</defs>
</svg>
