<?xml  version="1.0" encoding="UTF-8"?>
<!DOCTYPE svg PUBLIC "-//W3C//DTD SVG 1.0//EN" "http://www.w3.org/TR/2001/REC-SVG-20010904/DTD/svg10.dtd" >
<svg xmlns="http://www.w3.org/2000/svg" >
<metadata>
<version>1.0</version>
<id><![CDATA[ITC Franklin Gothic W01 Dm CnIt]]></id>
<vendor>Monotype Imaging Inc.</vendor>
<credits>
<name>Fonts.com WebFonts</name>
<URL>http://webfonts.fonts.com</URL>
<role>Home of the Web fonts</role>
</credits>
<license>
<URL>http://webfonts.fonts.com/Legal</URL>
</license>
<copyright><![CDATA[Part of the digitally encoded machine readable outline data for producing the Typefaces provided is copyrighted ¨ 2004 - 2006 Linotype GmbH, www.linotype.com. All rights reserved. This software is the property of Linotype GmbH, and may not be reproduced, modified, disclosed or transferred without the express written approval of Linotype GmbH.  Copyright ¨ 1995 Adobe Systems Incorporated. All Rights Reserved.]]></copyright>
<trademark><![CDATA[ITC Franklin Gothic is a registered trademark of International Typeface Corporation.]]></trademark>
<licensee>
<name></name>
</licensee>
</metadata>
<defs >
<font horiz-adv-x="463" id="a7d47205-7be9-48ab-bf9d-db13411bebb6">
<font-face font-family="" panose-1="2 11 7 6 5 0 0 9 0 4" ascent="900" descent="-250" units-per-em="1000" alphabetic="0">
</font-face>
<missing-glyph horiz-adv-x="250" />

<glyph unicode="&#xA;" />
<glyph unicode="&#xD;" horiz-adv-x="0" />
<glyph unicode=" " horiz-adv-x="250" />
<glyph unicode="!" horiz-adv-x="341" d="M95 148H228L203 0H70L95 148ZM159 667H321L207 200H122L159 667Z"  />
<glyph unicode="&quot;" horiz-adv-x="375" d="M109 667H231L168 386H76L109 667ZM280 667H402L339 386H247L280 667Z"  />
<glyph unicode="#" horiz-adv-x="511" d="M39 0L98 204H30L54 285H122L153 393H85L109 474H177L233 667H323L266 474H354L410 667H500L444 474H511L487 393H420L389 285H456L432 204H365L305 0H216L275 204H188L128 0H39ZM333 393H240L209 285H302L333 393Z"  />
<glyph unicode="$" horiz-adv-x="511" d="M155 220Q165 171 183 145T246 119Q271 119 286 126T309 144T321 167T324 189Q324 223 302 240T240 276Q210 290 183 305T134 341T101 388T88 451Q88 472 93 495T108 541T134 584T173 621Q205 644 234 648T284 654L297 730H375L360 644Q389 633 410 618T445 582T469 539T483 491L357 457Q354 470 351 485T340 513T320 534T288 543Q258 543 240 524T222 479Q222 466 225 456T240 436T274 413T333 381Q355 369 378 355T420 322T451 276T463 214Q463 193 458 168T442 119T413 73T369 37Q336 19 307 15T254 8L238 -90H160L177 15Q134 25 107 45T63 91T39 144T28 197L155 220Z"  />
<glyph unicode="%" horiz-adv-x="698" d="M226 679Q289 679 319 640T349 536Q349 500 340 463T313 397T266 349T200 330Q176 330 153 338T113 361Q88 384 81 415T74 470Q74 504 82 541T109 608T156 659T226 679ZM224 600Q209 600 200 590T187 569Q181 553 178 536T172 504T169 475T168 455Q168 452 168 445T172 429T181 415T200 409Q221 409 232 428T248 470T254 515T255 539Q255 545 255 555T251 575T242 592T224 600ZM95 0L542 667H619L172 0H95ZM528 337Q588 337 619 300T651 194Q651 156 642 119T613 53T567 6T502 -12Q478 -12 455 -4T415 19Q391 41 384 71T376 128Q376 163 384 200T411 267T459 317T528 337ZM526 258Q508 258 497 241T480 199T472 151T470 112Q470 98 473 89T482 75T492 69T502 67Q522 67 531 81T545 108Q553 134 555 159T557 197Q557 202 557 212T553 233T544 250T526 258Z"  />
<glyph unicode="&amp;" horiz-adv-x="630" d="M546 3Q536 0 523 -3T490 -7Q464 -7 446 -1T414 13T393 32T378 50Q369 42 354 32T318 12T270 -5T207 -12Q161 -12 124 2T61 40T21 98T7 170Q7 225 27 261T76 320T135 355T185 373Q171 399 159 428T146 502Q146 541 159 573T196 629T254 666T330 679Q374 679 405 667T457 635T486 587T495 528Q495 484 481 453T444 401T397 366T351 342Q355 336 363 321T382 287T403 251T419 223Q434 242 446 263T467 306T484 346T495 378L601 362Q585 314 567 278T533 214T502 168T478 138Q485 129 495 119T526 109Q535 109 543 110T561 114L546 3ZM272 512Q272 486 281 464T305 422Q320 429 334 436T359 455T376 482T383 522Q383 544 377 557T363 578T346 588T330 591Q305 591 289 570T272 512ZM147 179Q147 156 154 140T174 114T201 100T231 95Q268 95 290 107T327 131Q313 153 303 170T283 204T260 242T230 294Q221 289 207 281T180 260T157 226T147 179Z"  />
<glyph unicode="&apos;" horiz-adv-x="221" d="M119 667H241L179 386H86L119 667Z"  />
<glyph unicode="(" horiz-adv-x="324" d="M138 -169Q116 -137 97 -97T62 -10T38 87T29 188Q29 232 36 279T60 374T103 470T167 565Q198 604 223 628T265 667H361Q311 617 272 553T207 418T166 273T152 129Q152 74 159 29T176 -53T199 -119T221 -169H138Z"  />
<glyph unicode=")" horiz-adv-x="324" d="M-34 -169Q21 -113 59 -47T122 90T158 229T170 362Q170 380 169 410T160 479T139 566T98 667H178Q218 607 241 548T275 438T290 352T293 299Q293 219 270 147T212 15T137 -93T62 -169H-34Z"  />
<glyph unicode="*" horiz-adv-x="511" d="M353 649L322 533L430 583L457 505L345 476L441 413L390 348L305 429L297 310L217 323L248 439L140 389L113 467L225 496L129 560L180 624L265 543L273 662L353 649Z"  />
<glyph unicode="+" horiz-adv-x="511" d="M474 384V283H320V129H219V283H65V384H219V538H320V384H474Z"  />
<glyph unicode="&#x2c;" horiz-adv-x="255" d="M-3 -153L81 0H18L42 148H178L156 14L46 -153H-3Z"  />
<glyph unicode="-" horiz-adv-x="273" d="M26 187L44 295H243L225 187H26Z"  />
<glyph unicode="." horiz-adv-x="255" d="M18 0L43 148H179L154 0H18Z"  />
<glyph unicode="/" horiz-adv-x="443" d="M-78 -169L373 667H463L12 -169H-78Z"  />
<glyph unicode="0" horiz-adv-x="511" d="M229 -12Q164 -12 127 15T70 83T46 169T41 250Q41 269 43 308T55 395T81 493T128 584T200 652T306 679Q351 679 382 666T435 632T467 584T484 530T491 477T493 432Q493 386 488 335T471 235T440 141T391 62T321 8T229 -12ZM241 96Q256 96 267 102T286 117T299 138T308 160Q319 195 327 235T340 316T348 393T351 460Q351 477 349 496T342 532T325 560T296 571Q275 571 259 554T230 509T208 445T194 371T186 297T183 232Q183 205 184 180T192 137T209 107T241 96Z"  />
<glyph unicode="1" horiz-adv-x="511" d="M64 116H182L246 499Q233 485 221 477T192 465T154 458T98 456L119 581Q141 581 166 584T217 597T265 625T305 673H417L324 116H439L419 0H45L64 116Z"  />
<glyph unicode="2" horiz-adv-x="511" d="M22 135Q38 145 68 166T135 216T208 279T276 351T326 425T346 498Q346 507 344 518T334 538T316 554T289 561Q263 561 247 546T221 510T207 468T200 434L70 464Q74 504 89 542T132 611T200 660T293 679Q338 679 374 666T437 629T477 572T492 497Q492 422 454 362T347 243Q338 235 329 228T302 208T255 175T176 120H440L420 0H2L22 135Z"  />
<glyph unicode="3" horiz-adv-x="511" d="M132 212Q133 198 137 179T150 141T178 109T225 96Q270 96 292 126T315 196Q315 232 302 251T271 279T232 289T199 291H168L190 398H230Q265 398 284 403T319 424Q346 451 346 493Q346 502 344 515T335 541T314 562T277 571Q257 571 243 564T219 544T202 515T189 482L72 522Q87 567 111 597T166 646T229 671T294 679Q332 679 368 670T434 635Q451 620 461 603T478 568T486 533T488 503Q488 455 474 426T440 379T400 354T369 343Q402 330 419 309T445 265T455 224T457 198Q457 169 449 133T416 64T348 10T234 -12Q165 -12 123 7T58 55T26 117T11 178L132 212Z"  />
<glyph unicode="4" horiz-adv-x="511" d="M259 148H7L26 265L337 667H480L412 260H496L477 148H393L369 0H234L259 148ZM277 256L326 520L130 256H277Z"  />
<glyph unicode="5" horiz-adv-x="511" d="M150 202Q152 188 155 174T168 146Q179 128 197 117T239 106Q273 106 291 124T318 165T328 209T330 237Q330 243 329 257T321 288T298 316T253 328Q233 328 220 322T197 306T181 288T172 272L65 314L145 667H508L482 540H230L197 384Q203 392 210 401T230 419T260 432T304 438Q362 438 396 414T446 356T467 290T472 240Q472 209 463 166T428 84T356 16T236 -12Q172 -12 133 8T70 55T37 112T23 160L150 202Z"  />
<glyph unicode="6" horiz-adv-x="511" d="M377 493Q372 535 354 553T312 571Q280 571 260 544T226 480T207 406T199 349Q204 359 212 372T233 398T266 419T315 428Q336 428 364 421T417 392T459 333T476 233Q476 177 461 132T417 54T348 5T257 -12Q240 -12 221 -10T183 -2T146 13T114 38Q91 62 78 92T58 152T49 209T47 255Q47 291 51 330T66 409T90 487T126 560Q141 585 162 607T210 645T266 670T328 679Q332 679 345 678T377 673T417 659T457 631T489 586T507 518L377 493ZM258 96Q282 96 297 109T320 141T331 183T334 226Q334 232 333 247T326 279T307 307T270 320Q233 320 211 283T189 191Q189 164 195 146T211 116T233 101T258 96Z"  />
<glyph unicode="7" horiz-adv-x="511" d="M96 0Q113 117 153 208T239 367T329 479T398 547H102L122 667H528L511 561Q444 476 400 402T329 260T286 128T262 0H96Z"  />
<glyph unicode="8" horiz-adv-x="511" d="M386 365Q395 360 409 351T436 324T459 280T469 212Q469 162 454 121T408 51T334 5T233 -12Q224 -12 205 -11T161 -5T112 11T66 39T32 85T18 153Q18 202 36 238T83 296Q103 313 121 320T154 332Q145 339 134 349T112 376T95 414T88 468Q88 505 100 542T138 610T208 660T313 680Q329 680 349 678T390 670T432 653T469 623Q484 605 493 580T503 522Q503 478 488 450T453 403T414 377T386 365ZM315 403Q325 408 336 415T359 436Q369 448 375 465T382 504Q382 543 360 569T299 595Q269 595 244 574T218 512Q218 481 237 453T315 403ZM221 285Q209 279 196 271T171 250T152 221T144 179Q144 160 150 142T168 111T200 89T244 80Q268 80 285 87T312 107T328 133T333 162Q333 177 329 192T313 222T279 252T221 285Z"  />
<glyph unicode="9" horiz-adv-x="511" d="M144 179Q149 151 159 135T181 110T204 99T224 96Q242 96 259 104T290 134T317 197T337 301Q313 272 287 261T232 250Q205 250 175 259T121 291T80 349T63 437Q63 454 66 479T77 531T102 584T143 632T203 666T288 679Q337 679 370 665T425 627T459 575T476 517T483 462T484 417Q484 326 468 248T417 112T332 21T211 -12Q156 -12 122 3T69 41T40 89T26 132L144 179ZM271 356Q297 356 312 369T336 402T346 443T349 482Q349 487 348 501T341 531T320 559T281 571Q252 571 237 554T214 516T205 474T204 448Q204 430 207 413T217 384T238 364T271 356Z"  />
<glyph unicode=":" horiz-adv-x="255" d="M75 345L100 493H236L212 345H75ZM18 0L43 148H179L154 0H18Z"  />
<glyph unicode=";" horiz-adv-x="255" d="M-3 -153L80 0H18L42 148H178L156 14L46 -153H-3ZM75 345L100 493H236L212 345H75Z"  />
<glyph unicode="&lt;" horiz-adv-x="511" d="M486 479L211 337L485 195L486 47L53 275V400L486 627V479Z"  />
<glyph unicode="=" horiz-adv-x="511" d="M65 365V466H474V365H65ZM65 201V302H474V201H65Z"  />
<glyph unicode="&gt;" horiz-adv-x="511" d="M53 196L329 337L54 480L53 627L486 399V274L53 47V196Z"  />
<glyph unicode="?" horiz-adv-x="460" d="M124 0L149 148H282L257 0H124ZM156 204Q159 242 164 269T178 318T202 356T241 389Q266 405 283 417T312 442T329 469T334 505Q334 526 328 540T313 562T292 574T271 577Q247 577 232 567T207 542T191 508T181 474L75 508Q98 601 153 643T283 686Q329 686 363 673T421 637T457 581T469 511Q469 464 457 432T426 377T386 339T347 314Q325 301 312 290T292 267T282 240T277 204H156Z"  />
<glyph unicode="@" horiz-adv-x="681" d="M564 40Q467 -19 353 -19Q287 -19 231 2T133 65T69 165T46 298Q46 373 71 443T142 567T254 655T402 688Q452 688 501 673T589 625T652 541T676 419Q676 392 672 362T658 302T634 246T598 198Q572 173 534 157T454 141Q429 141 407 149T375 181Q362 166 350 158T327 146T309 142T298 141Q282 141 265 148T237 165Q224 178 217 198T210 252Q210 297 223 343T260 426T316 488T386 512Q404 512 414 507T429 493T437 476T440 459L455 504H534L474 311Q472 306 469 296T463 273T457 252T454 239Q454 228 461 226T478 223Q504 223 525 238T560 280T583 340T591 412Q591 502 542 556T399 611Q337 611 287 585T203 515T150 414T131 292Q131 239 145 196T189 121T261 73T362 55Q381 55 401 57T442 65T488 82T542 112L564 40ZM377 419Q361 419 348 400T325 354T310 302T305 264Q305 254 309 244T326 233Q344 233 358 252T382 296T397 347T402 383Q402 386 402 392T399 404T392 414T377 419Z"  />
<glyph unicode="A" horiz-adv-x="511" d="M471 0H328L315 147H148L87 0H-45L249 667H396L471 0ZM290 516L191 260H306L290 516Z"  />
<glyph unicode="B" horiz-adv-x="545" d="M128 667H310Q341 667 379 664T449 645T504 599T526 510Q526 462 512 432T478 384T438 358T407 347Q418 344 435 337T469 315T497 274T509 207Q509 183 504 158T489 109T463 67T426 35Q382 10 335 5T243 0H16L128 667ZM222 396H264Q279 396 299 397T338 408T369 436T382 490Q382 515 373 529T349 551T317 559T284 561H250L222 396ZM174 108H238Q251 108 272 110T312 122T346 154T360 215Q360 243 351 259T326 282T291 290T254 292H205L174 108Z"  />
<glyph unicode="C" horiz-adv-x="528" d="M387 417Q388 439 388 464T384 510T364 546T323 560Q302 560 288 550T263 527T248 502T241 485Q228 449 220 409T206 333T199 268T197 224Q197 173 212 140T265 107Q303 107 327 139T366 240L507 215Q484 99 422 44T265 -12Q207 -12 165 7T96 60T55 142T42 248Q42 263 44 298T55 379T81 475T130 573Q150 603 174 623T226 656T281 673T336 679Q376 679 412 667T476 630T520 564T536 467Q536 456 536 447T534 426L387 417Z"  />
<glyph unicode="D" horiz-adv-x="562" d="M127 667H272Q282 667 303 667T349 663T401 654T448 635Q481 617 501 587T531 524T544 459T547 404Q547 382 544 335T526 233T482 127T400 44Q373 27 347 19T294 6T243 1T190 0H16L127 667ZM174 112H212Q255 112 277 124T315 152Q329 166 343 189T368 247T386 326T393 427Q393 465 387 490T366 529T330 549T275 555H248L174 112Z"  />
<glyph unicode="E" horiz-adv-x="477" d="M128 667H521L502 550H248L222 398H433L414 286H204L175 117H433L413 0H16L128 667Z"  />
<glyph unicode="F" horiz-adv-x="443" d="M128 667H503L483 550H248L220 385H422L402 268H200L156 0H16L128 667Z"  />
<glyph unicode="G" horiz-adv-x="562" d="M415 -7L407 79Q400 67 389 52T360 22T316 -2T250 -12Q178 -12 137 16T76 84T50 170T45 250Q45 326 60 402T109 540T200 640T339 679Q386 679 419 666T475 632T511 586T532 536T541 491T545 459L415 437Q414 449 412 469T401 510T377 545T332 560Q313 560 299 553T274 534T256 510T243 485Q216 420 205 352T194 233Q194 215 196 193T207 152T231 120T273 107Q304 107 323 121T355 156T373 200T382 240H283L303 357H533L472 -7H415Z"  />
<glyph unicode="H" horiz-adv-x="562" d="M128 667H267L223 401H390L434 667H574L462 0H323L370 284H203L156 0H16L128 667Z"  />
<glyph unicode="I" horiz-adv-x="255" d="M127 667H267L156 0H16L127 667Z"  />
<glyph unicode="J" horiz-adv-x="324" d="M-21 115Q-10 112 2 110T31 107Q58 107 74 113T101 134T117 171T129 227L202 667H342L267 223Q259 176 250 133T220 58T163 7T66 -12Q41 -12 15 -10T-40 0L-21 115Z"  />
<glyph unicode="K" horiz-adv-x="511" d="M323 0L269 293L188 191L156 0H16L128 667H267L219 381L417 667H568L376 420L482 0H323Z"  />
<glyph unicode="L" horiz-adv-x="409" d="M127 667H267L175 117H389L370 0H16L127 667Z"  />
<glyph unicode="M" horiz-adv-x="732" d="M128 667H334L367 249L539 667H744L633 0H493L590 546L358 0H274L218 543L133 0H16L128 667Z"  />
<glyph unicode="N" horiz-adv-x="562" d="M128 667H269L392 259L457 667H574L462 0H354L210 482L133 0H16L128 667Z"  />
<glyph unicode="O" horiz-adv-x="562" d="M269 107Q288 107 303 115T328 137T346 164T357 191Q370 230 378 267T392 338T399 399T401 443Q401 450 400 469T392 508T370 544T326 560Q307 560 293 552T268 533T251 509T241 490Q226 455 216 418T199 345T190 276T187 215Q187 195 190 176T203 141T229 117T269 107ZM262 -12Q193 -12 150 12T84 75T52 160T44 250Q44 291 50 339T69 434T105 526T159 604T234 658T333 679Q345 679 368 677T417 664T470 632T514 573Q532 535 538 493T544 409Q544 325 525 245T460 95Q436 59 409 38T356 5T305 -9T262 -12Z"  />
<glyph unicode="P" horiz-adv-x="511" d="M128 667H323Q337 667 358 666T402 660T449 644T491 612T521 559T533 481Q533 457 529 432T517 382T494 336T459 298Q435 280 412 270T368 256T328 251T292 250H198L156 0H16L128 667ZM218 367H285Q301 367 319 369T354 382Q374 396 382 423T390 473Q390 501 381 516T358 539T327 548T292 550H248L218 367Z"  />
<glyph unicode="Q" horiz-adv-x="562" d="M460 -127Q432 -134 399 -134Q353 -134 329 -120T295 -86T283 -46T282 -12Q209 -16 163 6T91 66T56 152T46 251Q46 286 51 331T68 424T100 517T152 599T228 657T331 679Q388 679 426 659T484 614Q495 601 505 584T524 542T537 484T542 407Q542 360 535 303T508 189T457 86T374 11Q376 -12 391 -18T423 -25Q431 -25 442 -24T469 -19L460 -127ZM269 106Q278 106 289 108T311 118T334 144T356 191Q378 257 388 321T399 438Q399 448 398 468T390 509T368 544T325 560Q304 560 289 551T264 529T248 506T241 490Q229 459 220 422T203 348T193 276T189 213Q189 195 192 176T205 142T229 116T269 106Z"  />
<glyph unicode="R" horiz-adv-x="528" d="M128 667H325Q359 667 396 662T465 639T516 585T536 487Q536 431 522 395T487 337T446 305T410 288L484 0H333L269 263H200L156 0H16L128 667ZM219 374H275Q311 374 333 385T368 413T385 451T390 490Q390 514 383 528T364 549T337 559T303 561H250L219 374Z"  />
<glyph unicode="S" horiz-adv-x="511" d="M144 213Q155 163 175 135T243 107Q289 107 307 130T326 180Q326 199 320 212T303 236T276 256T237 276Q205 291 176 307T124 345T88 395T74 463Q74 491 83 528T118 598T184 655T291 679Q325 679 357 671T416 643T465 590T497 507L363 472Q360 487 356 502T343 530T321 551T287 560Q256 560 237 541T217 492Q217 478 220 468T235 447T271 421T337 386Q362 374 386 359T430 322T462 273T475 208Q475 182 470 158T455 111T433 72T407 42Q388 25 366 15T321 -2T277 -10T239 -12Q195 -12 156 -2T87 31T36 93T9 188L144 213Z"  />
<glyph unicode="T" horiz-adv-x="409" d="M184 543H43L64 667H481L460 543H324L233 0H93L184 543Z"  />
<glyph unicode="U" horiz-adv-x="545" d="M260 667L198 296Q196 281 194 265T189 233T186 204T185 184Q185 161 192 146T211 123T237 111T263 107Q292 107 309 116T338 144T355 192T368 260L436 667H563L491 235Q483 189 470 140T429 56Q414 37 392 24T345 3T295 -8T247 -12Q145 -12 95 36T45 162Q45 192 48 222T56 281L121 667H260Z"  />
<glyph unicode="V" horiz-adv-x="494" d="M70 667H214L243 179L424 667H548L285 0H124L70 667Z"  />
<glyph unicode="W" horiz-adv-x="767" d="M73 667H217L228 218L384 667H518L539 218L687 667H818L568 0H443L416 476L244 0H120L73 667Z"  />
<glyph unicode="X" horiz-adv-x="477" d="M178 356L66 667H221L274 472L395 667H534L326 356L452 0H294L229 238L85 0H-59L178 356Z"  />
<glyph unicode="Y" horiz-adv-x="460" d="M173 281L47 667H191L267 416L410 667H543L312 276L266 0H126L173 281Z"  />
<glyph unicode="Z" horiz-adv-x="494" d="M9 106L338 555H89L108 667H524L507 565L178 117H452L433 0H-9L9 106Z"  />
<glyph unicode="[" horiz-adv-x="324" d="M0 -169L140 667H328L318 606H250L130 -108H209L199 -169H0Z"  />
<glyph unicode="\" horiz-adv-x="392" d="M99 667H181L352 -169H270L99 667Z"  />
<glyph unicode="]" horiz-adv-x="324" d="M-5 -169L5 -108H73L193 606H114L124 667H323L183 -169H-5Z"  />
<glyph unicode="^" horiz-adv-x="511" d="M385 316L265 562L145 316H25L214 674H317L506 316H385Z"  />
<glyph unicode="_" horiz-adv-x="500" d="M500 -75V-125H0V-75H500Z"  />
<glyph unicode="`" horiz-adv-x="460" d="M162 640L210 713L355 605L326 554L162 640Z"  />
<glyph unicode="a" horiz-adv-x="460" d="M387 88Q385 73 383 58T381 31Q381 22 381 16T384 0H252Q248 16 248 29Q248 37 249 45T253 66Q247 55 238 42T215 16T179 -4T126 -12Q88 -12 65 1T29 33T12 74T8 113Q8 159 24 191T66 244T123 278T187 297T247 305T293 308Q295 323 297 338T300 369Q300 398 284 409T250 421Q230 421 218 413T199 391T189 364T183 338L59 353Q64 372 73 398T103 449T159 489T252 506Q303 506 337 493T391 461T421 418T430 373Q430 364 429 353T427 330T423 308T420 291L387 88ZM146 127Q146 106 157 90T194 73Q216 73 230 83T253 115T268 167T282 239Q235 235 208 220T168 187T150 151T146 127Z"  />
<glyph unicode="b" horiz-adv-x="477" d="M121 667H257L219 441Q226 451 234 462T255 483T284 499T324 505Q371 505 397 485T435 436T450 378T453 332Q453 301 449 265T436 191T413 119T378 55Q355 25 318 7T238 -12Q200 -12 178 -1T143 24T125 53T118 76Q109 57 103 42T86 0H10L121 667ZM220 82Q243 82 256 100T278 147Q297 210 306 261T315 344Q315 354 314 365T308 387T295 404T272 411Q257 411 247 404T229 388T218 369T213 357Q211 351 204 327T190 270T176 203T170 143Q170 140 171 130T176 110T191 91T220 82Z"  />
<glyph unicode="c" horiz-adv-x="426" d="M403 171Q394 133 378 100T338 41T280 2T203 -12Q115 -12 70 42T24 197Q24 236 34 289T71 390T142 471T257 505Q298 505 326 494T373 464T401 424T415 381T421 343T422 318L303 312Q303 322 302 337T295 366T280 391T252 401Q234 401 222 391T201 365T187 334T179 307Q173 283 169 259T163 216T161 183T160 166Q160 138 168 123T185 101T203 93T214 92Q232 92 245 103T266 130T280 162T287 187L403 171Z"  />
<glyph unicode="d" horiz-adv-x="477" d="M496 667L384 0H267L278 62Q270 51 260 38T236 14T201 -4T152 -12Q107 -12 82 8T43 58T27 117T24 167Q24 185 26 216T36 285T57 362T93 433T149 485T228 505Q256 505 273 498T301 481T315 459T322 441L359 667H496ZM212 82Q226 82 236 88T252 102T262 120T268 136Q274 160 280 194T292 261T301 322T305 359Q305 391 292 403T263 415Q249 415 239 409T221 394T210 377T203 365Q193 338 186 309T173 250T166 196T163 152Q163 122 173 102T212 82Z"  />
<glyph unicode="e" horiz-adv-x="460" d="M164 224Q162 214 161 200T160 168Q160 162 161 148T167 119T184 93T217 82Q235 82 247 88T269 106T284 133T296 167L407 147Q392 102 373 72T329 23T274 -4T209 -12Q165 -12 134 -1T83 32Q60 55 43 94T25 200Q25 259 40 314T85 411T158 479T255 505Q305 505 343 483T404 423Q415 403 423 375T432 295Q432 269 431 255T427 224H164ZM306 302Q308 310 309 320T310 346Q310 350 309 362T303 387T287 410T256 420Q233 420 218 406T194 373T181 334T175 302H306Z"  />
<glyph unicode="f" horiz-adv-x="290" d="M95 391H41L57 493H112Q118 523 122 544T131 581T141 609T154 633Q171 657 191 670T231 690T267 698T293 699Q317 699 332 697T360 692L350 582Q342 584 333 585T312 586Q291 586 279 580T260 561T250 531T244 493H322L305 391H231L166 0H30L95 391Z"  />
<glyph unicode="g" horiz-adv-x="460" d="M463 513Q453 515 446 516T431 517Q399 517 391 504T380 478Q386 475 396 468T415 449T432 417T439 370Q439 342 430 312T399 256T341 213T251 196Q221 196 206 199T177 206Q166 199 155 190T144 165Q144 141 167 137T240 131Q268 130 298 127T354 110T396 70T413 -1Q413 -54 393 -88T338 -141T262 -168T174 -176Q133 -176 99 -171T39 -154T-1 -121T-15 -68Q-15 -43 -8 -25T10 4T33 23T55 35Q47 42 34 59T20 113Q20 144 31 165T57 202T87 225T113 239Q107 243 100 249T86 267T74 296T69 337Q69 377 83 409T122 463T183 497T261 509Q286 509 302 507T330 501Q334 526 341 546T362 581T397 603T449 611Q455 611 459 611T471 609L463 513ZM314 366Q314 371 313 381T308 400T292 417T262 425Q238 425 225 414T204 389T196 359T194 335Q194 308 207 293T247 278Q275 278 294 299T314 366ZM118 11Q110 5 102 -5T94 -32Q94 -49 105 -58T133 -73T169 -80T203 -82Q210 -82 226 -81T259 -76T287 -61T300 -31Q300 -19 295 -12T282 -1T266 4T253 7Q246 8 227 8T187 9T146 10T118 11Z"  />
<glyph unicode="h" horiz-adv-x="477" d="M120 667H257L220 446Q226 454 234 464T255 484T287 499T335 505Q387 505 419 478T451 397Q451 394 450 372T440 305L389 0H253L304 305Q309 334 310 345T312 364Q312 377 307 384T295 395T281 400T271 401Q249 401 236 391T214 365T201 327T192 281L145 0H9L120 667Z"  />
<glyph unicode="i" horiz-adv-x="239" d="M91 493H228L145 0H9L91 493ZM119 673H261L238 538H96L119 673Z"  />
<glyph unicode="j" horiz-adv-x="238" d="M-75 -65Q-69 -66 -64 -66T-53 -67Q-34 -67 -23 -63T-5 -45T7 -8T18 54L92 493H228L150 28Q142 -19 134 -58T109 -125T61 -168T-21 -183Q-25 -183 -45 -182T-94 -176L-75 -65ZM119 673H261L238 538H96L119 673Z"  />
<glyph unicode="k" horiz-adv-x="460" d="M425 0H282L238 236L174 169L145 0H9L121 667H257L198 312L346 493H491L339 330L425 0Z"  />
<glyph unicode="l" horiz-adv-x="239" d="M121 667H257L145 0H9L121 667Z"  />
<glyph unicode="m" horiz-adv-x="698" d="M92 493H209L194 412Q201 424 211 440T236 471T274 495T328 505Q359 505 377 495T405 469T417 438T421 412Q430 431 441 447T469 477T506 497T556 505Q591 505 613 493T648 464T666 426T671 389Q671 381 670 362T663 313L611 0H474L524 298Q525 306 526 316T529 335T531 353T532 365Q532 379 524 390T496 401Q477 401 465 392T445 363T432 317T421 253L378 0H242L290 285Q290 289 292 301T296 326T300 351T302 366Q302 401 267 401Q247 401 235 391T214 362T200 316T188 253L145 0H9L92 493Z"  />
<glyph unicode="n" horiz-adv-x="477" d="M92 493H209L196 414Q202 426 211 441T236 471T275 495T332 505Q355 505 375 500T412 483Q432 468 441 445T450 399Q450 370 446 341T439 295L390 0H253L303 295Q306 314 307 325T309 343T310 354T311 361Q311 375 306 383T293 395T279 400T269 401Q248 401 235 391T214 362T200 320T190 266L145 0H9L92 493Z"  />
<glyph unicode="o" horiz-adv-x="460" d="M203 -12Q197 -12 184 -11T154 -6T119 7T84 30Q65 46 54 67T36 111T27 157T24 200Q24 249 36 302T75 401T147 475T258 505Q309 505 342 487T396 439T424 371T433 293Q433 267 429 235T416 168T389 100T346 39Q330 22 311 12T272 -3T234 -10T203 -12ZM209 82Q226 82 239 97T261 136T277 189T287 245T292 296T294 330Q294 342 293 356T288 382T276 403T252 411Q232 411 218 395T193 352T178 296T169 236T164 185T163 153Q163 121 172 102T209 82Z"  />
<glyph unicode="p" horiz-adv-x="477" d="M92 493H209L198 426Q205 437 214 450T239 476T274 496T323 505Q369 505 394 484T432 433T448 373T451 324Q451 291 447 253T433 178T410 106T375 45Q356 20 324 4T256 -12Q229 -12 211 -5T182 12T165 33T155 54L117 -167H-19L92 493ZM214 82Q256 82 276 138Q288 171 295 207T307 273T312 324T314 351Q314 373 308 385T293 403T278 410T269 411Q255 411 245 405T229 389T218 371T212 358Q202 331 195 300T182 240T173 184T170 139Q170 136 170 127T175 107T188 90T214 82Z"  />
<glyph unicode="q" horiz-adv-x="477" d="M256 49Q237 22 215 5T157 -12Q113 -12 87 4T47 45T29 99T25 155Q25 162 26 194T35 269T57 358T99 442Q122 472 158 488T233 505Q270 505 293 495T331 470T351 441T361 416Q370 433 376 448T394 493H470Q467 479 464 462T457 429T452 399T448 379L356 -167H220L256 49ZM308 363Q308 387 297 403T265 420Q247 420 233 406T207 369T187 317T174 259T167 203T164 156Q164 76 215 82Q221 83 229 85T244 95T259 116T272 153Q275 167 281 194T293 253T303 314T308 363Z"  />
<glyph unicode="r" horiz-adv-x="307" d="M83 493H200L183 394Q198 421 212 441T245 474T286 494T342 500L323 359Q306 359 288 358T253 350T220 329T194 289Q190 279 186 261T177 224T169 186T163 155L137 0H1L83 493Z"  />
<glyph unicode="s" horiz-adv-x="392" d="M107 153Q110 141 114 129T125 106T146 89T179 82Q182 82 191 82T210 87T228 101T236 127Q236 139 232 147T219 163T195 178T159 195Q139 204 118 214T80 241T52 280T41 338Q41 359 48 388T76 443T129 487T216 505Q269 505 300 488T349 448T371 402T379 366L277 341Q275 352 272 365T262 389T244 407T215 414Q194 414 178 402T161 368Q161 356 165 348T178 332T204 316T245 296Q267 285 288 274T325 247T351 209T361 156Q361 132 354 103T326 48T270 5T178 -12Q159 -12 139 -9T99 0T62 16T31 42Q11 65 5 91T-4 137L107 153Z"  />
<glyph unicode="t" horiz-adv-x="307" d="M28 391L45 493H115L145 633L260 636L236 493H328L311 391H223L189 185Q186 166 185 155T184 136Q184 118 192 106T226 93Q250 93 273 98L256 -4Q236 -8 211 -10T166 -12Q109 -12 76 8T42 84Q42 104 44 123T49 163L87 391H28Z"  />
<glyph unicode="u" horiz-adv-x="477" d="M267 0L280 78Q269 61 258 45T230 16T191 -4T137 -12Q79 -12 51 15T22 85Q22 105 24 124T35 185L86 493H222L174 205Q173 196 172 185T169 163T166 143T165 130Q165 117 170 110T182 98T196 93T207 92Q228 92 241 103T262 131T274 168T282 207L330 493H466L384 0H267Z"  />
<glyph unicode="v" horiz-adv-x="392" d="M29 493H168L193 184L311 493H426L212 0H95L29 493Z"  />
<glyph unicode="w" horiz-adv-x="613" d="M33 493H162L176 180L284 493H409L417 180L533 493H639L435 0H321L309 331L195 0H83L33 493Z"  />
<glyph unicode="x" horiz-adv-x="409" d="M137 258L52 493H194L236 355L323 493H443L280 258L367 0H228L182 164L75 0H-45L137 258Z"  />
<glyph unicode="y" horiz-adv-x="375" d="M192 198L305 493H414L196 -16Q180 -53 164 -82T127 -132T77 -164T6 -175Q-8 -175 -19 -174T-41 -172L-33 -69Q-22 -70 -12 -70T10 -71Q31 -71 45 -66T69 -50T88 -22T106 20L18 493H158L192 198Z"  />
<glyph unicode="z" horiz-adv-x="375" d="M2 96L228 395H60L77 493H390L374 396L150 102H329L312 0H-15L2 96Z"  />
<glyph unicode="{" horiz-adv-x="324" d="M38 307Q50 308 60 311T79 325T95 359T110 423L128 532Q135 578 145 604T172 645T214 663T275 667H319L309 606Q291 606 280 604T263 593T252 566T243 517L223 396Q217 360 211 337T194 300T167 278T127 264Q140 260 151 256T170 244T182 225T187 196Q187 183 185 167T176 118L152 -27Q149 -43 148 -52T146 -68T145 -77T144 -85Q144 -96 152 -102T189 -108L179 -169Q145 -169 117 -168T69 -161T37 -140T25 -100Q25 -93 26 -81T30 -56T34 -31T37 -11L61 130Q63 139 65 159T67 188Q67 206 60 216T26 229L38 307Z"  />
<glyph unicode="|" horiz-adv-x="500" d="M339 -250H189V750H339V-250Z"  />
<glyph unicode="}" horiz-adv-x="324" d="M290 221Q278 219 268 216T249 202T233 168T218 105L195 -34Q187 -80 177 -106T151 -147T109 -165T48 -169H4L14 -108Q32 -108 42 -106T59 -95T70 -68T80 -19L105 132Q111 166 117 189T134 227T160 250T201 264Q175 271 158 284T141 332Q141 345 143 360T152 409L171 525Q176 556 177 565T179 583Q179 595 171 601T134 606L144 667Q178 667 206 666T254 659T286 638T298 599Q298 593 297 581T293 555T289 529T286 509L267 397Q267 395 266 388T264 372T262 355T261 341Q261 320 270 312T303 298L290 221Z"  />
<glyph unicode="~" horiz-adv-x="511" d="M22 293Q47 354 82 391T171 429Q177 429 184 429T203 425T234 415T283 395Q300 388 311 383T331 375T346 371T360 370Q374 370 385 376T406 392T421 413T432 432L505 371Q497 353 486 330T457 286T413 251T349 237Q329 237 311 242T278 254Q251 266 233 273T203 285T182 292T164 294Q150 294 140 288T121 272T106 252T94 232L22 293Z"  />
<glyph unicode="&#xA0;" horiz-adv-x="250" />
<glyph unicode="&#xA1;" horiz-adv-x="341" d="M260 345H128L153 493H285L260 345ZM197 -174H34L148 293H233L197 -174Z"  />
<glyph unicode="&#xA2;" horiz-adv-x="511" d="M266 -3H201L219 101Q204 105 184 113T143 145Q116 176 108 215T99 288Q99 297 100 320T108 373T128 436T163 497T217 545T297 571L312 661H376L360 566Q422 547 443 502T465 396L352 390Q352 398 351 412T346 439T333 462T308 472Q293 472 283 463T266 441T254 414T247 388Q241 366 238 345T233 306T231 276T230 260Q230 236 236 223T249 204T264 196T275 195Q291 195 302 206T320 231T332 260T338 282L449 267Q446 257 442 242T430 208T409 171T376 135Q349 112 325 106T282 97L266 -3Z"  />
<glyph unicode="&#xA3;" horiz-adv-x="511" d="M-7 124H27Q41 124 64 126T108 143T146 187T162 273Q162 281 162 288T160 305H92L108 405H163Q163 450 168 495T194 581Q204 600 219 618T254 649T301 671T360 679Q412 679 443 662T492 622T516 577T525 546L410 499Q403 531 392 546T361 561Q344 561 334 553T318 535T310 514T307 499Q305 490 304 477T303 450T301 424T300 405H397L380 305H296Q291 238 269 197T203 124H289Q317 124 337 127T373 141T399 170T422 219L531 179Q512 112 482 76T417 23T343 3T268 0H-28L-7 124Z"  />
<glyph unicode="&#xA4;" horiz-adv-x="511" d="M418 560L488 491L424 426Q432 412 438 394T445 344Q445 313 439 295T425 263L490 198L417 125L352 190Q335 182 318 176T271 170Q239 170 219 178T188 191L124 127L54 196L118 261Q113 271 105 291T97 344Q97 375 103 392T117 424L52 489L125 562L190 497Q204 504 222 510T271 517Q294 517 314 512T354 496L418 560ZM271 266Q303 266 326 289T349 344Q349 360 343 374T327 398T302 415T271 421Q239 421 216 398T193 343Q193 327 199 313T215 289T240 272T271 266Z"  />
<glyph unicode="&#xA5;" horiz-adv-x="511" d="M43 191L54 260H194L197 280L186 322H64L76 391H168L96 667H232L285 394L412 667H540L389 391H496L484 322H351L329 280L325 260H474L462 191H314L282 0H150L182 191H43Z"  />
<glyph unicode="&#xA6;" horiz-adv-x="500" d="M339 325H189V675H339V325ZM339 -175H189V175H339V-175Z"  />
<glyph unicode="&#xA7;" horiz-adv-x="511" d="M379 536Q371 563 352 577T305 591Q270 591 254 573T237 536Q237 521 243 510T262 487T297 464T349 436Q393 413 418 384T443 306Q443 274 433 250T410 207T382 176T359 157Q369 148 380 138T399 115T412 82T418 36Q418 -5 405 -42T364 -108T295 -152T196 -169Q184 -169 166 -168T126 -161T84 -146T47 -118Q24 -93 18 -67T10 -26L125 -2Q130 -36 152 -52T207 -68Q245 -68 269 -51T294 1Q294 17 289 29T271 50T241 69T198 91Q170 104 145 118T100 150T70 190T59 242Q59 247 60 264T71 304T100 353T157 402Q152 408 145 417T130 438T119 465T114 498Q114 518 122 549T153 609T213 658T311 679Q363 679 394 666T442 634T467 597T477 566L379 536ZM294 193Q297 196 303 202T315 216T325 236T330 262Q330 284 319 299T278 330Q265 337 257 341T243 348T232 355T218 363Q212 360 205 355T190 341T177 322T172 296Q172 278 179 265T201 240T239 218T294 194V193Z"  />
<glyph unicode="&#xA8;" horiz-adv-x="460" d="M213 563Q190 563 175 578T160 616Q160 638 175 653T213 669Q236 669 251 653T266 616Q266 595 251 579T213 563ZM369 563Q346 563 331 578T316 616Q316 637 331 653T369 669Q392 669 407 653T422 616Q422 595 407 579T369 563Z"  />
<glyph unicode="&#xA9;" horiz-adv-x="775" d="M458 377Q459 393 459 408Q459 423 456 435T444 454T420 462Q407 462 398 455T383 438T372 416T365 393Q358 368 354 333T349 271Q349 245 357 225T389 205Q415 205 427 227T448 284L545 268Q530 189 489 158T387 126Q316 126 279 168T242 286Q242 294 243 316T250 367T268 426T300 482T352 524T428 541Q491 541 526 507T561 411Q561 405 561 399Q561 394 559 384L458 377ZM401 -12Q329 -12 266 15T155 88T80 198T52 334Q52 405 79 468T154 578T265 652T401 679Q473 679 537 652T648 578T722 468T750 334Q750 262 723 199T648 89T537 15T401 -12ZM401 65Q456 65 504 86T588 143T644 229T665 334Q665 389 645 438T588 523T504 581T401 602Q347 602 299 581T215 524T158 438T137 334Q137 278 158 229T215 144T299 86T401 65Z"  />
<glyph unicode="&#xAA;" horiz-adv-x="511" d="M322 338Q321 350 321 358T321 384Q316 377 309 368T292 350T266 336T230 330Q214 330 199 334T172 349T153 377T145 419Q145 463 169 488T227 526T293 542T342 546Q344 557 345 565T347 582Q347 596 339 603T317 611Q294 611 287 596T278 565L179 578Q182 590 188 607T210 640T251 667T319 679Q358 679 383 670T423 646T444 616T450 587Q450 578 448 562T443 534L421 401Q420 397 419 387T418 366Q418 360 418 355T421 338H322ZM254 428Q254 415 261 407T282 398Q308 398 316 420T333 494Q320 492 306 488T281 476T262 457T254 428Z"  />
<glyph unicode="&#xAB;" horiz-adv-x="426" d="M406 432L326 257L349 85H289L215 257L335 432H406ZM236 432L156 257L178 85H119L45 257L165 432H236Z"  />
<glyph unicode="&#xAC;" horiz-adv-x="511" d="M373 365H65V466H474V201H373V365Z"  />
<glyph unicode="&#xAD;" horiz-adv-x="273" d="M26 187L44 295H243L225 187H26Z"  />
<glyph unicode="&#xAE;" horiz-adv-x="511" d="M240 580H308Q319 580 332 579T356 571T374 553T382 519Q382 501 377 490T366 471T352 460T340 454L366 360H311L289 445H268L254 360H203L240 580ZM275 484H292Q308 484 318 492T329 520Q329 534 321 538T301 542H284L275 484ZM291 667Q332 667 368 652T432 609T475 545T491 466Q491 424 475 388T432 325T368 283T291 267Q250 267 214 282T151 324T107 387T91 466Q91 508 107 545T150 609T213 651T291 667ZM291 619Q261 619 234 607T187 575T155 526T143 466Q143 435 154 408T186 360T234 327T291 315Q322 315 349 327T396 359T428 407T440 466Q440 498 428 526T396 574T349 607T291 619Z"  />
<glyph unicode="&#xAF;" horiz-adv-x="460" d="M148 571L159 637H430L419 571H148Z"  />
<glyph unicode="&#xB0;" horiz-adv-x="511" d="M283 362Q248 362 218 375T167 410T133 460T121 520Q121 551 133 580T166 631T218 666T283 679Q317 679 346 667T398 633T433 583T446 521Q446 487 433 458T398 408T346 374T283 362ZM284 440Q315 440 337 463T360 520Q360 555 338 578T284 601Q251 601 229 577T207 520Q207 488 229 464T284 440Z"  />
<glyph unicode="&#xB1;" horiz-adv-x="511" d="M474 384V283H320V129H219V283H65V384H219V538H320V384H474ZM65 0V101H474V0H65Z"  />
<glyph unicode="&#xB2;" horiz-adv-x="341" d="M54 354Q79 369 113 393T178 445T232 504T254 562Q254 565 253 570T249 580T240 590T222 594Q208 594 200 587T187 568T179 546T175 525L82 545Q85 569 95 592T122 633T166 662T226 674Q286 674 321 643T357 562Q357 526 341 496T299 441T241 394T175 352H329L314 267H42L54 354Z"  />
<glyph unicode="&#xB3;" horiz-adv-x="341" d="M130 403Q131 393 133 381T142 358T157 340T184 333Q212 333 223 349T234 385Q234 405 227 415T208 431T186 437T165 438H149L164 509H186Q194 509 205 510T226 515T244 530T251 559Q251 562 250 569T246 582T234 594T212 600Q190 600 180 585T162 547L78 573Q88 607 106 627T146 657T188 671T224 674Q230 674 240 674T263 671T289 663T315 647Q337 630 344 607T351 566Q351 538 342 521T320 494T293 480T266 472Q275 469 287 464T309 450T327 425T334 385Q334 366 328 344T305 303T261 272T190 259Q144 259 117 271T74 302T53 341T43 379L130 403Z"  />
<glyph unicode="&#xB4;" horiz-adv-x="460" d="M243 552L214 597L400 713L438 642L243 552Z"  />
<glyph unicode="&#xB5;" horiz-adv-x="477" d="M-24 -167L86 493H222L174 205Q172 196 171 185T168 163T166 143T165 130Q165 117 170 110T182 98T196 93T207 92Q228 92 241 103T262 131T274 168T282 207L330 493H466L384 0H267L280 78Q276 69 269 54T250 25T223 -1T186 -12Q172 -12 164 -7T152 7T148 25T147 41L112 -167H-24Z"  />
<glyph unicode="&#xB6;" horiz-adv-x="511" d="M466 -166H393V606H350V-166H277V249H252Q208 249 171 253T97 285Q71 303 57 327T35 376T25 421T23 456Q23 514 44 561T101 634Q119 646 141 653T184 663T224 666T253 667H466V-166Z"  />
<glyph unicode="&#xB7;" horiz-adv-x="256" d="M48 183L73 331H209L185 183H48Z"  />
<glyph unicode="&#xB8;" horiz-adv-x="460" d="M114 -123Q124 -129 140 -137T178 -145Q201 -145 210 -134T219 -113Q219 -102 208 -90T164 -78Q160 -78 156 -78Q152 -78 144 -80L186 0H235L211 -46Q218 -45 223 -45T233 -44Q257 -44 276 -59T296 -106Q296 -142 267 -167T190 -193Q185 -193 176 -193T153 -189T124 -180T92 -162L114 -123Z"  />
<glyph unicode="&#xB9;" horiz-adv-x="341" d="M81 346H155L189 550Q181 545 175 542T158 537T134 534T98 533L112 617Q125 617 140 618T172 624T204 641T230 671H309L255 346H327L314 267H68L81 346Z"  />
<glyph unicode="&#xBA;" horiz-adv-x="511" d="M280 330Q273 330 261 331T233 338T203 353T176 380Q161 401 156 429T151 477Q151 504 158 539T183 605T233 657T316 679Q354 679 378 666T417 632T437 585T443 531Q443 514 441 493T432 450T413 405T383 365Q358 342 328 336T280 330ZM285 403Q301 403 310 423T325 470T333 521T335 555Q335 577 331 591T310 606Q302 606 297 602T288 593T282 584T279 577Q272 557 268 537T262 498T260 467T259 447Q259 424 264 414T285 403Z"  />
<glyph unicode="&#xBB;" horiz-adv-x="426" d="M22 85L102 260L80 432H139L213 260L93 85H22ZM192 85L273 260L250 432H310L383 260L264 85H192Z"  />
<glyph unicode="&#xBC;" horiz-adv-x="835" d="M75 346H149L183 550Q175 545 169 542T152 537T128 534T92 533L107 617Q119 617 135 618T167 624T198 641T224 671H304L249 346H321L308 267H62L75 346ZM158 0L605 667H693L247 0H158ZM610 86H452L465 161L660 400H758L718 162H770L757 86H705L691 0H595L610 86ZM624 160L654 308L546 160H624Z"  />
<glyph unicode="&#xBD;" horiz-adv-x="835" d="M71 346H145L179 550Q171 545 165 542T148 537T124 534T88 533L102 617Q115 617 130 618T162 624T194 641T220 671H299L245 346H317L304 267H58L71 346ZM159 0L606 667H695L248 0H159ZM494 88Q519 103 553 127T619 179T671 238T693 295Q693 297 692 302T688 312T679 322T661 327Q648 327 640 320T626 303T618 280T614 259L521 278Q523 301 533 324T561 365T605 395T666 407Q727 407 761 375T796 296Q796 260 780 230T737 175T679 127T614 86H768L753 0H481L494 88Z"  />
<glyph unicode="&#xBE;" horiz-adv-x="835" d="M130 403Q131 393 133 381T142 358T157 340T184 333Q212 333 223 349T234 385Q234 405 227 415T208 431T186 437T165 438H149L164 509H186Q194 509 205 510T226 515T244 530T251 559Q251 562 250 569T246 582T234 594T212 600Q190 600 180 585T162 547L78 573Q88 607 106 627T146 657T188 671T224 674Q230 674 240 674T263 671T289 663T315 647Q337 630 344 607T351 566Q351 538 342 521T320 494T293 480T266 472Q275 469 287 464T309 450T327 425T334 385Q334 366 328 344T305 303T261 272T190 259Q144 259 117 271T74 302T53 341T43 379L130 403ZM173 0L620 667H708L262 0H173ZM627 86H470L482 161L677 400H775L735 162H788L775 86H723L708 0H612L627 86ZM642 160L671 308L564 160H642Z"  />
<glyph unicode="&#xBF;" horiz-adv-x="460" d="M335 493L310 345H177L202 493H335ZM303 290Q300 252 296 224T282 175T257 137T218 104Q193 88 176 76T147 51T130 24T125 -12Q125 -53 145 -68T188 -84Q212 -84 227 -74T252 -48T268 -14T278 19L384 -15Q364 -96 313 -144T176 -193Q129 -193 94 -180T36 -143T2 -87T-10 -18Q-10 29 2 61T33 116T73 153T112 179Q134 192 147 203T167 226T177 254T182 290H303Z"  />
<glyph unicode="&#xC0;" horiz-adv-x="511" d="M471 0H328L315 147H148L87 0H-45L249 667H396L471 0ZM290 516L191 260H306L290 516ZM188 785L231 866L393 766L367 710L188 785Z"  />
<glyph unicode="&#xC1;" horiz-adv-x="511" d="M471 0H328L315 147H148L87 0H-45L249 667H396L471 0ZM290 516L191 260H306L290 516ZM292 711L266 761L471 865L504 787L292 711Z"  />
<glyph unicode="&#xC2;" horiz-adv-x="511" d="M471 0H328L315 147H148L87 0H-45L249 667H396L471 0ZM290 516L191 260H306L290 516ZM138 728L345 851L515 728H415L335 764L249 728H138Z"  />
<glyph unicode="&#xC3;" horiz-adv-x="511" d="M471 0H328L315 147H148L87 0H-45L249 667H396L471 0ZM290 516L191 260H306L290 516ZM167 777Q190 805 216 822T275 839Q289 839 303 835T345 817Q365 806 374 804T391 802Q417 802 433 816T463 846L503 802Q493 790 481 777T455 753T425 735T391 728Q376 728 361 732T324 747Q303 757 293 761T269 765Q246 765 229 752T206 732L167 777Z"  />
<glyph unicode="&#xC4;" horiz-adv-x="511" d="M471 0H328L315 147H148L87 0H-45L249 667H396L471 0ZM290 516L191 260H306L290 516ZM254 728Q231 728 215 744T198 784Q198 807 214 823T254 839Q277 839 293 823T309 784Q309 761 293 745T254 728H254ZM409 728Q386 728 370 744T353 784Q353 807 369 823T409 839Q432 839 448 823T464 784Q464 761 448 745T409 728H409Z"  />
<glyph unicode="&#xC5;" horiz-adv-x="511" d="M471 0H328L315 147H148L87 0H-45L249 667H396L471 0ZM290 516L191 260H306L290 516ZM328 709Q308 709 291 716T260 737T240 767T232 804Q232 823 239 840T258 870T289 892T328 900Q349 900 366 892T396 871T416 840T423 804Q423 784 416 767T396 737T366 717T328 709ZM328 767Q347 767 356 780T365 804Q365 818 355 830T327 842Q310 842 300 830T290 804Q290 792 299 780T328 767Z"  />
<glyph unicode="&#xC6;" horiz-adv-x="750" d="M362 667H797L778 550H548L523 398H709L691 286H504L476 117H705L686 0H317L344 167H202L108 0H-31L362 667ZM426 591L263 286H364L426 591Z"  />
<glyph unicode="&#xC7;" horiz-adv-x="528" d="M240 -50Q248 -49 254 -49T264 -48Q290 -48 311 -64T333 -116Q333 -155 302 -183T217 -211Q212 -211 202 -211T177 -207T145 -197T110 -178L134 -134Q146 -142 163 -150T204 -159Q225 -159 237 -149T249 -124Q249 -109 236 -97T190 -85Q185 -85 180 -85Q175 -85 167 -87L208 -9Q189 -4 166 5T117 37Q90 61 75 91T52 151T44 206T42 247Q42 260 44 295T54 376T80 474T130 573Q150 603 175 623T227 656T282 674T336 679Q376 679 412 667T476 630T520 564T536 467Q536 456 536 447T534 426L387 417Q388 439 388 464T384 510T364 546T323 560Q302 560 288 550T263 527T248 502T241 485Q228 449 220 409T206 333T199 268T197 224Q197 173 212 140T265 107Q302 107 326 139T366 240L507 215Q496 159 471 108T398 25Q378 11 358 4T320 -6T287 -11T260 -12L240 -50Z"  />
<glyph unicode="&#xC8;" horiz-adv-x="477" d="M128 667H521L502 550H248L222 398H433L414 286H204L175 117H433L413 0H16L128 667ZM193 785L236 866L398 766L372 710L193 785Z"  />
<glyph unicode="&#xC9;" horiz-adv-x="477" d="M128 667H521L502 550H248L222 398H433L414 286H204L175 117H433L413 0H16L128 667ZM271 711L245 761L450 865L483 787L271 711Z"  />
<glyph unicode="&#xCA;" horiz-adv-x="477" d="M128 667H521L502 550H248L222 398H433L414 286H204L175 117H433L413 0H16L128 667ZM142 728L349 851L519 728H419L339 764L253 728H142Z"  />
<glyph unicode="&#xCB;" horiz-adv-x="477" d="M128 667H521L502 550H248L222 398H433L414 286H204L175 117H433L413 0H16L128 667ZM258 728Q235 728 219 744T202 784Q202 807 218 823T258 839Q281 839 297 823T313 784Q313 761 297 745T258 728H258ZM413 728Q390 728 374 744T357 784Q357 807 373 823T413 839Q436 839 452 823T468 784Q468 761 452 745T413 728H413Z"  />
<glyph unicode="&#xCC;" horiz-adv-x="255" d="M127 667H267L156 0H16L127 667ZM56 785L99 866L261 766L235 710L56 785Z"  />
<glyph unicode="&#xCD;" horiz-adv-x="255" d="M127 667H267L156 0H16L127 667ZM178 711L152 761L357 865L390 787L178 711Z"  />
<glyph unicode="&#xCE;" horiz-adv-x="255" d="M127 667H267L156 0H16L127 667ZM14 728L221 851L391 728H291L211 764L125 728H14Z"  />
<glyph unicode="&#xCF;" horiz-adv-x="255" d="M127 667H267L156 0H16L127 667ZM133 728Q110 728 94 744T77 784Q77 807 93 823T133 839Q156 839 172 823T188 784Q188 761 172 745T133 728H133ZM288 728Q265 728 249 744T232 784Q232 807 248 823T288 839Q311 839 327 823T343 784Q343 761 327 745T288 728H288Z"  />
<glyph unicode="&#xD0;" horiz-adv-x="562" d="M8 285L25 398H82L127 667H272Q282 667 303 667T349 663T401 654T448 635Q481 617 500 587T530 524T544 459T547 403Q547 382 544 335T526 234T482 127T400 44Q373 27 347 19T294 6T243 1T190 0H16L63 285H8ZM222 398H331L315 286H203L174 112H212Q255 112 277 124T315 152Q329 166 343 189T368 247T386 326T393 427Q393 465 387 490T366 529T330 549T275 555H248L222 398Z"  />
<glyph unicode="&#xD1;" horiz-adv-x="562" d="M128 667H269L392 259L457 667H574L462 0H354L210 482L133 0H16L128 667ZM201 777Q224 805 250 822T309 839Q323 839 337 835T379 817Q399 806 408 804T425 802Q451 802 467 816T497 846L537 802Q527 790 515 777T489 753T459 735T425 728Q410 728 395 732T358 747Q337 757 327 761T303 765Q280 765 263 752T240 732L201 777Z"  />
<glyph unicode="&#xD2;" horiz-adv-x="562" d="M269 107Q288 107 303 115T328 137T346 164T357 191Q370 230 378 267T392 338T399 399T401 443Q401 450 400 469T392 508T370 544T326 560Q307 560 293 552T268 533T251 509T241 490Q226 455 216 418T199 345T190 276T187 215Q187 195 190 176T203 141T229 117T269 107ZM262 -12Q193 -12 150 12T84 75T52 160T44 250Q44 291 50 339T69 434T105 526T159 604T234 658T333 679Q345 679 368 677T417 664T470 632T514 573Q532 535 538 493T544 409Q544 325 525 245T460 95Q436 59 409 38T356 5T305 -9T262 -12ZM218 785L261 866L423 766L397 710L218 785Z"  />
<glyph unicode="&#xD3;" horiz-adv-x="562" d="M269 107Q288 107 303 115T328 137T346 164T357 191Q370 230 378 267T392 338T399 399T401 443Q401 450 400 469T392 508T370 544T326 560Q307 560 293 552T268 533T251 509T241 490Q226 455 216 418T199 345T190 276T187 215Q187 195 190 176T203 141T229 117T269 107ZM262 -12Q193 -12 150 12T84 75T52 160T44 250Q44 291 50 339T69 434T105 526T159 604T234 658T333 679Q345 679 368 677T417 664T470 632T514 573Q532 535 538 493T544 409Q544 325 525 245T460 95Q436 59 409 38T356 5T305 -9T262 -12ZM301 711L275 761L480 865L513 787L301 711Z"  />
<glyph unicode="&#xD4;" horiz-adv-x="562" d="M269 107Q288 107 303 115T328 137T346 164T357 191Q370 230 378 267T392 338T399 399T401 443Q401 450 400 469T392 508T370 544T326 560Q307 560 293 552T268 533T251 509T241 490Q226 455 216 418T199 345T190 276T187 215Q187 195 190 176T203 141T229 117T269 107ZM262 -12Q193 -12 150 12T84 75T52 160T44 250Q44 291 50 339T69 434T105 526T159 604T234 658T333 679Q345 679 368 677T417 664T470 632T514 573Q532 535 538 493T544 409Q544 325 525 245T460 95Q436 59 409 38T356 5T305 -9T262 -12ZM166 728L373 851L543 728H443L363 764L277 728H166Z"  />
<glyph unicode="&#xD5;" horiz-adv-x="562" d="M269 107Q288 107 303 115T328 137T346 164T357 191Q370 230 378 267T392 338T399 399T401 443Q401 450 400 469T392 508T370 544T326 560Q307 560 293 552T268 533T251 509T241 490Q226 455 216 418T199 345T190 276T187 215Q187 195 190 176T203 141T229 117T269 107ZM262 -12Q193 -12 150 12T84 75T52 160T44 250Q44 291 50 339T69 434T105 526T159 604T234 658T333 679Q345 679 368 677T417 664T470 632T514 573Q532 535 538 493T544 409Q544 325 525 245T460 95Q436 59 409 38T356 5T305 -9T262 -12ZM193 777Q216 805 242 822T301 839Q315 839 329 835T371 817Q391 806 400 804T417 802Q443 802 459 816T489 846L529 802Q519 790 507 777T481 753T451 735T417 728Q402 728 387 732T350 747Q329 757 319 761T295 765Q272 765 255 752T232 732L193 777Z"  />
<glyph unicode="&#xD6;" horiz-adv-x="562" d="M269 107Q288 107 303 115T328 137T346 164T357 191Q370 230 378 267T392 338T399 399T401 443Q401 450 400 469T392 508T370 544T326 560Q307 560 293 552T268 533T251 509T241 490Q226 455 216 418T199 345T190 276T187 215Q187 195 190 176T203 141T229 117T269 107ZM262 -12Q193 -12 150 12T84 75T52 160T44 250Q44 291 50 339T69 434T105 526T159 604T234 658T333 679Q345 679 368 677T417 664T470 632T514 573Q532 535 538 493T544 409Q544 325 525 245T460 95Q436 59 409 38T356 5T305 -9T262 -12ZM285 728Q262 728 246 744T229 784Q229 807 245 823T285 839Q308 839 324 823T340 784Q340 761 324 745T285 728H285ZM440 728Q417 728 401 744T384 784Q384 807 400 823T440 839Q463 839 479 823T495 784Q495 761 479 745T440 728H440Z"  />
<glyph unicode="&#xD7;" horiz-adv-x="511" d="M390 526L462 454L341 333L462 213L390 141L269 262L149 141L77 213L198 333L77 454L149 526L269 405L390 526Z"  />
<glyph unicode="&#xD8;" horiz-adv-x="562" d="M72 -19H-13L71 97Q60 119 55 144T47 192T44 230T43 253Q43 292 49 338T68 432T103 524T157 603T233 658T332 679Q368 679 402 668T465 636L506 693H590L509 581Q521 558 527 533T537 485T542 442T543 407Q543 324 524 245T459 96Q435 59 408 38T355 5T305 -9T262 -12Q230 -12 206 -7T163 6T133 22T114 37L72 -19ZM387 539Q372 559 355 564T324 570Q298 570 280 556T248 523T227 481T213 444Q201 407 195 377T185 321T180 273T178 232L387 539ZM194 138Q202 123 213 115T234 102T253 98T265 97Q282 97 299 103T334 130T366 190T395 298Q405 352 408 388T410 454L194 138Z"  />
<glyph unicode="&#xD9;" horiz-adv-x="545" d="M260 667L198 296Q196 281 194 265T189 233T186 204T185 184Q185 161 192 146T211 123T237 111T263 107Q292 107 309 116T338 144T355 192T368 260L436 667H563L491 235Q483 189 470 140T429 56Q414 37 392 24T345 3T295 -8T247 -12Q145 -12 95 36T45 162Q45 192 48 222T56 281L121 667H260ZM186 785L229 866L391 766L365 710L186 785Z"  />
<glyph unicode="&#xDA;" horiz-adv-x="545" d="M260 667L198 296Q196 281 194 265T189 233T186 204T185 184Q185 161 192 146T211 123T237 111T263 107Q292 107 309 116T338 144T355 192T368 260L436 667H563L491 235Q483 189 470 140T429 56Q414 37 392 24T345 3T295 -8T247 -12Q145 -12 95 36T45 162Q45 192 48 222T56 281L121 667H260ZM324 711L298 761L503 865L536 787L324 711Z"  />
<glyph unicode="&#xDB;" horiz-adv-x="545" d="M260 667L198 296Q196 281 194 265T189 233T186 204T185 184Q185 161 192 146T211 123T237 111T263 107Q292 107 309 116T338 144T355 192T368 260L436 667H563L491 235Q483 189 470 140T429 56Q414 37 392 24T345 3T295 -8T247 -12Q145 -12 95 36T45 162Q45 192 48 222T56 281L121 667H260ZM158 728L365 851L535 728H435L355 764L269 728H158Z"  />
<glyph unicode="&#xDC;" horiz-adv-x="545" d="M260 667L198 296Q196 281 194 265T189 233T186 204T185 184Q185 161 192 146T211 123T237 111T263 107Q292 107 309 116T338 144T355 192T368 260L436 667H563L491 235Q483 189 470 140T429 56Q414 37 392 24T345 3T295 -8T247 -12Q145 -12 95 36T45 162Q45 192 48 222T56 281L121 667H260ZM274 728Q251 728 235 744T218 784Q218 807 234 823T274 839Q297 839 313 823T329 784Q329 761 313 745T274 728H274ZM429 728Q406 728 390 744T373 784Q373 807 389 823T429 839Q452 839 468 823T484 784Q484 761 468 745T429 728H429Z"  />
<glyph unicode="&#xDD;" horiz-adv-x="460" d="M173 281L47 667H191L267 416L410 667H543L312 276L266 0H126L173 281ZM296 711L270 761L475 865L508 787L296 711Z"  />
<glyph unicode="&#xDE;" horiz-adv-x="511" d="M128 667H268L250 558H305Q326 558 361 555T431 535T490 480T515 372Q515 348 511 323T498 273T475 226T441 189Q417 171 394 161T350 147T310 142T274 141H180L156 0H17L128 667ZM200 258H267Q283 258 301 260T336 273Q356 287 364 314T372 364Q372 392 363 407T340 430T308 439T274 441H230L200 258Z"  />
<glyph unicode="&#xDF;" horiz-adv-x="528" d="M69 346H19L36 452H87Q92 474 99 502T118 558T150 612T199 660Q221 675 255 689T337 704Q375 704 406 694T461 665T497 620T510 564Q510 536 498 509T464 459T412 422T345 406Q341 398 341 394Q341 390 342 387T350 379T371 366T410 343Q426 334 442 322T472 292T494 252T503 196Q503 164 492 128T457 61T395 9T302 -12Q255 -12 228 0T186 20L233 106Q246 97 261 90T299 82Q323 82 337 91T359 112T369 136T371 156Q371 172 368 183T356 206T329 232T282 270Q268 281 255 302T241 361Q241 404 253 430T273 467Q325 469 353 492T381 547Q381 570 366 587T320 604Q294 604 278 594T252 566T237 526T228 478L138 -54H2L69 346Z"  />
<glyph unicode="&#xE0;" horiz-adv-x="460" d="M387 88Q385 73 383 58T381 31Q381 22 381 16T384 0H252Q248 16 248 29Q248 37 249 45T253 66Q247 55 238 42T215 16T179 -4T126 -12Q88 -12 65 1T29 33T12 74T8 113Q8 159 24 191T66 244T123 278T187 297T247 305T293 308Q295 323 297 338T300 369Q300 398 284 409T250 421Q230 421 218 413T199 391T189 364T183 338L59 353Q64 372 73 398T103 449T159 489T252 506Q303 506 337 493T391 461T421 418T430 373Q430 364 429 353T427 330T423 308T420 291L387 88ZM146 127Q146 106 157 90T194 73Q216 73 230 83T253 115T268 167T282 239Q235 235 208 220T168 187T150 151T146 127ZM162 640L210 713L355 605L326 554L162 640Z"  />
<glyph unicode="&#xE1;" horiz-adv-x="460" d="M387 88Q385 73 383 58T381 31Q381 22 381 16T384 0H252Q248 16 248 29Q248 37 249 45T253 66Q247 55 238 42T215 16T179 -4T126 -12Q88 -12 65 1T29 33T12 74T8 113Q8 159 24 191T66 244T123 278T187 297T247 305T293 308Q295 323 297 338T300 369Q300 398 284 409T250 421Q230 421 218 413T199 391T189 364T183 338L59 353Q64 372 73 398T103 449T159 489T252 506Q303 506 337 493T391 461T421 418T430 373Q430 364 429 353T427 330T423 308T420 291L387 88ZM146 127Q146 106 157 90T194 73Q216 73 230 83T253 115T268 167T282 239Q235 235 208 220T168 187T150 151T146 127ZM229 552L200 597L386 713L424 642L229 552Z"  />
<glyph unicode="&#xE2;" horiz-adv-x="460" d="M387 88Q385 73 383 58T381 31Q381 22 381 16T384 0H252Q248 16 248 29Q248 37 249 45T253 66Q247 55 238 42T215 16T179 -4T126 -12Q88 -12 65 1T29 33T12 74T8 113Q8 159 24 191T66 244T123 278T187 297T247 305T293 308Q295 323 297 338T300 369Q300 398 284 409T250 421Q230 421 218 413T199 391T189 364T183 338L59 353Q64 372 73 398T103 449T159 489T252 506Q303 506 337 493T391 461T421 418T430 373Q430 364 429 353T427 330T423 308T420 291L387 88ZM146 127Q146 106 157 90T194 73Q216 73 230 83T253 115T268 167T282 239Q235 235 208 220T168 187T150 151T146 127ZM114 557L295 697L437 557H350L285 608L212 557H114Z"  />
<glyph unicode="&#xE3;" horiz-adv-x="460" d="M387 88Q385 73 383 58T381 31Q381 22 381 16T384 0H252Q248 16 248 29Q248 37 249 45T253 66Q247 55 238 42T215 16T179 -4T126 -12Q88 -12 65 1T29 33T12 74T8 113Q8 159 24 191T66 244T123 278T187 297T247 305T293 308Q295 323 297 338T300 369Q300 398 284 409T250 421Q230 421 218 413T199 391T189 364T183 338L59 353Q64 372 73 398T103 449T159 489T252 506Q303 506 337 493T391 461T421 418T430 373Q430 364 429 353T427 330T423 308T420 291L387 88ZM146 127Q146 106 157 90T194 73Q216 73 230 83T253 115T268 167T282 239Q235 235 208 220T168 187T150 151T146 127ZM126 611Q132 618 141 628T163 647T190 662T225 668Q238 668 251 665T289 648Q308 637 316 635T332 633Q355 633 369 646T397 674L434 633Q426 624 416 612T392 590T363 572T331 565Q319 565 305 568T270 583Q248 594 240 597T220 600Q198 600 184 589T162 570L126 611Z"  />
<glyph unicode="&#xE4;" horiz-adv-x="460" d="M387 88Q385 73 383 58T381 31Q381 22 381 16T384 0H252Q248 16 248 29Q248 37 249 45T253 66Q247 55 238 42T215 16T179 -4T126 -12Q88 -12 65 1T29 33T12 74T8 113Q8 159 24 191T66 244T123 278T187 297T247 305T293 308Q295 323 297 338T300 369Q300 398 284 409T250 421Q230 421 218 413T199 391T189 364T183 338L59 353Q64 372 73 398T103 449T159 489T252 506Q303 506 337 493T391 461T421 418T430 373Q430 364 429 353T427 330T423 308T420 291L387 88ZM146 127Q146 106 157 90T194 73Q216 73 230 83T253 115T268 167T282 239Q235 235 208 220T168 187T150 151T146 127ZM207 563Q184 563 169 578T154 616Q154 638 169 653T207 669Q230 669 245 653T260 616Q260 595 245 579T207 563ZM363 563Q340 563 325 578T310 616Q310 637 325 653T363 669Q386 669 401 653T416 616Q416 595 401 579T363 563Z"  />
<glyph unicode="&#xE5;" horiz-adv-x="460" d="M387 88Q385 73 383 58T381 31Q381 22 381 16T384 0H252Q248 16 248 29Q248 37 249 45T253 66Q247 55 238 42T215 16T179 -4T126 -12Q88 -12 65 1T29 33T12 74T8 113Q8 159 24 191T66 244T123 278T187 297T247 305T293 308Q295 323 297 338T300 369Q300 398 284 409T250 421Q230 421 218 413T199 391T189 364T183 338L59 353Q64 372 73 398T103 449T159 489T252 506Q303 506 337 493T391 461T421 418T430 373Q430 364 429 353T427 330T423 308T420 291L387 88ZM146 127Q146 106 157 90T194 73Q216 73 230 83T253 115T268 167T282 239Q235 235 208 220T168 187T150 151T146 127ZM279 551Q259 551 243 558T214 578T195 607T188 641Q188 659 194 675T213 704T242 724T279 732Q299 732 315 725T344 704T362 675T369 641Q369 623 362 607T343 579T315 559T279 551ZM279 602Q296 602 307 614T318 641Q318 656 307 668T279 681Q261 681 250 669T239 641Q239 626 250 614T279 602Z"  />
<glyph unicode="&#xE6;" horiz-adv-x="716" d="M416 224Q415 214 415 204T414 176Q414 165 415 149T421 118T439 93T474 82Q509 82 525 107T551 167L663 147Q654 120 640 92T604 40T550 3T469 -12Q433 -12 409 -3T368 20T341 53T323 88Q315 73 303 56T268 23Q239 5 206 -3T142 -12Q119 -12 96 -6T53 16T21 55T8 116Q8 153 21 181T52 230T92 262T130 280Q160 291 200 298T297 308Q300 324 302 339T305 368Q305 385 299 395T283 411T265 419T249 421Q231 421 219 413T200 393T189 367T183 338L59 353Q64 372 73 398T102 448T158 489T250 506Q281 506 303 501T341 489T368 472T387 455Q395 462 406 471T433 487T467 500T512 505Q559 505 597 484T659 423Q671 403 679 375T687 295Q687 269 686 255T682 224H416ZM566 302Q568 310 569 321T570 347Q570 358 568 371T560 395T543 413T513 421Q488 421 472 407T447 372T433 332T427 302H566ZM286 239Q256 236 238 231T203 216Q183 205 165 182T146 127Q146 108 156 91T194 73Q217 73 231 84T256 116T272 168T286 239Z"  />
<glyph unicode="&#xE7;" horiz-adv-x="426" d="M187 -46Q194 -45 199 -45T209 -44Q232 -44 252 -59T272 -106Q272 -141 243 -167T166 -193Q161 -193 152 -193T129 -189T100 -180T68 -162L90 -123Q99 -129 115 -137T154 -145Q175 -145 185 -135T195 -113Q195 -100 183 -89T140 -78Q136 -78 132 -78Q128 -78 120 -80L157 -8Q140 -4 117 5T72 40Q44 72 34 113T24 196Q24 222 28 255T43 322T71 390T114 448T175 489T256 505Q297 505 325 494T372 464T401 424T415 381T421 343T422 318L303 311Q303 321 302 336T295 366T280 391T251 401Q234 401 222 391T201 365T187 334T179 306Q173 282 169 258T163 215T161 182T160 165Q160 137 167 122T185 100T203 92T214 91Q232 91 244 102T265 130T279 162T287 187L404 170Q388 103 360 67T302 13T245 -9T205 -13L187 -46Z"  />
<glyph unicode="&#xE8;" horiz-adv-x="460" d="M164 224Q162 214 161 200T160 168Q160 162 161 148T167 119T184 93T217 82Q235 82 247 88T269 106T284 133T296 167L407 147Q392 102 373 72T329 23T274 -4T209 -12Q165 -12 134 -1T83 32Q60 55 43 94T25 200Q25 259 40 314T85 411T158 479T255 505Q305 505 343 483T404 423Q415 403 423 375T432 295Q432 269 431 255T427 224H164ZM306 302Q308 310 309 320T310 346Q310 350 309 362T303 387T287 410T256 420Q233 420 218 406T194 373T181 334T175 302H306ZM160 640L208 713L353 605L324 554L160 640Z"  />
<glyph unicode="&#xE9;" horiz-adv-x="460" d="M164 224Q162 214 161 200T160 168Q160 162 161 148T167 119T184 93T217 82Q235 82 247 88T269 106T284 133T296 167L407 147Q392 102 373 72T329 23T274 -4T209 -12Q165 -12 134 -1T83 32Q60 55 43 94T25 200Q25 259 40 314T85 411T158 479T255 505Q305 505 343 483T404 423Q415 403 423 375T432 295Q432 269 431 255T427 224H164ZM306 302Q308 310 309 320T310 346Q310 350 309 362T303 387T287 410T256 420Q233 420 218 406T194 373T181 334T175 302H306ZM224 552L195 597L381 713L419 642L224 552Z"  />
<glyph unicode="&#xEA;" horiz-adv-x="460" d="M164 224Q162 214 161 200T160 168Q160 162 161 148T167 119T184 93T217 82Q235 82 247 88T269 106T284 133T296 167L407 147Q392 102 373 72T329 23T274 -4T209 -12Q165 -12 134 -1T83 32Q60 55 43 94T25 200Q25 259 40 314T85 411T158 479T255 505Q305 505 343 483T404 423Q415 403 423 375T432 295Q432 269 431 255T427 224H164ZM306 302Q308 310 309 320T310 346Q310 350 309 362T303 387T287 410T256 420Q233 420 218 406T194 373T181 334T175 302H306ZM109 557L290 697L432 557H345L280 608L207 557H109Z"  />
<glyph unicode="&#xEB;" horiz-adv-x="460" d="M164 224Q162 214 161 200T160 168Q160 162 161 148T167 119T184 93T217 82Q235 82 247 88T269 106T284 133T296 167L407 147Q392 102 373 72T329 23T274 -4T209 -12Q165 -12 134 -1T83 32Q60 55 43 94T25 200Q25 259 40 314T85 411T158 479T255 505Q305 505 343 483T404 423Q415 403 423 375T432 295Q432 269 431 255T427 224H164ZM306 302Q308 310 309 320T310 346Q310 350 309 362T303 387T287 410T256 420Q233 420 218 406T194 373T181 334T175 302H306ZM206 563Q183 563 168 578T153 616Q153 638 168 653T206 669Q229 669 244 653T259 616Q259 595 244 579T206 563ZM362 563Q339 563 324 578T309 616Q309 637 324 653T362 669Q385 669 400 653T415 616Q415 595 400 579T362 563Z"  />
<glyph unicode="&#xEC;" horiz-adv-x="239" d="M31 640L79 713L224 605L195 554L31 640ZM91 493H228L145 0H9L91 493Z"  />
<glyph unicode="&#xED;" horiz-adv-x="239" d="M132 552L103 597L289 713L327 642L132 552ZM91 493H228L145 0H9L91 493Z"  />
<glyph unicode="&#xEE;" horiz-adv-x="239" d="M4 557L185 697L327 557H240L175 608L102 557H4ZM91 493H228L145 0H9L91 493Z"  />
<glyph unicode="&#xEF;" horiz-adv-x="239" d="M96 563Q73 563 58 578T43 616Q43 638 58 653T96 669Q119 669 134 653T149 616Q149 595 134 579T96 563ZM252 563Q229 563 214 578T199 616Q199 637 214 653T252 669Q275 669 290 653T305 616Q305 595 290 579T252 563ZM91 493H228L145 0H9L91 493Z"  />
<glyph unicode="&#xF0;" horiz-adv-x="460" d="M163 153Q163 123 171 103T209 82Q227 82 240 97T262 137T278 190T287 247T292 297T294 331Q294 341 294 355T289 381T277 402T252 411Q232 411 218 395T193 352T178 296T169 236T164 185T163 153ZM384 603Q405 535 419 456T433 294Q433 278 431 249T421 186T398 117T358 53T296 6T208 -12Q155 -12 120 6T63 53T33 121T24 200Q24 273 43 329T91 425T156 484T223 505Q244 505 265 494T297 460Q292 486 286 511T272 563L159 522L133 591L248 632Q244 642 241 651T233 670L347 710Q351 702 354 693T361 673L475 714L500 644L384 603Z"  />
<glyph unicode="&#xF1;" horiz-adv-x="477" d="M92 493H209L196 414Q202 426 211 441T236 471T275 495T332 505Q355 505 375 500T412 483Q432 468 441 445T450 399Q450 370 446 341T439 295L390 0H253L303 295Q306 314 307 325T309 343T310 354T311 361Q311 375 306 383T293 395T279 400T269 401Q248 401 235 391T214 362T200 320T190 266L145 0H9L92 493ZM144 611Q150 618 159 628T181 647T208 662T243 668Q256 668 269 665T307 648Q326 637 334 635T350 633Q373 633 387 646T415 674L452 633Q444 624 434 612T410 590T381 572T349 565Q337 565 323 568T288 583Q266 594 258 597T238 600Q216 600 202 589T180 570L144 611Z"  />
<glyph unicode="&#xF2;" horiz-adv-x="460" d="M203 -12Q197 -12 184 -11T154 -6T119 7T84 30Q65 46 54 67T36 111T27 157T24 200Q24 249 36 302T75 401T147 475T258 505Q309 505 342 487T396 439T424 371T433 293Q433 267 429 235T416 168T389 100T346 39Q330 22 311 12T272 -3T234 -10T203 -12ZM209 82Q226 82 239 97T261 136T277 189T287 245T292 296T294 330Q294 342 293 356T288 382T276 403T252 411Q232 411 218 395T193 352T178 296T169 236T164 185T163 153Q163 121 172 102T209 82ZM161 640L209 713L354 605L325 554L161 640Z"  />
<glyph unicode="&#xF3;" horiz-adv-x="460" d="M203 -12Q197 -12 184 -11T154 -6T119 7T84 30Q65 46 54 67T36 111T27 157T24 200Q24 249 36 302T75 401T147 475T258 505Q309 505 342 487T396 439T424 371T433 293Q433 267 429 235T416 168T389 100T346 39Q330 22 311 12T272 -3T234 -10T203 -12ZM209 82Q226 82 239 97T261 136T277 189T287 245T292 296T294 330Q294 342 293 356T288 382T276 403T252 411Q232 411 218 395T193 352T178 296T169 236T164 185T163 153Q163 121 172 102T209 82ZM230 552L201 597L387 713L425 642L230 552Z"  />
<glyph unicode="&#xF4;" horiz-adv-x="460" d="M203 -12Q197 -12 184 -11T154 -6T119 7T84 30Q65 46 54 67T36 111T27 157T24 200Q24 249 36 302T75 401T147 475T258 505Q309 505 342 487T396 439T424 371T433 293Q433 267 429 235T416 168T389 100T346 39Q330 22 311 12T272 -3T234 -10T203 -12ZM209 82Q226 82 239 97T261 136T277 189T287 245T292 296T294 330Q294 342 293 356T288 382T276 403T252 411Q232 411 218 395T193 352T178 296T169 236T164 185T163 153Q163 121 172 102T209 82ZM110 557L291 697L433 557H346L281 608L208 557H110Z"  />
<glyph unicode="&#xF5;" horiz-adv-x="460" d="M203 -12Q197 -12 184 -11T154 -6T119 7T84 30Q65 46 54 67T36 111T27 157T24 200Q24 249 36 302T75 401T147 475T258 505Q309 505 342 487T396 439T424 371T433 293Q433 267 429 235T416 168T389 100T346 39Q330 22 311 12T272 -3T234 -10T203 -12ZM209 82Q226 82 239 97T261 136T277 189T287 245T292 296T294 330Q294 342 293 356T288 382T276 403T252 411Q232 411 218 395T193 352T178 296T169 236T164 185T163 153Q163 121 172 102T209 82ZM131 611Q137 618 146 628T168 647T195 662T230 668Q243 668 256 665T294 648Q313 637 321 635T337 633Q360 633 374 646T402 674L439 633Q431 624 421 612T397 590T368 572T336 565Q324 565 310 568T275 583Q253 594 245 597T225 600Q203 600 189 589T167 570L131 611Z"  />
<glyph unicode="&#xF6;" horiz-adv-x="460" d="M203 -12Q197 -12 184 -11T154 -6T119 7T84 30Q65 46 54 67T36 111T27 157T24 200Q24 249 36 302T75 401T147 475T258 505Q309 505 342 487T396 439T424 371T433 293Q433 267 429 235T416 168T389 100T346 39Q330 22 311 12T272 -3T234 -10T203 -12ZM209 82Q226 82 239 97T261 136T277 189T287 245T292 296T294 330Q294 342 293 356T288 382T276 403T252 411Q232 411 218 395T193 352T178 296T169 236T164 185T163 153Q163 121 172 102T209 82ZM205 563Q182 563 167 578T152 616Q152 638 167 653T205 669Q228 669 243 653T258 616Q258 595 243 579T205 563ZM361 563Q338 563 323 578T308 616Q308 637 323 653T361 669Q384 669 399 653T414 616Q414 595 399 579T361 563Z"  />
<glyph unicode="&#xF7;" horiz-adv-x="511" d="M65 283V384H474V283H65ZM214 425V549H325V425H214ZM214 118V242H325V118H214Z"  />
<glyph unicode="&#xF8;" horiz-adv-x="460" d="M75 -38H5L63 53Q40 83 32 123T24 202Q24 248 35 301T74 399T146 475T258 505Q290 505 308 500T342 487L374 537H444L388 450Q396 440 403 429T417 398Q425 375 429 349T433 291Q433 273 430 244T419 180T396 112T356 51T295 6T209 -12Q198 -12 171 -9T108 13L75 -38ZM161 96Q177 75 205 75Q234 75 255 102T292 200Q300 235 304 269T308 339L161 96ZM289 404Q284 409 278 413T254 418Q222 418 200 387T165 285Q161 264 157 236T150 174L289 404Z"  />
<glyph unicode="&#xF9;" horiz-adv-x="477" d="M267 0L280 78Q269 61 258 45T230 16T191 -4T137 -12Q79 -12 51 15T22 85Q22 105 24 124T35 185L86 493H222L174 205Q173 196 172 185T169 163T166 143T165 130Q165 117 170 110T182 98T196 93T207 92Q228 92 241 103T262 131T274 168T282 207L330 493H466L384 0H267ZM148 640L196 713L341 605L312 554L148 640Z"  />
<glyph unicode="&#xFA;" horiz-adv-x="477" d="M267 0L280 78Q269 61 258 45T230 16T191 -4T137 -12Q79 -12 51 15T22 85Q22 105 24 124T35 185L86 493H222L174 205Q173 196 172 185T169 163T166 143T165 130Q165 117 170 110T182 98T196 93T207 92Q228 92 241 103T262 131T274 168T282 207L330 493H466L384 0H267ZM263 552L234 597L420 713L458 642L263 552Z"  />
<glyph unicode="&#xFB;" horiz-adv-x="477" d="M267 0L280 78Q269 61 258 45T230 16T191 -4T137 -12Q79 -12 51 15T22 85Q22 105 24 124T35 185L86 493H222L174 205Q173 196 172 185T169 163T166 143T165 130Q165 117 170 110T182 98T196 93T207 92Q228 92 241 103T262 131T274 168T282 207L330 493H466L384 0H267ZM124 557L305 697L447 557H360L295 608L222 557H124Z"  />
<glyph unicode="&#xFC;" horiz-adv-x="477" d="M267 0L280 78Q269 61 258 45T230 16T191 -4T137 -12Q79 -12 51 15T22 85Q22 105 24 124T35 185L86 493H222L174 205Q173 196 172 185T169 163T166 143T165 130Q165 117 170 110T182 98T196 93T207 92Q228 92 241 103T262 131T274 168T282 207L330 493H466L384 0H267ZM212 563Q189 563 174 578T159 616Q159 638 174 653T212 669Q235 669 250 653T265 616Q265 595 250 579T212 563ZM368 563Q345 563 330 578T315 616Q315 637 330 653T368 669Q391 669 406 653T421 616Q421 595 406 579T368 563Z"  />
<glyph unicode="&#xFD;" horiz-adv-x="375" d="M192 198L305 493H414L196 -16Q180 -53 164 -82T127 -132T77 -164T6 -175Q-8 -175 -19 -174T-41 -172L-33 -69Q-22 -70 -12 -70T10 -71Q31 -71 45 -66T69 -50T88 -22T106 20L18 493H158L192 198ZM168 552L139 597L325 713L363 642L168 552Z"  />
<glyph unicode="&#xFE;" horiz-adv-x="477" d="M121 667H257L219 439Q224 447 232 458T252 479T282 497T324 505Q371 505 397 482T435 427T449 367T451 324Q451 291 447 253T433 178T410 106T375 45Q356 20 324 4T256 -12Q229 -12 211 -5T182 12T165 33T155 54L117 -169H-19L121 667ZM214 82Q256 82 276 138Q288 171 295 207T307 273T312 324T314 351Q314 373 308 385T293 403T278 410T269 411Q255 411 245 405T229 389T218 371T212 358Q202 331 195 300T182 240T173 184T170 139Q170 136 170 127T175 107T188 90T214 82Z"  />
<glyph unicode="&#xFF;" horiz-adv-x="375" d="M192 198L305 493H414L196 -16Q180 -53 164 -82T127 -132T77 -164T6 -175Q-8 -175 -19 -174T-41 -172L-33 -69Q-22 -70 -12 -70T10 -71Q31 -71 45 -66T69 -50T88 -22T106 20L18 493H158L192 198ZM161 563Q138 563 123 578T108 616Q108 638 123 653T161 669Q184 669 199 653T214 616Q214 595 199 579T161 563ZM317 563Q294 563 279 578T264 616Q264 637 279 653T317 669Q340 669 355 653T370 616Q370 595 355 579T317 563Z"  />
<glyph unicode="&#x131;" horiz-adv-x="239" d="M91 493H228L145 0H9L91 493Z"  />
<glyph unicode="&#x152;" horiz-adv-x="784" d="M384 0Q357 0 339 -2T306 -6T276 -10T239 -12Q205 -12 170 -1T110 33Q86 57 72 88T51 149T41 205T39 244Q39 285 45 330T63 421T94 510T141 589Q173 631 221 655T329 679Q371 679 408 673T481 667H826L807 550H555L530 398H739L720 286H511L483 117H739L720 0H384ZM414 539Q390 552 372 556T340 560Q314 560 287 548T242 498Q224 461 213 420T195 340T185 269T182 218Q182 184 189 163T209 129T238 112T274 107Q277 107 285 107T303 110T324 116T345 128L414 539Z"  />
<glyph unicode="&#x153;" horiz-adv-x="716" d="M414 224Q412 214 411 201T410 170Q410 161 411 146T418 117T436 93T472 82Q507 82 523 104T551 167L663 147Q635 62 588 25T466 -12Q432 -12 409 -6T370 9T346 27T332 44Q326 37 316 28T290 9T254 -6T204 -12Q172 -12 140 -2T85 30Q66 46 55 67T37 110T28 156T25 200Q25 248 36 301T73 400T143 475T255 505Q292 505 326 493T377 448Q406 477 438 491T512 505Q559 505 597 484T659 423Q670 404 678 376T687 295Q687 269 686 254T683 224H414ZM566 302Q568 310 569 321T570 346Q570 359 568 372T559 396T541 413T512 420Q487 420 471 406T446 372T432 333T425 302H566ZM210 82Q229 82 242 99T265 142T280 199T289 257T293 305T294 330Q294 344 293 358T288 384T274 403T250 411Q231 411 218 400T197 374T183 342T175 316Q155 236 155 155Q155 119 167 101T210 82Z"  />
<glyph unicode="&#x160;" horiz-adv-x="511" d="M144 213Q155 163 175 135T243 107Q289 107 307 130T326 180Q326 199 320 212T303 236T276 256T237 276Q205 291 176 307T124 345T88 395T74 463Q74 491 83 528T118 598T184 655T291 679Q325 679 357 671T416 643T465 590T497 507L363 472Q360 487 356 502T343 530T321 551T287 560Q256 560 237 541T217 492Q217 478 220 468T235 447T271 421T337 386Q362 374 386 359T430 322T462 273T475 208Q475 182 470 158T455 111T433 72T407 42Q388 25 366 15T321 -2T277 -10T239 -12Q195 -12 156 -2T87 31T36 93T9 188L144 213ZM233 839L311 804L394 839H507L303 713L133 839H233Z"  />
<glyph unicode="&#x161;" horiz-adv-x="392" d="M107 153Q110 141 114 129T125 106T146 89T179 82Q182 82 191 82T210 87T228 101T236 127Q236 139 232 147T219 163T195 178T159 195Q139 204 118 214T80 241T52 280T41 338Q41 359 48 388T76 443T129 487T216 505Q269 505 300 488T349 448T371 402T379 366L277 341Q275 352 272 365T262 389T244 407T215 414Q194 414 178 402T161 368Q161 356 165 348T178 332T204 316T245 296Q267 285 288 274T325 247T351 209T361 156Q361 132 354 103T326 48T270 5T178 -12Q159 -12 139 -9T99 0T62 16T31 42Q11 65 5 91T-4 137L107 153ZM166 683L230 633L300 683H400L223 540L79 683H166Z"  />
<glyph unicode="&#x178;" horiz-adv-x="460" d="M173 281L47 667H191L267 416L410 667H543L312 276L266 0H126L173 281ZM232 728Q209 728 193 744T176 784Q176 807 192 823T232 839Q255 839 271 823T287 784Q287 761 271 745T232 728H232ZM387 728Q364 728 348 744T331 784Q331 807 347 823T387 839Q410 839 426 823T442 784Q442 761 426 745T387 728H387Z"  />
<glyph unicode="&#x17D;" horiz-adv-x="494" d="M9 106L338 555H89L108 667H524L507 565L178 117H452L433 0H-9L9 106ZM248 839L326 804L409 839H522L318 713L148 839H248Z"  />
<glyph unicode="&#x17E;" horiz-adv-x="375" d="M2 96L228 395H60L77 493H390L374 396L150 102H329L312 0H-15L2 96ZM181 683L245 633L315 683H415L238 540L94 683H181Z"  />
<glyph unicode="&#x192;" horiz-adv-x="511" d="M425 373H342L245 61Q230 11 216 -27T180 -92T126 -133T43 -147Q15 -147 -1 -145T-33 -140L2 -27Q10 -28 17 -28T33 -29Q49 -29 61 -27T84 -18T102 3T119 43L221 373H157L191 483H256L260 496Q272 536 285 569T321 628T375 667T457 681Q482 681 499 678T527 672L494 567Q487 568 479 568T460 569Q430 569 412 557T381 499L376 483H460L425 373Z"  />
<glyph unicode="&#x2C6;" horiz-adv-x="460" d="M120 557L301 697L443 557H356L291 608L218 557H120Z"  />
<glyph unicode="&#x2C7;" horiz-adv-x="460" d="M228 683L292 633L362 683H462L285 540L141 683H228Z"  />
<glyph unicode="&#x2DA;" horiz-adv-x="460" d="M296 551Q276 551 260 558T231 578T212 607T205 641Q205 659 211 675T230 704T259 724T296 732Q316 732 332 725T361 704T379 675T386 641Q386 623 379 607T360 579T332 559T296 551ZM296 602Q313 602 324 614T335 641Q335 656 324 668T296 681Q278 681 267 669T256 641Q256 626 267 614T296 602Z"  />
<glyph unicode="&#x2DC;" horiz-adv-x="460" d="M138 611Q144 618 153 628T175 647T202 662T237 668Q250 668 263 665T301 648Q320 637 328 635T344 633Q367 633 381 646T409 674L446 633Q438 624 428 612T404 590T375 572T343 565Q331 565 317 568T282 583Q260 594 252 597T232 600Q210 600 196 589T174 570L138 611Z"  />
<glyph unicode="&#x2013;" horiz-adv-x="443" d="M30 192L46 291H410L393 192H30Z"  />
<glyph unicode="&#x2014;" horiz-adv-x="647" d="M24 192L41 291H620L603 192H24Z"  />
<glyph unicode="&#x2018;" horiz-adv-x="221" d="M247 667L168 530H218L194 388H73L96 530L190 667H247Z"  />
<glyph unicode="&#x2019;" horiz-adv-x="221" d="M65 389L145 525H94L118 667H240L216 525L122 389H65Z"  />
<glyph unicode="&#x201A;" horiz-adv-x="221" d="M-21 -136L59 0H9L32 142H154L130 0L36 -136H-21Z"  />
<glyph unicode="&#x201C;" horiz-adv-x="375" d="M405 667L325 530H375L351 388H239L263 530L357 667H405ZM234 667L154 530H205L181 388H69L92 530L186 667H234Z"  />
<glyph unicode="&#x201D;" horiz-adv-x="375" d="M63 389L143 525H93L116 667H229L205 525L111 389H63ZM233 389L313 525H263L287 667H399L375 525L281 389H233Z"  />
<glyph unicode="&#x201E;" horiz-adv-x="375" d="M-19 -136L61 0H10L34 142H147L123 0L29 -136H-19ZM151 -136L231 0H181L204 142H317L293 0L199 -136H151Z"  />
<glyph unicode="&#x2020;" horiz-adv-x="511" d="M73 383L90 483H230L261 667H384L353 483H494L477 383H337L244 -169H121L213 383H73Z"  />
<glyph unicode="&#x2021;" horiz-adv-x="511" d="M73 383L89 483H230L261 667H384L353 483H494L477 383H336L294 126H434L417 26H277L244 -169H121L154 26H13L30 126H170L213 383H73Z"  />
<glyph unicode="&#x2022;" horiz-adv-x="144" d="M-1 265L25 421H169L143 265H-1Z"  />
<glyph unicode="&#x2026;" horiz-adv-x="767" d="M18 0L43 148H179L154 0H18ZM274 0L298 148H435L410 0H274ZM530 0L555 148H691L666 0H530Z"  />
<glyph unicode="&#x2030;" horiz-adv-x="1005" d="M226 679Q289 679 319 640T349 536Q349 500 340 463T313 397T266 349T200 330Q176 330 153 338T113 361Q88 384 81 415T74 470Q74 504 82 541T109 608T156 659T226 679ZM224 600Q209 600 200 590T187 569Q181 553 178 536T172 504T169 475T168 455Q168 452 168 445T172 429T181 415T200 409Q221 409 232 428T248 470T254 515T255 539Q255 545 255 555T251 575T242 592T224 600ZM95 0L542 667H619L173 0H95ZM528 337Q588 337 619 300T651 194Q651 156 642 119T613 53T567 6T502 -12Q478 -12 455 -4T415 19Q391 41 384 71T376 128Q376 163 384 200T411 267T459 317T528 337ZM526 258Q508 258 497 241T480 199T472 151T470 112Q470 98 473 89T482 75T492 69T502 67Q522 67 531 81T545 108Q553 134 555 159T557 197Q557 202 557 212T553 233T544 250T526 258ZM835 337Q895 337 926 300T958 194Q958 156 949 119T920 53T874 6T809 -12Q785 -12 762 -4T722 19Q698 41 691 71T683 128Q683 163 691 200T718 267T766 317T835 337ZM833 258Q815 258 804 241T787 199T779 151T777 112Q777 98 780 89T789 75T799 69T809 67Q829 67 838 81T852 108Q860 135 862 161T864 198Q864 203 864 213T860 233T851 250T833 258Z"  />
<glyph unicode="&#x2039;" horiz-adv-x="239" d="M228 432L147 257L170 85H111L37 257L156 432H228Z"  />
<glyph unicode="&#x203A;" horiz-adv-x="239" d="M14 85L94 260L72 432H131L205 260L85 85H14Z"  />
<glyph unicode="&#x20AC;" horiz-adv-x="511" d="M388 470V478Q388 493 387 509T379 539T361 562T330 571Q307 571 291 557T264 523T245 481T234 440H377L356 367H222Q220 352 219 337T215 307H338L316 234H208Q207 226 207 219Q207 212 207 205Q207 187 209 168T219 133T240 107T277 96Q298 96 312 107T336 136T352 173T361 209L495 195Q483 151 464 114T418 49T353 6T267 -10Q208 -10 169 8T107 60T75 137T66 234H-10L11 307H70Q72 322 74 337T78 367H12L34 440H91Q103 489 123 532T173 607T244 658T341 677Q388 677 421 664T476 625T509 564T522 484L388 470Z"  />
<glyph unicode="&#x2122;" horiz-adv-x="733" d="M311 596H229V287H141V596H61V667H311V596ZM341 667H472L527 434L588 667H716V287H633V603L552 287H488L413 603V287H341V667Z"  />
<glyph unicode="&#xE300;" horiz-adv-x="460" d="M152 785L195 866L357 766L331 710L152 785Z"  />
<glyph unicode="&#xE301;" horiz-adv-x="460" d="M238 711L212 761L417 865L450 787L238 711Z"  />
<glyph unicode="&#xE302;" horiz-adv-x="460" d="M107 728L314 851L484 728H384L304 764L218 728H107Z"  />
<glyph unicode="&#xE303;" horiz-adv-x="460" d="M241 839L319 804L402 839H515L311 713L141 839H241Z"  />
<glyph unicode="&#xE304;" horiz-adv-x="460" d="M152 777Q175 805 201 822T260 839Q274 839 288 835T330 817Q350 806 359 804T376 802Q402 802 418 816T448 846L488 802Q478 790 466 777T440 753T410 735T376 728Q361 728 346 732T309 747Q288 757 278 761T254 765Q231 765 214 752T191 732L152 777Z"  />
<glyph unicode="&#xE305;" horiz-adv-x="460" d="M236 728Q213 728 197 744T180 784Q180 807 196 823T236 839Q259 839 275 823T291 784Q291 761 275 745T236 728H236ZM391 728Q368 728 352 744T335 784Q335 807 351 823T391 839Q414 839 430 823T446 784Q446 761 430 745T391 728H391Z"  />
<glyph unicode="&#xE308;" horiz-adv-x="460" d="M318 709Q298 709 281 716T250 737T230 767T222 804Q222 823 229 840T248 870T279 892T318 900Q339 900 356 892T386 871T406 840T413 804Q413 784 406 767T386 737T356 717T318 709ZM318 767Q337 767 346 780T355 804Q355 818 345 830T317 842Q300 842 290 830T280 804Q280 792 289 780T318 767Z"  />

</font>
</defs>
</svg>
