<?xml  version="1.0" encoding="UTF-8"?>
<!DOCTYPE svg PUBLIC "-//W3C//DTD SVG 1.0//EN" "http://www.w3.org/TR/2001/REC-SVG-20010904/DTD/svg10.dtd" >
<svg xmlns="http://www.w3.org/2000/svg" >
<metadata>
<version>1.0</version>
<id><![CDATA[ITC Franklin Gothic W01 Dm Cm]]></id>
<vendor>Monotype Imaging Inc.</vendor>
<credits>
<name>Fonts.com WebFonts</name>
<URL>http://webfonts.fonts.com</URL>
<role>Home of the Web fonts</role>
</credits>
<license>
<URL>http://webfonts.fonts.com/Legal</URL>
</license>
<copyright><![CDATA[Part of this font software is copyrighted ¨ 2005 - 2006 Linotype GmbH, www.linotype.com. All rights reserved. This font software may not be reproduced, modified, disclosed or transferred without the express written approval of Linotype GmbH. ¨ Copyright 1994-1996 International Typeface Corporation. All rights reserved.]]></copyright>
<trademark><![CDATA[ITC Franklin Gothic is a registered trademark of International Typeface Corporation.]]></trademark>
<licensee>
<name></name>
</licensee>
</metadata>
<defs >
<font horiz-adv-x="402" id="c168602c-6e5b-408d-a51c-ca4ddb8fe8e4">
<font-face font-family="" panose-1="2 11 7 8 5 0 0 2 0 4" ascent="881" descent="-250" units-per-em="1000" alphabetic="0">
</font-face>
<missing-glyph horiz-adv-x="212" />

<glyph unicode="&#xA;" />
<glyph unicode="&#xD;" horiz-adv-x="0" />
<glyph unicode=" " horiz-adv-x="212" />
<glyph unicode="!" horiz-adv-x="290" d="M220 667L189 201H103L69 667H220ZM210 151V0H79V151H210Z"  />
<glyph unicode="&quot;" horiz-adv-x="375" d="M164 667L147 377H73L59 667H164ZM317 667L300 377H227L212 667H317Z"  />
<glyph unicode="#" horiz-adv-x="426" d="M143 667H227L202 475H259L284 667H368L343 475H411L401 394H333L319 286H387L376 205H308L282 0H198L224 205H167L141 0H57L83 205H15L25 286H94L107 394H39L50 475H118L143 667ZM178 286H235L248 394H192L178 286Z"  />
<glyph unicode="$" horiz-adv-x="426" d="M125 211Q128 200 132 186T146 158T172 136T215 126Q236 126 249 131T270 146Q280 156 283 168T286 190Q286 221 269 239T225 269Q193 281 169 291T127 310T95 329T69 354Q46 381 38 413T30 472Q30 548 68 597T181 656V724H244V655Q263 651 283 644T322 622T358 582T391 515L292 469Q286 484 280 498T264 523T242 541T208 548Q178 548 164 530T150 489Q150 474 155 463T171 442T200 423T244 403Q272 391 294 382T334 361T365 336T389 302Q409 262 409 212Q409 200 407 181T398 140T379 97T346 58Q317 34 290 27T244 17V-72H181V18Q136 21 107 38T60 79T33 129T18 175L125 211Z"  />
<glyph unicode="%" horiz-adv-x="528" d="M368 667H430L161 0H100L368 667ZM132 674Q158 674 176 663T206 633T224 594T234 553T237 519T238 499Q238 483 236 455T222 399T190 351T131 330Q110 330 91 339T56 368T32 420T23 497Q23 515 26 545T40 603T72 653T132 674ZM134 600Q128 600 121 597T110 573Q108 561 108 547T107 501Q107 470 107 456T110 428Q112 419 116 410T131 401Q143 401 146 410Q149 416 150 428T152 453T153 480Q153 493 153 501Q153 506 153 515Q153 524 153 535T151 558T149 580Q148 584 146 592T134 600ZM399 337Q426 337 444 326T473 296T491 257T501 216T504 182T505 163Q505 148 503 120T490 63T458 14T398 -7Q377 -7 358 2T323 30T299 82T290 160Q290 175 292 204T306 263T338 315T399 337ZM401 263Q395 263 388 260T377 236Q375 223 375 208T374 164Q374 134 374 119T377 91Q379 81 383 73T398 64Q410 64 413 73Q416 79 417 91T419 116T420 143Q420 156 420 164Q420 200 419 217T416 243Q415 250 412 256T401 263Z"  />
<glyph unicode="&amp;" horiz-adv-x="545" d="M522 365Q517 253 452 148Q463 135 475 124T509 113Q514 113 516 113T523 115V5Q512 1 500 -2T471 -5Q450 -5 435 0T407 14T387 31T372 48Q357 37 342 27T307 9T264 -5T209 -10Q155 -10 119 9T62 57T32 120T23 187Q23 235 37 268T70 324T110 359T144 379Q125 411 113 446T100 518Q100 543 108 571T134 623T181 661T253 677Q294 677 323 664T371 628T399 578T408 518Q408 482 398 456T373 411T340 377T304 351Q311 338 321 322T343 290T366 260T388 235Q408 268 417 305T431 380L522 365ZM317 526Q317 531 316 541T311 562T297 579T272 587Q257 587 248 581T233 566T225 547T223 529Q223 515 227 501T238 473T250 450T261 433Q268 437 277 443T296 459T311 486T317 526ZM147 191Q147 154 168 127T234 99Q267 99 283 111T308 133Q279 166 250 206T198 289Q179 276 169 261T154 232T148 207T147 191Z"  />
<glyph unicode="&apos;" horiz-adv-x="221" d="M58 667H163L147 378H73L58 667Z"  />
<glyph unicode="(" horiz-adv-x="255" d="M162 -167Q145 -136 127 -92T94 6T70 122T60 250Q60 317 69 379T94 496T127 594T162 667H260Q247 637 233 595T206 499T185 383T177 250Q177 176 185 111T207 -7T234 -101T260 -167H162Z"  />
<glyph unicode=")" horiz-adv-x="255" d="M94 667Q143 569 169 464T195 250Q195 173 184 108T157 -10T124 -102T94 -167H-5Q6 -142 20 -102T47 -8T69 111T78 250Q78 317 72 373T54 479T28 574T-4 667H94Z"  />
<glyph unicode="*" horiz-adv-x="426" d="M256 667L238 556L320 619L361 547L268 498L360 451L320 381L238 443L256 335H170L188 443L106 381L66 451L158 498L65 547L106 619L188 556L170 667H256Z"  />
<glyph unicode="+" horiz-adv-x="426" d="M394 386V280H267V151H159V280H32V386H159V515H267V386H394Z"  />
<glyph unicode="&#x2c;" horiz-adv-x="221" d="M174 148V15L98 -157H47L100 0H47V148H174Z"  />
<glyph unicode="-" horiz-adv-x="239" d="M203 305V199H35V305H203Z"  />
<glyph unicode="." horiz-adv-x="221" d="M174 146V0H47V146H174Z"  />
<glyph unicode="/" horiz-adv-x="477" d="M437 667L88 -167H7L356 667H437Z"  />
<glyph unicode="0" horiz-adv-x="426" d="M213 677Q277 677 315 645T372 565T398 458T404 346Q404 338 404 311T400 246T388 169T366 94Q346 46 307 18T208 -10Q148 -10 112 19T55 97T29 207T22 331Q22 408 30 471T61 581T120 652T213 677ZM214 573Q197 573 187 564T172 527Q170 513 169 488T167 434T166 379Q166 353 166 337Q166 320 166 292Q166 265 166 236T168 182T171 142Q175 116 184 105T212 94Q224 94 231 98T243 110T250 124T253 137Q256 153 257 185T259 251T260 313Q260 342 260 352Q260 371 260 395Q260 420 259 444T256 491T251 529Q246 552 238 562T214 573Z"  />
<glyph unicode="1" horiz-adv-x="426" d="M297 118H392V0H53V118H157V504Q142 486 132 474T110 453T86 435T54 415V545Q109 580 142 617T190 674H297V118Z"  />
<glyph unicode="2" horiz-adv-x="426" d="M401 126L393 0H26V130Q81 186 124 232T196 322T240 407T256 497Q256 503 256 513T251 534T237 553T209 561Q175 561 161 527T145 433L26 461Q28 481 34 517T60 589T116 651T216 677Q249 677 281 667T339 635T381 577T397 490Q397 435 379 388T329 297T256 211T168 126H401Z"  />
<glyph unicode="3" horiz-adv-x="426" d="M147 399H170Q185 399 199 400T224 410T243 436T250 488Q250 492 249 504T244 529T229 552T201 562Q184 562 174 554T158 534T149 508T144 482L31 507Q34 523 42 551T69 608T123 656T212 677Q258 677 290 663T343 626T373 570T383 502Q383 460 374 433T353 390T326 365T299 351Q308 348 325 340T358 315T387 269T399 192Q399 138 384 100T342 38T282 2T209 -10Q195 -10 177 -8T139 0T101 18T66 48Q50 67 41 86T26 125T20 160T17 187L133 207Q134 193 136 176T145 145T164 120T198 110Q262 110 262 199Q262 234 252 253T226 280T196 290T170 292H147V399Z"  />
<glyph unicode="4" horiz-adv-x="426" d="M219 273V409Q219 445 223 488T232 564Q227 545 217 516T187 444L106 273H219ZM16 160V273L213 674H341V273H410V160H341V0H213V160H16Z"  />
<glyph unicode="5" horiz-adv-x="426" d="M374 667L362 540H166L158 396Q169 409 189 425T249 441Q280 441 308 428T358 387T391 320T404 224Q404 177 394 135T360 61T300 9T208 -10Q157 -10 122 7T66 52T35 112T23 178L140 201Q141 188 144 172T153 143T172 120T206 110Q246 110 257 139T269 217Q269 277 253 300T205 324Q175 324 163 308T145 271L50 294L69 667H374Z"  />
<glyph unicode="6" horiz-adv-x="426" d="M299 475Q298 483 296 499T287 532T267 560T233 572Q208 572 194 560T173 523T163 458T160 364Q164 370 170 380T188 401T216 418T254 426Q285 426 313 412T362 372T395 306T407 217Q407 191 401 153T377 78T322 16T226 -10Q173 -10 136 13T75 81T41 188T30 331Q30 352 31 386T39 458T58 535T93 606T148 657T229 677Q239 677 255 676T288 668T324 652T359 623Q372 608 380 592T394 561T401 532T406 509L299 475ZM218 322Q187 322 176 295T165 206Q165 149 176 122T221 94Q239 94 249 103T265 127T271 161T273 200Q273 256 263 289T218 322Z"  />
<glyph unicode="7" horiz-adv-x="426" d="M38 541L48 667H388V555Q374 533 364 516T344 479T326 438T305 384Q294 354 284 322T266 250T252 163T247 58Q247 42 247 29T249 0H103Q102 15 102 24T101 44Q101 79 107 122T124 209T149 297T182 379Q211 442 240 482T285 541H38Z"  />
<glyph unicode="8" horiz-adv-x="426" d="M305 368Q320 360 343 343T386 286Q393 272 400 249T407 187Q407 94 355 42T205 -10Q193 -10 176 -9T139 -2T101 12T65 38Q50 53 41 70T27 105T21 136T19 161Q19 199 29 227T55 274T87 306T117 328Q104 337 87 353T54 402Q48 416 43 437T37 491Q37 537 51 572T89 630T145 665T214 677Q259 677 292 664T348 628T380 576T391 515Q391 479 381 454T356 411T328 383T305 368ZM228 415Q234 420 241 427T254 444T264 470T269 506Q269 515 268 528T261 553T246 573T219 582Q203 582 193 575T176 556T168 531T165 508Q165 482 172 465T190 438T211 422T228 415ZM191 279Q183 273 175 265T159 245T146 219T141 182Q141 171 143 156T152 126T172 102T208 92Q238 92 256 113T275 173Q275 199 267 216T247 246T220 265T191 279Z"  />
<glyph unicode="9" horiz-adv-x="426" d="M139 175Q147 135 159 117T196 98Q228 98 243 124T264 192Q269 227 269 258T269 310Q263 301 255 290T235 270T207 254T168 247Q140 247 113 258T65 294T32 358T19 452Q19 496 29 536T61 608T118 658T202 677Q257 677 294 652T354 583T386 479T396 346Q396 273 387 208T354 95T292 18T194 -10Q144 -10 113 7T63 48T37 101T26 153L139 175ZM204 569Q192 569 182 565T163 550T151 517T146 462Q146 428 150 408T163 376T181 361T204 357Q225 357 237 368T256 395T263 430T265 464Q265 471 264 488T258 523T240 555T204 569Z"  />
<glyph unicode=":" horiz-adv-x="221" d="M174 146V0H47V146H174ZM174 493V346H47V493H174Z"  />
<glyph unicode=";" horiz-adv-x="221" d="M174 493V346H47V493H174ZM174 148V15L98 -157H47L100 0H47V148H174Z"  />
<glyph unicode="&lt;" horiz-adv-x="426" d="M392 473L146 333L392 193V73L34 282V385L392 594V473Z"  />
<glyph unicode="=" horiz-adv-x="426" d="M32 362V468H394V362H32ZM32 199V305H394V199H32Z"  />
<glyph unicode="&gt;" horiz-adv-x="426" d="M392 385V282L34 73V193L280 333L34 473V594L392 385Z"  />
<glyph unicode="?" horiz-adv-x="426" d="M154 191V220Q154 250 156 271T164 308T180 338T206 369Q216 379 225 389T241 413T252 443T256 483Q256 507 252 522T241 545T226 555T209 558Q189 558 178 551T162 529T154 495T151 448L39 466Q36 535 56 577T106 641T168 670T220 677Q247 677 277 668T332 638T373 582T389 493Q389 455 382 427T364 377T337 337T306 303Q294 291 286 283T274 265T267 244T265 214V191H154ZM275 144V0H152V144H275Z"  />
<glyph unicode="@" horiz-adv-x="579" d="M420 504L392 303Q392 300 391 293T389 276T388 259T387 244Q387 224 394 217T414 210Q433 210 442 222T452 238Q458 251 462 268T469 305T473 344T474 379Q474 397 472 422T464 473T447 525T417 571T370 603T304 616Q254 616 217 593T156 530T121 439T109 333Q109 312 111 284T121 225T142 165T179 110Q210 75 246 64T320 52Q368 52 396 61T444 79L465 15Q430 -2 393 -10T317 -19Q242 -19 188 10T98 87T45 198T27 331Q27 403 45 467T99 581T186 659T304 688Q370 688 417 662T493 594T537 497T551 388Q551 347 543 303T516 222T470 162T402 138Q382 138 368 143T345 156T331 173T322 192Q318 183 314 174T302 156T284 143T258 138Q220 138 198 175T175 284Q175 324 182 364T204 437T241 490T293 511Q319 511 330 497T349 464L355 504H420ZM298 424Q287 424 279 409T266 372T259 325T256 280Q256 248 261 237T277 225Q288 225 295 233T305 249Q313 270 318 305T324 371Q324 403 318 413T298 424Z"  />
<glyph unicode="A" horiz-adv-x="426" d="M285 667L436 0H298L271 144H139L113 0H-10L143 667H285ZM256 252L219 430Q214 450 211 473T205 542Q202 521 199 494T189 436L153 252H256Z"  />
<glyph unicode="B" horiz-adv-x="477" d="M50 667H232Q262 667 286 667T330 662T366 648T397 621Q414 602 426 573T439 494Q439 453 431 427T409 385T382 361T356 348Q365 345 382 337T416 311T445 261T458 180Q458 152 453 130T440 91T423 62T406 42Q391 27 372 19T331 6T291 1T256 0H50V667ZM182 398H232Q259 398 274 406T296 426T304 451T306 475Q306 512 289 536T232 560H182V398ZM182 111H236Q255 111 270 114T295 128T312 155T318 201Q318 206 317 225T304 264Q293 283 277 287T231 291H182V111Z"  />
<glyph unicode="C" horiz-adv-x="460" d="M325 410Q324 435 322 461T311 509T289 544T250 558Q227 558 215 548T193 514Q186 496 183 470T178 416T176 364T175 324Q175 305 175 281Q175 258 176 234T181 188T191 150Q199 130 211 120T246 109Q265 109 279 115T302 136T316 177T325 242L441 233Q440 218 438 195T428 144T409 90T374 40T320 4T243 -10Q131 -10 81 78T30 330Q30 363 33 402T44 479T67 553T106 616T164 660T247 677Q292 677 324 664T377 630T412 582T432 526T441 470T446 420L325 410Z"  />
<glyph unicode="D" horiz-adv-x="494" d="M51 667H179Q237 667 280 661T364 625Q399 599 419 561T449 482T461 404T464 342Q464 243 442 167T366 43Q347 27 314 14T230 0H51V667ZM185 117H225Q230 117 240 117T262 122T285 135T302 161Q307 176 310 199T316 246T318 292T319 329Q319 405 313 449T294 515T265 544T225 551H185V117Z"  />
<glyph unicode="E" horiz-adv-x="409" d="M188 395H349V284H188V117H398V0H51V667H398V550H188V395Z"  />
<glyph unicode="F" horiz-adv-x="375" d="M188 377H334V266H188V0H51V667H378V550H188V377Z"  />
<glyph unicode="G" horiz-adv-x="477" d="M442 0H383L367 80Q358 62 348 46T323 17T287 -2T234 -10Q178 -10 139 14T76 83T41 189T30 325Q30 363 33 404T46 485T70 559T110 620T168 661T248 677Q308 677 345 652T402 592T430 518T441 451L328 430Q324 458 320 481T307 522T285 548T249 558Q223 558 209 546T187 511Q181 494 178 470T174 418T172 365T171 318Q171 258 175 218T188 154T213 119T250 109Q265 109 278 113T301 132T317 172T323 241H240V352H442V0Z"  />
<glyph unicode="H" horiz-adv-x="477" d="M289 404V667H426V0H289V287H188V0H51V667H188V404H289Z"  />
<glyph unicode="I" horiz-adv-x="239" d="M51 667H188V0H51V667Z"  />
<glyph unicode="J" horiz-adv-x="307" d="M262 667V228Q262 185 260 143T242 66T194 11T101 -10Q60 -10 20 2V121Q28 120 41 119T68 117Q105 117 115 140T125 219V667H262Z"  />
<glyph unicode="K" horiz-adv-x="460" d="M51 667H188V449Q188 446 188 437T186 417T185 393T183 370Q184 376 187 385T193 406T200 427T208 446L308 667H442L307 420L462 0H321L227 301L188 212V0H51V667Z"  />
<glyph unicode="L" horiz-adv-x="358" d="M51 667H188V123H357V0H51V667Z"  />
<glyph unicode="M" horiz-adv-x="630" d="M51 667H239L290 386Q299 339 303 290T311 195Q313 222 316 252T324 311T332 363T339 400L396 667H580V0H449V380Q449 396 449 411Q449 426 450 448T452 501T456 582Q454 566 450 538T442 481T434 426T427 386L346 0H260L182 392Q179 409 176 432T169 480T162 532T156 582Q156 562 157 538T158 489T159 440T160 396V0H51V667Z"  />
<glyph unicode="N" horiz-adv-x="477" d="M51 667H185L293 361Q301 338 308 305T325 229Q323 254 322 284T319 343T316 396T315 432V667H426V0H315L190 341Q177 376 167 414T151 478Q153 455 155 426T158 368T161 315T162 281V0H51V667Z"  />
<glyph unicode="O" horiz-adv-x="477" d="M240 677Q300 677 340 651T404 579T437 469T447 329Q447 255 438 193T404 86T340 16T237 -10Q198 -10 171 0T126 23T99 48T86 66Q54 119 42 189T30 341Q30 417 40 479T76 585T141 653T240 677ZM237 558Q221 558 209 549T189 516Q180 491 178 441T175 327Q175 284 176 239T187 158Q192 138 203 124T240 109Q268 109 278 125T294 168Q297 185 298 213T301 268T302 316Q302 337 302 340Q302 355 302 379Q302 403 301 428T297 476T289 515Q281 540 269 549T237 558Z"  />
<glyph unicode="P" horiz-adv-x="443" d="M51 667H218Q242 667 265 666T311 659T354 641T390 604Q413 572 422 534T431 455Q431 399 414 352T362 278Q345 266 327 260T290 250T255 247T225 246H185V0H51V667ZM185 363H218Q235 363 248 367T271 382T284 413T289 466Q289 486 286 503T275 534T253 554T218 562H185V363Z"  />
<glyph unicode="Q" horiz-adv-x="477" d="M433 -128Q426 -130 412 -132T377 -135Q332 -135 307 -121T270 -88T256 -47T252 -10Q238 -10 220 -10Q203 -10 183 -5T142 12T99 47Q76 72 62 109T41 187T32 269T30 341Q30 418 41 480T76 586T141 653T240 677Q303 677 343 649T407 572T438 461T447 326Q447 284 444 240T430 156T400 80T350 21Q351 1 359 -10T394 -21Q403 -21 413 -20T433 -17V-128ZM237 558Q221 558 209 549T189 516Q180 491 178 441T175 327Q175 284 176 239T187 158Q192 138 203 124T240 109Q268 109 278 125T294 168Q297 185 298 213T301 268T302 316Q302 337 302 340Q302 355 302 379Q302 403 301 428T297 476T289 515Q281 540 269 549T237 558Z"  />
<glyph unicode="R" horiz-adv-x="460" d="M51 667H223Q277 667 311 661T371 631Q394 609 406 585T425 538T432 497T433 469Q433 422 424 391T402 339T373 308T346 289L447 0H303L228 262H185V0H51V667ZM185 372H223Q263 372 280 397T297 470Q297 522 277 542T223 562H185V372Z"  />
<glyph unicode="S" horiz-adv-x="409" d="M286 479Q280 503 272 518T253 542T232 554T210 557Q189 557 178 549T161 529T154 507T152 492Q152 474 157 462T175 439T211 417T271 388Q286 380 308 368T350 335T384 281T398 201Q398 154 385 116T346 49T282 6T196 -10Q139 -10 103 9T46 55T14 114T0 170L109 208Q121 154 140 132T196 110Q219 110 232 118T253 139T262 162T264 180Q264 197 259 209T246 230T228 245T208 256Q176 272 153 284T111 308T79 333T54 363Q40 384 32 413T24 474Q24 512 36 548T71 613T128 659T206 677Q257 677 290 659T344 615T374 564T388 524L286 479Z"  />
<glyph unicode="T" horiz-adv-x="358" d="M246 0H109V541H0V667H358V541H246V0Z"  />
<glyph unicode="U" horiz-adv-x="477" d="M182 667V242Q182 211 184 187T193 146T213 121T250 112Q274 112 287 122T307 151T315 195T316 249V667H432V249Q432 205 428 159T406 76T349 14T241 -10Q184 -10 146 4T86 49T54 127T45 238V667H182Z"  />
<glyph unicode="V" horiz-adv-x="409" d="M-3 667H139L193 343Q194 338 196 321T202 278T208 223T215 163Q217 199 222 246T236 343L294 667H412L272 0H133L-3 667Z"  />
<glyph unicode="W" horiz-adv-x="630" d="M0 667H145L182 350Q188 299 190 257T195 177Q197 204 200 233T206 290T211 338T216 370L265 667H388L441 355Q443 341 445 327T448 293T452 245T458 177Q458 186 459 209T463 261T467 319T473 370L512 667H631L510 0H390L333 327Q330 344 325 384T317 477Q315 459 313 438T309 395T304 356T299 327L242 0H122L0 667Z"  />
<glyph unicode="X" horiz-adv-x="426" d="M11 667H164L201 550Q212 516 215 484T220 438Q222 462 229 497T245 560L283 667H414L280 359L431 0H283L225 162Q214 195 211 222T208 273Q207 267 206 254T202 225T196 193T187 162L124 0H-5L143 349L11 667Z"  />
<glyph unicode="Y" horiz-adv-x="409" d="M127 274L-6 667H138L196 455Q204 426 206 398T208 349Q210 375 213 402T225 455L289 667H412L264 274V0H127V274Z"  />
<glyph unicode="Z" horiz-adv-x="409" d="M396 117V0H13V107L240 556H31V667H390V562L163 117H396Z"  />
<glyph unicode="[" horiz-adv-x="273" d="M258 603H194V-109H258V-167H80V667H258V603Z"  />
<glyph unicode="\" horiz-adv-x="477" d="M472 -167H390L41 667H123L472 -167Z"  />
<glyph unicode="]" horiz-adv-x="273" d="M192 667V-167H14V-109H78V603H14V667H192Z"  />
<glyph unicode="^" horiz-adv-x="426" d="M305 309L213 555L120 309H0L162 667H265L426 309H305Z"  />
<glyph unicode="_" horiz-adv-x="500" d="M500 -75V-125H0V-75H500Z"  />
<glyph unicode="`" horiz-adv-x="460" d="M165 714L302 583L262 540L108 648L165 714Z"  />
<glyph unicode="a" horiz-adv-x="375" d="M233 0Q229 8 227 18T225 61Q208 31 181 11T120 -10Q113 -10 96 -7T60 9T29 50T15 127Q15 136 16 151T22 185T39 222T71 260Q101 286 137 294T217 306Q216 363 211 386T183 410Q169 410 162 402T150 383T144 359T141 337L29 350Q37 421 75 462T188 503Q199 503 215 501T249 494T284 477T316 448Q333 425 336 387T340 306V106Q340 79 340 62Q340 46 340 35T342 17T346 0H233ZM217 237Q172 229 158 204T143 140Q143 114 149 97T175 79Q207 79 212 119T217 237Z"  />
<glyph unicode="b" horiz-adv-x="392" d="M38 667H163V445Q167 452 172 461T187 479T209 493T242 499Q266 499 288 487T325 455Q334 442 342 426T357 385T367 329T371 252Q371 236 370 210T365 156T353 98T329 46T291 9T235 -6Q208 -6 191 2T162 22T146 46T138 65L105 0H38V667ZM163 148Q163 139 163 128T167 107T177 91T196 84Q208 84 215 91T227 110Q231 122 233 139T237 176T238 214Q238 233 238 247Q238 307 235 339T225 386T212 403T199 406Q185 406 178 400T168 383T164 361T163 337V148Z"  />
<glyph unicode="c" horiz-adv-x="375" d="M249 308Q248 329 246 347T240 380T226 402T201 410Q180 410 170 393T157 345Q155 319 154 292T153 247Q153 233 153 215Q153 197 154 178T158 142T166 112Q172 98 181 94T201 89Q212 89 221 93T236 108T247 140T255 193L363 184Q361 159 357 126T336 64Q330 53 320 41T293 17T253 -2T199 -10Q151 -10 117 7T62 58T30 138T20 244Q20 269 22 297T32 354T52 410T85 458Q108 483 138 493T201 503Q234 503 263 493T314 460T349 402T364 315L249 308Z"  />
<glyph unicode="d" horiz-adv-x="392" d="M354 0H242V72Q224 27 201 11T148 -6Q117 -6 95 8T59 45T37 95T26 151T21 203T20 242Q20 326 33 373T65 449Q79 470 101 484T153 499Q186 499 203 484T229 457V667H354V0ZM229 351Q229 358 229 367T225 385T215 400T195 406Q180 406 172 396T159 367T154 320T153 256Q153 249 153 232Q153 215 153 196T155 157T158 125Q161 107 168 96T193 84Q216 84 222 109T229 181V351Z"  />
<glyph unicode="e" horiz-adv-x="375" d="M148 225Q146 159 156 124T202 89Q230 89 240 111T255 170L360 161Q358 130 349 100T320 45T271 5T198 -10Q149 -10 115 8T60 59T30 139T20 243Q20 288 27 334T55 418T109 479T197 503Q228 503 251 495T292 472T322 440T342 403Q351 383 355 359T362 311T364 264T365 225H148ZM246 306Q245 364 234 388T200 413Q182 413 172 402T157 375T150 340T147 306H246Z"  />
<glyph unicode="f" horiz-adv-x="239" d="M55 390H2V493H55Q55 523 57 558T72 623T113 673T194 693Q214 693 226 691T249 687V582Q240 583 234 583T222 584Q194 584 189 567T183 518V493H243V390H183V0H55V390Z"  />
<glyph unicode="g" horiz-adv-x="409" d="M418 484Q413 486 407 488T393 491Q370 491 361 476T347 444Q355 433 366 413T377 350Q377 278 336 237T225 196Q220 196 204 197T169 202Q154 194 150 182T145 161Q145 149 149 142T165 131T194 125T240 120Q271 117 301 112T356 94T396 54T411 -17Q411 -60 395 -89T350 -137T285 -164T206 -172Q167 -172 134 -167T76 -148T38 -114T24 -61Q24 -36 31 -19T48 9T69 27T90 39Q74 49 57 67T40 119Q40 126 41 139T50 167T70 199T107 227Q100 231 89 238T68 258T50 293T42 345Q42 431 97 471Q123 489 152 496T210 503Q235 503 260 498T309 481Q309 490 310 506T318 538T341 565T386 577Q395 577 402 576T418 572V484ZM209 429Q194 429 187 420T175 399T171 375T170 354Q170 309 180 291T211 272Q224 272 231 278T243 296T248 321T249 350Q249 396 239 412T209 429ZM143 15Q138 8 132 -2T126 -29Q126 -55 148 -66T216 -78Q226 -78 239 -77T265 -71T285 -57T293 -33Q293 -10 277 -3T238 8Q233 8 220 9T191 11T163 13T143 15Z"  />
<glyph unicode="h" horiz-adv-x="409" d="M38 667H166V429Q170 441 176 454T194 478T223 496T266 503Q305 503 327 489T359 453T372 406T374 356V0H246V342Q246 353 246 363T242 380T230 392T208 397Q179 397 173 381T166 337V0H38V667Z"  />
<glyph unicode="i" horiz-adv-x="204" d="M38 493H166V0H38V493ZM166 673V537H38V673H166Z"  />
<glyph unicode="j" horiz-adv-x="204" d="M166 493V16Q166 -32 164 -68T150 -128T111 -165T37 -178Q20 -178 10 -178T-19 -175V-71Q-1 -73 10 -72T27 -63T35 -40T38 1V493H166ZM166 673V537H38V673H166Z"  />
<glyph unicode="k" horiz-adv-x="392" d="M38 667H166V319L265 493H385L269 318L394 0H261L194 214L166 167V0H38V667Z"  />
<glyph unicode="l" horiz-adv-x="204" d="M38 667H166V0H38V667Z"  />
<glyph unicode="m" horiz-adv-x="596" d="M38 493H153V420Q170 464 192 483T254 503Q279 503 295 497T323 480T343 455T357 424Q361 439 368 453T385 478T412 496T452 503Q493 503 515 488T547 450T559 399T561 346V0H436V346Q436 355 436 364T432 380T421 392T400 397Q386 397 378 391T367 376T363 353T362 324V0H237V338Q237 350 237 360T233 379T222 392T202 397Q174 397 169 379T163 332V0H38V493Z"  />
<glyph unicode="n" horiz-adv-x="409" d="M38 493H152V420Q159 437 168 452T190 478T220 496T263 503Q305 503 327 489T360 451T372 400T374 345V0H246V335Q246 348 246 359T241 379T230 393T207 398Q193 398 185 393T172 379T167 359T166 335V0H38V493Z"  />
<glyph unicode="o" horiz-adv-x="392" d="M196 503Q251 503 285 479T338 417T364 334T371 248Q371 197 363 151T335 69T281 12T195 -10Q165 -10 142 -3T102 16T73 44T52 78Q40 103 34 131T24 183T21 226T20 250Q20 283 25 326T49 409T102 475T196 503ZM194 413Q165 413 159 379T153 264Q153 219 154 188T157 133Q159 102 169 91T195 80Q203 80 213 84T228 104Q232 114 234 133T237 174T238 216Q238 237 238 251Q238 278 237 302T234 358Q233 377 230 388T221 404T208 411T194 413Z"  />
<glyph unicode="p" horiz-adv-x="392" d="M38 493H149V438Q153 445 160 455T179 476T205 492T240 499Q284 499 310 472T349 406T367 326T371 256Q371 239 370 214T365 161T352 103T331 48Q328 42 321 33T303 15T277 0T240 -6Q207 -6 190 8T163 34V-167H38V493ZM163 166Q163 131 167 108T196 84Q204 84 213 89T228 112Q232 126 234 145T237 184T238 221Q238 238 238 248Q238 272 238 289T237 319T235 341T233 359Q231 376 223 390T197 405Q184 405 177 399T167 382T164 362T163 344V166Z"  />
<glyph unicode="q" horiz-adv-x="392" d="M358 493Q355 465 355 446T354 402V-167H229V35Q225 30 220 23T205 10T184 -1T153 -6Q106 -6 79 21T39 86T23 165T20 237Q20 254 21 280T26 336T38 394T62 446T102 484T160 499Q184 499 201 492T230 474T250 450T265 425L291 493H358ZM229 349Q229 355 229 365T225 384T213 399T191 406Q183 406 176 403T163 387Q158 372 156 343T153 252Q153 239 153 221Q153 203 154 185T156 149T160 119Q164 99 170 92T190 84Q204 84 211 90T222 111T227 149T229 206V349Z"  />
<glyph unicode="r" horiz-adv-x="290" d="M38 493H152V374Q156 390 163 412T183 454T212 488T255 503Q274 503 289 500V365Q262 367 240 363T201 344T175 302T166 229V0H38V493Z"  />
<glyph unicode="s" horiz-adv-x="358" d="M113 152Q114 143 117 132T126 111T145 95T178 88Q198 88 212 97T227 126Q227 138 223 147T210 163T184 179T143 199Q115 212 93 226T56 257T33 296T25 348Q25 381 36 409T68 458T118 491T184 503Q224 503 250 490T292 456T315 414T327 375L236 352Q235 358 233 367T225 386T209 401T181 408Q155 408 148 396T140 373Q140 361 145 353T163 336T196 317T247 294Q282 278 302 258T332 218T344 180T347 149Q347 107 333 77T296 27T242 -1T180 -10Q126 -10 94 8T45 50T22 98T14 136L113 152Z"  />
<glyph unicode="t" horiz-adv-x="273" d="M72 644L183 652V493H260V390H183V182Q183 162 184 148T191 124T206 110T234 105Q254 105 266 108V6Q237 -2 217 -4T184 -7Q154 -7 125 3T82 32Q73 45 68 58T59 89T56 128T55 177V390H2V493H61L72 644Z"  />
<glyph unicode="u" horiz-adv-x="409" d="M371 0H257V70Q249 54 240 40T218 14T188 -3T146 -10Q104 -10 82 4T49 42T37 95T35 154V493H163V154Q163 143 163 133T168 114T179 101T200 95Q227 95 235 112T243 177V493H371V0Z"  />
<glyph unicode="v" horiz-adv-x="324" d="M-4 493H124L159 291Q162 275 165 238T170 157Q172 179 174 202T180 247T185 283T188 303L220 493H328L215 0H112L-4 493Z"  />
<glyph unicode="w" horiz-adv-x="511" d="M-4 493H122L155 305Q157 293 160 256T166 167Q166 172 167 191T171 235T176 285T182 326L207 493H326L353 318Q356 301 360 258T367 167Q368 186 370 209T375 254T380 295T385 326L411 493H515L408 0H309L269 237Q259 294 254 359Q254 357 253 344T251 312T248 276T244 248L205 0H103L-4 493Z"  />
<glyph unicode="x" horiz-adv-x="341" d="M4 493H144L174 411Q175 409 179 391T186 334Q188 354 191 373T202 411L231 493H344L238 266L352 0H210L174 106Q165 131 164 153T161 189Q161 186 160 176T156 154T152 128T145 106L101 0H-12L110 254L4 493Z"  />
<glyph unicode="y" horiz-adv-x="324" d="M212 21Q200 -28 192 -57T176 -103T159 -130T136 -148Q116 -162 97 -165T64 -169Q50 -169 39 -167T15 -162V-59Q22 -61 31 -63T52 -65Q66 -65 77 -60T95 -43T105 -10T109 44L-3 493H125L162 315Q165 300 167 281T171 242T174 203T176 167Q177 186 179 211T185 262T191 312T198 354L225 493H329L212 21Z"  />
<glyph unicode="z" horiz-adv-x="324" d="M302 493V411L155 100H308V0H25V97L169 400H40V493H302Z"  />
<glyph unicode="{" horiz-adv-x="256" d="M241 592Q226 592 215 590T198 581T188 558T185 516V370Q185 338 184 319T176 286T159 266T130 250Q148 242 159 235T176 214T183 182T185 130V-16Q185 -41 187 -56T195 -79T212 -89T241 -92V-167H218Q180 -167 153 -163T109 -144T84 -98T75 -16V130Q75 148 74 162T68 185T54 200T27 205V295Q44 295 53 300T68 314T74 338T75 370V516Q75 571 85 601T114 646T159 664T218 667H241V592Z"  />
<glyph unicode="|" horiz-adv-x="500" d="M314 750V-250H186V750H314Z"  />
<glyph unicode="}" horiz-adv-x="256" d="M40 667Q71 667 97 664T142 647T171 602T181 516V370Q181 354 181 340T186 316T200 301T228 295L229 205Q211 205 201 200T187 184T182 160T181 130V-16Q181 -66 173 -96T148 -142T105 -162T40 -167H15V-92Q32 -92 43 -90T60 -79T68 -57T71 -16V130Q71 163 73 182T80 214T96 234T125 250Q107 257 97 265T81 285T73 318T71 370V516Q71 542 68 557T59 579T42 589T15 592V667H40Z"  />
<glyph unicode="~" horiz-adv-x="426" d="M0 294Q10 317 16 330T27 350T34 363T43 374Q56 389 77 402T133 416Q137 416 143 416T159 413T184 407T223 393Q240 387 251 383T270 377T285 373T299 372Q326 372 339 386T362 417L426 372Q418 352 407 330T380 290T341 260T287 248Q282 248 277 248T263 251T238 257T198 271Q166 283 152 287T126 291Q98 291 86 275T62 238L0 294Z"  />
<glyph unicode="&#xA0;" horiz-adv-x="212" />
<glyph unicode="&#xA1;" horiz-adv-x="290" d="M70 -174L101 292H187L221 -174H70ZM80 342V493H211V342H80Z"  />
<glyph unicode="&#xA2;" horiz-adv-x="426" d="M249 -7H190V100Q179 102 157 109T115 137Q95 157 84 183T66 237T59 291T57 336Q57 357 60 394T76 468T116 536T190 577V671H249V579Q258 577 272 574T303 563T335 538T363 495Q377 465 378 441T380 400L266 393Q265 412 264 429T259 459T248 479T229 487Q212 487 205 474T196 449Q194 439 193 421T191 386T190 354Q190 341 190 341Q190 284 193 257T202 214Q204 209 209 202T228 195Q248 195 258 215T273 291L381 283Q380 198 346 153T249 98V-7Z"  />
<glyph unicode="&#xA3;" horiz-adv-x="426" d="M326 309H244Q244 266 240 235T228 181T206 141T174 110H235Q248 110 263 111T293 122T319 150T336 205L436 180Q436 163 430 131T394 57Q378 36 359 24T320 7T281 1T244 0H11V110H39Q61 110 76 115T103 151Q111 172 113 197T116 238Q116 256 115 273T112 309H51V405H101Q99 422 98 435T96 468Q96 534 114 575T159 638T214 669T263 677Q321 677 354 645T402 551L314 502Q305 544 295 556T272 569Q258 569 249 562T236 543T230 520T228 497Q228 485 229 465T236 405H326V309Z"  />
<glyph unicode="&#xA4;" horiz-adv-x="426" d="M346 529L409 466L351 408Q359 394 364 379T370 334Q370 306 365 291T352 261L410 202L344 137L286 195Q272 188 256 183T212 177Q185 177 167 184T138 196L80 138L17 201L75 259Q70 270 63 287T56 334Q56 362 61 377T74 406L16 465L81 530L140 472Q148 476 166 483T213 490Q242 490 259 484T288 471L346 529ZM213 274Q238 274 255 291T273 333Q273 359 256 376T213 393Q189 393 171 376T153 333Q153 308 170 291T213 274Z"  />
<glyph unicode="&#xA5;" horiz-adv-x="426" d="M396 406V344H295L274 286H396V224H273V0H154V224H22V286H153L132 344H22V406H109L15 667H147L211 455Q219 432 220 412T224 360Q226 377 229 404T241 454L309 667H416L319 406H396Z"  />
<glyph unicode="&#xA6;" horiz-adv-x="500" d="M314 675V325H186V675H314ZM314 175V-175H186V175H314Z"  />
<glyph unicode="&#xA7;" horiz-adv-x="426" d="M287 522Q277 564 262 576T229 588Q209 588 199 581T184 564T178 546T177 535Q177 508 195 489T233 460Q261 446 280 436T314 415T338 394T358 366Q371 343 375 320T379 278Q379 247 373 226T358 190T339 166T321 150Q328 145 339 135T361 108T379 66T387 6Q387 -83 340 -130T217 -178Q159 -178 125 -159T72 -115T48 -66T41 -30L136 -5Q139 -17 143 -30T156 -55T179 -75T215 -83Q236 -83 247 -75T264 -55T271 -34T272 -18Q272 2 266 15T247 40T214 63T163 90Q125 109 102 130T65 174T48 218T43 260Q43 293 51 316T69 356T91 383T111 398Q105 404 97 412T81 434T68 467T63 514Q63 552 75 582T108 634T157 666T220 677Q264 677 292 663T338 630T363 589T375 554L287 522ZM177 348Q172 343 162 331T151 296Q151 261 177 239T251 193Q258 201 266 214T275 248Q275 258 272 269T258 292T228 317T178 348H177Z"  />
<glyph unicode="&#xA8;" horiz-adv-x="460" d="M162 569Q142 569 126 583T110 621Q110 643 125 657T162 672Q183 672 198 657T213 621Q213 598 198 584T162 569ZM298 569Q278 569 262 583T246 621Q246 642 261 657T298 672Q318 672 333 658T349 621Q349 598 334 584T298 569Z"  />
<glyph unicode="&#xA9;" horiz-adv-x="759" d="M428 372Q428 387 427 402T421 430T409 451T387 459Q376 459 369 455T356 436Q352 426 350 411T347 380T346 350Q346 336 346 328Q346 296 347 270T356 228Q364 207 384 207Q394 207 401 210T414 221T422 245T428 285L513 279Q512 264 508 239T492 189T454 146T383 127Q308 127 275 181T242 330Q242 358 246 394T266 463T309 517T385 539Q430 539 455 522T494 481T510 428T516 379L428 372ZM379 -12Q307 -12 244 15T133 88T58 198T30 333Q30 404 57 467T132 577T243 651T379 679Q451 679 515 652T626 577T700 467T728 333Q728 261 701 198T626 89T515 15T379 -12ZM379 65Q433 65 481 86T565 143T622 228T643 333Q643 388 622 437T565 523T481 581T379 602Q325 602 277 581T193 523T136 437T115 333Q115 277 136 228T193 143T277 86T379 65Z"  />
<glyph unicode="&#xAA;" horiz-adv-x="409" d="M319 414Q319 396 319 385Q319 374 319 367T321 355T324 344H241Q239 349 237 356T236 384Q224 364 203 351T151 337Q143 337 129 339T101 350T77 377T67 428Q67 434 68 444T72 466T84 491T108 516Q130 533 156 538T214 546Q213 584 210 596T189 608Q179 608 174 604T165 594T161 580T159 567L77 575Q83 623 112 650T201 677Q223 677 252 671T302 640Q315 625 317 600T319 546V414ZM191 403Q214 403 218 427T222 494Q189 489 179 473T168 437Q168 424 172 414T191 403Z"  />
<glyph unicode="&#xAB;" horiz-adv-x="375" d="M136 259L186 90H124L36 259L124 431H186L136 259ZM290 259L339 90H277L189 259L277 431H339L290 259Z"  />
<glyph unicode="&#xAC;" horiz-adv-x="426" d="M288 362H33V468H394V199H288V362Z"  />
<glyph unicode="&#xAD;" horiz-adv-x="239" d="M203 305V199H35V305H203Z"  />
<glyph unicode="&#xAE;" horiz-adv-x="460" d="M162 586H228Q237 586 250 585T276 578T298 559T307 520Q307 491 297 479T277 461L314 367H257L230 450H216V367H162V586ZM216 492Q234 492 244 495T255 519Q255 539 245 542T216 546V492ZM230 674Q271 674 307 659T371 616T414 552T430 473Q430 431 414 395T371 332T307 290T230 274Q189 274 153 289T89 331T46 394T30 473Q30 515 46 551T89 615T152 658T230 674ZM230 623Q200 623 174 612T127 580T96 532T84 473Q84 441 96 414T128 368T174 337T230 325Q259 325 285 336T332 368T364 415T376 473Q376 504 365 531T333 579T287 611T230 623Z"  />
<glyph unicode="&#xAF;" horiz-adv-x="460" d="M342 651V582H130V651H342Z"  />
<glyph unicode="&#xB0;" horiz-adv-x="426" d="M212 677Q243 677 270 665T318 633T349 585T361 528Q361 496 349 469T316 421T269 390T213 378Q184 378 158 389T111 420T78 467T65 528Q65 560 77 587T110 635T157 666T212 677ZM214 602Q197 602 185 595T164 578T152 554T148 528Q148 499 166 476T213 453Q243 453 260 476T278 528Q278 557 261 579T214 602Z"  />
<glyph unicode="&#xB1;" horiz-adv-x="426" d="M394 386V280H267V152H159V280H32V386H159V515H267V386H394ZM32 0V106H394V0H32Z"  />
<glyph unicode="&#xB2;" horiz-adv-x="290" d="M270 352L264 267H21V351Q56 384 83 411T128 463T156 511T166 562Q166 564 166 569T163 580T156 590T142 594Q121 594 115 572T107 518L20 537Q21 550 25 573T42 618T80 656T147 673Q169 673 191 667T229 646T256 611T267 558Q267 528 256 501T225 449T179 400T123 352H270Z"  />
<glyph unicode="&#xB3;" horiz-adv-x="290" d="M101 508H118Q128 508 136 509T150 514T159 529T163 556Q163 569 159 582T137 595Q120 595 115 582T107 555L24 572Q26 581 31 598T50 631T86 660T145 673Q158 673 177 670T215 655T246 623T259 564Q259 542 254 528T241 504T222 488T198 477Q207 474 219 470T243 456T261 429T269 385Q269 345 256 321T222 283T180 265T142 260Q126 260 106 264T66 280T33 315T15 378L100 391Q102 371 109 357T136 342Q153 342 161 351T170 388Q170 407 164 417T150 432T132 438T117 439H101V508Z"  />
<glyph unicode="&#xB4;" horiz-adv-x="460" d="M205 540L165 583L302 714L359 648L205 540Z"  />
<glyph unicode="&#xB5;" horiz-adv-x="409" d="M371 0H257V69Q255 55 252 41T244 17T228 0T203 -7Q188 -7 179 -1T163 16T154 40T149 69V-167H35V493H163V177Q163 135 171 115T203 95Q226 95 234 113T243 177V493H371V0Z"  />
<glyph unicode="&#xB6;" horiz-adv-x="426" d="M385 -167H315V588H266V-167H196V258Q167 258 134 264T71 291T23 353T4 466Q4 489 7 513T19 561T42 604T78 640Q107 660 146 663T219 667H385V-167Z"  />
<glyph unicode="&#xB7;" horiz-adv-x="222" d="M174 405V259H47V405H174Z"  />
<glyph unicode="&#xB8;" horiz-adv-x="460" d="M242 -48Q267 -45 284 -50T311 -65T327 -89T332 -117Q332 -140 323 -156T300 -182T270 -196T239 -200Q225 -200 201 -195T156 -175L169 -135Q188 -144 201 -147T226 -151Q240 -151 251 -144T262 -119Q262 -105 252 -94T216 -82Q211 -82 205 -82Q200 -82 190 -84L217 0H256L242 -48Z"  />
<glyph unicode="&#xB9;" horiz-adv-x="290" d="M202 347H264V267H37V347H104V551Q88 534 68 522T37 505V593Q51 601 73 617T127 671H202V347Z"  />
<glyph unicode="&#xBA;" horiz-adv-x="426" d="M213 677Q249 677 273 663T313 626T334 572T340 508Q340 473 334 442T313 388T274 352T212 338Q168 338 145 354T108 397Q99 413 95 431T88 466T86 493T85 509Q85 528 88 557T105 612T144 658T213 677ZM212 610Q201 610 198 604T192 590Q191 584 191 574T190 555T189 536Q189 528 189 525Q189 487 189 467T191 434Q193 413 200 409T214 405Q216 405 221 406T230 416Q232 423 233 436T235 463T236 492Q236 506 236 514Q236 519 236 530Q236 541 236 553T234 575T232 592Q230 604 225 607T212 610Z"  />
<glyph unicode="&#xBB;" horiz-adv-x="375" d="M97 431L186 259L97 90H36L85 259L36 431H97ZM251 431L339 259L251 90H189L239 259L189 431H251Z"  />
<glyph unicode="&#xBC;" horiz-adv-x="716" d="M202 347H264V267H37V347H104V551Q88 534 68 522T37 505V593Q62 607 82 624T127 671H202V347ZM455 667H530L260 0H185L455 667ZM417 94V166L545 404H635V170H679V94H635V0H543V94H417ZM550 165V249Q550 266 551 288T555 328Q548 303 542 288T532 268L480 165H550Z"  />
<glyph unicode="&#xBD;" horiz-adv-x="715" d="M202 347H264V267H37V347H104V551Q88 534 68 522T37 505V593Q62 607 82 624T127 671H202V347ZM455 667H530L260 0H185L455 667ZM690 85L684 0H441V84Q475 116 501 142T547 194T576 243T586 295Q586 304 582 315T562 327Q541 327 535 306T527 251L440 270Q441 283 445 306T462 351T500 389T567 406Q589 406 610 400T649 380T676 344T687 291Q687 234 648 186T543 85H690Z"  />
<glyph unicode="&#xBE;" horiz-adv-x="716" d="M477 667H552L283 0H208L477 667ZM428 94V166L556 404H646V170H690V94H646V0H554V94H428ZM561 165V248Q561 254 561 264T562 286T564 308T566 327Q559 303 553 288T543 267L491 165H561ZM123 508H140Q150 508 158 509T172 514T181 529T185 556Q185 569 181 582T159 595Q142 595 137 582T129 555L46 572Q48 581 53 598T72 631T108 660T167 673Q180 673 199 670T237 655T268 623T281 564Q281 542 276 528T263 504T244 488T220 477Q229 474 241 470T265 456T283 429T291 385Q291 345 278 321T244 283T202 265T164 260Q148 260 128 264T88 280T55 315T37 378L122 391Q124 371 131 357T158 342Q175 342 183 351T192 388Q192 407 186 417T172 432T154 438T139 439H123V508Z"  />
<glyph unicode="&#xBF;" horiz-adv-x="426" d="M272 302V273Q272 242 270 222T262 185T246 155T220 124Q200 104 185 80T170 10Q170 -17 175 -32T187 -54T202 -63T217 -65Q237 -65 248 -58T264 -36T272 -2T275 45L387 27Q389 -19 380 -52T356 -109T321 -147T281 -170T241 -181T207 -184Q178 -184 148 -175T93 -145T53 -88T37 0Q37 38 44 66T62 117T89 156T120 190Q132 202 140 211T152 229T159 249T161 279V302H272ZM151 349V493H274V349H151Z"  />
<glyph unicode="&#xC0;" horiz-adv-x="426" d="M285 667L436 0H298L271 144H139L113 0H-10L143 667H285ZM256 252L219 430Q214 450 211 473T205 542Q202 521 199 494T189 436L153 252H256ZM128 862L307 765L278 708L87 778L128 862Z"  />
<glyph unicode="&#xC1;" horiz-adv-x="426" d="M285 667L436 0H298L271 144H139L113 0H-10L143 667H285ZM256 252L219 430Q214 450 211 473T205 542Q202 521 199 494T189 436L153 252H256ZM152 708L123 765L303 862L343 778L152 708Z"  />
<glyph unicode="&#xC2;" horiz-adv-x="426" d="M285 667L436 0H298L271 144H139L113 0H-10L143 667H285ZM256 252L219 430Q214 450 211 473T205 542Q202 521 199 494T189 436L153 252H256ZM138 709H45L218 862L389 709H296L218 760L138 709Z"  />
<glyph unicode="&#xC3;" horiz-adv-x="426" d="M285 667L436 0H298L271 144H139L113 0H-10L143 667H285ZM256 252L219 430Q214 450 211 473T205 542Q202 521 199 494T189 436L153 252H256ZM357 803Q353 794 346 780T327 752T300 728T265 718Q256 718 247 720T230 726T217 733T209 739Q191 750 181 756T166 764T157 767T150 768Q137 768 128 758T110 734L75 766Q86 790 98 805T123 830T145 842T161 846Q167 846 172 845T186 841T206 831T239 812Q247 807 257 803T279 798Q288 798 296 805T318 837L357 803Z"  />
<glyph unicode="&#xC4;" horiz-adv-x="426" d="M285 667L436 0H298L271 144H139L113 0H-10L143 667H285ZM256 252L219 430Q214 450 211 473T205 542Q202 521 199 494T189 436L153 252H256ZM141 720Q120 720 103 735T86 775Q86 799 102 815T141 831Q164 831 180 815T197 776Q197 751 181 736T141 720ZM285 720Q263 720 246 735T229 775Q229 799 245 815T285 831Q308 831 324 815T340 776Q340 751 324 736T285 720Z"  />
<glyph unicode="&#xC5;" horiz-adv-x="426" d="M285 667L436 0H298L271 144H139L113 0H-10L143 667H285ZM256 252L219 430Q214 450 211 473T205 542Q202 521 199 494T189 436L153 252H256ZM215 690Q196 690 179 697T149 716T127 746T119 785Q119 826 147 853T215 881Q256 881 283 854T311 786Q311 765 303 747T282 717T251 697T215 690ZM215 750Q227 750 239 759T251 785Q251 800 240 810T215 821Q200 821 190 811T179 785Q179 769 190 760T215 750Z"  />
<glyph unicode="&#xC6;" horiz-adv-x="630" d="M619 667V550H406V395H571V284H406V117H619V0H278V153H157L108 0H-7L209 667H619ZM278 262V474Q278 482 278 498T280 533T282 570T284 601Q277 569 270 538T254 474L190 262H278Z"  />
<glyph unicode="&#xC7;" horiz-adv-x="460" d="M239 -50Q276 -47 296 -57T327 -81T340 -109T343 -130Q343 -153 334 -170T310 -199T276 -217T235 -223Q220 -223 193 -217T141 -194L156 -149Q172 -157 188 -162T222 -168Q243 -168 251 -156T260 -131Q260 -116 250 -103T210 -89Q202 -89 196 -89T180 -91L206 -8Q187 -4 157 7T103 47Q80 74 66 108T44 179T33 254T30 329Q30 362 33 401T44 478T67 553T106 616T164 660T247 677Q292 677 324 664T377 630T412 582T432 526T441 470T446 420L325 410Q324 435 322 461T311 509T289 544T250 558Q227 558 215 548T193 514Q186 496 183 470T178 416T176 364T175 324Q175 305 175 281Q175 258 176 234T181 188T191 150Q199 130 211 120T246 109Q265 109 279 115T302 136T316 177T325 242L441 233Q440 220 438 197T429 147T410 92T377 42T325 5T250 -10L239 -50Z"  />
<glyph unicode="&#xC8;" horiz-adv-x="409" d="M188 395H349V284H188V117H398V0H51V667H398V550H188V395ZM122 862L301 765L272 708L81 778L122 862Z"  />
<glyph unicode="&#xC9;" horiz-adv-x="409" d="M188 395H349V284H188V117H398V0H51V667H398V550H188V395ZM180 708L151 765L331 862L371 778L180 708Z"  />
<glyph unicode="&#xCA;" horiz-adv-x="409" d="M188 395H349V284H188V117H398V0H51V667H398V550H188V395ZM148 709H55L228 862L399 709H306L228 760L148 709Z"  />
<glyph unicode="&#xCB;" horiz-adv-x="409" d="M188 395H349V284H188V117H398V0H51V667H398V550H188V395ZM156 720Q135 720 118 735T101 775Q101 799 117 815T156 831Q179 831 195 815T212 776Q212 751 196 736T156 720ZM300 720Q278 720 261 735T244 775Q244 799 260 815T300 831Q323 831 339 815T355 776Q355 751 339 736T300 720Z"  />
<glyph unicode="&#xCC;" horiz-adv-x="239" d="M51 667H188V0H51V667ZM2 862L181 765L152 708L-39 778L2 862Z"  />
<glyph unicode="&#xCD;" horiz-adv-x="239" d="M51 667H188V0H51V667ZM90 708L61 765L241 862L281 778L90 708Z"  />
<glyph unicode="&#xCE;" horiz-adv-x="239" d="M51 667H188V0H51V667ZM41 709H-52L121 862L292 709H199L121 760L41 709Z"  />
<glyph unicode="&#xCF;" horiz-adv-x="239" d="M51 667H188V0H51V667ZM49 720Q28 720 11 735T-6 775Q-6 799 10 815T49 831Q72 831 88 815T105 776Q105 751 89 736T49 720ZM193 720Q171 720 154 735T137 775Q137 799 153 815T193 831Q216 831 232 815T248 776Q248 751 232 736T193 720Z"  />
<glyph unicode="&#xD0;" horiz-adv-x="494" d="M4 298V391H51V667H179Q236 667 280 661T365 625Q399 599 419 561T449 482T461 404T464 342Q464 242 442 167T366 44Q347 27 315 14T230 0H51V298H4ZM185 298V117H225Q230 117 240 117T262 122T285 135T302 161Q307 176 310 199T316 246T318 292T319 329Q319 405 313 449T294 515T265 544T225 551H185V391H263V298H185Z"  />
<glyph unicode="&#xD1;" horiz-adv-x="477" d="M51 667H185L293 361Q301 338 308 305T325 229Q323 254 322 284T319 343T316 396T315 432V667H426V0H315L190 341Q177 376 167 414T151 478Q153 455 155 426T158 368T161 315T162 281V0H51V667ZM381 803Q377 794 370 780T351 752T324 728T289 718Q280 718 271 720T254 726T241 733T233 739Q215 750 205 756T190 764T181 767T174 768Q161 768 152 758T134 734L99 766Q110 790 122 805T147 830T169 842T185 846Q191 846 196 845T210 841T230 831T263 812Q271 807 281 803T303 798Q312 798 320 805T342 837L381 803Z"  />
<glyph unicode="&#xD2;" horiz-adv-x="477" d="M240 677Q300 677 340 651T404 579T437 469T447 329Q447 255 438 193T404 86T340 16T237 -10Q198 -10 171 0T126 23T99 48T86 66Q54 119 42 189T30 341Q30 417 40 479T76 585T141 653T240 677ZM237 558Q221 558 209 549T189 516Q180 491 178 441T175 327Q175 284 176 239T187 158Q192 138 203 124T240 109Q268 109 278 125T294 168Q297 185 298 213T301 268T302 316Q302 337 302 340Q302 355 302 379Q302 403 301 428T297 476T289 515Q281 540 269 549T237 558ZM131 862L310 765L281 708L90 778L131 862Z"  />
<glyph unicode="&#xD3;" horiz-adv-x="477" d="M240 677Q300 677 340 651T404 579T437 469T447 329Q447 255 438 193T404 86T340 16T237 -10Q198 -10 171 0T126 23T99 48T86 66Q54 119 42 189T30 341Q30 417 40 479T76 585T141 653T240 677ZM237 558Q221 558 209 549T189 516Q180 491 178 441T175 327Q175 284 176 239T187 158Q192 138 203 124T240 109Q268 109 278 125T294 168Q297 185 298 213T301 268T302 316Q302 337 302 340Q302 355 302 379Q302 403 301 428T297 476T289 515Q281 540 269 549T237 558ZM201 708L172 765L352 862L392 778L201 708Z"  />
<glyph unicode="&#xD4;" horiz-adv-x="477" d="M240 677Q300 677 340 651T404 579T437 469T447 329Q447 255 438 193T404 86T340 16T237 -10Q198 -10 171 0T126 23T99 48T86 66Q54 119 42 189T30 341Q30 417 40 479T76 585T141 653T240 677ZM237 558Q221 558 209 549T189 516Q180 491 178 441T175 327Q175 284 176 239T187 158Q192 138 203 124T240 109Q268 109 278 125T294 168Q297 185 298 213T301 268T302 316Q302 337 302 340Q302 355 302 379Q302 403 301 428T297 476T289 515Q281 540 269 549T237 558ZM159 709H66L239 862L410 709H317L239 760L159 709Z"  />
<glyph unicode="&#xD5;" horiz-adv-x="477" d="M240 677Q300 677 340 651T404 579T437 469T447 329Q447 255 438 193T404 86T340 16T237 -10Q198 -10 171 0T126 23T99 48T86 66Q54 119 42 189T30 341Q30 417 40 479T76 585T141 653T240 677ZM237 558Q221 558 209 549T189 516Q180 491 178 441T175 327Q175 284 176 239T187 158Q192 138 203 124T240 109Q268 109 278 125T294 168Q297 185 298 213T301 268T302 316Q302 337 302 340Q302 355 302 379Q302 403 301 428T297 476T289 515Q281 540 269 549T237 558ZM379 803Q375 794 368 780T349 752T322 728T287 718Q278 718 269 720T252 726T239 733T231 739Q213 750 203 756T188 764T179 767T172 768Q159 768 150 758T132 734L97 766Q108 790 120 805T145 830T167 842T183 846Q189 846 194 845T208 841T228 831T261 812Q269 807 279 803T301 798Q310 798 318 805T340 837L379 803Z"  />
<glyph unicode="&#xD6;" horiz-adv-x="477" d="M240 677Q300 677 340 651T404 579T437 469T447 329Q447 255 438 193T404 86T340 16T237 -10Q198 -10 171 0T126 23T99 48T86 66Q54 119 42 189T30 341Q30 417 40 479T76 585T141 653T240 677ZM237 558Q221 558 209 549T189 516Q180 491 178 441T175 327Q175 284 176 239T187 158Q192 138 203 124T240 109Q268 109 278 125T294 168Q297 185 298 213T301 268T302 316Q302 337 302 340Q302 355 302 379Q302 403 301 428T297 476T289 515Q281 540 269 549T237 558ZM166 720Q145 720 128 735T111 775Q111 799 127 815T166 831Q189 831 205 815T222 776Q222 751 206 736T166 720ZM310 720Q288 720 271 735T254 775Q254 799 270 815T310 831Q333 831 349 815T365 776Q365 751 349 736T310 720Z"  />
<glyph unicode="&#xD7;" horiz-adv-x="426" d="M313 507L386 432L288 335L387 236L309 158L210 257L115 160L40 234L138 332L39 431L117 509L216 410L313 507Z"  />
<glyph unicode="&#xD8;" horiz-adv-x="477" d="M349 705H410L377 619Q400 591 413 558T433 489Q441 445 444 405T447 329Q447 260 439 199T407 91T342 17T237 -10Q201 -10 181 -4T147 9L128 -41H67L100 46Q85 65 72 89T50 148T35 229T30 335Q30 399 38 460T68 570T132 647T239 677Q277 677 297 670T331 657L349 705ZM285 545Q280 552 271 558T239 564Q215 564 200 552T177 512T166 440T163 332Q163 294 164 264T169 205L285 545ZM194 120Q203 109 215 106T241 103Q258 103 269 108T287 121T299 141T305 164Q308 180 310 203T312 252T313 301T314 343Q314 396 313 422T310 462L194 120Z"  />
<glyph unicode="&#xD9;" horiz-adv-x="477" d="M182 667V242Q182 211 184 187T193 146T213 121T250 112Q274 112 287 122T307 151T315 195T316 249V667H432V249Q432 205 428 159T406 76T349 14T241 -10Q184 -10 146 4T86 49T54 127T45 238V667H182ZM118 862L297 765L268 708L77 778L118 862Z"  />
<glyph unicode="&#xDA;" horiz-adv-x="477" d="M182 667V242Q182 211 184 187T193 146T213 121T250 112Q274 112 287 122T307 151T315 195T316 249V667H432V249Q432 205 428 159T406 76T349 14T241 -10Q184 -10 146 4T86 49T54 127T45 238V667H182ZM213 708L184 765L364 862L404 778L213 708Z"  />
<glyph unicode="&#xDB;" horiz-adv-x="477" d="M182 667V242Q182 211 184 187T193 146T213 121T250 112Q274 112 287 122T307 151T315 195T316 249V667H432V249Q432 205 428 159T406 76T349 14T241 -10Q184 -10 146 4T86 49T54 127T45 238V667H182ZM159 709H66L239 862L410 709H317L239 760L159 709Z"  />
<glyph unicode="&#xDC;" horiz-adv-x="477" d="M182 667V242Q182 211 184 187T193 146T213 121T250 112Q274 112 287 122T307 151T315 195T316 249V667H432V249Q432 205 428 159T406 76T349 14T241 -10Q184 -10 146 4T86 49T54 127T45 238V667H182ZM165 720Q144 720 127 735T110 775Q110 799 126 815T165 831Q188 831 204 815T221 776Q221 751 205 736T165 720ZM309 720Q287 720 270 735T253 775Q253 799 269 815T309 831Q332 831 348 815T364 776Q364 751 348 736T309 720Z"  />
<glyph unicode="&#xDD;" horiz-adv-x="409" d="M127 274L-6 667H138L196 455Q204 426 206 398T208 349Q210 375 213 402T225 455L289 667H412L264 274V0H127V274ZM201 708L172 765L352 862L392 778L201 708Z"  />
<glyph unicode="&#xDE;" horiz-adv-x="443" d="M51 667H185V576H218Q242 576 266 575T312 568T354 550T390 514Q413 482 422 444T431 365Q431 310 414 262T362 188Q345 176 327 170T290 160T254 157T225 156H185V0H51V667ZM185 267H218Q236 267 249 271T271 286T284 317T289 370Q289 411 275 438T218 466H185V267Z"  />
<glyph unicode="&#xDF;" horiz-adv-x="460" d="M48 -57V342H-4V448H48V487Q48 538 62 579T102 649T165 693T248 709Q299 709 330 691T379 647T403 594T409 548Q409 526 401 498T370 446Q350 426 331 420T295 408Q296 400 298 394T306 381T324 364T355 342Q374 328 391 314T422 281T443 238T451 179Q451 147 444 114T418 53T368 8T289 -10Q281 -10 257 -8T203 10L230 104Q258 91 285 91Q302 91 311 99T325 119T331 141T332 158Q332 193 318 212T272 254Q259 263 247 272T226 294T211 325T205 369Q205 391 210 419T232 473Q255 477 272 489T289 543Q289 552 287 564T280 586T263 604T234 611Q211 611 199 600T180 570T173 527T172 476V-57H48Z"  />
<glyph unicode="&#xE0;" horiz-adv-x="375" d="M233 0Q229 8 227 18T225 61Q208 31 181 11T120 -10Q113 -10 96 -7T60 9T29 50T15 127Q15 136 16 151T22 185T39 222T71 260Q101 286 137 294T217 306Q216 363 211 386T183 410Q169 410 162 402T150 383T144 359T141 337L29 350Q37 421 75 462T188 503Q199 503 215 501T249 494T284 477T316 448Q333 425 336 387T340 306V106Q340 79 340 62Q340 46 340 35T342 17T346 0H233ZM217 237Q172 229 158 204T143 140Q143 114 149 97T175 79Q207 79 212 119T217 237ZM125 714L262 583L222 540L68 648L125 714Z"  />
<glyph unicode="&#xE1;" horiz-adv-x="375" d="M233 0Q229 8 227 18T225 61Q208 31 181 11T120 -10Q113 -10 96 -7T60 9T29 50T15 127Q15 136 16 151T22 185T39 222T71 260Q101 286 137 294T217 306Q216 363 211 386T183 410Q169 410 162 402T150 383T144 359T141 337L29 350Q37 421 75 462T188 503Q199 503 215 501T249 494T284 477T316 448Q333 425 336 387T340 306V106Q340 79 340 62Q340 46 340 35T342 17T346 0H233ZM217 237Q172 229 158 204T143 140Q143 114 149 97T175 79Q207 79 212 119T217 237ZM164 540L124 583L261 714L318 648L164 540Z"  />
<glyph unicode="&#xE2;" horiz-adv-x="375" d="M233 0Q229 8 227 18T225 61Q208 31 181 11T120 -10Q113 -10 96 -7T60 9T29 50T15 127Q15 136 16 151T22 185T39 222T71 260Q101 286 137 294T217 306Q216 363 211 386T183 410Q169 410 162 402T150 383T144 359T141 337L29 350Q37 421 75 462T188 503Q199 503 215 501T249 494T284 477T316 448Q333 425 336 387T340 306V106Q340 79 340 62Q340 46 340 35T342 17T346 0H233ZM217 237Q172 229 158 204T143 140Q143 114 149 97T175 79Q207 79 212 119T217 237ZM131 555H45L194 698L341 555H254L194 602L131 555Z"  />
<glyph unicode="&#xE3;" horiz-adv-x="375" d="M233 0Q229 8 227 18T225 61Q208 31 181 11T120 -10Q113 -10 96 -7T60 9T29 50T15 127Q15 136 16 151T22 185T39 222T71 260Q101 286 137 294T217 306Q216 363 211 386T183 410Q169 410 162 402T150 383T144 359T141 337L29 350Q37 421 75 462T188 503Q199 503 215 501T249 494T284 477T316 448Q333 425 336 387T340 306V106Q340 79 340 62Q340 46 340 35T342 17T346 0H233ZM217 237Q172 229 158 204T143 140Q143 114 149 97T175 79Q207 79 212 119T217 237ZM323 640Q319 632 312 619T295 594T270 573T238 564Q223 564 207 571T186 582Q169 592 160 597T146 604T139 607T132 608Q121 608 113 600T95 578L62 608Q67 616 74 627T92 650T115 669T143 677Q149 677 153 676T165 672T183 663T214 647Q222 642 231 638T251 633Q259 633 267 640T288 670L323 640Z"  />
<glyph unicode="&#xE4;" horiz-adv-x="375" d="M233 0Q229 8 227 18T225 61Q208 31 181 11T120 -10Q113 -10 96 -7T60 9T29 50T15 127Q15 136 16 151T22 185T39 222T71 260Q101 286 137 294T217 306Q216 363 211 386T183 410Q169 410 162 402T150 383T144 359T141 337L29 350Q37 421 75 462T188 503Q199 503 215 501T249 494T284 477T316 448Q333 425 336 387T340 306V106Q340 79 340 62Q340 46 340 35T342 17T346 0H233ZM217 237Q172 229 158 204T143 140Q143 114 149 97T175 79Q207 79 212 119T217 237ZM128 569Q108 569 92 583T76 621Q76 643 91 657T128 672Q149 672 164 657T179 621Q179 598 164 584T128 569ZM264 569Q244 569 228 583T212 621Q212 642 227 657T264 672Q284 672 299 658T315 621Q315 598 300 584T264 569Z"  />
<glyph unicode="&#xE5;" horiz-adv-x="375" d="M233 0Q229 8 227 18T225 61Q208 31 181 11T120 -10Q113 -10 96 -7T60 9T29 50T15 127Q15 136 16 151T22 185T39 222T71 260Q101 286 137 294T217 306Q216 363 211 386T183 410Q169 410 162 402T150 383T144 359T141 337L29 350Q37 421 75 462T188 503Q199 503 215 501T249 494T284 477T316 448Q333 425 336 387T340 306V106Q340 79 340 62Q340 46 340 35T342 17T346 0H233ZM217 237Q172 229 158 204T143 140Q143 114 149 97T175 79Q207 79 212 119T217 237ZM192 535Q174 535 157 542T126 561T104 592T96 631Q96 671 124 698T192 726Q232 726 260 699T288 631Q288 610 280 592T259 562T228 542T192 535ZM192 594Q204 594 216 603T229 630Q229 646 218 656T192 667Q177 667 166 656T155 631Q155 614 167 604T192 594Z"  />
<glyph unicode="&#xE6;" horiz-adv-x="579" d="M353 225Q353 180 357 153T368 112T385 94T407 89Q418 89 426 92T441 105T451 129T459 170L565 161Q563 129 554 99T525 44T475 5T402 -10Q350 -10 323 10T277 69Q248 21 213 6T135 -10Q100 -10 77 1T41 31T21 75T15 128Q15 165 25 192T49 236T77 264T100 279Q126 293 155 298T222 307Q221 362 216 386T187 410Q173 410 165 402T152 383T146 359T143 337L30 350Q33 393 49 422T88 470T138 495T187 503Q214 503 232 497T263 481T283 463T293 447Q304 459 314 469T338 487T367 499T406 503Q460 503 494 474T547 403Q555 384 559 360T566 312T569 265T570 225H353ZM450 306Q449 360 440 386T404 413Q387 413 377 403T362 376T355 341T352 306H450ZM143 141Q143 132 144 122T148 102T159 87T179 80Q196 80 204 90T215 110Q221 133 221 164T222 238Q197 234 182 226T158 204T146 175T143 141Z"  />
<glyph unicode="&#xE7;" horiz-adv-x="375" d="M192 -48Q217 -45 234 -50T261 -66T277 -90T282 -118Q282 -141 273 -156T250 -182T220 -196T189 -200Q174 -200 150 -195T106 -175L119 -135Q126 -138 142 -144T176 -151Q189 -151 200 -144T212 -119Q212 -105 202 -94T166 -82Q161 -82 156 -82T140 -84L164 -8Q147 -4 124 3T82 32Q62 53 50 80T31 136T22 192T20 243Q20 268 22 297T32 354T52 410T85 458Q108 483 138 493T201 503Q234 503 263 493T314 460T349 402T364 315L249 308Q248 328 246 346T240 379T226 401T201 410Q180 410 170 393T157 345Q155 319 154 292T153 247Q153 233 153 215Q153 197 154 178T158 142T166 112Q172 97 181 93T201 88Q212 88 221 92T236 107T247 139T255 192L363 184Q361 162 357 130T337 68T290 15T203 -10L192 -48Z"  />
<glyph unicode="&#xE8;" horiz-adv-x="375" d="M148 225Q146 159 156 124T202 89Q230 89 240 111T255 170L360 161Q358 130 349 100T320 45T271 5T198 -10Q149 -10 115 8T60 59T30 139T20 243Q20 288 27 334T55 418T109 479T197 503Q228 503 251 495T292 472T322 440T342 403Q351 383 355 359T362 311T364 264T365 225H148ZM246 306Q245 364 234 388T200 413Q182 413 172 402T157 375T150 340T147 306H246ZM134 714L271 583L231 540L77 648L134 714Z"  />
<glyph unicode="&#xE9;" horiz-adv-x="375" d="M148 225Q146 159 156 124T202 89Q230 89 240 111T255 170L360 161Q358 130 349 100T320 45T271 5T198 -10Q149 -10 115 8T60 59T30 139T20 243Q20 288 27 334T55 418T109 479T197 503Q228 503 251 495T292 472T322 440T342 403Q351 383 355 359T362 311T364 264T365 225H148ZM246 306Q245 364 234 388T200 413Q182 413 172 402T157 375T150 340T147 306H246ZM167 540L127 583L264 714L321 648L167 540Z"  />
<glyph unicode="&#xEA;" horiz-adv-x="375" d="M148 225Q146 159 156 124T202 89Q230 89 240 111T255 170L360 161Q358 130 349 100T320 45T271 5T198 -10Q149 -10 115 8T60 59T30 139T20 243Q20 288 27 334T55 418T109 479T197 503Q228 503 251 495T292 472T322 440T342 403Q351 383 355 359T362 311T364 264T365 225H148ZM246 306Q245 364 234 388T200 413Q182 413 172 402T157 375T150 340T147 306H246ZM140 555H54L203 698L350 555H263L203 602L140 555Z"  />
<glyph unicode="&#xEB;" horiz-adv-x="375" d="M148 225Q146 159 156 124T202 89Q230 89 240 111T255 170L360 161Q358 130 349 100T320 45T271 5T198 -10Q149 -10 115 8T60 59T30 139T20 243Q20 288 27 334T55 418T109 479T197 503Q228 503 251 495T292 472T322 440T342 403Q351 383 355 359T362 311T364 264T365 225H148ZM246 306Q245 364 234 388T200 413Q182 413 172 402T157 375T150 340T147 306H246ZM135 569Q115 569 99 583T83 621Q83 643 98 657T135 672Q156 672 171 657T186 621Q186 598 171 584T135 569ZM271 569Q251 569 235 583T219 621Q219 642 234 657T271 672Q291 672 306 658T322 621Q322 598 307 584T271 569Z"  />
<glyph unicode="&#xEC;" horiz-adv-x="204" d="M38 493H166V0H38V493ZM24 714L161 583L121 540L-33 648L24 714Z"  />
<glyph unicode="&#xED;" horiz-adv-x="204" d="M38 493H166V0H38V493ZM88 540L48 583L185 714L242 648L88 540Z"  />
<glyph unicode="&#xEE;" horiz-adv-x="204" d="M38 493H166V0H38V493ZM43 555H-43L106 698L253 555H166L106 602L43 555Z"  />
<glyph unicode="&#xEF;" horiz-adv-x="204" d="M38 493H166V0H38V493ZM38 569Q18 569 2 583T-14 621Q-14 643 1 657T38 672Q59 672 74 657T89 621Q89 598 74 584T38 569ZM174 569Q154 569 138 583T122 621Q122 642 137 657T174 672Q194 672 209 658T225 621Q225 598 210 584T174 569Z"  />
<glyph unicode="&#xF0;" horiz-adv-x="392" d="M194 413Q165 413 159 379T153 264Q153 219 154 188T157 133Q159 102 169 91T195 80Q203 80 213 84T228 104Q232 114 234 133T237 174T238 216Q238 237 238 251Q238 278 237 302T234 358Q233 377 230 388T221 404T208 411T194 413ZM257 617Q312 522 341 432T371 241Q371 184 360 136T325 53Q311 33 295 21T261 1T226 -8T195 -10Q165 -10 142 -3T102 16T73 44T52 78Q40 103 34 131T24 184T21 227T20 251Q20 315 32 362T64 441T113 487T173 503Q175 503 188 502T216 496Q213 508 205 529T186 576L91 521L57 578L159 637Q148 664 135 686L191 721Q199 708 207 696T222 673L317 728L351 671L257 617Z"  />
<glyph unicode="&#xF1;" horiz-adv-x="409" d="M38 493H152V420Q159 437 168 452T190 478T220 496T263 503Q305 503 327 489T360 451T372 400T374 345V0H246V335Q246 348 246 359T241 379T230 393T207 398Q193 398 185 393T172 379T167 359T166 335V0H38V493ZM338 640Q334 632 327 619T310 594T285 573T253 564Q238 564 222 571T201 582Q184 592 175 597T161 604T154 607T147 608Q136 608 128 600T110 578L77 608Q82 616 89 627T107 650T130 669T158 677Q164 677 168 676T180 672T198 663T229 647Q237 642 246 638T266 633Q274 633 282 640T303 670L338 640Z"  />
<glyph unicode="&#xF2;" horiz-adv-x="392" d="M196 503Q251 503 285 479T338 417T364 334T371 248Q371 197 363 151T335 69T281 12T195 -10Q165 -10 142 -3T102 16T73 44T52 78Q40 103 34 131T24 183T21 226T20 250Q20 283 25 326T49 409T102 475T196 503ZM194 413Q165 413 159 379T153 264Q153 219 154 188T157 133Q159 102 169 91T195 80Q203 80 213 84T228 104Q232 114 234 133T237 174T238 216Q238 237 238 251Q238 278 237 302T234 358Q233 377 230 388T221 404T208 411T194 413ZM131 714L268 583L228 540L74 648L131 714Z"  />
<glyph unicode="&#xF3;" horiz-adv-x="392" d="M196 503Q251 503 285 479T338 417T364 334T371 248Q371 197 363 151T335 69T281 12T195 -10Q165 -10 142 -3T102 16T73 44T52 78Q40 103 34 131T24 183T21 226T20 250Q20 283 25 326T49 409T102 475T196 503ZM194 413Q165 413 159 379T153 264Q153 219 154 188T157 133Q159 102 169 91T195 80Q203 80 213 84T228 104Q232 114 234 133T237 174T238 216Q238 237 238 251Q238 278 237 302T234 358Q233 377 230 388T221 404T208 411T194 413ZM165 540L125 583L262 714L319 648L165 540Z"  />
<glyph unicode="&#xF4;" horiz-adv-x="392" d="M196 503Q251 503 285 479T338 417T364 334T371 248Q371 197 363 151T335 69T281 12T195 -10Q165 -10 142 -3T102 16T73 44T52 78Q40 103 34 131T24 183T21 226T20 250Q20 283 25 326T49 409T102 475T196 503ZM194 413Q165 413 159 379T153 264Q153 219 154 188T157 133Q159 102 169 91T195 80Q203 80 213 84T228 104Q232 114 234 133T237 174T238 216Q238 237 238 251Q238 278 237 302T234 358Q233 377 230 388T221 404T208 411T194 413ZM136 555H50L199 698L346 555H259L199 602L136 555Z"  />
<glyph unicode="&#xF5;" horiz-adv-x="392" d="M196 503Q251 503 285 479T338 417T364 334T371 248Q371 197 363 151T335 69T281 12T195 -10Q165 -10 142 -3T102 16T73 44T52 78Q40 103 34 131T24 183T21 226T20 250Q20 283 25 326T49 409T102 475T196 503ZM194 413Q165 413 159 379T153 264Q153 219 154 188T157 133Q159 102 169 91T195 80Q203 80 213 84T228 104Q232 114 234 133T237 174T238 216Q238 237 238 251Q238 278 237 302T234 358Q233 377 230 388T221 404T208 411T194 413ZM328 640Q324 632 317 619T300 594T275 573T243 564Q228 564 212 571T191 582Q174 592 165 597T151 604T144 607T137 608Q126 608 118 600T100 578L67 608Q72 616 79 627T97 650T120 669T148 677Q154 677 158 676T170 672T188 663T219 647Q227 642 236 638T256 633Q264 633 272 640T293 670L328 640Z"  />
<glyph unicode="&#xF6;" horiz-adv-x="392" d="M196 503Q251 503 285 479T338 417T364 334T371 248Q371 197 363 151T335 69T281 12T195 -10Q165 -10 142 -3T102 16T73 44T52 78Q40 103 34 131T24 183T21 226T20 250Q20 283 25 326T49 409T102 475T196 503ZM194 413Q165 413 159 379T153 264Q153 219 154 188T157 133Q159 102 169 91T195 80Q203 80 213 84T228 104Q232 114 234 133T237 174T238 216Q238 237 238 251Q238 278 237 302T234 358Q233 377 230 388T221 404T208 411T194 413ZM130 569Q110 569 94 583T78 621Q78 643 93 657T130 672Q151 672 166 657T181 621Q181 598 166 584T130 569ZM266 569Q246 569 230 583T214 621Q214 642 229 657T266 672Q286 672 301 658T317 621Q317 598 302 584T266 569Z"  />
<glyph unicode="&#xF7;" horiz-adv-x="426" d="M32 281V387H394V281H32ZM155 433V565H271V433H155ZM155 103V235H271V103H155Z"  />
<glyph unicode="&#xF8;" horiz-adv-x="392" d="M284 544H339L307 461Q342 424 356 369T371 247Q371 202 364 156T338 74T284 14T196 -10Q180 -10 163 -8T129 1L107 -57H52L85 29Q65 50 53 76T34 131Q26 163 23 193T20 249Q20 285 26 329T51 412T104 477T196 503Q231 503 263 490L284 544ZM231 405Q226 410 219 414T195 419Q159 419 151 385T143 274Q143 246 143 216Q143 186 145 159L231 405ZM162 85Q167 81 173 78T196 74Q199 74 204 74T215 77T226 84T236 98Q240 109 242 129T246 173T248 218Q248 241 248 256Q248 284 248 299T246 328L162 85Z"  />
<glyph unicode="&#xF9;" horiz-adv-x="409" d="M371 0H257V70Q249 54 240 40T218 14T188 -3T146 -10Q104 -10 82 4T49 42T37 95T35 154V493H163V154Q163 143 163 133T168 114T179 101T200 95Q227 95 235 112T243 177V493H371V0ZM124 714L261 583L221 540L67 648L124 714Z"  />
<glyph unicode="&#xFA;" horiz-adv-x="409" d="M371 0H257V70Q249 54 240 40T218 14T188 -3T146 -10Q104 -10 82 4T49 42T37 95T35 154V493H163V154Q163 143 163 133T168 114T179 101T200 95Q227 95 235 112T243 177V493H371V0ZM191 540L151 583L288 714L345 648L191 540Z"  />
<glyph unicode="&#xFB;" horiz-adv-x="409" d="M371 0H257V70Q249 54 240 40T218 14T188 -3T146 -10Q104 -10 82 4T49 42T37 95T35 154V493H163V154Q163 143 163 133T168 114T179 101T200 95Q227 95 235 112T243 177V493H371V0ZM144 555H58L207 698L354 555H267L207 602L144 555Z"  />
<glyph unicode="&#xFC;" horiz-adv-x="409" d="M371 0H257V70Q249 54 240 40T218 14T188 -3T146 -10Q104 -10 82 4T49 42T37 95T35 154V493H163V154Q163 143 163 133T168 114T179 101T200 95Q227 95 235 112T243 177V493H371V0ZM139 569Q119 569 103 583T87 621Q87 643 102 657T139 672Q160 672 175 657T190 621Q190 598 175 584T139 569ZM275 569Q255 569 239 583T223 621Q223 642 238 657T275 672Q295 672 310 658T326 621Q326 598 311 584T275 569Z"  />
<glyph unicode="&#xFD;" horiz-adv-x="324" d="M212 21Q200 -28 192 -57T176 -103T159 -130T136 -148Q116 -162 97 -165T64 -169Q50 -169 39 -167T15 -162V-59Q22 -61 31 -63T52 -65Q66 -65 77 -60T95 -43T105 -10T109 44L-3 493H125L162 315Q165 300 167 281T171 242T174 203T176 167Q177 186 179 211T185 262T191 312T198 354L225 493H329L212 21ZM165 540L125 583L262 714L319 648L165 540Z"  />
<glyph unicode="&#xFE;" horiz-adv-x="392" d="M38 667H163V446Q167 453 173 462T188 479T210 493T241 499Q275 499 299 480T334 441Q356 401 363 353T371 256Q371 239 370 214T365 161T352 103T331 48Q328 42 321 33T303 15T277 0T240 -6Q207 -6 190 8T163 34V-167H38V667ZM163 167Q163 149 163 134T167 108T177 90T197 84Q211 84 219 94T231 129Q235 149 236 181T238 248Q238 262 238 280Q238 299 237 317T234 351T229 377Q226 388 219 397T197 406Q184 406 177 399T167 383T164 363T163 345V167Z"  />
<glyph unicode="&#xFF;" horiz-adv-x="324" d="M212 21Q200 -28 192 -57T176 -103T159 -130T136 -148Q116 -162 97 -165T64 -169Q50 -169 39 -167T15 -162V-59Q22 -61 31 -63T52 -65Q66 -65 77 -60T95 -43T105 -10T109 44L-3 493H125L162 315Q165 300 167 281T171 242T174 203T176 167Q177 186 179 211T185 262T191 312T198 354L225 493H329L212 21ZM110 569Q90 569 74 583T58 621Q58 643 73 657T110 672Q131 672 146 657T161 621Q161 598 146 584T110 569ZM246 569Q226 569 210 583T194 621Q194 642 209 657T246 672Q266 672 281 658T297 621Q297 598 282 584T246 569Z"  />
<glyph unicode="&#x131;" horiz-adv-x="204" d="M38 493H166V0H38V493Z"  />
<glyph unicode="&#x152;" horiz-adv-x="681" d="M461 396H622V285H461V117H670V0H400Q357 0 320 -5T235 -10Q189 -10 145 13T71 95Q56 127 48 165T35 238T31 299T30 333Q30 378 34 422T49 512Q62 569 87 602T140 651T198 672T248 677Q290 677 330 672T422 667H670V550H461V396ZM324 552Q310 559 297 564T260 569Q242 569 226 562T198 528Q190 510 186 484T179 428T176 371T175 323Q175 314 175 293T177 247T182 195T192 150Q199 128 212 113T257 98Q283 98 298 105T324 118V552Z"  />
<glyph unicode="&#x153;" horiz-adv-x="596" d="M370 225Q370 180 374 153T385 112T402 93T424 89Q447 89 458 105T476 170L582 161Q577 83 535 37T423 -10Q398 -10 379 -4T345 10T320 27T304 43Q286 22 262 6T192 -10Q135 -10 101 18T49 86T26 171T20 249Q20 274 24 316T46 400T99 472T197 503Q222 503 240 497T273 481T297 460T315 438Q335 470 361 486T426 503Q436 503 453 500T490 487T529 458T564 404Q572 384 576 361T583 313T586 266T587 225H370ZM198 413Q165 413 159 377T153 264Q153 208 154 179T157 133Q159 104 170 92T198 80Q204 80 215 83T232 103Q236 114 238 133T241 173T242 215Q242 236 242 250Q242 299 239 358Q237 377 233 388T224 405T211 411T198 413ZM467 306Q467 358 457 385T421 413Q405 413 396 404T380 379T372 345T369 306H467Z"  />
<glyph unicode="&#x160;" horiz-adv-x="409" d="M286 479Q280 503 272 518T253 542T232 554T210 557Q189 557 178 549T161 529T154 507T152 492Q152 474 157 462T175 439T211 417T271 388Q286 380 308 368T350 335T384 281T398 201Q398 154 385 116T346 49T282 6T196 -10Q139 -10 103 9T46 55T14 114T0 170L109 208Q121 154 140 132T196 110Q219 110 232 118T253 139T262 162T264 180Q264 197 259 209T246 230T228 245T208 256Q176 272 153 284T111 308T79 333T54 363Q40 384 32 413T24 474Q24 512 36 548T71 613T128 659T206 677Q257 677 290 659T344 615T374 564T388 524L286 479ZM290 855H383L212 702L39 855H132L212 804L290 855Z"  />
<glyph unicode="&#x161;" horiz-adv-x="358" d="M113 152Q114 143 117 132T126 111T145 95T178 88Q198 88 212 97T227 126Q227 138 223 147T210 163T184 179T143 199Q115 212 93 226T56 257T33 296T25 348Q25 381 36 409T68 458T118 491T184 503Q224 503 250 490T292 456T315 414T327 375L236 352Q235 358 233 367T225 386T209 401T181 408Q155 408 148 396T140 373Q140 361 145 353T163 336T196 317T247 294Q282 278 302 258T332 218T344 180T347 149Q347 107 333 77T296 27T242 -1T180 -10Q126 -10 94 8T45 50T22 98T14 136L113 152ZM243 692H330L183 548L34 692H120L183 644L243 692Z"  />
<glyph unicode="&#x178;" horiz-adv-x="409" d="M127 274L-6 667H138L196 455Q204 426 206 398T208 349Q210 375 213 402T225 455L289 667H412L264 274V0H127V274ZM136 720Q115 720 98 735T81 775Q81 799 97 815T136 831Q159 831 175 815T192 776Q192 751 176 736T136 720ZM280 720Q258 720 241 735T224 775Q224 799 240 815T280 831Q303 831 319 815T335 776Q335 751 319 736T280 720Z"  />
<glyph unicode="&#x17D;" horiz-adv-x="409" d="M396 117V0H13V107L240 556H31V667H390V562L163 117H396ZM294 855H387L216 702L43 855H136L216 804L294 855Z"  />
<glyph unicode="&#x17E;" horiz-adv-x="324" d="M302 493V411L155 100H308V0H25V97L169 400H40V493H302ZM238 692H325L178 548L29 692H115L178 644L238 692Z"  />
<glyph unicode="&#x192;" horiz-adv-x="426" d="M28 -32Q37 -33 43 -33T55 -34Q69 -34 78 -30T93 -16T103 12T110 59L149 378H94L107 484H163Q168 529 176 565T205 631Q220 654 248 669T311 684Q323 684 343 683T374 674L361 569Q353 571 345 572T327 573Q304 573 296 556T284 484H346L333 378H270L231 51Q226 15 219 -20T196 -83T150 -128T74 -145Q64 -145 48 -144T11 -139L28 -32Z"  />
<glyph unicode="&#x2C6;" horiz-adv-x="460" d="M168 555H82L231 698L378 555H291L231 602L168 555Z"  />
<glyph unicode="&#x2C7;" horiz-adv-x="460" d="M291 692H378L231 548L82 692H168L231 644L291 692Z"  />
<glyph unicode="&#x2DA;" horiz-adv-x="460" d="M230 535Q212 535 195 542T164 561T142 592T134 631Q134 671 162 698T230 726Q270 726 298 699T326 631Q326 610 318 592T297 562T266 542T230 535ZM230 594Q242 594 254 603T267 630Q267 646 256 656T230 667Q215 667 204 656T193 631Q193 614 205 604T230 594Z"  />
<glyph unicode="&#x2DC;" horiz-adv-x="460" d="M362 640Q358 632 351 619T334 594T309 573T277 564Q262 564 246 571T225 582Q208 592 199 597T185 604T178 607T171 608Q160 608 152 600T134 578L101 608Q106 616 113 627T131 650T154 669T182 677Q188 677 192 676T204 672T222 663T253 647Q261 642 270 638T290 633Q298 633 306 640T327 670L362 640Z"  />
<glyph unicode="&#x2013;" horiz-adv-x="392" d="M356 305V199H35V305H356Z"  />
<glyph unicode="&#x2014;" horiz-adv-x="562" d="M527 305V199H35V305H527Z"  />
<glyph unicode="&#x2018;" horiz-adv-x="221" d="M51 389V535L113 667H171L124 535H171V389H51Z"  />
<glyph unicode="&#x2019;" horiz-adv-x="221" d="M171 667V521L109 389H51L98 521H51V667H171Z"  />
<glyph unicode="&#x201A;" horiz-adv-x="221" d="M171 146V0L109 -132H51L98 0H51V146H171Z"  />
<glyph unicode="&#x201C;" horiz-adv-x="375" d="M42 389V535L104 667H162L115 535H162V389H42ZM213 389V535L275 667H333L286 535H333V389H213Z"  />
<glyph unicode="&#x201D;" horiz-adv-x="375" d="M162 667V521L100 389H42L89 521H42V667H162ZM333 667V521L271 389H213L260 521H213V667H333Z"  />
<glyph unicode="&#x201E;" horiz-adv-x="375" d="M162 146V0L100 -132H42L89 0H42V146H162ZM333 146V0L271 -132H213L260 0H213V146H333Z"  />
<glyph unicode="&#x2020;" horiz-adv-x="426" d="M275 667V488H393V379H275V-167H151V379H33V488H151V667H275Z"  />
<glyph unicode="&#x2021;" horiz-adv-x="426" d="M275 667V488H393V379H275V121H393V12H275V-167H151V12H33V121H151V379H33V488H151V667H275Z"  />
<glyph unicode="&#x2022;" horiz-adv-x="134" d="M134 420V267H0V420H134Z"  />
<glyph unicode="&#x2026;" horiz-adv-x="665" d="M174 146V0H47V146H174ZM396 146V0H269V146H396ZM618 146V0H491V146H618Z"  />
<glyph unicode="&#x2030;" horiz-adv-x="767" d="M369 667H430L161 0H100L369 667ZM132 674Q158 674 176 663T206 633T224 594T234 553T237 519T238 499Q238 483 236 455T222 399T190 351T131 330Q110 330 91 339T56 368T32 420T23 497Q23 515 26 545T40 603T72 653T132 674ZM134 600Q128 600 121 597T110 573Q108 561 108 547T107 501Q107 470 107 456T110 428Q112 419 116 410T131 401Q143 401 146 410Q149 416 150 428T152 453T153 480Q153 493 153 501Q153 506 153 515Q153 524 153 535T151 558T149 580Q148 584 146 592T134 600ZM399 337Q426 337 444 326T473 296T491 257T501 216T504 182T505 163Q505 148 503 120T490 63T458 14T398 -7Q377 -7 358 2T323 30T299 82T290 160Q290 175 292 204T306 263T338 315T399 337ZM401 263Q395 263 388 260T377 236Q375 223 375 208T374 164Q374 134 374 119T377 91Q379 81 383 73T398 64Q410 64 413 73Q416 79 417 91T419 116T420 143Q420 156 420 164Q420 200 419 217T416 243Q415 250 412 256T401 263ZM638 337Q677 337 698 313T730 258T742 199T744 162Q744 147 742 119T729 63T697 14T637 -7Q616 -7 597 2T562 31T538 82T529 160Q529 176 531 205T545 264T578 315T638 337ZM640 263Q634 263 627 260T616 236Q614 222 614 208T613 164Q613 135 613 120T616 91Q618 82 622 73T637 64Q649 64 652 73Q655 79 656 91T658 116T659 143Q659 156 659 164Q659 170 659 179Q659 188 659 199T658 221T656 243Q654 249 651 256T640 263Z"  />
<glyph unicode="&#x2039;" horiz-adv-x="222" d="M136 259L186 90H124L36 259L124 431H186L136 259Z"  />
<glyph unicode="&#x203A;" horiz-adv-x="222" d="M97 431L186 259L97 90H36L85 259L36 431H97Z"  />
<glyph unicode="&#x20AC;" horiz-adv-x="426" d="M416 199Q412 158 401 121T369 54T316 8T236 -10Q180 -10 144 12T87 70T56 152T43 245H-11L-1 307H40V365H-11L-1 427H43Q47 473 57 518T89 598T147 655T239 677Q285 677 316 662T368 619T399 557T415 481L293 468Q292 480 291 498T284 532T268 560T240 572Q218 572 208 562T193 531Q186 506 186 479T184 427H287L277 365H184V307H269L259 245H184Q184 219 184 189T191 133Q196 113 206 104T238 95Q253 95 262 101T277 116T285 138T290 162Q292 175 293 187T295 212L416 199H416Z"  />
<glyph unicode="&#x2122;" horiz-adv-x="630" d="M168 287H79V591H15V667H234V591H168V287ZM261 667H379L410 507Q413 490 415 472T419 444Q421 457 424 479T431 515L466 667H581V287H496V503Q496 507 496 515T497 533T498 549T499 558Q499 555 498 548T495 532T492 516T490 506L442 287H385L339 509Q336 525 335 532T330 558Q330 555 330 549T331 535T332 521T333 512V287H261V667Z"  />
<glyph unicode="&#xE300;" horiz-adv-x="460" d="M147 862L326 765L297 708L106 778L147 862Z"  />
<glyph unicode="&#xE301;" horiz-adv-x="460" d="M163 708L134 765L314 862L354 778L163 708Z"  />
<glyph unicode="&#xE302;" horiz-adv-x="460" d="M152 709H59L232 862L403 709H310L232 760L152 709Z"  />
<glyph unicode="&#xE303;" horiz-adv-x="460" d="M302 855H395L224 702L51 855H144L224 804L302 855Z"  />
<glyph unicode="&#xE304;" horiz-adv-x="460" d="M377 803Q373 794 366 780T347 752T320 728T285 718Q276 718 267 720T250 726T237 733T229 739Q211 750 201 756T186 764T177 767T170 768Q157 768 148 758T130 734L95 766Q106 790 118 805T143 830T165 842T181 846Q187 846 192 845T206 841T226 831T259 812Q267 807 277 803T299 798Q308 798 316 805T338 837L377 803Z"  />
<glyph unicode="&#xE305;" horiz-adv-x="460" d="M156 720Q135 720 118 735T101 775Q101 799 117 815T156 831Q179 831 195 815T212 776Q212 751 196 736T156 720ZM300 720Q278 720 261 735T244 775Q244 799 260 815T300 831Q323 831 339 815T355 776Q355 751 339 736T300 720Z"  />
<glyph unicode="&#xE308;" horiz-adv-x="460" d="M230 690Q211 690 194 697T164 716T142 746T134 785Q134 826 162 853T230 881Q271 881 298 854T326 786Q326 765 318 747T297 717T266 697T230 690ZM230 750Q242 750 254 759T266 785Q266 800 255 810T230 821Q215 821 205 811T194 785Q194 769 205 760T230 750Z"  />

</font>
</defs>
</svg>
