<?xml  version="1.0" encoding="UTF-8"?>
<!DOCTYPE svg PUBLIC "-//W3C//DTD SVG 1.0//EN" "http://www.w3.org/TR/2001/REC-SVG-20010904/DTD/svg10.dtd" >
<svg xmlns="http://www.w3.org/2000/svg" >
<metadata>
<version>1.0</version>
<id><![CDATA[ITC Franklin Gothic W01 Bk It]]></id>
<vendor>Monotype Imaging Inc.</vendor>
<credits>
<name>Fonts.com WebFonts</name>
<URL>http://webfonts.fonts.com</URL>
<role>Home of the Web fonts</role>
</credits>
<license>
<URL>http://webfonts.fonts.com/Legal</URL>
</license>
<copyright><![CDATA[Font software Copyright 1989, 2001 Adobe Systems Incorporated. Typeface designs Copyright 2006 International Typeface Corporation. All rights reserved.]]></copyright>
<trademark><![CDATA[ITC Franklin Gothic is a registered trademark of International Typeface Corporation.]]></trademark>
<licensee>
<name></name>
</licensee>
</metadata>
<defs >
<font horiz-adv-x="514" id="c806ee51-6432-4bcb-8cba-574e9cfb5709">
<font-face font-family="" panose-1="2 11 5 3 5 0 0 9 0 4" ascent="886" descent="-250" units-per-em="1000" alphabetic="0">
</font-face>
<missing-glyph horiz-adv-x="290" />

<glyph unicode="&#xA;" />
<glyph unicode="&#xD;" horiz-adv-x="0" />
<glyph unicode=" " horiz-adv-x="290" />
<glyph unicode="!" horiz-adv-x="267" d="M42 0L58 95H159L143 0H42ZM103 171L147 667H257L145 171H103Z"  />
<glyph unicode="&quot;" horiz-adv-x="373" d="M295 412H250L278 667H353L295 412ZM164 412H119L147 667H221L164 412Z"  />
<glyph unicode="#" horiz-adv-x="586" d="M396 411H256L225 272H366L396 411ZM563 411H461L430 272H533L519 212H417L370 0H306L353 212H212L165 0H101L148 212H42L55 272H162L192 411H86L99 471H206L249 667H312L269 471H410L453 667H516L473 471H576L563 411Z"  />
<glyph unicode="$" horiz-adv-x="586" d="M284 70Q327 69 357 80T406 109T433 149T442 191Q442 220 430 239T400 270T361 289T322 301L284 70ZM314 602Q251 600 213 571T175 491Q175 462 187 444T215 414T249 398T278 390L314 602ZM480 503Q468 530 453 547T423 574T395 588T372 596L335 376Q359 370 390 360T450 331T499 280T519 201Q519 183 512 151T479 86T404 29T273 4L257 -93H197L215 12Q192 17 168 26T121 51T75 94T35 162L101 196Q106 185 114 169T137 135T173 102T226 78L265 314Q246 319 218 328T164 356T120 403T101 476Q101 494 108 524T139 585T207 637T324 662L338 749H398L382 657Q424 650 453 634T502 600T531 564T547 536L480 503Z"  />
<glyph unicode="%" horiz-adv-x="773" d="M108 0L628 667H691L171 0H108ZM663 199Q663 231 653 249T628 276T601 287T582 290Q554 290 535 275T503 237T485 187T479 138Q479 106 487 87T508 57T534 42T559 38Q580 38 598 47T631 76T654 126T663 199ZM725 184Q725 148 713 113T680 51T628 6T562 -11Q521 -11 493 4T448 44T424 95T416 147Q416 180 428 214T462 275T515 321T583 339Q619 339 645 325T690 289T716 239T725 184ZM323 542Q323 577 303 604T242 631Q218 631 201 621T172 595T153 560T143 524T138 494T137 476Q137 462 141 445T155 414T180 390T220 380Q247 380 266 394T298 432T317 484T323 542ZM384 526Q384 492 373 458T339 395T286 349T214 331Q184 331 159 342T115 374T86 423T76 484Q76 517 86 551T118 614T170 661T244 680Q279 680 305 666T349 630T375 580T384 526Z"  />
<glyph unicode="&amp;" horiz-adv-x="667" d="M315 414Q337 423 360 434T402 461T433 497T445 546Q445 584 419 606T356 628Q315 628 292 602T268 537Q268 525 273 509T285 475T300 442T315 414ZM269 345Q244 335 217 322T167 290T130 244T115 180Q115 154 124 129T152 85T196 55T254 43Q278 43 298 49T335 64T365 82T386 99L269 345ZM441 146Q531 239 580 363L639 340Q612 273 572 210T473 89Q481 75 495 60T536 45Q549 45 565 47T596 53L588 -9Q575 -12 559 -15T526 -18Q505 -18 490 -13T462 0T439 19T418 45Q397 31 377 19T337 -1T295 -14T245 -19Q198 -19 159 -3T92 40T48 102T32 177Q32 191 35 213T50 259T82 308T138 351Q164 365 192 376T245 396Q226 431 212 469T197 545Q197 570 207 595T237 640T287 673T356 686Q391 686 420 675T469 646T501 601T513 545Q513 505 497 477T456 427T399 391T336 363L441 146Z"  />
<glyph unicode="&apos;" horiz-adv-x="237" d="M174 412H129L157 667H231L174 412Z"  />
<glyph unicode="(" horiz-adv-x="283" d="M124 -167Q84 -105 59 -27T34 156Q34 208 44 268T80 394T150 528T264 667H320Q219 554 160 417T101 128Q101 70 109 23T128 -61T151 -124T171 -167H124Z"  />
<glyph unicode=")" horiz-adv-x="283" d="M159 667Q207 595 228 513T250 343Q250 287 239 225T200 98T129 -34T20 -167H-36Q65 -55 124 82T183 372Q183 430 175 477T156 561T133 624T113 667H159Z"  />
<glyph unicode="*" horiz-adv-x="524" d="M364 667L331 496L502 552L510 497L339 448L419 312L367 278L293 418L172 278L131 312L257 448L102 497L129 552L281 496L306 667H364Z"  />
<glyph unicode="+" horiz-adv-x="586" d="M271 368V573H344V368H541V300H344V95H271V300H74V368H271Z"  />
<glyph unicode="&#x2c;" horiz-adv-x="250" d="M-12 -149L79 0H29L47 112H157L139 0L27 -149H-12Z"  />
<glyph unicode="-" horiz-adv-x="222" d="M-4 220L5 277H227L218 220H-4Z"  />
<glyph unicode="." horiz-adv-x="250" d="M29 0L47 112H157L139 0H29Z"  />
<glyph unicode="/" horiz-adv-x="469" d="M-111 -167L451 667H515L-47 -167H-111Z"  />
<glyph unicode="0" horiz-adv-x="586" d="M480 413Q480 447 477 472T469 516T458 548T444 572Q427 595 399 610T338 625Q297 625 266 604T211 550T173 474T149 391T136 313T132 251Q132 207 139 169T164 101Q179 75 209 58T276 40Q315 40 345 59T398 110T436 182T462 263T476 344T480 413ZM565 398Q565 322 546 249T484 111Q457 69 429 43T373 3T319 -16T271 -21Q222 -21 182 -1T112 57T66 149T50 272Q50 316 58 363T82 457T123 545T180 618T253 668T341 687Q390 687 431 667T502 608T548 517T565 398Z"  />
<glyph unicode="1" horiz-adv-x="586" d="M323 0H245H51L62 65H256L343 577Q332 563 316 549T259 518Q219 503 193 500T145 495L156 561Q228 572 286 599T382 683H439L335 65H539L528 0H323Z"  />
<glyph unicode="2" horiz-adv-x="586" d="M16 0L30 82Q60 101 102 127T190 185T283 249T370 314Q384 325 402 342T436 381T463 429T474 484Q474 515 462 540T430 583T384 610T328 620Q280 620 246 599T197 555Q183 534 173 512T153 466L86 491Q92 508 106 540T147 605T219 662T328 687Q377 687 419 671T491 627T539 561T557 480Q557 435 540 398T495 330T431 270T355 216Q307 184 245 147T117 71H502L490 0H16Z"  />
<glyph unicode="3" horiz-adv-x="586" d="M91 176Q97 163 108 142T140 100T192 64T270 49Q303 49 332 59T384 87T420 132T433 190Q433 232 412 260T364 300Q350 306 336 309T303 313T261 315Q238 315 206 315L217 381Q248 380 269 380Q290 380 305 380T331 382T353 385Q390 391 412 406T446 440T461 476T465 505Q465 533 454 554T424 591T381 614T332 622Q294 622 268 610T223 581T193 546T175 515L114 549Q124 566 139 589T187 636Q229 667 267 675T334 683Q387 683 426 667T492 626T532 569T545 505Q545 463 527 432T482 381Q456 363 433 356T392 345Q410 340 435 328T484 282Q497 264 505 240T514 186Q514 148 498 112T451 47T376 1T274 -17Q251 -17 217 -12T146 11T77 62T24 150L91 176Z"  />
<glyph unicode="4" horiz-adv-x="586" d="M357 227L420 602L110 227H357ZM319 0L346 161H27L38 228L416 685H434H512L436 227H545L534 161H425L398 0H319Z"  />
<glyph unicode="5" horiz-adv-x="586" d="M101 169Q109 155 121 135T154 97T203 66T273 53Q319 53 352 70T407 113T439 170T450 232Q450 264 439 292T408 342T361 375T299 388Q273 388 248 380T199 351Q181 336 172 323T154 297L83 318L163 667H554L531 596H214L165 377Q174 387 186 400T215 424T257 443T313 451Q355 451 394 436T463 392T511 323T529 234Q529 194 514 151T468 71T389 12T273 -12Q248 -12 216 -7T150 15T87 62T36 140L101 169Z"  />
<glyph unicode="6" horiz-adv-x="586" d="M467 229Q467 255 457 281T428 327T382 361T320 374Q291 374 261 363T206 329T166 276T150 204Q150 169 162 141T195 93T243 62T301 51Q332 51 362 63T415 98T453 154T467 229ZM508 513Q488 562 454 590T367 618Q326 618 295 601T239 558T198 498T170 431T151 369T140 320Q147 332 161 352T197 392T253 426T333 441Q377 441 416 425T484 380T529 311T546 225Q546 184 531 142T486 64T411 7T305 -16Q253 -16 208 2T130 57T78 145T59 264Q59 303 66 349T90 442T130 532T189 609T266 663T365 683Q419 683 457 667T521 628Q550 602 562 577T582 533L508 513Z"  />
<glyph unicode="7" horiz-adv-x="585" d="M162 -8Q174 122 215 223T308 398T409 521T487 594H110L132 667H588L579 612Q520 555 466 494T367 360T292 197T251 -8H162Z"  />
<glyph unicode="8" horiz-adv-x="586" d="M292 314Q247 303 219 290T179 270Q170 265 159 257T139 238T122 210T115 170Q115 141 127 119T162 81T215 58T282 50Q331 50 364 62T416 93T444 134T452 174Q452 199 442 219T419 250Q409 259 399 266T374 280T340 295T292 314ZM320 385Q366 400 396 415T442 445T465 477T472 511Q472 537 461 557T431 591T385 612T330 619Q302 619 276 613T230 592T197 557T185 508Q185 490 191 474T213 442T255 413T320 385ZM401 356Q418 348 441 336T484 304T519 256T533 188Q533 150 518 114T471 50T392 5T280 -13Q238 -13 195 -3T116 29T58 84T36 166Q36 213 55 244T101 296T157 328T209 345Q198 351 181 362T147 391T118 434T106 495Q106 528 119 561T161 621T232 663T334 680Q376 680 414 670T483 639T530 590T548 521Q548 488 537 462T505 415T458 380T401 356Z"  />
<glyph unicode="9" horiz-adv-x="586" d="M465 472Q465 496 456 522T428 569T381 605T317 619Q284 619 254 607T201 572T164 518T150 451Q150 416 162 388T194 340T241 308T295 297Q322 297 351 307T406 339T448 394T465 472ZM100 145Q106 132 114 118T141 87Q162 68 188 58T246 47Q270 47 295 54T343 77T388 120T426 185Q446 232 456 276T471 349Q465 338 452 319T417 280T361 246T281 231Q236 231 198 248T132 294T88 362T72 446Q72 495 90 538T142 613T219 663T316 682Q361 682 403 667T479 618T532 533T552 405Q552 362 545 314T521 220T480 131T421 56T341 4T241 -15Q212 -15 183 -9T126 12T74 52T34 114L100 145Z"  />
<glyph unicode=":" horiz-adv-x="250" d="M91 373L110 485H220L201 373H91ZM29 0L47 112H157L139 0H29Z"  />
<glyph unicode=";" horiz-adv-x="250" d="M91 373L110 485H220L201 373H91ZM-12 -149L79 0H29L47 112H157L139 0L27 -149H-12Z"  />
<glyph unicode="&lt;" horiz-adv-x="586" d="M510 492L157 330L510 169V95L77 298V363L510 566V492Z"  />
<glyph unicode="=" horiz-adv-x="586" d="M542 296V228H76V296H542ZM542 455V387H76V455H542Z"  />
<glyph unicode="&gt;" horiz-adv-x="586" d="M77 169L430 330L77 492V566L510 363V298L77 95V169Z"  />
<glyph unicode="?" horiz-adv-x="498" d="M130 0L146 96H246L230 0H130ZM173 171Q177 209 181 237T196 286T222 322T265 351Q300 367 322 377T358 397T382 415T400 438Q411 455 415 471T420 505Q420 535 408 556T378 592T336 612T292 619Q253 619 226 604T180 568T150 524T133 486L65 514Q72 530 86 559T127 616T194 664T294 685Q338 685 376 672T441 635T485 578T501 504Q501 496 499 479T490 440T466 395T422 352Q398 336 372 325T320 302Q301 294 288 287T265 267T251 231T242 171H173Z"  />
<glyph unicode="@" horiz-adv-x="747" d="M470 347Q470 377 462 397T440 430T412 448T383 454Q360 454 341 443T308 414T286 370T278 315Q278 263 302 232T362 200Q385 200 405 213T439 247T462 294T470 347ZM521 281Q518 260 517 248T516 231Q516 219 520 213T530 204T541 201T549 200Q568 200 587 214T622 252T648 308T658 378Q658 441 634 487T570 563T483 608T389 623Q325 623 274 599T187 534T132 441T112 332Q112 282 128 231T180 139T272 71T407 45Q446 45 478 50T536 64T582 82T618 100L641 46Q627 39 605 29T554 10T488 -6T406 -13Q314 -13 247 17T137 97T72 207T51 330Q51 400 75 463T145 575T254 651T397 680Q451 680 507 663T610 611T687 519T717 385Q717 336 704 292T667 215T614 161T549 141Q525 141 504 151T473 178Q469 183 467 190T463 202Q454 191 444 180T421 159T392 145T354 139Q324 139 297 151T250 187T218 242T206 314Q206 357 219 394T256 458T311 500T380 516Q405 516 422 510T452 495T473 476T489 455L497 508H558L521 281Z"  />
<glyph unicode="A" horiz-adv-x="564" d="M377 262L325 569L175 262H377ZM144 195L48 0H-28L298 667H391L507 0H421L387 195H144Z"  />
<glyph unicode="B" horiz-adv-x="611" d="M187 379H313Q341 379 362 380T400 384T432 393T462 411Q479 424 491 450T504 506Q504 535 491 559T449 594Q444 596 439 597T423 600T395 603T351 604L224 603L187 379ZM134 66H279Q310 66 333 66T374 70T406 79T435 96Q455 111 467 142T479 205Q479 231 470 254T438 294Q427 302 416 306T390 313T357 315T311 316H176L134 66ZM154 667H235H363Q393 667 415 666T456 662T489 653T519 637Q551 616 567 583T584 509Q584 465 569 436T532 389T488 362T453 349Q489 337 510 317T542 274T556 230T559 196Q559 151 540 108T485 39Q465 25 447 18T408 6T362 1T303 0H122H42L154 667Z"  />
<glyph unicode="C" horiz-adv-x="576" d="M517 443Q514 461 508 490T486 547T440 595T360 616Q314 616 280 595T221 541T180 468T155 388T143 316T139 264Q139 210 151 171T186 106T237 68T298 56Q339 56 369 73T421 115T456 167T478 213L546 187Q511 95 450 42T296 -11Q225 -11 178 17T103 89T64 183T53 278Q53 341 71 412T128 543T224 643T360 683Q402 683 441 670T511 629T563 561T589 462L517 443Z"  />
<glyph unicode="D" horiz-adv-x="648" d="M135 66H269Q290 66 311 67T354 73T398 89T444 120Q468 141 486 171T516 237T533 309T539 379Q539 445 524 483T490 544Q463 578 423 591T328 604H224L135 66ZM153 667H236H338Q363 667 394 665T459 650T523 613T582 540Q596 516 604 491T615 442T620 401T621 373Q621 322 612 279T588 199T554 135T514 84Q488 57 461 41T406 15T348 3T288 0H124H42L153 667Z"  />
<glyph unicode="E" horiz-adv-x="559" d="M154 667H235H569L558 601H224L187 381H473L462 315H176L135 71H496L484 0H123H42L154 667Z"  />
<glyph unicode="F" horiz-adv-x="507" d="M123 0H42L154 667H235H561L549 599H224L187 379H468L457 313H176L123 0Z"  />
<glyph unicode="G" horiz-adv-x="651" d="M517 333H595L538 -8H493L483 73Q475 62 463 47T431 17T380 -7T307 -17Q249 -17 202 5T122 68T72 163T54 283Q54 327 62 373T88 464T130 549T190 618T268 665T365 683Q433 683 477 660T550 606T591 543T611 494L539 469Q518 538 476 578T365 618Q305 618 262 585T192 501T152 390T139 275Q139 211 155 168T196 98T253 60T314 48Q345 48 370 57T414 81T447 114T471 150Q487 179 494 211T505 268H331L342 333H517Z"  />
<glyph unicode="H" horiz-adv-x="656" d="M531 0H450L503 315H176L123 0H42L154 667H235L188 386H514L561 667H643L531 0Z"  />
<glyph unicode="I" horiz-adv-x="248" d="M123 0H42L153 667H235L123 0Z"  />
<glyph unicode="J" horiz-adv-x="369" d="M293 255Q287 217 280 182T260 117T228 62T177 19Q145 2 115 -4T58 -10Q54 -10 26 -9T-41 0L-30 69Q-15 65 0 63T45 61Q80 61 113 73T163 105Q180 128 188 157T205 235L277 667H362L293 255Z"  />
<glyph unicode="K" horiz-adv-x="623" d="M405 434L563 0H478L343 376L154 182L123 0H42L154 667H235L171 287L537 667H630L405 434Z"  />
<glyph unicode="L" horiz-adv-x="509" d="M123 0H42L153 667H235L135 71H466L454 0H123Z"  />
<glyph unicode="M" horiz-adv-x="815" d="M609 0L712 612L392 0H330L211 602L110 0H42L154 667H222H277L386 120L671 667H721H802L691 0H609Z"  />
<glyph unicode="N" horiz-adv-x="655" d="M465 0L203 570L108 0H42L154 667H218H245L487 135L576 667H641L530 0H465Z"  />
<glyph unicode="O" horiz-adv-x="642" d="M532 409Q532 466 517 505T476 568T421 602T362 613Q317 613 283 595T225 546T184 479T158 403T144 330T140 269Q140 209 155 168T193 102T247 65T307 54Q354 54 389 74T449 126T490 197T515 276T528 351T532 409ZM617 392Q617 328 600 257T545 125T449 26T307 -13Q245 -13 198 10T119 74T71 169T54 286Q54 327 62 372T86 460T128 544T188 614T267 662T365 680Q420 680 466 661T546 604T598 513T617 392Z"  />
<glyph unicode="P" horiz-adv-x="557" d="M179 336H271Q319 336 355 338T417 353Q434 362 447 376T470 407T483 443T488 481Q488 518 473 547T433 588Q410 598 381 600T334 601H224L179 336ZM123 0H42L153 667H235H336Q385 667 431 661T512 624Q541 598 557 559T573 482Q573 463 569 441T555 397T532 355T500 321Q483 307 465 298T423 282T371 272T302 269H168L123 0Z"  />
<glyph unicode="Q" horiz-adv-x="639" d="M527 416Q527 443 520 477T495 542T444 592T363 613Q312 613 276 590T215 532T176 454T154 372T144 301T142 257Q142 206 155 168T190 104T242 65T306 52Q362 52 403 81T472 159T513 275T527 416ZM495 -151Q468 -156 447 -158T403 -161Q346 -161 313 -134T279 -50Q279 -42 279 -34T282 -13Q275 -13 259 -10T223 0T180 20T139 50Q111 75 94 106T68 168T56 228T53 278Q53 345 72 416T130 546T227 642T364 680Q418 680 464 661T544 604T597 513T616 390Q616 317 595 243T531 109Q505 73 480 51T432 17T386 -1T345 -11Q343 -17 343 -24T342 -37Q342 -60 350 -72T371 -89T397 -96T419 -97Q427 -97 451 -95T505 -90L495 -151Z"  />
<glyph unicode="R" horiz-adv-x="633" d="M183 359H336Q355 359 386 361T447 375T498 415T520 493Q520 534 502 556T460 588T413 600T377 602H224L183 359ZM172 292L123 0H42L154 667H234H362Q423 667 465 659T541 624Q565 604 584 571T603 490Q603 465 596 437T570 382T522 336T448 307L542 0H456L369 292H172Z"  />
<glyph unicode="S" horiz-adv-x="572" d="M474 501Q461 536 441 559T398 597T350 616T299 622Q259 622 232 611T189 582T166 544T159 505Q159 482 167 465T190 436T221 416T256 404Q312 390 348 381T407 363T446 345T477 321Q495 304 505 286T521 251T527 220T529 195Q529 147 511 108T460 42T379 1T275 -14Q215 -14 168 1T89 42Q69 57 55 74T31 108T15 142T4 171L77 198Q83 180 94 155T128 108T185 69T276 53Q330 53 363 68T415 105T440 148T447 186Q447 217 435 237T404 270T366 288T330 298Q282 310 237 323T156 357T99 412T77 497Q77 534 91 568T133 628T202 669T297 685Q366 685 411 665T484 619T525 567T544 528L474 501Z"  />
<glyph unicode="T" horiz-adv-x="488" d="M344 599L243 0H162L262 599H69L80 667H273H356H548L537 599H344Z"  />
<glyph unicode="U" horiz-adv-x="615" d="M543 260Q535 213 527 179T509 120T485 77T455 43Q436 26 414 15T370 -3T326 -12T286 -15Q276 -15 259 -14T220 -9T176 4T132 28Q107 46 94 67T74 108T67 145T66 173Q66 182 66 190T68 210T73 243T82 297L143 667H225L160 280Q155 256 153 241T149 214T147 195T146 177Q146 142 159 118T192 80T238 59T288 52Q345 52 379 71T433 121T461 186T475 253L544 667H611L543 260Z"  />
<glyph unicode="V" horiz-adv-x="529" d="M198 0L66 667H154L259 128L518 667H595L270 0H198Z"  />
<glyph unicode="W" horiz-adv-x="812" d="M511 0L447 532L233 0H147L81 667H163L216 116L441 667H504L572 116L795 667H863L593 0H511Z"  />
<glyph unicode="X" horiz-adv-x="538" d="M400 0L268 281L46 0H-39L235 342L79 667H170L291 409L495 667H581L325 349L494 0H400Z"  />
<glyph unicode="Y" horiz-adv-x="512" d="M176 0L222 279L52 667H142L280 351L510 667H592L306 279L260 0H176Z"  />
<glyph unicode="Z" horiz-adv-x="525" d="M538 612L96 71H472L461 0H-18L-6 71L427 600H93L104 667H547L538 612Z"  />
<glyph unicode="[" horiz-adv-x="283" d="M64 -167H-3L137 667H207H318L311 622H199L74 -122H186L179 -167H64Z"  />
<glyph unicode="\" horiz-adv-x="469" d="M98 667H153L436 -167H381L98 667Z"  />
<glyph unicode="]" horiz-adv-x="283" d="M217 667H286L147 -167H79H-35L-27 -122H85L209 622H97L105 667H217Z"  />
<glyph unicode="^" horiz-adv-x="586" d="M523 317H446L300 616L154 317H78L266 686H343L523 317Z"  />
<glyph unicode="_" horiz-adv-x="500" d="M500 -75V-125H0V-75H500Z"  />
<glyph unicode="`" horiz-adv-x="500" d="M218 721L398 609L377 570L188 662L218 721Z"  />
<glyph unicode="a" horiz-adv-x="535" d="M381 249Q367 251 353 251T315 252Q294 252 258 250T187 237T126 201T100 131Q100 97 121 73T188 49Q214 49 244 60T301 96T349 158T381 249ZM351 0Q350 19 350 32T352 57T355 77T359 96Q351 85 337 67T300 30T246 -1T174 -14Q137 -14 108 -3T59 29T27 77T16 134Q16 182 38 214T90 264Q107 274 126 282T171 296T232 305T317 308Q321 308 331 308T352 307T374 306T391 305Q393 319 394 331T396 357Q396 363 395 372T391 392T382 412T363 430T338 442T314 448T295 450T282 451Q246 451 222 442T181 419T155 391T139 367L67 398Q95 452 148 481T276 510Q313 510 349 502T412 477T457 433T474 369Q474 362 472 344T466 300T458 245T449 190T442 143T437 113Q432 86 430 68T427 37T426 17T428 0H351Z"  />
<glyph unicode="b" horiz-adv-x="538" d="M423 311Q423 378 394 412T320 446Q279 446 247 421T193 357T158 274T146 189Q146 149 157 122T187 78T226 54T266 46Q306 46 335 70T384 133T413 219T423 311ZM36 0L147 667H224L182 416Q219 469 258 488T335 507Q374 507 405 492T458 449T491 382T503 295Q503 246 489 192T445 93T371 17T267 -13Q230 -13 204 -2T160 25T131 58T113 88L69 0H36Z"  />
<glyph unicode="c" horiz-adv-x="474" d="M384 321Q377 372 349 408T270 444Q236 444 211 429T169 389T142 336T127 278T119 228T117 194Q117 151 128 124T155 80T192 58T230 51Q262 51 285 65T325 98T351 137T367 170L429 146Q411 93 384 61T327 12T269 -10T222 -16Q184 -16 150 -2T91 39T50 109T35 207Q35 264 51 318T98 415T173 484T273 511Q307 511 338 500T395 467T437 413T459 337L384 321Z"  />
<glyph unicode="d" horiz-adv-x="538" d="M393 311Q393 347 382 372T354 414T315 438T275 446Q228 446 197 416T148 344T123 258T115 184Q115 145 124 119T148 77T181 54T219 47Q258 47 290 69T345 129T380 213T393 311ZM350 0L369 97Q358 81 344 62T310 26T263 -2T198 -13Q152 -13 121 6T70 56T43 123T35 195Q35 239 48 293T91 394T164 474T271 506Q309 506 334 495T376 468T401 437T414 413L457 667H531L420 0H350Z"  />
<glyph unicode="e" horiz-adv-x="520" d="M407 297Q411 351 397 381T361 428T319 448T285 452Q253 452 226 440T179 406T145 357T125 297H407ZM116 241Q114 230 114 222T113 202Q113 170 121 142T146 94T188 62T245 50Q276 50 298 58T338 80T368 111T394 146L458 116Q449 101 434 79T393 37T331 1T244 -14Q206 -14 168 -2T100 38T52 108T33 212Q33 275 52 329T105 424T185 488T288 511Q321 511 355 501T419 467T466 402T485 298Q485 280 484 267T481 241H116Z"  />
<glyph unicode="f" horiz-adv-x="300" d="M319 435H199L127 0H51L123 435H31L41 495H133Q139 534 151 568T187 627T245 667T335 682Q349 682 359 682T381 679L371 619Q358 620 351 620T335 621Q309 621 288 615T251 595T224 556T209 495H329L319 435Z"  />
<glyph unicode="g" horiz-adv-x="503" d="M114 15Q93 9 81 0T61 -19T52 -38T50 -54Q50 -78 64 -91T93 -110Q111 -118 131 -122T171 -129T207 -132T235 -133Q245 -133 269 -132T319 -124T363 -100T382 -53Q382 -32 372 -20T343 -3T300 3T247 5Q222 5 204 6T172 8T144 10T114 15ZM379 339Q379 364 370 383T346 416T311 435T269 442Q217 442 185 409T152 324Q152 304 158 285T177 251T210 227T258 218Q281 218 303 225T342 247T369 285T379 339ZM516 526Q502 528 493 528Q485 528 476 528Q469 528 458 527T434 520T410 502T391 465Q398 459 409 450T430 425T448 390T456 343Q456 311 444 279T408 221T347 179T261 163Q226 163 204 170T165 183Q157 180 147 175T126 161T109 142T102 118Q102 98 120 92T181 84Q226 83 260 82T320 79T364 73T397 61Q423 46 439 20T455 -37Q455 -75 441 -101T405 -145T355 -171T302 -184T253 -189T219 -190Q170 -190 126 -185T49 -166T-5 -129T-25 -71Q-25 -40 -4 -11T67 36Q55 43 42 56T28 100Q28 142 57 167T130 209Q124 213 115 221T97 244T82 277T75 324Q75 358 88 389T126 445T189 484T275 499Q298 499 313 496T352 486Q358 503 366 522T389 558T427 584T486 595Q499 595 508 594T527 590L516 526Z"  />
<glyph unicode="h" horiz-adv-x="545" d="M179 403Q188 417 201 435T235 469T282 497T344 509Q370 509 395 501T440 477T472 434T485 373Q485 355 482 334T477 304L427 0H352L402 304Q404 313 406 330T408 365Q408 387 401 403T382 429T356 444T326 449Q308 449 283 440T231 403T182 328T146 203L112 0H36L147 667H223L179 403Z"  />
<glyph unicode="i" horiz-adv-x="230" d="M122 576L137 667H236L221 576H122ZM36 0L118 495H195L112 0H36Z"  />
<glyph unicode="j" horiz-adv-x="229" d="M121 576L136 667H236L221 576H121ZM116 31Q107 -25 99 -58T70 -117Q65 -124 55 -133T30 -151T-5 -166T-53 -172Q-73 -172 -91 -170T-121 -166L-111 -108Q-100 -109 -86 -110T-59 -111Q-25 -111 -9 -99T16 -72Q19 -66 21 -60T26 -44T32 -16T40 31L118 495H194L116 31Z"  />
<glyph unicode="k" horiz-adv-x="490" d="M35 0L147 667H223L152 246L416 495H505L316 319L439 0H358L254 267L137 151L111 0H35Z"  />
<glyph unicode="l" horiz-adv-x="229" d="M111 0H35L147 667H223L111 0Z"  />
<glyph unicode="m" horiz-adv-x="817" d="M622 0L670 285Q672 294 675 316T678 357Q678 387 668 404T645 430T617 441T596 444Q545 444 500 385Q485 365 475 342T457 296T447 253T441 221L404 0H327L374 283Q374 286 376 295T379 317T382 340T384 360Q384 385 377 401T357 428T331 442T305 446Q279 446 258 433T222 402T197 367T183 340Q177 326 173 313T164 283T156 241T145 178L113 0H35L118 495H190L177 413Q189 429 203 445T236 475T276 497T326 506Q378 506 410 478T456 399Q487 448 526 477T617 507Q645 507 670 498T715 472T745 429T756 372Q756 362 755 351T753 330T751 313T749 304L698 0H622Z"  />
<glyph unicode="n" horiz-adv-x="548" d="M357 0L405 284Q409 307 411 326T413 355Q413 367 409 383T395 414T367 438T320 448Q280 448 249 425T198 371Q184 350 174 323T157 269T145 218T137 177L106 0H35L118 495H184L166 384Q172 396 185 417T219 458T270 493T340 508Q374 508 401 497T447 466T476 420T486 365Q486 347 484 326T478 286L430 0H357Z"  />
<glyph unicode="o" horiz-adv-x="521" d="M403 302Q403 337 397 360T379 399Q364 419 339 432T282 446Q232 446 201 417T151 348T126 266T119 196Q119 188 121 164T134 113T170 67T240 46Q289 46 320 74T370 142T396 226T403 302ZM484 276Q484 227 468 176T421 82T343 12T236 -15Q184 -15 147 4T85 55T49 128T37 213Q37 263 53 315T101 409T179 479T287 506Q329 506 365 492T427 449T469 377T484 276Z"  />
<glyph unicode="p" horiz-adv-x="536" d="M417 306Q417 354 403 381T371 421T336 438T311 441Q280 441 250 420T197 364T159 282T144 186Q144 146 155 120T184 78T221 56T259 49Q298 49 325 67T369 114T396 174T410 235T416 284T417 306ZM117 495H188L172 392Q179 402 192 421T226 458T275 490T338 504Q369 504 398 491T449 452T486 387T500 295Q500 241 485 187T440 88T367 15T270 -13Q236 -13 211 -4T169 19T141 48T123 73L83 -167H7L117 495Z"  />
<glyph unicode="q" horiz-adv-x="533" d="M388 310Q388 340 380 365T356 407T319 435T272 445Q227 445 197 416T149 346T123 260T115 182Q115 148 123 123T146 81T179 56T218 47Q256 47 287 73T340 140T375 225T388 310ZM386 -167H310L354 93Q325 44 288 15T198 -15Q174 -15 146 -6T92 27T51 90T34 190Q34 253 52 310T103 410T178 478T269 504Q305 504 330 494T372 469T401 438T419 411L463 495H497L386 -167Z"  />
<glyph unicode="r" horiz-adv-x="339" d="M35 0L118 495H194L170 366Q194 410 216 438T262 482T312 504T372 509L359 430Q341 431 323 430T285 422T246 398T206 352Q191 330 180 307T161 255T145 192T130 111L111 0H35Z"  />
<glyph unicode="s" horiz-adv-x="461" d="M355 361Q350 374 340 392T300 426Q293 430 275 437T226 444Q176 444 152 420T127 367Q127 348 135 336T156 316T188 303T229 292L260 285Q279 280 305 273T353 250T392 210T408 145Q408 117 397 89T362 39T302 2T214 -13Q153 -13 113 3T49 42T13 86T-4 122L67 145Q70 135 78 119T102 87T146 60T216 48Q249 48 271 56T306 77T325 104T331 133Q331 153 323 166T301 187T269 201T233 210L208 217Q186 222 159 230T107 253T66 292T49 355Q49 378 58 404T89 453T144 489T228 504Q237 504 262 502T316 490T373 455T419 388L355 361Z"  />
<glyph unicode="t" horiz-adv-x="307" d="M143 167Q142 164 141 157T139 140T136 121T135 106Q135 86 142 75T160 59T181 53T198 51Q213 51 226 52T265 56L257 -5Q238 -7 217 -9T185 -11Q171 -11 149 -9T107 5Q89 14 80 27T66 53T61 78T60 98Q60 119 62 139T73 201L112 435H37L47 495H123L143 615L219 621L197 495H310L300 435H187L143 167Z"  />
<glyph unicode="u" horiz-adv-x="543" d="M424 0H357L377 120Q369 104 355 81T320 37T269 2T197 -13Q180 -13 151 -7T94 30Q74 52 68 75T61 128Q61 143 62 160T72 219L119 495H195L145 194Q144 189 143 180T140 162T137 145T136 132Q136 92 159 71T217 50Q246 50 278 67T343 134Q375 182 386 226T404 305L436 495H507L424 0Z"  />
<glyph unicode="v" horiz-adv-x="444" d="M148 0L47 495H129L204 107L398 495H467L218 0H148Z"  />
<glyph unicode="w" horiz-adv-x="674" d="M411 0L349 377L192 0H130L54 495H129L184 123L340 495H403L462 123L625 495H690L468 0H411Z"  />
<glyph unicode="x" horiz-adv-x="436" d="M310 0L207 204L47 0H-31L174 257L50 495H137L227 318L365 495H439L258 265L396 0H310Z"  />
<glyph unicode="y" horiz-adv-x="425" d="M188 -27Q175 -52 160 -78T123 -125T72 -160T1 -174Q-14 -174 -25 -173T-48 -171L-37 -104Q-27 -106 -17 -107T6 -109Q23 -109 39 -105T71 -91T100 -64T127 -21L144 14L40 495H118L198 119L393 495H459L188 -27Z"  />
<glyph unicode="z" horiz-adv-x="419" d="M-18 0L-9 52L317 432H64L74 495H429L421 444L91 62H368L358 0H-18Z"  />
<glyph unicode="{" horiz-adv-x="268" d="M188 358Q183 328 175 309T155 278T132 260T108 248Q132 235 143 218T154 172Q154 165 154 157T151 136L123 -26Q121 -37 120 -51T119 -68Q119 -86 127 -95T148 -109T174 -115T199 -116L191 -167Q171 -167 147 -167T101 -158T66 -131T52 -78Q52 -59 54 -45T57 -25L84 135Q87 150 87 167Q87 174 86 182T81 198T68 214T42 226L50 274Q86 284 101 305T122 361L151 537Q158 579 173 605T212 645T265 663T331 667L323 616Q295 615 276 611T245 596T227 570T216 529L188 358Z"  />
<glyph unicode="|" horiz-adv-x="500" d="M303 750V-250H228V750H303Z"  />
<glyph unicode="}" horiz-adv-x="268" d="M219 226Q184 217 169 196T147 139L118 -37Q111 -80 95 -106T56 -146T3 -164T-62 -167L-53 -116Q-25 -115 -7 -111T24 -96T42 -70T53 -29L81 142Q86 172 94 191T114 222T137 240T161 252Q136 265 126 282T115 328Q115 335 115 346T118 364L146 526Q148 536 149 551T150 568Q150 586 142 595T121 609T94 615T70 616L78 667Q98 667 122 667T168 658T203 631T217 578Q217 559 215 546T210 515L185 365Q182 350 182 333Q182 326 183 318T188 301T202 286T227 274L219 226Z"  />
<glyph unicode="~" horiz-adv-x="586" d="M545 383Q537 368 526 349T498 311T459 281T406 268Q380 268 356 277T313 294Q289 305 271 312T240 325T215 332T193 334Q177 334 152 320T107 260L63 291Q73 312 85 332T113 369T150 396T200 406Q230 406 258 396T312 372Q346 355 369 348T410 341Q428 341 442 347T467 364T486 387T502 413L545 383Z"  />
<glyph unicode="&#xA0;" horiz-adv-x="290" />
<glyph unicode="&#xA1;" horiz-adv-x="267" d="M226 500L210 405H110L126 500H226ZM166 330L121 -167H11L124 330H166Z"  />
<glyph unicode="&#xA2;" horiz-adv-x="586" d="M314 487Q281 483 258 462T222 412T202 351T196 290Q196 272 199 253T209 218T229 188T261 168L314 487ZM224 -49L251 113Q203 125 178 153T140 212T126 268T124 301Q124 342 136 385T174 463T236 520T323 543L345 674H396L374 538Q405 530 426 516T460 484T482 446T495 407L439 388Q425 428 409 452T365 484L311 162Q342 164 368 185T417 255L467 232Q459 213 447 191T415 151T368 120T301 106L275 -49H224Z"  />
<glyph unicode="&#xA3;" horiz-adv-x="586" d="M-29 0L-17 71Q11 71 34 72T79 79T118 96T155 129Q168 145 176 159T188 192T195 232T200 287V317H95L104 373H202Q202 402 203 431T210 487T227 542T259 595Q287 630 326 651T411 672Q444 672 468 663T509 641T537 614T556 587L496 546Q492 553 486 563T469 584T445 600T409 607Q396 607 379 603T344 586T312 552T291 494Q290 486 290 480T289 463T288 436T287 391Q287 388 287 382Q287 376 286 373H427L418 317H285Q283 275 278 240T261 174T227 119T171 71H310Q347 71 373 72T420 81T458 103T495 147L550 106Q524 68 501 47T451 16T391 3T311 0H-29Z"  />
<glyph unicode="&#xA4;" horiz-adv-x="586" d="M294 514Q261 514 234 502T186 468T154 420T142 362Q142 330 154 303T186 255T234 222T294 210Q325 210 352 221T400 253T433 302T445 362Q445 393 433 420T401 469T353 502T294 514ZM125 234Q109 256 95 286T80 362Q80 407 94 436T124 489L37 574L78 615L164 528Q192 548 220 561T294 574Q338 574 366 561T422 529L508 615L548 574L462 490Q480 462 493 434T507 361Q507 317 494 289T463 235L549 149L510 108L422 195Q402 181 372 166T295 150Q252 150 222 163T165 194L80 108L39 149L125 234Z"  />
<glyph unicode="&#xA5;" horiz-adv-x="586" d="M207 413L104 667H189L316 351L535 667H612L433 413H556L548 363H398L339 279L337 267H531L523 217H328L292 0H214L250 217H62L70 267H259L261 279L227 363H86L95 413H207Z"  />
<glyph unicode="&#xA6;" horiz-adv-x="500" d="M303 -175H228V175H303V-175ZM303 325H228V675H303V325Z"  />
<glyph unicode="&#xA7;" horiz-adv-x="586" d="M342 157Q351 161 365 168T394 187T419 215T430 254Q430 271 424 284T409 306T390 322T369 334Q364 337 349 342T317 353T285 364T263 373Q218 351 194 327T169 272Q169 250 179 236T205 211Q212 207 217 204T236 196T273 182T342 157ZM102 -17Q106 -25 115 -40T143 -70T189 -96T259 -108Q287 -108 311 -101T355 -81T385 -48T396 -4Q396 20 386 35T353 62T293 88T204 118Q167 130 144 145T109 177T92 214T87 252Q87 295 113 331T203 402Q196 407 186 415T167 437T151 470T144 515Q144 549 156 579T193 631T253 667T336 680Q378 680 418 670T490 634Q516 613 526 592T544 550L467 542Q450 586 416 603T341 620Q284 620 254 594T224 530Q224 509 231 495T257 469T304 445T376 417Q396 409 419 399T462 373T495 332T508 273Q508 246 498 226T473 188T440 158T404 133Q424 120 433 114T450 96Q470 69 475 49T480 10Q480 -28 465 -62T422 -121T352 -161T256 -176Q221 -176 185 -168T115 -143T56 -98T16 -31L102 -17Z"  />
<glyph unicode="&#xA8;" horiz-adv-x="500" d="M235 685Q259 685 273 670T287 636Q287 615 272 601T236 586Q216 586 201 600T186 635Q186 657 201 671T235 685ZM392 685Q416 685 430 670T444 636Q444 615 429 601T393 586Q373 586 358 600T343 635Q343 657 358 671T392 685Z"  />
<glyph unicode="&#xA9;" horiz-adv-x="767" d="M397 629Q337 629 283 606T189 543T126 449T102 333Q102 272 125 218T188 124T282 61T397 38Q458 38 512 61T606 124T670 218T693 333Q693 395 670 449T606 543T512 606T397 629ZM397 678Q468 678 531 651T641 578T715 468T742 333Q742 262 715 199T641 90T532 16T397 -11Q326 -11 263 16T154 89T80 199T53 333Q53 405 80 468T154 577T263 651T397 678ZM513 394Q511 405 508 422T495 456T467 485T419 497Q379 497 354 472T315 412T295 345T290 295Q290 232 318 203T385 173Q409 173 426 183T456 207T477 237T492 267L543 249Q540 240 531 220T504 180T456 143T383 127Q336 127 306 144T258 188T233 245T226 302Q226 340 237 382T273 460T333 519T420 543Q466 543 500 523T551 470Q559 453 563 438T569 407L513 394Z"  />
<glyph unicode="&#xAA;" horiz-adv-x="352" d="M116 448Q116 428 128 415T166 402Q182 402 199 408T232 429T260 464T279 514Q245 516 216 515T164 506T129 485T116 448ZM262 366Q260 381 261 391T263 407Q258 402 249 394T227 377T196 364T157 358Q109 358 81 385T53 449Q53 476 65 494T95 525T131 542T161 550Q187 555 218 555T286 554Q287 559 287 565T288 579Q288 595 283 605T268 621T247 629T222 632Q181 632 164 616T136 581L83 603Q95 626 112 640T149 661T186 671T218 674Q242 674 265 669T307 654T336 627T347 587Q347 580 343 554T334 498T324 440T320 402Q320 388 320 381Q320 374 321 366H262Z"  />
<glyph unicode="&#xAB;" horiz-adv-x="337" d="M230 105L165 242L264 383H312L239 242L267 105H230ZM108 105L39 242L138 383H181L111 242L144 105H108Z"  />
<glyph unicode="&#xAC;" horiz-adv-x="586" d="M542 228H469V386H76V454H542V228Z"  />
<glyph unicode="&#xAD;" horiz-adv-x="222" d="M-4 220L5 277H227L218 220H-4Z"  />
<glyph unicode="&#xAE;" horiz-adv-x="485" d="M97 467Q97 431 111 399T149 343T205 305T273 291Q309 291 341 305T397 343T435 399T449 467Q449 504 435 536T397 593T341 630T273 644Q237 644 205 631T149 593T111 537T97 467ZM67 467Q67 510 83 548T128 614T193 658T273 674Q315 674 352 658T418 614T462 548T479 467Q479 424 463 387T418 321T353 277T273 261Q230 261 193 277T127 321T83 386T67 467ZM240 482H294Q299 482 306 482T319 486T330 495T335 514Q335 524 331 529T320 537T306 540T294 541H250L240 482ZM217 357H170L210 578H300Q320 578 334 576T359 564Q369 556 376 544T383 516Q383 498 377 486T361 467T343 455T329 450L358 357H308L283 445H233L217 357Z"  />
<glyph unicode="&#xAF;" horiz-adv-x="500" d="M161 603L170 656H470L461 603H161Z"  />
<glyph unicode="&#xB0;" horiz-adv-x="586" d="M341 473Q376 473 397 495T419 548Q419 580 397 602T343 624Q311 624 290 602T268 548Q268 515 290 494T341 473ZM341 416Q315 416 292 426T250 454T222 496T211 548Q211 575 221 599T250 641T292 669T344 680Q371 680 395 670T437 641T465 599T476 548Q476 521 466 497T438 455T395 427T341 416Z"  />
<glyph unicode="&#xB1;" horiz-adv-x="600" d="M271 368V573H344V368H541V300H344V95H271V300H74V368H271ZM541 35V-33H74V35H541Z"  />
<glyph unicode="&#xB2;" horiz-adv-x="386" d="M47 266L56 320Q111 353 166 388T266 458Q275 465 285 474T305 496T321 523T328 555Q328 592 301 612T240 633Q215 633 198 625T169 604T150 574T135 541L88 558Q108 615 144 647T241 680Q272 680 298 670T344 643T375 603T387 554Q387 527 376 503T336 451T256 392T125 315H355L347 266H47Z"  />
<glyph unicode="&#xB3;" horiz-adv-x="386" d="M98 377Q102 368 109 356T129 331T161 311T209 302Q228 302 245 307T276 323T297 348T305 381Q305 404 292 420T263 443Q246 450 227 451T163 452L171 498Q213 496 229 497T258 500Q280 504 293 513T313 532T322 552T324 567Q324 599 299 616T243 633Q220 633 205 626T178 609T159 588T148 569L105 592Q109 600 118 614T144 642T186 666T246 676Q279 676 304 667T346 642T371 607T380 568Q380 543 371 526T348 499T320 482T296 473Q328 462 345 435T362 379Q362 356 352 334T323 295T275 268T211 257Q172 257 142 269T91 300Q71 317 64 332T51 360L98 377Z"  />
<glyph unicode="&#xB4;" horiz-adv-x="500" d="M265 570L245 609L431 721L461 662L265 570Z"  />
<glyph unicode="&#xB5;" horiz-adv-x="586" d="M133 495H207L159 209Q156 192 154 176T152 149Q152 124 161 105T184 74T217 55T256 48Q274 48 298 54T346 78T389 130T418 217L464 494H538L456 0H382L397 85Q389 73 377 56T347 24T304 -1T246 -12Q216 -12 197 -4T164 16T145 40T134 61L96 -168H21L133 495Z"  />
<glyph unicode="&#xB6;" horiz-adv-x="586" d="M565 602H507L377 -166H312L442 602H361L231 -166H166L227 196Q225 196 212 197T180 203T140 219T100 250T69 303T57 384Q57 422 67 456T95 521Q118 564 150 592T214 637T273 660T316 667H576L565 602Z"  />
<glyph unicode="&#xB7;" horiz-adv-x="250" d="M61 191L79 303H189L171 191H61Z"  />
<glyph unicode="&#xB8;" horiz-adv-x="500" d="M234 0L214 -48Q261 -44 283 -63T306 -108Q306 -137 280 -161T200 -185Q166 -185 147 -178T116 -162L131 -130Q145 -137 160 -142T198 -148Q227 -148 240 -137T254 -111Q254 -99 248 -93T232 -83T213 -79T196 -78Q187 -78 180 -78T163 -80L198 0H234Z"  />
<glyph unicode="&#xB9;" horiz-adv-x="386" d="M82 266L90 311H197L245 600Q215 574 182 567T124 558L132 604Q188 611 220 629T273 676H313L252 311H365L358 266H243H190H82Z"  />
<glyph unicode="&#xBA;" horiz-adv-x="352" d="M282 550Q282 587 264 609T211 632Q182 632 164 616T136 577T121 530T117 490Q117 448 135 426T188 403Q230 403 256 443T282 550ZM56 499Q56 530 66 561T97 617T146 658T215 674Q250 674 274 662T314 630T336 586T343 540Q343 496 329 462T292 406T241 372T185 360Q152 360 128 371T88 402T64 446T56 499Z"  />
<glyph unicode="&#xBB;" horiz-adv-x="337" d="M106 383L171 247L72 105H25L98 247L69 383H106ZM228 383L297 247L198 105H156L225 247L192 383H228Z"  />
<glyph unicode="&#xBC;" horiz-adv-x="917" d="M244 266H190H82L90 311H197L245 600Q215 574 182 567T124 558L132 604Q188 611 220 629T273 676H313L252 311H366L358 266H244ZM745 140L780 348L601 140H745ZM184 0L698 667H761L247 0H184ZM721 0L737 95H539L547 138L780 411H845L800 140H868L861 95H793L777 0H721Z"  />
<glyph unicode="&#xBD;" horiz-adv-x="917" d="M534 0L543 54Q590 81 647 118T753 191Q761 197 772 207T792 229T808 255T815 287Q815 325 788 345T727 366Q702 366 685 358T656 337T637 307T622 274L575 290Q595 347 631 379T728 412Q759 412 786 402T832 375T863 335T874 286Q874 243 849 211T788 155Q766 140 741 124T692 94T647 68T612 49H842L834 0H534ZM185 0L698 667H762L248 0H185ZM83 266L90 311H197L246 600Q231 587 215 579T182 567T152 560T125 558L132 604Q188 611 220 629T273 676H314L253 311H366L359 266H245H189H83Z"  />
<glyph unicode="&#xBE;" horiz-adv-x="917" d="M98 377Q102 368 109 356T129 331T161 311T209 302Q228 302 245 307T276 323T297 348T305 381Q305 404 292 420T263 443Q246 450 227 451T163 452L171 498Q213 496 229 497T258 500Q280 504 293 513T313 532T322 552T324 567Q324 599 299 616T243 633Q220 633 205 626T178 609T159 588T148 569L105 592Q109 600 118 614T144 642T186 666T246 676Q279 676 304 667T346 642T371 607T380 568Q380 543 371 526T348 499T320 482T296 473Q328 462 345 435T362 379Q362 356 352 334T323 295T275 268T211 257Q172 257 142 269T91 300Q71 317 64 332T51 360L98 377ZM745 140L780 348L602 140H745ZM185 0L698 667H761L248 0H185ZM722 0L738 95H540L547 138L781 411H846L801 140H869L861 95H793L777 0H722Z"  />
<glyph unicode="&#xBF;" horiz-adv-x="497" d="M369 500L353 404H253L269 500H369ZM326 329Q322 292 318 265T304 216T279 178T234 149Q199 133 178 122T142 102T118 84T100 62Q89 45 85 28T80 -6Q80 -36 92 -57T122 -92T163 -112T207 -119Q246 -119 273 -104T319 -68T348 -24T365 14L434 -14Q427 -31 413 -60T372 -116T306 -164T205 -185Q161 -185 123 -172T58 -135T14 -78T-2 -4Q-2 3 0 20T9 60T33 105T78 148Q101 164 127 175T179 198Q198 205 211 212T234 233T249 269T257 329H326Z"  />
<glyph unicode="&#xC0;" horiz-adv-x="564" d="M377 262L325 569L175 262H377ZM144 195L48 0H-28L298 667H391L507 0H421L387 195H144ZM221 874L401 769L380 730L191 816L221 874Z"  />
<glyph unicode="&#xC1;" horiz-adv-x="564" d="M377 262L325 569L175 262H377ZM144 195L48 0H-28L298 667H391L507 0H421L387 195H144ZM320 730L299 769L485 874L515 816L320 730Z"  />
<glyph unicode="&#xC2;" horiz-adv-x="564" d="M377 262L325 569L175 262H377ZM144 195L48 0H-28L298 667H391L507 0H421L387 195H144ZM416 733L337 793L240 733L170 743L349 863L487 743L416 733Z"  />
<glyph unicode="&#xC3;" horiz-adv-x="564" d="M377 262L325 569L175 262H377ZM144 195L48 0H-28L298 667H391L507 0H421L387 195H144ZM493 795Q476 778 454 762T395 746Q386 746 380 747T365 750T345 758T312 773Q304 777 293 779T269 782Q241 782 227 772T203 750L163 778Q179 801 195 813T227 832T253 839T270 840Q279 840 285 839T300 836T321 828T355 814Q364 810 374 808T397 805Q420 805 433 813T456 830L493 795Z"  />
<glyph unicode="&#xC4;" horiz-adv-x="564" d="M377 262L325 569L175 262H377ZM144 195L48 0H-28L298 667H391L507 0H421L387 195H144ZM308 842Q332 842 346 827T360 793Q360 772 345 758T309 743Q289 743 274 757T259 792Q259 814 274 828T308 842ZM465 843Q487 843 502 829T517 793Q517 771 501 757T465 743Q445 743 430 757T414 793Q414 814 429 828T465 843Z"  />
<glyph unicode="&#xC5;" horiz-adv-x="564" d="M377 262L325 569L175 262H377ZM144 195L48 0H-28L298 667H391L507 0H421L387 195H144ZM360 842Q337 842 325 828T313 798Q313 780 326 767T358 754Q376 754 388 766T401 798Q401 817 389 829T360 842ZM360 886Q376 886 391 880T419 861T438 833T445 798Q445 780 438 764T419 737T392 718T358 711Q340 711 324 718T296 737T276 765T269 799Q269 815 275 831T294 859T322 878T360 886Z"  />
<glyph unicode="&#xC6;" horiz-adv-x="874" d="M404 293L451 574L245 293H404ZM438 0H355L394 230H200L30 0H-55L444 667H465H547H885L874 601H537L501 381H788L778 316H490L449 71H811L799 0H438Z"  />
<glyph unicode="&#xC7;" horiz-adv-x="576" d="M279 -52Q329 -48 353 -68T378 -117Q378 -150 350 -175T264 -201Q227 -201 206 -193T172 -177L188 -142Q203 -149 220 -155T261 -161Q293 -161 307 -149T322 -120Q322 -107 315 -100T299 -90T278 -86T259 -85Q249 -85 241 -85T223 -87L257 -9Q197 -1 158 30T95 102T62 191T53 278Q53 341 71 412T128 543T224 643T360 683Q402 683 441 670T511 629T563 561T589 462L517 443Q515 461 509 490T487 547T440 595T360 616Q314 616 280 595T221 541T180 468T155 388T143 316T139 264Q139 210 152 171T187 106T238 68T299 56Q340 56 370 73T421 115T456 167T478 213L546 187Q541 176 534 158T514 118T483 75T440 34Q417 18 396 9T356 -4T322 -10T296 -11L279 -52Z"  />
<glyph unicode="&#xC8;" horiz-adv-x="559" d="M154 667H235H569L558 601H224L187 381H473L462 315H176L135 71H496L484 0H123H42L154 667ZM282 874L462 769L441 730L252 816L282 874Z"  />
<glyph unicode="&#xC9;" horiz-adv-x="559" d="M154 667H235H569L558 601H224L187 381H473L462 315H176L135 71H496L484 0H123H42L154 667ZM315 730L294 769L480 874L510 816L315 730Z"  />
<glyph unicode="&#xCA;" horiz-adv-x="559" d="M154 667H235H569L558 601H224L187 381H473L462 315H176L135 71H496L484 0H123H42L154 667ZM432 733L353 793L256 733L186 743L365 863L503 743L432 733Z"  />
<glyph unicode="&#xCB;" horiz-adv-x="559" d="M154 667H235H569L558 601H224L187 381H473L462 315H176L135 71H496L484 0H123H42L154 667ZM324 842Q348 842 362 827T376 793Q376 772 361 758T325 743Q305 743 290 757T275 792Q275 814 290 828T324 842ZM481 843Q503 843 518 829T533 793Q533 771 517 757T481 743Q461 743 446 757T430 793Q430 814 445 828T481 843Z"  />
<glyph unicode="&#xCC;" horiz-adv-x="248" d="M123 0H42L153 667H235L123 0ZM68 874L248 769L227 730L38 816L68 874Z"  />
<glyph unicode="&#xCD;" horiz-adv-x="248" d="M123 0H42L153 667H235L123 0ZM167 730L146 769L332 874L362 816L167 730Z"  />
<glyph unicode="&#xCE;" horiz-adv-x="248" d="M123 0H42L153 667H235L123 0ZM268 733L189 793L92 733L22 743L201 863L339 743L268 733Z"  />
<glyph unicode="&#xCF;" horiz-adv-x="248" d="M123 0H42L153 667H235L123 0ZM156 842Q180 842 194 827T208 793Q208 772 193 758T157 743Q137 743 122 757T107 792Q107 814 122 828T156 842ZM313 843Q335 843 350 829T365 793Q365 771 349 757T313 743Q293 743 278 757T262 793Q262 814 277 828T313 843Z"  />
<glyph unicode="&#xD0;" horiz-adv-x="648" d="M184 381H344L333 315H173L134 66H268Q289 66 310 67T354 73T398 89T443 120Q467 141 484 170T513 234T530 305T536 374Q536 441 521 481T486 544Q459 577 419 590T323 604H220L184 381ZM92 315H25L36 381H103L148 667H230H333Q358 667 389 665T454 650T519 613T578 540Q591 517 599 492T611 444T617 402T618 369Q618 288 593 216T513 84Q487 57 461 41T406 15T348 3T288 0H121H42L92 315Z"  />
<glyph unicode="&#xD1;" horiz-adv-x="655" d="M465 0L203 570L108 0H42L154 667H218H245L487 135L576 667H641L530 0H465ZM551 795Q534 778 512 762T453 746Q444 746 438 747T423 750T403 758T370 773Q362 777 351 779T327 782Q299 782 285 772T261 750L221 778Q237 801 253 813T285 832T311 839T328 840Q337 840 343 839T358 836T379 828T413 814Q422 810 432 808T455 805Q478 805 491 813T514 830L551 795Z"  />
<glyph unicode="&#xD2;" horiz-adv-x="642" d="M532 409Q532 466 517 505T476 568T421 602T362 613Q317 613 283 595T225 546T184 479T158 403T144 330T140 269Q140 209 155 168T193 102T247 65T307 54Q354 54 389 74T449 126T490 197T515 276T528 351T532 409ZM617 392Q617 328 600 257T545 125T449 26T307 -13Q245 -13 198 10T119 74T71 169T54 286Q54 327 62 372T86 460T128 544T188 614T267 662T365 680Q420 680 466 661T546 604T598 513T617 392ZM261 874L441 769L420 730L231 816L261 874Z"  />
<glyph unicode="&#xD3;" horiz-adv-x="642" d="M532 409Q532 466 517 505T476 568T421 602T362 613Q317 613 283 595T225 546T184 479T158 403T144 330T140 269Q140 209 155 168T193 102T247 65T307 54Q354 54 389 74T449 126T490 197T515 276T528 351T532 409ZM617 392Q617 328 600 257T545 125T449 26T307 -13Q245 -13 198 10T119 74T71 169T54 286Q54 327 62 372T86 460T128 544T188 614T267 662T365 680Q420 680 466 661T546 604T598 513T617 392ZM375 730L354 769L540 874L570 816L375 730Z"  />
<glyph unicode="&#xD4;" horiz-adv-x="642" d="M532 409Q532 466 517 505T476 568T421 602T362 613Q317 613 283 595T225 546T184 479T158 403T144 330T140 269Q140 209 155 168T193 102T247 65T307 54Q354 54 389 74T449 126T490 197T515 276T528 351T532 409ZM617 392Q617 328 600 257T545 125T449 26T307 -13Q245 -13 198 10T119 74T71 169T54 286Q54 327 62 372T86 460T128 544T188 614T267 662T365 680Q420 680 466 661T546 604T598 513T617 392ZM466 733L387 793L290 733L220 743L399 863L537 743L466 733Z"  />
<glyph unicode="&#xD5;" horiz-adv-x="642" d="M532 409Q532 466 517 505T476 568T421 602T362 613Q317 613 283 595T225 546T184 479T158 403T144 330T140 269Q140 209 155 168T193 102T247 65T307 54Q354 54 389 74T449 126T490 197T515 276T528 351T532 409ZM617 392Q617 328 600 257T545 125T449 26T307 -13Q245 -13 198 10T119 74T71 169T54 286Q54 327 62 372T86 460T128 544T188 614T267 662T365 680Q420 680 466 661T546 604T598 513T617 392ZM542 795Q525 778 503 762T444 746Q435 746 429 747T414 750T394 758T361 773Q353 777 342 779T318 782Q290 782 276 772T252 750L212 778Q228 801 244 813T276 832T302 839T319 840Q328 840 334 839T349 836T370 828T404 814Q413 810 423 808T446 805Q469 805 482 813T505 830L542 795Z"  />
<glyph unicode="&#xD6;" horiz-adv-x="642" d="M532 409Q532 466 517 505T476 568T421 602T362 613Q317 613 283 595T225 546T184 479T158 403T144 330T140 269Q140 209 155 168T193 102T247 65T307 54Q354 54 389 74T449 126T490 197T515 276T528 351T532 409ZM617 392Q617 328 600 257T545 125T449 26T307 -13Q245 -13 198 10T119 74T71 169T54 286Q54 327 62 372T86 460T128 544T188 614T267 662T365 680Q420 680 466 661T546 604T598 513T617 392ZM349 842Q373 842 387 827T401 793Q401 772 386 758T350 743Q330 743 315 757T300 792Q300 814 315 828T349 842ZM506 843Q528 843 543 829T558 793Q558 771 542 757T506 743Q486 743 471 757T455 793Q455 814 470 828T506 843Z"  />
<glyph unicode="&#xD7;" horiz-adv-x="600" d="M308 286L157 136L109 183L260 334L109 485L157 533L308 382L459 533L506 485L356 334L506 183L459 136L308 286Z"  />
<glyph unicode="&#xD8;" horiz-adv-x="642" d="M561 585Q587 550 602 501T617 392Q617 328 600 257T545 125T449 26T307 -13Q259 -13 220 1T151 41L104 -21H33L112 84Q83 124 69 175T54 286Q54 327 62 372T86 460T128 544T188 614T267 662T365 680Q457 680 520 628L569 693H642L561 585ZM475 568Q451 592 421 602T362 613Q317 613 283 595T225 546T184 479T158 403T144 330T140 269Q140 198 162 151L475 568ZM195 100Q219 76 248 65T307 54Q354 54 389 74T449 126T490 197T515 276T528 351T532 409Q532 442 527 469T511 517L195 100Z"  />
<glyph unicode="&#xD9;" horiz-adv-x="615" d="M543 260Q535 213 527 179T509 120T485 77T455 43Q436 26 414 15T370 -3T326 -12T286 -15Q276 -15 259 -14T220 -9T176 4T132 28Q107 46 94 67T74 108T67 145T66 173Q66 182 66 190T68 210T73 243T82 297L143 667H225L160 280Q155 256 153 241T149 214T147 195T146 177Q146 142 159 118T192 80T238 59T288 52Q345 52 379 71T433 121T461 186T475 253L544 667H611L543 260ZM241 874L421 769L400 730L211 816L241 874Z"  />
<glyph unicode="&#xDA;" horiz-adv-x="615" d="M543 260Q535 213 527 179T509 120T485 77T455 43Q436 26 414 15T370 -3T326 -12T286 -15Q276 -15 259 -14T220 -9T176 4T132 28Q107 46 94 67T74 108T67 145T66 173Q66 182 66 190T68 210T73 243T82 297L143 667H225L160 280Q155 256 153 241T149 214T147 195T146 177Q146 142 159 118T192 80T238 59T288 52Q345 52 379 71T433 121T461 186T475 253L544 667H611L543 260ZM379 730L358 769L544 874L574 816L379 730Z"  />
<glyph unicode="&#xDB;" horiz-adv-x="615" d="M543 260Q535 213 527 179T509 120T485 77T455 43Q436 26 414 15T370 -3T326 -12T286 -15Q276 -15 259 -14T220 -9T176 4T132 28Q107 46 94 67T74 108T67 145T66 173Q66 182 66 190T68 210T73 243T82 297L143 667H225L160 280Q155 256 153 241T149 214T147 195T146 177Q146 142 159 118T192 80T238 59T288 52Q345 52 379 71T433 121T461 186T475 253L544 667H611L543 260ZM453 733L374 793L277 733L207 743L386 863L524 743L453 733Z"  />
<glyph unicode="&#xDC;" horiz-adv-x="615" d="M543 260Q535 213 527 179T509 120T485 77T455 43Q436 26 414 15T370 -3T326 -12T286 -15Q276 -15 259 -14T220 -9T176 4T132 28Q107 46 94 67T74 108T67 145T66 173Q66 182 66 190T68 210T73 243T82 297L143 667H225L160 280Q155 256 153 241T149 214T147 195T146 177Q146 142 159 118T192 80T238 59T288 52Q345 52 379 71T433 121T461 186T475 253L544 667H611L543 260ZM339 842Q363 842 377 827T391 793Q391 772 376 758T340 743Q320 743 305 757T290 792Q290 814 305 828T339 842ZM496 843Q518 843 533 829T548 793Q548 771 532 757T496 743Q476 743 461 757T445 793Q445 814 460 828T496 843Z"  />
<glyph unicode="&#xDD;" horiz-adv-x="512" d="M176 0L222 279L52 667H142L280 351L510 667H592L306 279L260 0H176ZM324 730L303 769L489 874L519 816L324 730Z"  />
<glyph unicode="&#xDE;" horiz-adv-x="563" d="M163 239H255Q303 239 339 241T401 256Q418 265 431 279T454 310T467 346T472 384Q472 421 457 450T417 491Q394 501 365 503T318 505L208 504L163 239ZM123 0H42L154 667H235L219 570H320Q373 570 417 563T496 527Q525 501 541 462T557 386Q557 367 553 345T539 300T516 258T484 224Q467 210 449 201T407 185T355 175T286 172H152L123 0Z"  />
<glyph unicode="&#xDF;" horiz-adv-x="554" d="M30 -30L102 399H51L62 460H112Q116 478 122 503T140 556T168 611T211 660T271 695T353 709Q393 709 423 698T474 669T505 627T516 578Q516 562 511 541T491 500T453 462T390 435Q382 433 355 428T287 422Q279 416 279 409Q279 399 293 392T320 380Q354 368 379 358T425 337T461 313T489 283Q506 259 512 236T518 195Q518 165 506 129T467 61T395 9T288 -12Q243 -12 214 -3T170 12L191 71Q203 66 227 59T289 52Q321 52 348 62T394 88T424 127T435 176Q435 195 430 209T412 237T378 262T323 292Q291 308 270 319T235 342T217 364T212 390Q212 413 222 431T245 463Q262 465 294 470T359 487T415 520T439 575Q439 602 417 624T346 647Q322 647 304 641T272 627T249 610T234 594Q211 565 202 525T186 447L106 -30H30Z"  />
<glyph unicode="&#xE0;" horiz-adv-x="535" d="M381 249Q367 251 353 251T315 252Q294 252 258 250T187 237T126 201T100 131Q100 97 121 73T188 49Q214 49 244 60T301 96T349 158T381 249ZM351 0Q350 19 350 32T352 57T355 77T359 96Q351 85 337 67T300 30T246 -1T174 -14Q137 -14 108 -3T59 29T27 77T16 134Q16 182 38 214T90 264Q107 274 126 282T171 296T232 305T317 308Q321 308 331 308T352 307T374 306T391 305Q393 319 394 331T396 357Q396 363 395 372T391 392T382 412T363 430T338 442T314 448T295 450T282 451Q246 451 222 442T181 419T155 391T139 367L67 398Q95 452 148 481T276 510Q313 510 349 502T412 477T457 433T474 369Q474 362 472 344T466 300T458 245T449 190T442 143T437 113Q432 86 430 68T427 37T426 17T428 0H351ZM213 721L393 609L372 570L183 662L213 721Z"  />
<glyph unicode="&#xE1;" horiz-adv-x="535" d="M381 249Q367 251 353 251T315 252Q294 252 258 250T187 237T126 201T100 131Q100 97 121 73T188 49Q214 49 244 60T301 96T349 158T381 249ZM351 0Q350 19 350 32T352 57T355 77T359 96Q351 85 337 67T300 30T246 -1T174 -14Q137 -14 108 -3T59 29T27 77T16 134Q16 182 38 214T90 264Q107 274 126 282T171 296T232 305T317 308Q321 308 331 308T352 307T374 306T391 305Q393 319 394 331T396 357Q396 363 395 372T391 392T382 412T363 430T338 442T314 448T295 450T282 451Q246 451 222 442T181 419T155 391T139 367L67 398Q95 452 148 481T276 510Q313 510 349 502T412 477T457 433T474 369Q474 362 472 344T466 300T458 245T449 190T442 143T437 113Q432 86 430 68T427 37T426 17T428 0H351ZM265 570L245 609L431 721L461 662L265 570Z"  />
<glyph unicode="&#xE2;" horiz-adv-x="535" d="M381 249Q367 251 353 251T315 252Q294 252 258 250T187 237T126 201T100 131Q100 97 121 73T188 49Q214 49 244 60T301 96T349 158T381 249ZM351 0Q350 19 350 32T352 57T355 77T359 96Q351 85 337 67T300 30T246 -1T174 -14Q137 -14 108 -3T59 29T27 77T16 134Q16 182 38 214T90 264Q107 274 126 282T171 296T232 305T317 308Q321 308 331 308T352 307T374 306T391 305Q393 319 394 331T396 357Q396 363 395 372T391 392T382 412T363 430T338 442T314 448T295 450T282 451Q246 451 222 442T181 419T155 391T139 367L67 398Q95 452 148 481T276 510Q313 510 349 502T412 477T457 433T474 369Q474 362 472 344T466 300T458 245T449 190T442 143T437 113Q432 86 430 68T427 37T426 17T428 0H351ZM394 573L317 640L218 573L148 583L329 710L465 583L394 573Z"  />
<glyph unicode="&#xE3;" horiz-adv-x="535" d="M381 249Q367 251 353 251T315 252Q294 252 258 250T187 237T126 201T100 131Q100 97 121 73T188 49Q214 49 244 60T301 96T349 158T381 249ZM351 0Q350 19 350 32T352 57T355 77T359 96Q351 85 337 67T300 30T246 -1T174 -14Q137 -14 108 -3T59 29T27 77T16 134Q16 182 38 214T90 264Q107 274 126 282T171 296T232 305T317 308Q321 308 331 308T352 307T374 306T391 305Q393 319 394 331T396 357Q396 363 395 372T391 392T382 412T363 430T338 442T314 448T295 450T282 451Q246 451 222 442T181 419T155 391T139 367L67 398Q95 452 148 481T276 510Q313 510 349 502T412 477T457 433T474 369Q474 362 472 344T466 300T458 245T449 190T442 143T437 113Q432 86 430 68T427 37T426 17T428 0H351ZM477 639Q460 622 438 606T380 590Q371 590 365 591T350 594T329 602T296 616Q288 620 278 622T253 625Q225 625 211 615T188 593L147 621Q163 644 180 656T212 675T238 682T255 683Q264 683 270 682T285 679T305 671T339 658Q348 654 358 652T381 649Q404 649 417 657T440 674L477 639Z"  />
<glyph unicode="&#xE4;" horiz-adv-x="535" d="M381 249Q367 251 353 251T315 252Q294 252 258 250T187 237T126 201T100 131Q100 97 121 73T188 49Q214 49 244 60T301 96T349 158T381 249ZM351 0Q350 19 350 32T352 57T355 77T359 96Q351 85 337 67T300 30T246 -1T174 -14Q137 -14 108 -3T59 29T27 77T16 134Q16 182 38 214T90 264Q107 274 126 282T171 296T232 305T317 308Q321 308 331 308T352 307T374 306T391 305Q393 319 394 331T396 357Q396 363 395 372T391 392T382 412T363 430T338 442T314 448T295 450T282 451Q246 451 222 442T181 419T155 391T139 367L67 398Q95 452 148 481T276 510Q313 510 349 502T412 477T457 433T474 369Q474 362 472 344T466 300T458 245T449 190T442 143T437 113Q432 86 430 68T427 37T426 17T428 0H351ZM233 685Q257 685 271 670T285 636Q285 615 270 601T234 586Q214 586 199 600T184 635Q184 657 199 671T233 685ZM390 685Q414 685 428 670T442 636Q442 615 427 601T391 586Q371 586 356 600T341 635Q341 657 356 671T390 685Z"  />
<glyph unicode="&#xE5;" horiz-adv-x="535" d="M381 249Q367 251 353 251T315 252Q294 252 258 250T187 237T126 201T100 131Q100 97 121 73T188 49Q214 49 244 60T301 96T349 158T381 249ZM351 0Q350 19 350 32T352 57T355 77T359 96Q351 85 337 67T300 30T246 -1T174 -14Q137 -14 108 -3T59 29T27 77T16 134Q16 182 38 214T90 264Q107 274 126 282T171 296T232 305T317 308Q321 308 331 308T352 307T374 306T391 305Q393 319 394 331T396 357Q396 363 395 372T391 392T382 412T363 430T338 442T314 448T295 450T282 451Q246 451 222 442T181 419T155 391T139 367L67 398Q95 452 148 481T276 510Q313 510 349 502T412 477T457 433T474 369Q474 362 472 344T466 300T458 245T449 190T442 143T437 113Q432 86 430 68T427 37T426 17T428 0H351ZM318 692Q295 692 283 678T271 648Q271 630 284 617T316 603Q334 603 347 615T360 647Q360 667 347 679T318 692ZM318 732Q334 732 349 726T375 708T393 681T400 647Q400 612 376 588T316 563Q281 563 256 587T231 648Q231 664 237 679T254 706T282 725T318 732Z"  />
<glyph unicode="&#xE6;" horiz-adv-x="841" d="M370 248Q356 250 341 251T300 252Q236 252 197 243T135 214Q116 200 105 176T94 130Q94 121 97 108T109 81T134 58T179 48Q216 48 248 66T306 112T348 176T370 248ZM729 295Q731 315 730 338T717 385Q701 417 671 434T605 451Q581 451 557 442T511 414T474 366T450 295H729ZM66 398Q74 412 89 432T136 473Q165 491 198 499T266 508Q286 508 319 503T388 480Q408 469 419 457T438 433Q482 476 523 491T610 507Q652 507 688 494T750 454T790 388T805 299Q805 281 804 268T801 241H441Q439 231 438 221T437 198Q437 159 448 131T479 84T521 56T569 47Q601 47 625 58T667 84T697 115T716 143L779 115Q758 78 734 53T683 13T628 -8T572 -15Q528 -15 496 -4T439 25T399 68T373 117Q365 105 349 83T307 40T247 3T167 -13Q132 -13 104 -2T56 28T25 73T14 131Q14 193 53 235T154 292Q168 295 200 300T290 306Q299 306 307 306Q316 306 325 306T347 304T378 302Q380 313 382 324T384 352Q384 362 382 379T369 411T336 438T271 450Q238 450 215 441T176 418T151 391T136 368L66 398Z"  />
<glyph unicode="&#xE7;" horiz-adv-x="474" d="M211 -48Q258 -44 280 -63T303 -108Q303 -137 277 -161T197 -185Q163 -185 144 -178T112 -162L127 -130Q141 -137 156 -142T195 -148Q224 -148 237 -137T251 -111Q251 -99 245 -93T229 -83T210 -79T193 -78Q183 -78 176 -78T159 -80L189 -13Q148 -6 119 14T72 64T44 130T35 207Q35 264 51 318T98 415T173 484T273 511Q307 511 338 500T395 467T437 413T459 337L384 321Q377 372 350 408T271 444Q236 444 211 429T169 389T142 336T127 279T119 228T117 195Q117 152 128 124T155 80T192 58T230 51Q262 51 285 65T325 98T351 137T367 170L429 147Q412 97 387 66T333 16T277 -8T225 -16L211 -48Z"  />
<glyph unicode="&#xE8;" horiz-adv-x="520" d="M407 297Q411 351 397 381T361 428T319 448T285 452Q253 452 226 440T179 406T145 357T125 297H407ZM116 241Q114 230 114 222T113 202Q113 170 121 142T146 94T188 62T245 50Q276 50 298 58T338 80T368 111T394 146L458 116Q449 101 434 79T393 37T331 1T244 -14Q206 -14 168 -2T100 38T52 108T33 212Q33 275 52 329T105 424T185 488T288 511Q321 511 355 501T419 467T466 402T485 298Q485 280 484 267T481 241H116ZM203 721L383 609L362 570L173 662L203 721Z"  />
<glyph unicode="&#xE9;" horiz-adv-x="520" d="M407 297Q411 351 397 381T361 428T319 448T285 452Q253 452 226 440T179 406T145 357T125 297H407ZM116 241Q114 230 114 222T113 202Q113 170 121 142T146 94T188 62T245 50Q276 50 298 58T338 80T368 111T394 146L458 116Q449 101 434 79T393 37T331 1T244 -14Q206 -14 168 -2T100 38T52 108T33 212Q33 275 52 329T105 424T185 488T288 511Q321 511 355 501T419 467T466 402T485 298Q485 280 484 267T481 241H116ZM262 570L242 609L428 721L458 662L262 570Z"  />
<glyph unicode="&#xEA;" horiz-adv-x="520" d="M407 297Q411 351 397 381T361 428T319 448T285 452Q253 452 226 440T179 406T145 357T125 297H407ZM116 241Q114 230 114 222T113 202Q113 170 121 142T146 94T188 62T245 50Q276 50 298 58T338 80T368 111T394 146L458 116Q449 101 434 79T393 37T331 1T244 -14Q206 -14 168 -2T100 38T52 108T33 212Q33 275 52 329T105 424T185 488T288 511Q321 511 355 501T419 467T466 402T485 298Q485 280 484 267T481 241H116ZM394 573L317 640L218 573L148 583L329 710L465 583L394 573Z"  />
<glyph unicode="&#xEB;" horiz-adv-x="520" d="M407 297Q411 351 397 381T361 428T319 448T285 452Q253 452 226 440T179 406T145 357T125 297H407ZM116 241Q114 230 114 222T113 202Q113 170 121 142T146 94T188 62T245 50Q276 50 298 58T338 80T368 111T394 146L458 116Q449 101 434 79T393 37T331 1T244 -14Q206 -14 168 -2T100 38T52 108T33 212Q33 275 52 329T105 424T185 488T288 511Q321 511 355 501T419 467T466 402T485 298Q485 280 484 267T481 241H116ZM234 685Q258 685 272 670T286 636Q286 615 271 601T235 586Q215 586 200 600T185 635Q185 657 200 671T234 685ZM391 685Q415 685 429 670T443 636Q443 615 428 601T392 586Q372 586 357 600T342 635Q342 657 357 671T391 685Z"  />
<glyph unicode="&#xEC;" horiz-adv-x="230" d="M36 0L118 495H194L112 0H36ZM37 721L217 609L196 570L7 662L37 721Z"  />
<glyph unicode="&#xED;" horiz-adv-x="230" d="M36 0L118 495H194L112 0H36ZM122 570L102 609L288 721L318 662L122 570Z"  />
<glyph unicode="&#xEE;" horiz-adv-x="230" d="M36 0L118 495H194L112 0H36ZM254 573L177 640L78 573L8 583L189 710L325 583L254 573Z"  />
<glyph unicode="&#xEF;" horiz-adv-x="230" d="M36 0L118 495H194L112 0H36ZM93 685Q117 685 131 670T145 636Q145 615 130 601T94 586Q74 586 59 600T44 635Q44 657 59 671T93 685ZM250 685Q274 685 288 670T302 636Q302 615 287 601T251 586Q231 586 216 600T201 635Q201 657 216 671T250 685Z"  />
<glyph unicode="&#xF0;" horiz-adv-x="511" d="M405 602Q445 534 464 457T484 313Q484 239 466 179T414 76T334 10T232 -14Q174 -14 136 9T75 67T43 140T33 210Q33 252 47 301T93 394T172 466T286 495Q318 495 338 486T381 463Q373 492 361 519T335 571L214 516L185 573L301 625Q292 637 284 647T267 667L332 697Q343 688 352 678T370 656L482 706L511 650L405 602ZM115 197Q115 188 117 164T130 114T166 68T236 48Q271 48 297 62T341 100T370 151T388 206T396 257T399 294Q399 357 366 395T276 433Q232 433 201 409T151 350T124 273T115 197Z"  />
<glyph unicode="&#xF1;" horiz-adv-x="548" d="M357 0L405 284Q409 307 411 326T413 355Q413 367 409 383T395 414T367 438T320 448Q280 448 249 425T198 371Q184 350 174 323T157 269T145 218T137 177L106 0H35L118 495H184L166 384Q172 396 185 417T219 458T270 493T340 508Q374 508 401 497T447 466T476 420T486 365Q486 347 484 326T478 286L430 0H357ZM490 639Q473 622 451 606T393 590Q384 590 378 591T363 594T342 602T309 616Q301 620 291 622T266 625Q238 625 224 615T201 593L160 621Q176 644 193 656T225 675T251 682T268 683Q277 683 283 682T298 679T318 671T352 658Q361 654 371 652T394 649Q417 649 430 657T453 674L490 639Z"  />
<glyph unicode="&#xF2;" horiz-adv-x="521" d="M403 302Q403 337 397 360T379 399Q364 419 339 432T282 446Q232 446 201 417T151 348T126 266T119 196Q119 188 121 164T134 113T170 67T240 46Q289 46 320 74T370 142T396 226T403 302ZM484 276Q484 227 468 176T421 82T343 12T236 -15Q184 -15 147 4T85 55T49 128T37 213Q37 263 53 315T101 409T179 479T287 506Q329 506 365 492T427 449T469 377T484 276ZM203 721L383 609L362 570L173 662L203 721Z"  />
<glyph unicode="&#xF3;" horiz-adv-x="521" d="M403 302Q403 337 397 360T379 399Q364 419 339 432T282 446Q232 446 201 417T151 348T126 266T119 196Q119 188 121 164T134 113T170 67T240 46Q289 46 320 74T370 142T396 226T403 302ZM484 276Q484 227 468 176T421 82T343 12T236 -15Q184 -15 147 4T85 55T49 128T37 213Q37 263 53 315T101 409T179 479T287 506Q329 506 365 492T427 449T469 377T484 276ZM269 570L249 609L435 721L465 662L269 570Z"  />
<glyph unicode="&#xF4;" horiz-adv-x="521" d="M403 302Q403 337 397 360T379 399Q364 419 339 432T282 446Q232 446 201 417T151 348T126 266T119 196Q119 188 121 164T134 113T170 67T240 46Q289 46 320 74T370 142T396 226T403 302ZM484 276Q484 227 468 176T421 82T343 12T236 -15Q184 -15 147 4T85 55T49 128T37 213Q37 263 53 315T101 409T179 479T287 506Q329 506 365 492T427 449T469 377T484 276ZM397 573L320 640L221 573L151 583L332 710L468 583L397 573Z"  />
<glyph unicode="&#xF5;" horiz-adv-x="521" d="M403 302Q403 337 397 360T379 399Q364 419 339 432T282 446Q232 446 201 417T151 348T126 266T119 196Q119 188 121 164T134 113T170 67T240 46Q289 46 320 74T370 142T396 226T403 302ZM484 276Q484 227 468 176T421 82T343 12T236 -15Q184 -15 147 4T85 55T49 128T37 213Q37 263 53 315T101 409T179 479T287 506Q329 506 365 492T427 449T469 377T484 276ZM482 639Q465 622 443 606T385 590Q376 590 370 591T355 594T334 602T301 616Q293 620 283 622T258 625Q230 625 216 615T193 593L152 621Q168 644 185 656T217 675T243 682T260 683Q269 683 275 682T290 679T310 671T344 658Q353 654 363 652T386 649Q409 649 422 657T445 674L482 639Z"  />
<glyph unicode="&#xF6;" horiz-adv-x="521" d="M403 302Q403 337 397 360T379 399Q364 419 339 432T282 446Q232 446 201 417T151 348T126 266T119 196Q119 188 121 164T134 113T170 67T240 46Q289 46 320 74T370 142T396 226T403 302ZM484 276Q484 227 468 176T421 82T343 12T236 -15Q184 -15 147 4T85 55T49 128T37 213Q37 263 53 315T101 409T179 479T287 506Q329 506 365 492T427 449T469 377T484 276ZM240 685Q264 685 278 670T292 636Q292 615 277 601T241 586Q221 586 206 600T191 635Q191 657 206 671T240 685ZM397 685Q421 685 435 670T449 636Q449 615 434 601T398 586Q378 586 363 600T348 635Q348 657 363 671T397 685Z"  />
<glyph unicode="&#xF7;" horiz-adv-x="600" d="M541 368V300H74V368H541ZM358 146H261V243H358V146ZM358 424H261V521H358V424Z"  />
<glyph unicode="&#xF8;" horiz-adv-x="521" d="M365 414Q357 422 337 434T280 446Q232 446 201 418T152 350T127 267T119 193Q119 176 122 157T130 123L365 414ZM158 77Q168 68 186 57T238 46Q272 46 297 59T340 94T371 144T390 200T400 255T403 302Q403 328 401 342T393 370L158 77ZM447 423Q456 406 470 373T484 283Q484 225 466 172T416 77T338 10T237 -15Q211 -15 191 -11T155 1T130 15T112 28L64 -27H2L77 66Q52 106 45 143T37 214Q37 265 53 317T102 411T180 479T285 506Q339 506 368 491T412 462L463 521H530L447 423Z"  />
<glyph unicode="&#xF9;" horiz-adv-x="543" d="M424 0H357L377 120Q369 104 355 81T320 37T269 2T197 -13Q180 -13 151 -7T94 30Q74 52 68 75T61 128Q61 143 62 160T72 219L119 495H195L145 194Q144 189 143 180T140 162T137 145T136 132Q136 92 159 71T217 50Q246 50 278 67T343 134Q375 182 386 226T404 305L436 495H507L424 0ZM195 721L375 609L354 570L165 662L195 721Z"  />
<glyph unicode="&#xFA;" horiz-adv-x="543" d="M424 0H357L377 120Q369 104 355 81T320 37T269 2T197 -13Q180 -13 151 -7T94 30Q74 52 68 75T61 128Q61 143 62 160T72 219L119 495H195L145 194Q144 189 143 180T140 162T137 145T136 132Q136 92 159 71T217 50Q246 50 278 67T343 134Q375 182 386 226T404 305L436 495H507L424 0ZM304 570L284 609L470 721L500 662L304 570Z"  />
<glyph unicode="&#xFB;" horiz-adv-x="543" d="M424 0H357L377 120Q369 104 355 81T320 37T269 2T197 -13Q180 -13 151 -7T94 30Q74 52 68 75T61 128Q61 143 62 160T72 219L119 495H195L145 194Q144 189 143 180T140 162T137 145T136 132Q136 92 159 71T217 50Q246 50 278 67T343 134Q375 182 386 226T404 305L436 495H507L424 0ZM412 573L335 640L236 573L166 583L347 710L483 583L412 573Z"  />
<glyph unicode="&#xFC;" horiz-adv-x="543" d="M424 0H357L377 120Q369 104 355 81T320 37T269 2T197 -13Q180 -13 151 -7T94 30Q74 52 68 75T61 128Q61 143 62 160T72 219L119 495H195L145 194Q144 189 143 180T140 162T137 145T136 132Q136 92 159 71T217 50Q246 50 278 67T343 134Q375 182 386 226T404 305L436 495H507L424 0ZM244 685Q268 685 282 670T296 636Q296 615 281 601T245 586Q225 586 210 600T195 635Q195 657 210 671T244 685ZM401 685Q425 685 439 670T453 636Q453 615 438 601T402 586Q382 586 367 600T352 635Q352 657 367 671T401 685Z"  />
<glyph unicode="&#xFD;" horiz-adv-x="425" d="M188 -27Q175 -52 160 -78T123 -125T72 -160T1 -174Q-14 -174 -25 -173T-48 -171L-37 -104Q-27 -106 -17 -107T6 -109Q23 -109 39 -105T71 -91T100 -64T127 -21L144 14L40 495H118L198 119L393 495H459L188 -27ZM251 570L231 609L417 721L447 662L251 570Z"  />
<glyph unicode="&#xFE;" horiz-adv-x="536" d="M145 186Q145 146 156 120T185 78T222 56T260 49Q306 49 336 76T384 142T409 226T417 306Q417 354 403 381T371 421T336 438T312 441Q281 441 251 420T198 364T160 282T145 186ZM147 667H224L180 405Q187 415 200 431T233 464T279 492T339 504Q370 504 399 491T450 452T486 387T500 295Q500 242 485 187T440 88T369 15T272 -13Q237 -13 212 -4T170 19T141 48T123 73L83 -167H7L147 667Z"  />
<glyph unicode="&#xFF;" horiz-adv-x="425" d="M188 -27Q175 -52 160 -78T123 -125T72 -160T1 -174Q-14 -174 -25 -173T-48 -171L-37 -104Q-27 -106 -17 -107T6 -109Q23 -109 39 -105T71 -91T100 -64T127 -21L144 14L40 495H118L198 119L393 495H459L188 -27ZM191 685Q215 685 229 670T243 636Q243 615 228 601T192 586Q172 586 157 600T142 635Q142 657 157 671T191 685ZM348 685Q372 685 386 670T400 636Q400 615 385 601T349 586Q329 586 314 600T299 635Q299 657 314 671T348 685Z"  />
<glyph unicode="&#x131;" horiz-adv-x="230" d="M36 0L118 495H194L112 0H36Z"  />
<glyph unicode="&#x152;" horiz-adv-x="977" d="M543 498Q532 528 514 549T472 585T423 606T370 613Q325 613 291 596T231 550T188 485T160 411T145 338T140 275Q140 260 141 241T147 200T160 158T183 119Q203 93 238 75T318 56Q367 56 409 81Q448 103 464 129T488 173L543 498ZM605 381H890L879 316H594L553 71H914L902 0H540H459L464 41Q453 33 440 24T408 7T367 -6T314 -11Q251 -11 203 12T122 75T72 169T55 285Q55 352 74 422T133 550T231 643T370 680Q384 680 406 678T455 668T508 643T560 600L571 667H652H987L976 600H641L605 381Z"  />
<glyph unicode="&#x153;" horiz-adv-x="896" d="M783 296Q790 365 759 409T661 453Q601 453 560 412T503 296H783ZM420 300Q420 342 411 366T389 406Q366 432 338 439T292 447Q254 447 227 432T181 393T151 340T134 283T126 232T124 198Q124 155 132 132T152 94Q167 74 192 61T252 48Q295 48 326 70T379 128T410 209T420 300ZM494 241Q492 230 492 221T491 201Q491 128 529 89T625 50Q654 50 676 59T716 82T747 112T771 145L834 114Q822 96 806 74T764 33T705 0T624 -13Q580 -13 549 -2T497 26T462 59T440 90Q429 74 409 52T351 11Q299 -14 245 -14Q197 -14 159 4T93 53T52 126T37 216Q37 263 53 314T101 408T182 479T295 507Q337 507 367 497T417 471T450 439T471 409Q481 422 497 439T537 472T591 499T663 510Q681 510 702 507T744 495T785 473T821 436Q843 406 851 366T860 289Q860 274 859 263T856 241H494Z"  />
<glyph unicode="&#x160;" horiz-adv-x="572" d="M474 501Q461 536 441 559T398 597T350 616T299 622Q259 622 232 611T189 582T166 544T159 505Q159 482 167 465T190 436T221 416T256 404Q312 390 348 381T407 363T446 345T477 321Q495 304 505 286T521 251T527 220T529 195Q529 147 511 108T460 42T379 1T275 -14Q215 -14 168 1T89 42Q69 57 55 74T31 108T15 142T4 171L77 198Q83 180 94 155T128 108T185 69T276 53Q330 53 363 68T415 105T440 148T447 186Q447 217 435 237T404 270T366 288T330 298Q282 310 237 323T156 357T99 412T77 497Q77 534 91 568T133 628T202 669T297 685Q366 685 411 665T484 619T525 567T544 528L474 501ZM222 857L301 797L398 857L468 847L289 727L151 847L222 857Z"  />
<glyph unicode="&#x161;" horiz-adv-x="461" d="M355 361Q350 374 340 392T300 426Q293 430 275 437T226 444Q176 444 152 420T127 367Q127 348 135 336T156 316T188 303T229 292L260 285Q279 280 305 273T353 250T392 210T408 145Q408 117 397 89T362 39T302 2T214 -13Q153 -13 113 3T49 42T13 86T-4 122L67 145Q70 135 78 119T102 87T146 60T216 48Q249 48 271 56T306 77T325 104T331 133Q331 153 323 166T301 187T269 201T233 210L208 217Q186 222 159 230T107 253T66 292T49 355Q49 378 58 404T89 453T144 489T228 504Q237 504 262 502T316 490T373 455T419 388L355 361ZM184 703L262 637L360 703L430 693L250 567L113 693L184 703Z"  />
<glyph unicode="&#x178;" horiz-adv-x="512" d="M176 0L222 279L52 667H142L280 351L510 667H592L306 279L260 0H176ZM289 842Q313 842 327 827T341 793Q341 772 326 758T290 743Q270 743 255 757T240 792Q240 814 255 828T289 842ZM446 843Q468 843 483 829T498 793Q498 771 482 757T446 743Q426 743 411 757T395 793Q395 814 410 828T446 843Z"  />
<glyph unicode="&#x17D;" horiz-adv-x="525" d="M538 612L96 71H472L461 0H-18L-6 71L427 600H93L104 667H547L538 612ZM233 857L312 797L409 857L479 847L300 727L162 847L233 857Z"  />
<glyph unicode="&#x17E;" horiz-adv-x="419" d="M-18 0L-9 52L317 432H64L74 495H429L421 444L91 62H368L358 0H-18ZM187 703L265 637L363 703L433 693L253 567L116 693L187 703Z"  />
<glyph unicode="&#x192;" horiz-adv-x="586" d="M-13 -68Q22 -71 47 -66T84 -56Q102 -48 114 -36T137 -7T155 32T174 84L314 488H222L243 552H335L346 580Q352 594 364 620T402 671T466 715T563 734Q571 734 578 734Q585 734 596 733L573 667Q558 667 539 666T499 656T459 627T425 571L418 552H534L509 488H393L243 48Q222 -14 196 -51T137 -108T62 -133T-36 -135L-13 -68Z"  />
<glyph unicode="&#x2C6;" horiz-adv-x="500" d="M394 573L317 640L218 573L148 583L329 710L465 583L394 573Z"  />
<glyph unicode="&#x2C7;" horiz-adv-x="500" d="M234 703L312 637L410 703L480 693L300 567L163 693L234 703Z"  />
<glyph unicode="&#x2DA;" horiz-adv-x="500" d="M318 692Q295 692 283 678T271 648Q271 630 284 617T316 603Q334 603 347 615T360 647Q360 667 347 679T318 692ZM318 732Q334 732 349 726T375 708T393 681T400 647Q400 612 376 588T316 563Q281 563 256 587T231 648Q231 664 237 679T254 706T282 725T318 732Z"  />
<glyph unicode="&#x2DC;" horiz-adv-x="500" d="M479 639Q462 622 440 606T382 590Q373 590 367 591T352 594T331 602T298 616Q290 620 280 622T255 625Q227 625 213 615T190 593L149 621Q165 644 182 656T214 675T240 682T257 683Q266 683 272 682T287 679T307 671T341 658Q350 654 360 652T383 649Q406 649 419 657T442 674L479 639Z"  />
<glyph unicode="&#x2013;" horiz-adv-x="500" d="M48 220L57 277H452L443 220H48Z"  />
<glyph unicode="&#x2014;" horiz-adv-x="1000" d="M-4 220L5 277H1004L995 220H-4Z"  />
<glyph unicode="&#x2018;" horiz-adv-x="237" d="M103 445L119 539L217 667H256L172 539H215L200 445H103Z"  />
<glyph unicode="&#x2019;" horiz-adv-x="237" d="M237 667L221 573L123 445H84L168 573H124L140 667H237Z"  />
<glyph unicode="&#x201A;" horiz-adv-x="237" d="M141 94L125 0L27 -128H-12L72 0H29L44 94H141Z"  />
<glyph unicode="&#x201C;" horiz-adv-x="373" d="M105 454L120 545L216 667H254L174 545H217L202 454H105ZM243 454L258 545L353 667H390L310 545H353L338 454H243Z"  />
<glyph unicode="&#x201D;" horiz-adv-x="373" d="M373 667L358 576L262 455H225L304 576H261L276 667H373ZM236 667L221 576L126 455H88L169 576H125L140 667H236Z"  />
<glyph unicode="&#x201E;" horiz-adv-x="373" d="M262 0L166 -121H128L208 0H165L180 94H277L262 0ZM125 0L29 -121H-8L72 0H29L44 94H140L125 0Z"  />
<glyph unicode="&#x2020;" horiz-adv-x="586" d="M399 667L366 472H552L541 406H355L259 -167H188L284 406H98L109 472H295L327 667H399Z"  />
<glyph unicode="&#x2021;" horiz-adv-x="586" d="M399 667L366 472H552L541 406H355L304 101H490L478 35H293L259 -167H188L221 35H36L47 101H233L284 406H98L109 472H295L327 667H399Z"  />
<glyph unicode="&#x2022;" horiz-adv-x="667" d="M435 343Q435 308 411 283T350 258Q314 258 290 282T265 343Q265 378 289 403T350 429Q386 429 410 404T435 343Z"  />
<glyph unicode="&#x2026;" horiz-adv-x="1000" d="M831 0H721L739 112H849L831 0ZM498 0H388L406 112H516L498 0ZM165 0H55L73 112H183L165 0Z"  />
<glyph unicode="&#x2030;" horiz-adv-x="1132" d="M108 0L629 667H691L172 0H108ZM1023 199Q1023 231 1013 249T988 276T961 287T942 290Q913 290 894 275T862 236T844 187T838 138Q838 106 846 87T867 57T893 42T918 38Q960 38 991 77T1023 199ZM1085 183Q1085 147 1073 112T1040 50T988 6T921 -11Q880 -11 852 4T807 43T783 95T775 147Q775 179 787 213T821 274T874 320T943 338Q979 338 1005 324T1049 288T1076 239T1085 183ZM663 199Q663 231 653 249T629 276T602 287T582 290Q554 290 535 275T503 237T485 187T479 138Q479 106 487 87T508 57T534 42T559 38Q601 38 632 77T663 199ZM725 183Q725 147 713 112T680 50T628 6T562 -11Q521 -11 493 4T448 43T424 95T416 147Q416 179 428 213T462 274T515 320T583 338Q619 338 645 324T689 288T716 239T725 183ZM323 542Q323 577 303 604T242 631Q218 631 201 621T172 595T153 560T143 524T138 494T137 476Q137 462 141 445T155 414T180 390T220 380Q247 380 266 394T298 432T317 484T323 542ZM384 526Q384 492 373 458T339 395T286 349T214 331Q183 331 158 343T114 375T86 424T76 485Q76 518 86 552T118 615T170 662T244 680Q279 680 305 666T349 630T375 580T384 526Z"  />
<glyph unicode="&#x2039;" horiz-adv-x="212" d="M105 105L39 242L139 383H186L113 242L141 105H105Z"  />
<glyph unicode="&#x203A;" horiz-adv-x="212" d="M106 383L171 247L72 105H25L98 247L69 383H106Z"  />
<glyph unicode="&#x20AC;" horiz-adv-x="586" d="M545 105Q506 43 446 18T321 -8Q262 -8 221 13T153 69T114 152T100 252H29L57 310H104Q106 330 108 342Q112 367 114 374H49L76 432H130Q148 484 173 532T236 616T323 674T439 696Q490 696 532 684T609 648L568 574Q535 596 501 608T430 621Q384 621 350 605T291 563T249 503T218 432H494L463 374H202Q200 367 197 351Q195 338 194 329T192 310H433L401 252H190Q191 214 197 181T220 123T267 83T347 68Q385 68 415 86T471 134L545 105Z"  />
<glyph unicode="&#x2122;" horiz-adv-x="795" d="M696 287L749 605L573 287H527L454 600L402 287H350L413 667H498L567 371L730 667H820L756 287H696ZM242 622L186 287H125L181 622H64L71 667H367L360 622H242Z"  />
<glyph unicode="&#xE300;" horiz-adv-x="500" d="M218 874L398 769L377 730L188 816L218 874Z"  />
<glyph unicode="&#xE301;" horiz-adv-x="500" d="M266 730L245 769L431 874L461 816L266 730Z"  />
<glyph unicode="&#xE302;" horiz-adv-x="500" d="M394 733L315 793L218 733L148 743L327 863L465 743L394 733Z"  />
<glyph unicode="&#xE303;" horiz-adv-x="500" d="M234 857L313 797L410 857L480 847L301 727L163 847L234 857Z"  />
<glyph unicode="&#xE304;" horiz-adv-x="500" d="M479 795Q462 778 440 762T381 746Q372 746 366 747T351 750T331 758T298 773Q290 777 279 779T255 782Q227 782 213 772T189 750L149 778Q165 801 181 813T213 832T239 839T256 840Q265 840 271 839T286 836T307 828T341 814Q350 810 360 808T383 805Q406 805 419 813T442 830L479 795Z"  />
<glyph unicode="&#xE305;" horiz-adv-x="500" d="M280 842Q304 842 318 827T332 793Q332 772 317 758T281 743Q261 743 246 757T231 792Q231 814 246 828T280 842ZM437 843Q459 843 474 829T489 793Q489 771 473 757T437 743Q417 743 402 757T386 793Q386 814 401 828T437 843Z"  />
<glyph unicode="&#xE308;" horiz-adv-x="564" d="M355 842Q332 842 320 828T308 798Q308 780 321 767T353 754Q371 754 383 766T396 798Q396 817 384 829T355 842ZM355 886Q371 886 386 880T414 861T433 833T440 798Q440 780 433 764T414 737T387 718T353 711Q335 711 319 718T291 737T271 765T264 799Q264 815 270 831T289 859T317 878T355 886Z"  />

</font>
</defs>
</svg>
