<?xml  version="1.0" encoding="UTF-8"?>
<!DOCTYPE svg PUBLIC "-//W3C//DTD SVG 1.0//EN" "http://www.w3.org/TR/2001/REC-SVG-20010904/DTD/svg10.dtd" >
<svg xmlns="http://www.w3.org/2000/svg" >
<metadata>
<version>1.0</version>
<id><![CDATA[ITC Franklin Gothic W01 Dm CmIt]]></id>
<vendor>Monotype Imaging Inc.</vendor>
<credits>
<name>Fonts.com WebFonts</name>
<URL>http://webfonts.fonts.com</URL>
<role>Home of the Web fonts</role>
</credits>
<license>
<URL>http://webfonts.fonts.com/Legal</URL>
</license>
<copyright><![CDATA[Part of the digitally encoded machine readable outline data for producing the Typefaces provided is copyrighted ¨ 2004 - 2006 Linotype GmbH, www.linotype.com. All rights reserved. This software is the property of Linotype GmbH, and may not be reproduced, modified, disclosed or transferred without the express written approval of Linotype GmbH.  Copyright ¨ 1986 Adobe Systems Incorporated. All Rights Reserved.]]></copyright>
<trademark><![CDATA[ITC Franklin Gothic is a registered trademark of International Typeface Corporation.]]></trademark>
<licensee>
<name></name>
</licensee>
</metadata>
<defs >
<font horiz-adv-x="416" id="cd77c402-802a-44c5-9837-f69eeb282447">
<font-face font-family="" panose-1="2 11 7 8 5 0 0 9 0 4" ascent="901" descent="-250" units-per-em="1000" alphabetic="0">
</font-face>
<missing-glyph horiz-adv-x="221" />

<glyph unicode="&#xA;" />
<glyph unicode="&#xD;" horiz-adv-x="0" />
<glyph unicode=" " horiz-adv-x="221" />
<glyph unicode="!" horiz-adv-x="306" d="M298 667L183 202H108L147 667H298ZM200 149L174 0H48L74 149H200Z"  />
<glyph unicode="&quot;" horiz-adv-x="357" d="M83 377L121 666H226L157 377H83ZM237 377L275 666H380L311 377H237Z"  />
<glyph unicode="#" horiz-adv-x="460" d="M54 0L98 204H29L46 285H115L137 393H69L86 474H155L196 667H285L245 474H304L345 667H434L393 474H460L443 393H376L353 285H420L403 204H336L293 0H202L247 204H187L144 0H54ZM224 393L201 285H266L289 393H224Z"  />
<glyph unicode="$" horiz-adv-x="460" d="M345 735L330 649Q343 645 353 641T371 631T386 618T402 600Q418 580 426 563T443 512L347 473Q342 511 322 533T270 555Q238 555 217 534T196 482Q196 459 210 442T259 408L297 386Q313 376 329 367T359 345Q392 316 406 285T420 208Q420 151 398 106T333 34Q321 26 310 21T287 12T259 7T223 4L206 -91H136L154 12Q117 20 93 39T54 83T33 138T23 195L127 226Q132 188 138 170T155 137Q177 107 218 107Q251 107 272 129T294 187Q294 213 280 230T225 271L176 300Q78 355 78 455Q78 498 91 533T127 595T184 636T260 655L274 735H345Z"  />
<glyph unicode="%" horiz-adv-x="578" d="M215 679Q311 676 311 553Q311 505 301 465T271 396T226 351T168 335Q120 335 93 369T65 463Q65 511 76 550T106 618T152 663T211 679H215H215ZM203 605Q192 604 183 592T166 560T154 513T150 458Q150 408 173 408Q184 408 193 420T210 453T222 502T227 561Q227 605 205 605H203H203ZM445 331Q541 328 541 205Q541 157 531 117T501 48T456 3T398 -13Q350 -13 323 21T295 115Q295 163 305 202T335 270T382 315T441 331H445H445ZM433 258Q422 257 413 245T396 212T384 165T379 110Q379 62 402 62Q413 62 422 74T439 106T451 154T456 213Q456 258 435 258H433H433ZM538 667L134 0H69L473 667H538Z"  />
<glyph unicode="&amp;" horiz-adv-x="562" d="M541 362Q535 338 530 321T520 290T509 264T496 238Q488 223 482 212T467 189T450 167T426 141Q437 126 446 120T468 113Q474 113 481 115T502 123L482 5Q465 -3 455 -4T432 -6Q393 -6 367 14Q359 19 353 25T335 46Q319 33 311 27T289 13Q243 -13 189 -13Q113 -13 68 36T23 168Q23 245 61 294T171 378Q155 421 150 447T144 500Q144 540 156 573T192 629T247 666T317 679Q382 679 421 639T460 530Q460 510 455 491T440 451Q432 433 422 419T398 392T364 366T319 339Q326 320 331 306T343 280T356 254T373 222Q381 234 386 243T397 261T406 279T417 302Q422 314 425 323T432 341T438 359T444 382L541 362ZM264 512Q264 489 267 469T281 425Q316 444 331 467T347 524Q347 552 337 567T307 583Q264 583 264 512ZM150 179Q150 143 169 122T221 101Q239 101 252 106T286 127Q278 140 267 162T245 208T224 253T209 286Q150 247 150 179Z"  />
<glyph unicode="&apos;" horiz-adv-x="204" d="M124 667H229L160 378H86L124 667Z"  />
<glyph unicode="(" horiz-adv-x="306" d="M342 667Q315 637 297 613T265 564T237 508T208 433Q179 356 166 280T152 121Q152 53 161 -10Q164 -33 167 -50T175 -85T186 -122T202 -167H117Q110 -154 105 -144T98 -128Q68 -62 51 21T33 182Q33 229 39 272T57 358T89 442T137 529Q152 554 164 571T188 604T214 633T247 667H342Z"  />
<glyph unicode=")" horiz-adv-x="306" d="M-36 -167Q-9 -137 9 -113T41 -64T69 -9T98 66Q127 143 141 219T155 378Q155 412 152 445T144 510Q141 533 138 551T131 586T120 622T104 667H190Q197 654 201 644T209 627Q224 594 236 557T256 479T268 398T273 318Q273 271 267 227T249 141T216 57T169 -29Q154 -54 142 -71T118 -104T93 -133T60 -167H-36Z"  />
<glyph unicode="*" horiz-adv-x="460" d="M338 660L308 545L408 594L433 516L329 488L420 424L372 359L292 441L284 321L205 334L234 450L134 400L109 478L213 507L123 570L171 636L250 554L258 673L338 660Z"  />
<glyph unicode="+" horiz-adv-x="460" d="M425 386V281H299V152H189V281H62V386H189V515H299V386H425Z"  />
<glyph unicode="&#x2c;" horiz-adv-x="221" d="M160 149L138 16L38 -154H-19L59 0H3L28 149H160Z"  />
<glyph unicode="-" horiz-adv-x="255" d="M236 328L217 220H28L46 328H236Z"  />
<glyph unicode="." horiz-adv-x="221" d="M160 149L135 0H3L28 149H160Z"  />
<glyph unicode="/" horiz-adv-x="357" d="M408 667L-6 -173H-85L328 667H408Z"  />
<glyph unicode="0" horiz-adv-x="460" d="M42 216Q42 304 55 380T92 521Q120 595 168 636T286 678Q438 678 438 456Q438 360 421 271T372 113Q345 51 299 19T193 -14Q116 -14 79 42T42 216ZM169 161Q169 123 178 107T210 91Q249 91 267 161Q271 179 275 198T282 239T289 287T297 347Q304 407 307 443T311 500Q311 540 303 557T277 574H275Q261 573 251 566T232 542T216 495T199 419Q193 386 188 350T178 279T172 213T169 161Z"  />
<glyph unicode="1" horiz-adv-x="460" d="M286 113H387L367 0H41L60 113H156L217 479Q191 467 164 461T93 455L113 580Q134 580 149 581T176 586T199 593T222 606Q242 618 253 631T279 670H380L286 113Z"  />
<glyph unicode="2" horiz-adv-x="460" d="M364 0H1L23 132Q53 153 84 179T143 233T194 286T234 332Q305 419 305 498Q305 561 260 561Q231 561 215 533Q210 525 207 518T201 500T195 474T186 434L63 466Q68 491 71 508T79 538T89 564T104 591Q129 634 170 656T267 679Q348 679 393 632T439 500Q439 394 370 310Q352 287 330 266T283 221Q266 205 253 194T227 171T198 148T161 121H385L364 0Z"  />
<glyph unicode="3" horiz-adv-x="460" d="M72 525Q94 601 141 639T269 679Q347 679 389 638T431 518Q431 439 389 391Q375 374 360 365T315 344Q337 333 347 325T369 303Q401 262 401 203Q401 184 398 164T388 123Q342 -13 198 -13Q150 -13 112 3T51 49Q41 62 34 74T23 100T15 132T9 177L120 204Q126 150 144 126T194 101Q226 101 245 129T265 204Q265 252 244 272T174 293H157L174 397Q182 397 191 397T205 396Q225 396 236 398T259 408Q277 419 288 448T300 513Q300 575 253 575Q227 575 210 555T179 488L72 525Z"  />
<glyph unicode="4" horiz-adv-x="460" d="M315 0H191L216 149H11L30 263L298 670H426L358 262H421L403 149H340L315 0ZM281 503L120 256H235L281 503Z"  />
<glyph unicode="5" horiz-adv-x="460" d="M428 548H219L185 397Q210 422 229 430T277 438Q342 438 378 390T414 256Q414 194 399 145T356 60T289 6T200 -13Q154 -13 117 4T57 52Q49 63 43 73T33 95T27 122T21 160L132 190Q141 101 200 101Q238 101 258 140T278 252Q278 334 222 334Q199 334 185 321T159 276L64 315L141 667H454L428 548Z"  />
<glyph unicode="6" horiz-adv-x="460" d="M331 473Q331 529 320 552T284 575Q261 575 246 558T218 500Q207 467 200 439Q196 423 194 408T187 362Q212 397 234 410T288 423Q345 423 378 377T412 251Q412 192 398 144T358 60T296 6T214 -13Q130 -13 87 43T44 211Q44 248 48 291T61 377T81 461T106 535Q135 604 184 641T298 679Q371 679 408 632T447 493L331 473ZM237 319Q205 319 188 281T171 174Q171 129 181 111T215 92Q243 92 255 118Q264 138 270 176T277 253Q277 319 237 319Z"  />
<glyph unicode="7" horiz-adv-x="460" d="M111 667H460L443 558Q426 537 414 522T391 489T369 451T341 397Q313 341 293 291T258 193T235 97T223 0H72Q82 52 90 90T109 161T133 224T166 294Q186 332 208 371T260 451Q270 466 278 477T295 498T313 520T336 546H88L111 667Z"  />
<glyph unicode="8" horiz-adv-x="460" d="M18 142Q18 229 73 286Q80 293 86 298T100 309T118 321T142 336Q110 371 98 405T86 474Q86 519 100 557T141 622T205 664T287 679Q359 679 400 639T442 528Q442 468 417 427T335 362Q378 323 391 285T404 207Q404 157 389 117T345 48T276 3T187 -13Q106 -13 62 27T18 142ZM208 499Q208 461 231 435Q239 425 248 419T277 401Q300 418 314 446T328 516Q328 551 315 570T276 590Q246 590 227 565T208 499ZM132 169Q132 125 152 101T207 77Q242 77 262 103T282 174Q282 210 264 234T200 287Q165 266 149 238T132 169Z"  />
<glyph unicode="9" horiz-adv-x="460" d="M122 178Q129 133 144 113T187 92Q219 92 237 118Q240 123 245 131T256 159T269 212T284 299Q265 272 245 260T195 248Q133 248 97 296T60 426Q60 482 75 528T117 608T182 660T266 679Q335 679 377 634Q405 604 417 560T429 446Q429 358 412 274T361 121Q328 52 284 20T176 -13Q109 -13 69 24Q49 42 39 65T20 132L122 178ZM196 427Q196 353 240 353Q264 353 278 376Q283 384 292 416T302 506Q302 539 291 557T260 575H258Q231 574 217 545Q213 536 209 522T202 492T198 459T196 427Z"  />
<glyph unicode=":" horiz-adv-x="221" d="M160 149L135 0H3L28 149H160ZM218 493L193 344H60L85 493H218Z"  />
<glyph unicode=";" horiz-adv-x="221" d="M160 149L138 16L38 -154H-19L59 0H3L28 149H160ZM218 493L193 344H60L85 493H218Z"  />
<glyph unicode="&lt;" horiz-adv-x="460" d="M422 594V473L176 333L422 193V73L64 282V385L422 594Z"  />
<glyph unicode="=" horiz-adv-x="460" d="M63 362V467H426V362H63ZM63 199V305H426V199H63Z"  />
<glyph unicode="&gt;" horiz-adv-x="460" d="M422 385V282L64 73V193L310 333L64 473V594L422 385Z"  />
<glyph unicode="?" horiz-adv-x="425" d="M74 509Q81 532 86 548T96 576T108 597T124 619Q172 679 267 679Q342 679 386 635T430 516Q430 485 422 454T396 399Q388 388 382 380T366 364T345 346T316 324Q294 308 284 298T266 275Q262 268 260 262T255 248T252 229T248 202H133Q137 253 146 285T170 340T202 377T241 410Q274 436 286 459T298 517Q298 577 250 577Q223 577 205 554T171 473L74 509ZM248 149L224 0H98L122 149H248Z"  />
<glyph unicode="@" horiz-adv-x="579" d="M407 303Q407 300 406 293T404 276T403 259T402 244Q402 224 409 217T429 210Q448 210 457 222T467 238Q473 251 477 268T484 305T488 344T489 379Q489 397 487 422T479 473T462 525T432 571T385 603T319 616Q269 616 232 593T171 530T136 439T124 333Q124 312 126 284T136 225T157 165T194 110Q225 75 261 64T335 52Q383 52 411 61T459 79L480 15Q445 -2 408 -10T332 -19Q257 -19 203 10T113 87T60 198T42 331Q42 403 60 467T114 581T201 659T319 688Q385 688 432 662T508 594T552 497T566 388Q566 347 558 303T531 222T485 162T417 138Q397 138 383 143T360 156T346 173T337 192Q333 183 329 174T317 156T299 143T273 138Q235 138 213 175T190 284Q190 324 197 364T219 437T256 490T308 511Q334 511 345 497T364 464L370 504H435L407 303ZM271 280Q271 248 276 237T292 225Q303 225 310 233T320 249Q328 270 333 305T339 371Q339 403 333 413T313 424Q302 424 294 409T281 372T274 325T271 280Z"  />
<glyph unicode="A" horiz-adv-x="460" d="M412 0H276L271 146H148L96 0H-36L226 667H366L412 0ZM267 260L263 432V454V484V506L258 483L250 459L244 438L187 260H267Z"  />
<glyph unicode="B" horiz-adv-x="494" d="M122 667H295Q384 667 430 627T477 509Q477 470 465 438T429 385Q414 372 399 365T353 348Q379 336 391 328T415 306Q432 287 441 260T450 201Q450 157 431 114Q404 54 352 27T212 0H11L122 667ZM210 394H238Q270 394 286 400T316 421Q328 435 335 455T342 496Q342 562 262 562H238L210 394ZM162 110H206Q256 110 282 134Q296 149 305 172T315 218Q315 294 224 294H193L162 110Z"  />
<glyph unicode="C" horiz-adv-x="460" d="M333 419Q335 440 335 452Q335 465 335 473Q335 521 325 541T289 561Q250 561 229 493Q219 460 211 421T196 341T186 261T182 191Q182 106 231 106Q258 106 275 135T307 232L431 208Q407 93 355 40T216 -13Q128 -13 82 47T36 222Q36 266 41 311T55 401T78 485T109 559Q139 618 185 648T292 679Q376 679 419 628T462 475Q462 468 462 457Q462 447 460 427L333 419Z"  />
<glyph unicode="D" horiz-adv-x="476" d="M122 667H251Q286 667 308 664T351 655Q368 650 381 641T408 618Q440 586 453 540T467 419Q467 316 445 232T378 88Q343 41 295 21T169 0H11L122 667ZM162 110H190Q261 110 293 200Q311 251 321 313T332 435Q332 501 315 529T259 558H237L162 110Z"  />
<glyph unicode="E" horiz-adv-x="425" d="M467 667L449 553H236L211 397H385L365 287H192L164 117H383L362 0H11L122 667H467Z"  />
<glyph unicode="F" horiz-adv-x="391" d="M452 667L432 553H236L208 383H369L351 272H190L144 0H11L122 667H452Z"  />
<glyph unicode="G" horiz-adv-x="476" d="M457 346L399 0H339L333 69Q311 26 281 7T204 -13Q119 -13 78 45T36 224Q36 264 40 306T53 390T73 469T100 540Q131 608 181 643T298 679Q380 679 426 632T472 499Q472 492 472 484T470 465L348 451Q349 463 349 469T350 483Q350 528 338 547T297 566Q263 566 243 537Q226 515 215 481T191 385Q181 328 177 285T172 197Q172 145 185 123T231 101Q267 101 287 132T319 236H255L273 346H457Z"  />
<glyph unicode="H" horiz-adv-x="477" d="M383 0H249L297 284H191L144 0H11L122 667H256L211 401H316L361 667H494L383 0Z"  />
<glyph unicode="I" horiz-adv-x="238" d="M256 667L144 0H11L122 667H256Z"  />
<glyph unicode="J" horiz-adv-x="306" d="M323 667L247 208Q239 158 230 128T207 71Q186 30 146 9T49 -13Q25 -13 9 -11T-33 0L-14 115Q3 110 12 108T32 106Q48 106 63 113T87 132Q93 139 97 145T104 162T110 185T116 219L190 667H323Z"  />
<glyph unicode="K" horiz-adv-x="460" d="M256 667L215 427L362 667H507L341 412L419 0H272L227 300L184 240L144 0H11L122 667H256Z"  />
<glyph unicode="L" horiz-adv-x="374" d="M256 667L164 117H335L316 0H11L122 667H256Z"  />
<glyph unicode="M" horiz-adv-x="647" d="M122 667H304L316 318Q317 301 317 277T317 220Q323 240 327 253T334 279T342 304T354 335L478 667H664L553 0H422L475 315Q481 351 491 402T512 506Q509 500 504 485T493 452T481 418T471 392L316 0H227L205 339Q204 352 204 374Q204 396 204 421Q204 447 205 472T207 517Q205 505 202 481T195 430T187 377T180 334L124 0H11L122 667Z"  />
<glyph unicode="N" horiz-adv-x="494" d="M122 667H257L325 385Q329 368 333 341T341 284Q346 319 349 355T358 427L397 667H511L399 0H293L210 350Q204 376 200 404T192 456Q190 439 189 419T186 380T182 342T177 309L124 0H11L122 667Z"  />
<glyph unicode="O" horiz-adv-x="476" d="M170 173Q170 101 215 101Q237 101 255 121T285 179Q295 209 303 248T318 329T327 411T331 485Q331 530 321 548T287 566Q249 566 224 499Q213 467 203 426T186 340T174 252T170 173ZM35 223Q35 304 50 383T92 526Q123 600 176 639T298 679H304Q466 674 466 451Q466 355 447 267T392 109Q361 49 314 18T206 -13Q121 -13 78 47T35 223Z"  />
<glyph unicode="P" horiz-adv-x="442" d="M272 667Q307 667 335 662T385 645Q424 626 445 583T466 480Q466 429 451 387T408 314T341 268T254 251H186L144 0H11L122 667H272ZM250 362Q290 362 310 393T331 484Q331 522 317 539T270 557H237L204 362H250Z"  />
<glyph unicode="Q" horiz-adv-x="476" d="M398 -127Q375 -132 363 -133T334 -135Q286 -135 260 -110T233 -36Q233 -31 233 -25Q233 -20 235 -11Q225 -12 217 -12T201 -13Q123 -13 81 48T38 223Q38 304 52 383T95 526Q125 599 179 639T300 679Q469 679 469 451Q469 354 450 266T395 109Q388 96 382 86T368 67T351 49T330 29V19Q330 -22 372 -22Q380 -22 388 -21T409 -17L398 -127ZM290 566Q252 566 227 499Q216 467 207 426T190 340T178 253T173 174Q173 101 218 101Q240 101 258 121T288 179Q298 209 306 248T321 329T330 412T334 486Q334 530 324 548T290 566Z"  />
<glyph unicode="R" horiz-adv-x="476" d="M292 667Q367 667 407 640Q439 620 456 581T473 487Q473 440 460 401T422 333Q410 319 397 310T358 290L412 0H266L234 267H189L144 0H11L122 667H292ZM240 372Q338 372 338 489Q338 562 268 562H238L206 372H240Z"  />
<glyph unicode="S" horiz-adv-x="443" d="M326 476Q317 521 301 541T257 561Q232 561 216 543T200 496Q200 478 210 460Q219 445 235 431T287 394Q306 382 319 373T341 356T359 341T375 324Q417 277 417 209Q417 160 402 120T359 50T293 4T209 -13Q122 -13 73 38T14 189L132 212Q134 183 138 170T151 141Q161 125 178 116T215 106Q247 106 264 126T282 183Q282 210 268 228T215 272Q188 290 171 301T143 322T124 338T108 355Q69 399 69 464Q69 510 83 549T123 617T183 662T259 679Q327 679 376 638T440 515L326 476Z"  />
<glyph unicode="T" horiz-adv-x="391" d="M446 667L427 549H313L221 0H88L180 549H65L85 667H446Z"  />
<glyph unicode="U" horiz-adv-x="477" d="M248 667L184 282Q179 254 177 239T174 221Q172 208 171 193T170 169Q170 136 183 121T225 106Q262 106 281 140Q291 159 299 191T317 286L382 667H500L436 282Q430 246 426 223T418 182T411 152T401 122Q356 -13 208 -13Q126 -13 84 32T41 165Q41 190 44 225T52 286L116 667H248Z"  />
<glyph unicode="V" horiz-adv-x="425" d="M71 667H212L218 294Q219 272 219 239Q219 206 217 178Q226 218 235 249T255 314L367 667H487L251 0H100L71 667Z"  />
<glyph unicode="W" horiz-adv-x="664" d="M76 667H213L210 366Q210 331 209 304T206 239Q215 274 221 299T236 351L340 667H464L470 366Q471 334 471 303T470 239Q477 269 481 288T490 322T497 348T504 374L593 667H716L489 0H373L360 351Q360 360 360 373Q360 387 360 401Q360 416 360 430T361 454Q353 424 348 401T334 356L213 0H100L76 667Z"  />
<glyph unicode="X" horiz-adv-x="442" d="M224 667L256 495L345 667H484L298 355L394 0H247L205 199L99 0H-35L163 344L76 667H224Z"  />
<glyph unicode="Y" horiz-adv-x="425" d="M201 667L252 426L370 667H496L293 279L246 0H108L155 286L65 667H201Z"  />
<glyph unicode="Z" horiz-adv-x="425" d="M467 667L450 563L156 117H385L365 0H-20L-3 106L293 553H83L101 667H467Z"  />
<glyph unicode="[" horiz-adv-x="289" d="M308 667L298 606H238L119 -107H187L177 -167H-5L135 667H308Z"  />
<glyph unicode="\" horiz-adv-x="357" d="M427 -167H345L96 667H178L427 -167Z"  />
<glyph unicode="]" horiz-adv-x="289" d="M-19 -167L-9 -107H51L170 606H102L112 667H293L155 -167H-19Z"  />
<glyph unicode="^" horiz-adv-x="460" d="M353 316L243 562L133 316H13L192 674H295L474 316H353Z"  />
<glyph unicode="_" horiz-adv-x="500" d="M500 -75V-125H0V-75H500Z"  />
<glyph unicode="`" horiz-adv-x="460" d="M352 596L317 548L167 643L217 713L352 596Z"  />
<glyph unicode="a" horiz-adv-x="408" d="M61 358Q78 431 123 469T241 507Q307 507 346 472T386 376Q386 356 383 335T375 288L346 110Q341 84 339 61T336 23Q336 18 336 13T338 0H226Q224 8 224 13T223 26Q223 30 223 36T224 50Q213 35 206 29T191 15Q166 -6 122 -6Q69 -6 40 25T10 111Q10 141 23 178Q45 239 95 269T241 308L259 310Q267 348 267 370Q267 420 232 420Q218 420 207 412T190 390Q188 385 187 381T184 371T181 359T177 339L61 358ZM143 130Q143 106 153 93T181 79Q221 79 241 195L247 238Q224 234 213 230T190 219Q169 205 156 180T143 130Z"  />
<glyph unicode="b" horiz-adv-x="391" d="M107 667H233L196 449Q216 478 233 489T275 500Q323 500 351 458T380 342Q380 294 370 238T341 128Q296 -6 199 -6Q178 -6 160 0T129 19Q121 27 115 37T103 69Q98 59 94 52T87 38T79 22T68 0H-5L107 667ZM248 339Q248 374 241 389T220 404Q201 404 190 381Q188 376 184 362T178 337L149 167Q147 156 146 147T144 133Q144 114 153 101T176 88Q192 88 202 107T224 174Q229 196 233 220T241 267T246 309T248 339Z"  />
<glyph unicode="c" horiz-adv-x="374" d="M258 307Q259 319 259 325T260 340Q260 411 224 411Q207 411 195 396T174 346Q170 328 167 313T160 280T154 242T148 194Q146 176 145 157T143 129Q143 82 177 82Q222 82 243 190L351 170Q334 79 288 33T167 -14Q116 -14 87 4T41 51T21 113T16 176Q16 251 31 312T73 416T140 483T228 507Q294 507 333 465T372 351Q372 343 372 336T369 315L258 307Z"  />
<glyph unicode="d" horiz-adv-x="391" d="M424 667L313 0H200L210 56Q181 19 161 7T113 -6Q64 -6 38 35T12 154Q12 225 25 288T63 398T118 472T186 500Q213 500 230 487T260 443L298 667H424ZM244 340Q245 346 245 352T246 363Q246 406 218 406Q200 406 188 377Q180 360 174 335T159 265Q154 242 152 224T147 192T145 165T144 141Q144 88 170 88Q201 88 218 186L244 340H244Z"  />
<glyph unicode="e" horiz-adv-x="391" d="M146 224L145 213Q143 185 143 175Q143 166 143 156Q143 114 151 98T179 82Q201 82 213 99T238 168L343 148Q339 133 336 122T330 103T324 86T315 69Q293 29 256 8T167 -14Q16 -14 16 184Q16 257 31 316T73 418T139 484T225 507Q295 507 330 461T366 324Q366 301 365 282T360 224H146ZM243 302Q245 324 246 341T247 370Q247 420 217 420Q195 420 180 392T155 302H243H243Z"  />
<glyph unicode="f" horiz-adv-x="255" d="M275 385H211L146 0H16L80 385H36L53 493H98Q108 554 117 584T134 628Q170 697 273 697Q288 697 301 696T335 692L316 582Q309 582 302 582T287 583Q273 583 264 580T248 567T236 539T225 493H293L275 385Z"  />
<glyph unicode="g" horiz-adv-x="409" d="M409 512Q399 513 394 513Q390 513 385 513Q366 513 357 505T340 470Q366 450 377 424T388 359Q388 284 344 239T226 194Q207 194 196 196T165 205Q148 192 141 182T133 161Q133 149 140 142Q147 133 160 129T213 120Q224 118 232 117T246 115Q273 110 291 103T321 84Q336 69 345 46T354 -2Q354 -83 295 -130T132 -178Q57 -178 17 -150T-24 -70Q-24 -33 -4 -10T63 34Q22 62 22 114Q22 152 42 180T109 233Q104 238 101 242T95 249Q80 266 73 289T65 339Q65 375 77 406T112 459T164 494T231 507Q251 507 263 505T293 494Q308 556 330 581T393 606Q398 606 403 606Q409 606 418 604L409 512ZM234 427Q186 425 186 328Q186 299 194 287T221 274Q268 274 268 377Q268 427 235 427H234H234ZM116 11Q81 -7 81 -43Q81 -91 153 -91Q193 -91 217 -77T242 -39Q242 -25 234 -15T210 -2Q192 3 165 6T116 11Z"  />
<glyph unicode="h" horiz-adv-x="391" d="M201 447Q221 479 241 493T292 507Q332 507 354 483T377 415Q377 401 375 379T367 328L313 0H189L241 315Q243 328 245 345T248 376Q248 404 228 404Q208 404 195 379T171 292L122 0H-5L107 667H237L201 447Z"  />
<glyph unicode="i" horiz-adv-x="204" d="M208 493L125 0H-5L77 493H208ZM108 674H238L215 538H85L108 674Z"  />
<glyph unicode="j" horiz-adv-x="204" d="M208 493L129 23Q124 -8 120 -30T112 -68T102 -96T91 -120Q59 -183 -36 -183Q-53 -183 -65 -182T-101 -176L-84 -67Q-70 -69 -66 -69Q-63 -69 -58 -69Q-46 -69 -37 -65T-22 -51T-11 -22T-1 26L77 493H208ZM108 674H238L215 538H85L108 674Z"  />
<glyph unicode="k" horiz-adv-x="391" d="M237 667L185 351L291 493H423L283 328L356 0H222L183 236L161 209L126 0H-5L107 667H237Z"  />
<glyph unicode="l" horiz-adv-x="204" d="M237 667L125 0H-5L107 667H237Z"  />
<glyph unicode="m" horiz-adv-x="579" d="M78 493H198L188 434Q208 474 232 490T291 507Q327 507 346 490T375 430Q398 472 421 489T478 507Q518 507 541 483T565 418Q565 412 564 398T560 366T555 333T551 308L500 0H376L428 308Q432 328 434 346T436 372Q436 405 412 405Q392 405 382 385T362 308L311 0H188L239 308Q241 320 245 342T249 376Q249 404 227 404Q207 404 195 381T173 303L122 0H-5L78 493Z"  />
<glyph unicode="n" horiz-adv-x="391" d="M78 493H198L188 434Q213 474 236 490T290 507Q332 507 354 482T376 412Q376 397 373 371T363 304L313 0H189L239 304Q242 324 244 344T247 376Q247 404 226 404Q206 404 195 382T174 304L122 0H-5L78 493Z"  />
<glyph unicode="o" horiz-adv-x="391" d="M17 190Q17 263 31 321T73 421T138 485T224 507H235Q263 507 288 495T333 458T363 397T374 312Q374 256 364 203T335 105Q312 48 269 17T169 -14Q17 -14 17 190ZM247 364Q247 411 220 411Q210 411 203 406T189 390T178 358T167 308Q163 287 159 259T152 205T146 156T144 123Q144 82 171 82Q181 82 188 87T202 106T214 141T226 198Q230 220 234 244T241 291T245 333T247 364Z"  />
<glyph unicode="p" horiz-adv-x="391" d="M197 493L187 431Q207 467 227 483T274 500Q323 500 350 455T377 330Q377 263 363 195T325 76Q305 37 275 15T207 -7Q199 -7 191 -6T175 -2Q160 4 151 13T129 42L94 -167H-32L78 493H197ZM148 160Q146 148 145 142T144 132Q144 112 152 100T174 88Q189 88 200 107T224 171Q233 207 239 253T245 335Q245 374 239 389T216 405Q205 405 196 394T184 369L180 348L148 160Z"  />
<glyph unicode="q" horiz-adv-x="391" d="M397 498Q393 484 391 473T386 449T381 421T374 384L359 296L282 -167H155L190 41Q181 27 176 21T160 8Q139 -6 111 -6Q63 -6 38 34T12 153Q12 227 26 290T64 400T122 473T195 500Q253 500 284 429Q290 439 294 446T302 460T309 477T316 498H397ZM236 322Q239 335 240 347T242 365Q242 382 235 393T216 404Q190 404 176 351Q169 327 164 299T154 244T147 191T144 149Q144 88 170 88Q186 88 196 111Q199 119 201 125T206 141T210 162T215 194L236 322H236Z"  />
<glyph unicode="r" horiz-adv-x="289" d="M193 493L175 388Q184 407 190 420T203 442T215 459T228 474Q256 500 294 500Q302 500 306 500Q311 500 321 498L297 357Q289 359 285 359Q281 359 276 359Q251 359 233 348T199 312T172 246T150 144L126 0H-5L78 493H193Z"  />
<glyph unicode="s" horiz-adv-x="357" d="M258 347Q250 382 237 398T201 414Q184 414 172 401T159 368Q159 353 166 342Q171 332 180 326T215 305Q261 279 286 257Q329 217 329 153Q329 77 284 32T162 -14Q88 -14 47 19T-9 121L95 150Q114 79 160 79Q182 79 195 94T209 133Q209 150 198 163T158 193L121 215Q79 240 60 272T40 346Q40 381 52 410T87 461T140 495T208 507Q330 507 351 381L258 347Z"  />
<glyph unicode="t" horiz-adv-x="289" d="M287 385H213L180 188Q178 177 176 160T173 132Q173 100 216 100Q224 100 229 100T249 103L231 -5Q210 -10 191 -12T151 -14Q96 -14 67 14T37 93Q37 97 37 103T39 120T43 148T50 191L82 385H30L48 493H106L133 633L255 637L230 493H306L287 385Z"  />
<glyph unicode="u" horiz-adv-x="392" d="M307 0H189L198 56Q184 35 176 25T154 5Q129 -14 97 -14Q58 -14 36 12T13 85Q13 123 22 177L75 494H199L146 177Q142 153 140 136T137 111Q137 89 159 89Q177 89 189 110Q197 123 202 142T213 197L263 494H390L307 0Z"  />
<glyph unicode="v" horiz-adv-x="358" d="M187 0H78L38 493H164L169 301Q170 270 171 240T171 179Q178 214 188 244T207 304L267 493H374L187 0Z"  />
<glyph unicode="w" horiz-adv-x="546" d="M385 0H274L271 236Q271 246 271 256T272 277T274 302T276 337Q266 287 257 259T244 217L178 0H69L42 493H165L167 288Q167 280 167 265T165 231T163 193T161 157Q170 199 178 226T194 282L259 493H373L372 281Q372 267 371 236T367 165Q378 220 387 248T401 294L467 493H565L385 0Z"  />
<glyph unicode="x" horiz-adv-x="358" d="M245 270L318 0H184L156 132L74 0H-43L121 245L52 493H187L211 382L278 493H392L245 270Z"  />
<glyph unicode="y" horiz-adv-x="389" d="M201 -4Q187 -39 177 -62T156 -102T136 -129T112 -150Q94 -164 73 -169T22 -175Q12 -175 6 -175T-11 -172L2 -60Q10 -61 14 -61T24 -62Q42 -62 55 -59T77 -45T95 -18T111 25L54 493H184L195 314Q197 293 197 261Q197 229 198 200Q206 241 213 268T227 314L288 493H398L201 -4Z"  />
<glyph unicode="z" horiz-adv-x="340" d="M333 394L139 98H288L272 0H-18L-1 96L195 394H57L74 493H350L333 394Z"  />
<glyph unicode="{" horiz-adv-x="289" d="M30 282Q39 283 47 285T62 296T76 320T88 366L114 521Q118 544 122 564T132 602T149 632T176 654Q184 658 192 661T213 665T249 666T306 667L297 612Q276 612 264 609T245 596T234 568T225 521L199 366Q193 333 186 313T170 280T149 261T122 248Q131 245 139 241T153 231T163 214T167 187Q167 182 167 178T166 167T164 152T159 126L140 17Q136 -5 134 -18T131 -41T130 -58T129 -73Q129 -88 132 -96T141 -109T155 -115T175 -117L166 -167Q131 -166 110 -165T76 -162T55 -157T40 -148Q23 -134 19 -116T15 -89Q15 -81 16 -68T20 -40T24 -10T29 17L49 132Q51 143 52 154T53 178Q53 199 45 208T20 221L30 282Z"  />
<glyph unicode="|" horiz-adv-x="500" d="M328 -250H200V750H328V-250Z"  />
<glyph unicode="}" horiz-adv-x="289" d="M259 218Q250 217 242 215T227 204T213 180T201 134L175 -21Q171 -44 167 -64T157 -102T140 -132T113 -154Q105 -159 97 -161T75 -165T40 -166T-17 -167L-8 -112Q13 -112 25 -109T44 -96T55 -68T64 -21L90 134Q96 167 103 187T119 220T140 239T167 252Q158 255 150 259T136 269T126 286T122 313Q122 318 122 322T123 333T125 348T130 374L149 483Q153 505 155 518T158 541T159 558T160 573Q160 588 157 596T148 609T134 615T114 617L123 667Q157 666 178 665T213 662T233 657T249 648Q266 634 270 616T274 589Q274 581 273 568T269 540T265 510T260 483L240 368Q238 357 237 346T236 322Q236 301 244 292T269 279L259 218Z"  />
<glyph unicode="~" horiz-adv-x="460" d="M9 291Q21 315 27 328T38 349T46 362T56 374Q70 391 93 405T154 420Q158 420 164 420T182 417T209 410T252 395Q270 388 282 384T303 377T319 373T334 372Q349 372 359 376T378 388T392 404T403 424L472 375Q463 356 451 334T422 292T380 261T321 248Q316 248 310 248T294 251T268 259T224 274Q189 286 174 291T146 296Q116 296 102 279T77 238L9 291Z"  />
<glyph unicode="&#xA0;" horiz-adv-x="221" />
<glyph unicode="&#xA1;" horiz-adv-x="306" d="M6 -174L122 291H198L158 -174H6ZM106 343L131 493H257L232 343H106Z"  />
<glyph unicode="&#xA2;" horiz-adv-x="460" d="M223 -29H161L184 107Q133 127 111 171T88 296Q88 356 102 411T143 507Q164 538 193 557T263 581L280 677H340L324 573Q355 563 373 544T401 501T414 451T417 403L309 394Q309 407 309 415T310 430Q310 480 282 480Q273 480 266 475T252 456T240 420T228 364Q222 332 219 299T215 247Q215 208 244 208Q261 208 271 225T290 286L394 267Q389 242 380 214T354 162T310 120T244 98L223 -29Z"  />
<glyph unicode="&#xA3;" horiz-adv-x="460" d="M324 305H247Q244 234 216 187T155 113H222Q248 113 263 116T293 128Q333 151 348 218L450 178Q442 153 436 137T424 108T409 84T390 60Q363 29 322 14Q300 6 278 3T214 0H-44L-26 115H10Q28 115 47 124T82 155T108 213T120 305H49L65 404H123Q123 430 125 455T132 504Q162 679 310 679Q381 679 416 636Q429 619 435 603T450 551L351 502Q342 561 308 561Q284 561 272 537Q267 528 264 517T259 491T256 455T254 404H340L324 305Z"  />
<glyph unicode="&#xA4;" horiz-adv-x="460" d="M372 529L435 466L377 408Q385 394 390 379T396 334Q396 306 391 291T378 261L436 202L370 137L312 195Q298 188 282 183T238 177Q211 177 193 184T164 196L106 138L43 201L101 259Q96 270 89 287T82 334Q82 362 87 377T100 406L42 465L107 530L166 472Q174 476 192 483T239 490Q268 490 285 484T314 471L372 529ZM239 274Q264 274 281 291T299 333Q299 359 282 376T239 393Q215 393 197 376T179 333Q179 308 196 291T239 274Z"  />
<glyph unicode="&#xA5;" horiz-adv-x="460" d="M445 344H335L305 287H435L425 226H292L254 0H116L153 226H20L30 287H163L149 344H40L50 405H135L73 667H209L260 426L378 667H504L367 405H455L445 344Z"  />
<glyph unicode="&#xA6;" horiz-adv-x="500" d="M200 675H328V325H200V675ZM200 175H328V-175H200V175Z"  />
<glyph unicode="&#xA7;" horiz-adv-x="460" d="M339 523Q332 557 320 570T281 583Q255 583 240 569T224 531Q224 520 228 509T241 489Q249 481 260 472T293 449Q310 438 322 429T346 412Q399 371 399 299Q399 245 371 201Q362 187 353 178T322 150Q352 121 363 94T374 25Q374 -20 360 -57T319 -121T256 -163T174 -178Q132 -178 99 -163T43 -121Q29 -102 22 -84T9 -29L114 0Q126 -82 190 -82Q220 -82 237 -64T255 -13Q255 16 236 40Q227 51 212 60T166 85Q149 94 135 102T109 119Q83 138 70 166T56 230Q56 262 66 294T94 350Q98 355 102 359T111 368T124 380T144 397Q124 421 115 446T105 503Q105 542 118 574T155 629T212 666T285 679Q360 679 400 636Q414 620 421 604T436 556L339 523ZM202 352Q180 335 171 321T161 289Q161 247 216 217L247 201L259 194Q278 211 285 226T293 260Q293 279 283 293T247 324L214 344L202 352H202Z"  />
<glyph unicode="&#xA8;" horiz-adv-x="460" d="M221 560Q198 560 183 575T167 613Q167 636 182 651T222 666Q245 666 258 652T272 615Q272 590 258 575T221 560ZM362 560Q339 560 324 575T309 613Q309 636 324 651T363 666Q386 666 400 652T414 615Q414 590 400 575T362 560Z"  />
<glyph unicode="&#xA9;" horiz-adv-x="736" d="M789 387Q789 300 752 226T656 99T525 16T380 -14Q321 -14 268 6T174 65T109 157T85 281Q85 353 117 424T204 553T334 645T494 680Q559 680 613 658T706 596T767 503T789 387ZM730 381Q730 432 712 476T662 553T584 603T485 622Q425 622 369 600T267 538T190 446T148 333Q146 319 145 306T144 279Q145 229 164 186T215 112T292 62T389 44Q450 44 511 70T621 142T700 249T730 381ZM498 382Q501 407 501 425Q501 450 492 460T463 471Q449 471 439 464T421 441T406 398T392 330Q387 304 386 284T384 249Q384 222 392 212T418 201Q443 201 456 218T482 282L557 276Q538 201 501 166T403 130Q346 130 319 164T292 269Q292 273 293 294T300 346T317 411T349 474T400 523T474 542Q537 542 561 507T577 388L498 382Z"  />
<glyph unicode="&#xAA;" horiz-adv-x="425" d="M136 573Q163 679 269 679Q319 679 348 655T377 589Q377 573 374 557L370 534L351 422Q348 402 347 392T345 374Q345 367 345 362T348 346H260Q258 353 258 356Q258 359 258 364V375Q237 355 223 349T188 342Q150 342 128 363T105 423Q105 446 114 466T140 503Q160 523 189 533T269 548L277 549Q279 556 280 566T281 584Q281 612 261 612Q249 612 243 604T235 583L230 560L136 573ZM209 433Q209 408 229 408Q243 408 250 423T265 476L269 499Q240 494 225 477T209 433Z"  />
<glyph unicode="&#xAB;" horiz-adv-x="340" d="M220 108L165 254L259 405H327L264 254L284 108H220ZM84 108L29 254L121 405H190L128 254L148 108H84Z"  />
<glyph unicode="&#xAC;" horiz-adv-x="460" d="M316 362H63V467H426V199H316V362Z"  />
<glyph unicode="&#xAD;" horiz-adv-x="255" d="M236 328L217 220H28L46 328H236Z"  />
<glyph unicode="&#xAE;" horiz-adv-x="736" d="M259 586H325Q334 586 347 585T371 578T390 559T393 520Q388 491 376 479T353 461L375 367H318L304 450H290L277 367H223L259 586ZM297 492H305Q320 492 331 499T342 527Q342 541 333 543T306 546L297 492ZM511 514Q511 457 489 413T432 337T356 290T275 274Q238 274 207 286T154 321T119 373T106 439Q106 494 128 537T185 611T261 658T341 674Q378 674 409 661T462 626T498 574T511 514ZM333 623Q303 623 273 610T217 574T176 520T160 451Q160 393 195 359T284 325Q313 325 343 337T399 373T440 428T456 499Q456 525 447 548T422 587T383 613T333 623Z"  />
<glyph unicode="&#xAF;" horiz-adv-x="460" d="M414 646L403 581H167L178 646H414Z"  />
<glyph unicode="&#xB0;" horiz-adv-x="460" d="M115 528Q115 560 127 587T160 635T207 666T262 677Q293 677 320 665T368 633T399 585T411 528Q411 496 399 469T366 421T319 390T263 378Q234 378 208 389T161 420T128 467T115 528ZM198 528Q198 499 216 476T263 453Q293 453 310 476T328 528Q328 557 311 579T264 602Q247 602 235 595T214 578T202 554T198 528Z"  />
<glyph unicode="&#xB1;" horiz-adv-x="460" d="M62 0V105H425V0H62ZM425 386V281H299V152H189V281H62V386H189V515H299V386H425Z"  />
<glyph unicode="&#xB2;" horiz-adv-x="306" d="M284 267H40L55 352Q101 383 133 412T189 469Q211 493 220 515T230 560Q230 594 207 594Q194 594 184 581Q179 572 175 561T165 519L76 539Q81 572 86 587T103 619Q137 674 211 674Q267 674 298 645T329 561Q329 501 284 450Q262 426 232 399T170 351H299L284 267Z"  />
<glyph unicode="&#xB3;" horiz-adv-x="306" d="M78 575Q97 628 128 650T211 673Q265 673 293 648T321 573Q321 537 305 511T258 473Q305 444 305 390Q305 331 268 295T170 259Q139 259 114 269T72 297Q65 305 61 312T53 328T47 349T41 380L124 398Q133 337 168 337Q186 337 196 351T207 389Q207 438 152 438H135L147 510Q157 509 162 509Q167 509 171 509Q200 509 212 523T225 569Q225 602 200 602Q185 602 176 591T157 549L78 575Z"  />
<glyph unicode="&#xB4;" horiz-adv-x="460" d="M417 640L251 551L219 598L378 709L417 640Z"  />
<glyph unicode="&#xB5;" horiz-adv-x="392" d="M307 -1H189L198 55Q184 34 166 13T115 -12L88 -167H-35L75 492H199L146 175Q142 151 140 134T137 109Q137 87 159 87Q177 87 189 108Q197 121 202 140T213 195L263 492H390L307 -1Z"  />
<glyph unicode="&#xB6;" horiz-adv-x="450" d="M410 -167H340V588H291V-167H221V258Q192 258 159 264T96 291T48 353T29 466Q29 489 32 513T44 561T67 604T103 640Q132 660 171 663T244 667H410V-167Z"  />
<glyph unicode="&#xB7;" horiz-adv-x="221" d="M71 408H203L178 259H46L71 408Z"  />
<glyph unicode="&#xB8;" horiz-adv-x="460" d="M220 -48Q261 -50 279 -65T297 -116Q297 -156 268 -182T193 -208Q167 -208 146 -200T104 -174L125 -130Q143 -144 156 -149T183 -155Q200 -155 209 -146T219 -119Q219 -85 182 -85Q170 -85 151 -88L196 0H241L220 -48Z"  />
<glyph unicode="&#xB9;" horiz-adv-x="306" d="M287 267H59L72 344H137L171 543Q149 536 138 534T108 532Q104 532 100 532T92 533L106 615Q120 615 130 616T148 618T163 623T178 630Q189 635 196 643T213 669H287L233 344H300L287 267Z"  />
<glyph unicode="&#xBA;" horiz-adv-x="425" d="M109 477Q109 571 148 625T256 679H264Q314 677 341 643T368 546Q368 449 329 393T222 337Q109 337 109 477ZM210 434Q210 410 224 410Q234 410 240 424T254 478Q259 506 263 535T267 583Q267 606 253 606Q242 606 237 594T224 547Q221 533 219 516T214 482T211 453T210 434Z"  />
<glyph unicode="&#xBB;" horiz-adv-x="340" d="M122 405L178 258L85 108H17L78 258L58 405H122ZM259 405L314 258L221 108H153L215 258L195 405H259Z"  />
<glyph unicode="&#xBC;" horiz-adv-x="800" d="M287 267H59L72 344H137L171 543Q149 536 138 534T108 532Q104 532 100 532T92 533L106 615Q120 615 130 616T148 618T163 623T178 630Q189 635 196 643T213 669H287L233 344H300L287 267ZM653 667L249 0H180L584 667H653ZM601 87H455L469 158L656 402H756L708 157H752L740 87H696L678 0H583L601 87ZM646 302L534 154H614L646 302Z"  />
<glyph unicode="&#xBD;" horiz-adv-x="825" d="M287 267H59L72 344H137L171 543Q149 536 138 534T108 532Q104 532 100 532T92 533L106 615Q120 615 130 616T148 618T163 623T178 630Q189 635 196 643T213 669H287L233 344H300L287 267ZM249 0H180L584 667H653L249 0ZM741 7H497L512 92Q558 123 590 152T646 209Q668 233 677 255T687 300Q687 334 664 334Q651 334 641 321Q636 312 632 301T622 259L533 279Q538 312 543 327T560 359Q594 414 668 414Q724 414 755 385T786 301Q786 241 741 190Q719 166 689 139T627 91H756L741 7Z"  />
<glyph unicode="&#xBE;" horiz-adv-x="800" d="M78 575Q97 628 128 650T211 673Q265 673 293 648T321 573Q321 537 305 511T258 473Q305 444 305 390Q305 331 268 295T170 259Q139 259 114 269T72 297Q65 305 61 312T53 328T47 349T41 380L124 398Q133 337 168 337Q186 337 196 351T207 389Q207 438 152 438H135L147 510Q157 509 162 509Q167 509 171 509Q200 509 212 523T225 569Q225 602 200 602Q185 602 176 591T157 549L78 575ZM249 0H180L584 667H653L249 0ZM601 87H455L469 158L656 402H756L708 157H752L740 87H696L678 0H583L601 87ZM646 302L534 154H614L646 302Z"  />
<glyph unicode="&#xBF;" horiz-adv-x="425" d="M351 -16Q344 -39 339 -55T329 -83T317 -104T301 -126Q253 -186 158 -186Q83 -186 39 -142T-5 -23Q-5 8 3 39T29 94Q36 104 43 112T59 129T80 147T109 169Q131 185 141 195T159 218Q166 231 169 245T177 291H292Q288 240 279 208T255 153T223 115T184 83Q151 57 139 34T127 -24Q127 -84 175 -84Q202 -84 220 -61T254 20L351 -16ZM176 343L201 493H328L302 343H176Z"  />
<glyph unicode="&#xC0;" horiz-adv-x="460" d="M412 0H276L271 146H148L96 0H-36L226 667H366L412 0ZM267 260L263 432V454V484V506L258 483L250 459L244 438L187 260H267ZM355 766L320 718L170 813L220 883L355 766Z"  />
<glyph unicode="&#xC1;" horiz-adv-x="460" d="M412 0H276L271 146H148L96 0H-36L226 667H366L412 0ZM267 260L263 432V454V484V506L258 483L250 459L244 438L187 260H267ZM455 810L289 721L257 768L416 879L455 810Z"  />
<glyph unicode="&#xC2;" horiz-adv-x="460" d="M412 0H276L271 146H148L96 0H-36L226 667H366L412 0ZM267 260L263 432V454V484V506L258 483L250 459L244 438L187 260H267ZM321 860L431 727H352L306 769L254 727H171L321 860Z"  />
<glyph unicode="&#xC3;" horiz-adv-x="460" d="M412 0H276L271 146H148L96 0H-36L226 667H366L412 0ZM267 260L263 432V454V484V506L258 483L250 459L244 438L187 260H267ZM437 803Q390 734 339 734Q319 734 294 749Q277 759 270 761T251 764Q237 764 227 759T201 739L170 782Q194 812 214 824T260 837Q273 837 283 834T312 821Q328 813 336 810T355 807Q369 807 380 816T406 843L437 803Z"  />
<glyph unicode="&#xC4;" horiz-adv-x="460" d="M412 0H276L271 146H148L96 0H-36L226 667H366L412 0ZM267 260L263 432V454V484V506L258 483L250 459L244 438L187 260H267ZM236 730Q213 730 198 745T182 783Q182 806 197 821T237 836Q260 836 273 822T287 785Q287 760 273 745T236 730ZM377 730Q354 730 339 745T324 783Q324 806 339 821T378 836Q401 836 415 822T429 785Q429 760 415 745T377 730Z"  />
<glyph unicode="&#xC5;" horiz-adv-x="460" d="M412 0H276L271 146H148L96 0H-36L226 667H366L412 0ZM267 260L263 432V454V484V506L258 483L250 459L244 438L187 260H267ZM310 711Q290 711 273 718T243 738T223 768T215 805Q215 845 242 873T310 901Q330 901 347 894T378 873T398 843T406 806Q406 766 378 739T310 711ZM310 769Q326 769 336 779T347 806Q347 821 337 832T310 843Q295 843 285 832T274 806Q274 790 284 780T310 769Z"  />
<glyph unicode="&#xC6;" horiz-adv-x="646" d="M564 0H242L270 169H161L84 0H-44L273 667H676L657 553H468L441 397H594L575 287H423L394 117H584L564 0ZM338 574L207 282H289L338 574Z"  />
<glyph unicode="&#xC7;" horiz-adv-x="460" d="M431 208Q408 101 361 48T236 -11L220 -48Q261 -50 279 -65T297 -116Q297 -156 268 -182T193 -208Q167 -208 146 -200T104 -174L125 -130Q143 -144 156 -149T183 -155Q200 -155 209 -146T219 -119Q219 -85 182 -85Q170 -85 151 -88L191 -10Q115 -2 76 57T36 222Q36 266 41 311T55 401T78 485T109 559Q139 618 185 648T292 679Q376 679 419 628T462 475Q462 468 462 457Q462 447 460 427L333 419Q335 440 335 452Q335 465 335 473Q335 521 325 541T289 561Q250 561 229 493Q219 460 211 421T196 341T186 261T182 191Q182 106 231 106Q258 106 275 135T307 232L431 208Z"  />
<glyph unicode="&#xC8;" horiz-adv-x="425" d="M467 667L449 553H236L211 397H385L365 287H192L164 117H383L362 0H11L122 667H467ZM374 766L339 718L189 813L239 883L374 766Z"  />
<glyph unicode="&#xC9;" horiz-adv-x="425" d="M467 667L449 553H236L211 397H385L365 287H192L164 117H383L362 0H11L122 667H467ZM444 810L278 721L246 768L405 879L444 810Z"  />
<glyph unicode="&#xCA;" horiz-adv-x="425" d="M467 667L449 553H236L211 397H385L365 287H192L164 117H383L362 0H11L122 667H467ZM325 860L435 727H356L310 769L258 727H175L325 860Z"  />
<glyph unicode="&#xCB;" horiz-adv-x="425" d="M467 667L449 553H236L211 397H385L365 287H192L164 117H383L362 0H11L122 667H467ZM239 730Q216 730 201 745T185 783Q185 806 200 821T240 836Q263 836 276 822T290 785Q290 760 276 745T239 730ZM380 730Q357 730 342 745T327 783Q327 806 342 821T381 836Q404 836 418 822T432 785Q432 760 418 745T380 730Z"  />
<glyph unicode="&#xCC;" horiz-adv-x="238" d="M256 667L144 0H11L122 667H256ZM264 766L229 718L79 813L129 883L264 766Z"  />
<glyph unicode="&#xCD;" horiz-adv-x="238" d="M256 667L144 0H11L122 667H256ZM345 810L179 721L147 768L306 879L345 810Z"  />
<glyph unicode="&#xCE;" horiz-adv-x="238" d="M256 667L144 0H11L122 667H256ZM218 860L328 727H249L203 769L151 727H68L218 860Z"  />
<glyph unicode="&#xCF;" horiz-adv-x="238" d="M256 667L144 0H11L122 667H256ZM134 730Q111 730 96 745T80 783Q80 806 95 821T135 836Q158 836 171 822T185 785Q185 760 171 745T134 730ZM275 730Q252 730 237 745T222 783Q222 806 237 821T276 836Q299 836 313 822T327 785Q327 760 313 745T275 730Z"  />
<glyph unicode="&#xD0;" horiz-adv-x="476" d="M251 667Q286 667 309 664T351 655Q385 644 408 618Q440 586 453 540T467 419Q467 316 445 232T378 88Q343 41 295 21T169 0H11L60 294H7L23 386H75L122 667H251ZM190 110Q261 110 293 200Q311 251 321 313T332 435Q332 501 315 529T259 558H237L208 386H279L263 294H193L162 110H190Z"  />
<glyph unicode="&#xD1;" horiz-adv-x="494" d="M122 667H257L325 385Q329 368 333 341T341 284Q346 319 349 355T358 427L397 667H511L399 0H293L210 350Q204 376 200 404T192 456Q190 439 189 419T186 380T182 342T177 309L124 0H11L122 667ZM460 803Q413 734 362 734Q342 734 317 749Q300 759 293 761T274 764Q260 764 250 759T224 739L193 782Q217 812 237 824T283 837Q296 837 306 834T335 821Q351 813 359 810T378 807Q392 807 403 816T429 843L460 803Z"  />
<glyph unicode="&#xD2;" horiz-adv-x="476" d="M170 173Q170 101 215 101Q237 101 255 121T285 179Q295 209 303 248T318 329T327 411T331 485Q331 530 321 548T287 566Q249 566 224 499Q213 467 203 426T186 340T174 252T170 173ZM35 223Q35 304 50 383T92 526Q123 600 176 639T298 679H304Q466 674 466 451Q466 355 447 267T392 109Q361 49 314 18T206 -13Q121 -13 78 47T35 223ZM377 766L342 718L192 813L242 883L377 766Z"  />
<glyph unicode="&#xD3;" horiz-adv-x="476" d="M170 173Q170 101 215 101Q237 101 255 121T285 179Q295 209 303 248T318 329T327 411T331 485Q331 530 321 548T287 566Q249 566 224 499Q213 467 203 426T186 340T174 252T170 173ZM35 223Q35 304 50 383T92 526Q123 600 176 639T298 679H304Q466 674 466 451Q466 355 447 267T392 109Q361 49 314 18T206 -13Q121 -13 78 47T35 223ZM446 810L280 721L248 768L407 879L446 810Z"  />
<glyph unicode="&#xD4;" horiz-adv-x="476" d="M170 173Q170 101 215 101Q237 101 255 121T285 179Q295 209 303 248T318 329T327 411T331 485Q331 530 321 548T287 566Q249 566 224 499Q213 467 203 426T186 340T174 252T170 173ZM35 223Q35 304 50 383T92 526Q123 600 176 639T298 679H304Q466 674 466 451Q466 355 447 267T392 109Q361 49 314 18T206 -13Q121 -13 78 47T35 223ZM327 860L437 727H358L312 769L260 727H177L327 860Z"  />
<glyph unicode="&#xD5;" horiz-adv-x="476" d="M170 173Q170 101 215 101Q237 101 255 121T285 179Q295 209 303 248T318 329T327 411T331 485Q331 530 321 548T287 566Q249 566 224 499Q213 467 203 426T186 340T174 252T170 173ZM35 223Q35 304 50 383T92 526Q123 600 176 639T298 679H304Q466 674 466 451Q466 355 447 267T392 109Q361 49 314 18T206 -13Q121 -13 78 47T35 223ZM457 803Q410 734 359 734Q339 734 314 749Q297 759 290 761T271 764Q257 764 247 759T221 739L190 782Q214 812 234 824T280 837Q293 837 303 834T332 821Q348 813 356 810T375 807Q389 807 400 816T426 843L457 803Z"  />
<glyph unicode="&#xD6;" horiz-adv-x="476" d="M170 173Q170 101 215 101Q237 101 255 121T285 179Q295 209 303 248T318 329T327 411T331 485Q331 530 321 548T287 566Q249 566 224 499Q213 467 203 426T186 340T174 252T170 173ZM35 223Q35 304 50 383T92 526Q123 600 176 639T298 679H304Q466 674 466 451Q466 355 447 267T392 109Q361 49 314 18T206 -13Q121 -13 78 47T35 223ZM250 730Q227 730 212 745T196 783Q196 806 211 821T251 836Q274 836 287 822T301 785Q301 760 287 745T250 730ZM391 730Q368 730 353 745T338 783Q338 806 353 821T392 836Q415 836 429 822T443 785Q443 760 429 745T391 730Z"  />
<glyph unicode="&#xD7;" horiz-adv-x="460" d="M343 507L418 432L320 335L420 236L341 158L242 257L144 159L70 235L167 331L68 431L146 509L246 409L343 507Z"  />
<glyph unicode="&#xD8;" horiz-adv-x="476" d="M428 618Q451 585 460 548T469 451Q469 355 450 267T395 109Q364 49 317 18T209 -13Q179 -13 161 -8T117 13L88 -40H31L79 51Q57 86 48 125T38 223Q38 304 53 383T95 526Q125 599 179 639T299 679Q327 679 348 674T390 656L416 705H473L428 618ZM292 569Q253 569 223 499Q204 454 192 404T175 293Q173 277 172 261T168 213L330 539Q324 569 292 569ZM214 98Q237 98 258 118T293 179Q307 219 318 272T334 379Q336 393 336 408T339 449L178 123Q180 112 189 105T214 98Z"  />
<glyph unicode="&#xD9;" horiz-adv-x="477" d="M248 667L184 282Q179 254 177 239T174 221Q172 208 171 193T170 169Q170 136 183 121T225 106Q262 106 281 140Q291 159 299 191T317 286L382 667H500L436 282Q430 246 426 223T418 182T411 152T401 122Q356 -13 208 -13Q126 -13 84 32T41 165Q41 190 44 225T52 286L116 667H248ZM364 766L329 718L179 813L229 883L364 766Z"  />
<glyph unicode="&#xDA;" horiz-adv-x="477" d="M248 667L184 282Q179 254 177 239T174 221Q172 208 171 193T170 169Q170 136 183 121T225 106Q262 106 281 140Q291 159 299 191T317 286L382 667H500L436 282Q430 246 426 223T418 182T411 152T401 122Q356 -13 208 -13Q126 -13 84 32T41 165Q41 190 44 225T52 286L116 667H248ZM472 810L306 721L274 768L433 879L472 810Z"  />
<glyph unicode="&#xDB;" horiz-adv-x="477" d="M248 667L184 282Q179 254 177 239T174 221Q172 208 171 193T170 169Q170 136 183 121T225 106Q262 106 281 140Q291 159 299 191T317 286L382 667H500L436 282Q430 246 426 223T418 182T411 152T401 122Q356 -13 208 -13Q126 -13 84 32T41 165Q41 190 44 225T52 286L116 667H248ZM339 860L449 727H370L324 769L272 727H189L339 860Z"  />
<glyph unicode="&#xDC;" horiz-adv-x="477" d="M248 667L184 282Q179 254 177 239T174 221Q172 208 171 193T170 169Q170 136 183 121T225 106Q262 106 281 140Q291 159 299 191T317 286L382 667H500L436 282Q430 246 426 223T418 182T411 152T401 122Q356 -13 208 -13Q126 -13 84 32T41 165Q41 190 44 225T52 286L116 667H248ZM249 730Q226 730 211 745T195 783Q195 806 210 821T250 836Q273 836 286 822T300 785Q300 760 286 745T249 730ZM390 730Q367 730 352 745T337 783Q337 806 352 821T391 836Q414 836 428 822T442 785Q442 760 428 745T390 730Z"  />
<glyph unicode="&#xDD;" horiz-adv-x="425" d="M201 667L252 426L370 667H496L293 279L246 0H108L155 286L65 667H201ZM458 810L292 721L260 768L419 879L458 810Z"  />
<glyph unicode="&#xDE;" horiz-adv-x="442" d="M256 667L238 564H252Q287 564 315 559T365 543Q403 524 424 481T446 378Q446 326 431 284T388 212T321 166T234 149H168L144 0H11L122 667H256ZM230 259Q247 259 261 265T283 281Q296 297 303 324T311 382Q311 420 297 437T249 454H220L187 259H230Z"  />
<glyph unicode="&#xDF;" horiz-adv-x="494" d="M51 454H97Q102 485 106 505T113 541T121 569T132 595Q144 620 163 641T206 677T258 700T316 708Q384 708 425 672T466 575Q466 545 455 518T422 470Q411 459 401 451T379 435T352 419T313 400Q318 392 322 388T335 378L368 355Q459 293 459 192Q459 148 447 112T412 49T358 8T290 -7Q258 -7 232 0T177 24L218 115Q235 104 249 100T278 96Q302 96 316 114T331 165Q331 189 322 204T284 242Q267 255 256 266T238 287T229 310T226 338Q226 373 240 403T287 475Q320 486 334 503T348 549Q348 576 335 591T299 606Q268 606 252 578Q241 557 236 531Q231 514 227 489T218 446L135 -52H9L77 355H34L51 454Z"  />
<glyph unicode="&#xE0;" horiz-adv-x="408" d="M61 358Q78 431 123 469T241 507Q307 507 346 472T386 376Q386 356 383 335T375 288L346 110Q341 84 339 61T336 23Q336 18 336 13T338 0H226Q224 8 224 13T223 26Q223 30 223 36T224 50Q213 35 206 29T191 15Q166 -6 122 -6Q69 -6 40 25T10 111Q10 141 23 178Q45 239 95 269T241 308L259 310Q267 348 267 370Q267 420 232 420Q218 420 207 412T190 390Q188 385 187 381T184 371T181 359T177 339L61 358ZM143 130Q143 106 153 93T181 79Q221 79 241 195L247 238Q224 234 213 230T190 219Q169 205 156 180T143 130ZM331 596L296 548L146 643L196 713L331 596Z"  />
<glyph unicode="&#xE1;" horiz-adv-x="408" d="M61 358Q78 431 123 469T241 507Q307 507 346 472T386 376Q386 356 383 335T375 288L346 110Q341 84 339 61T336 23Q336 18 336 13T338 0H226Q224 8 224 13T223 26Q223 30 223 36T224 50Q213 35 206 29T191 15Q166 -6 122 -6Q69 -6 40 25T10 111Q10 141 23 178Q45 239 95 269T241 308L259 310Q267 348 267 370Q267 420 232 420Q218 420 207 412T190 390Q188 385 187 381T184 371T181 359T177 339L61 358ZM143 130Q143 106 153 93T181 79Q221 79 241 195L247 238Q224 234 213 230T190 219Q169 205 156 180T143 130ZM394 640L228 551L196 598L355 709L394 640Z"  />
<glyph unicode="&#xE2;" horiz-adv-x="408" d="M61 358Q78 431 123 469T241 507Q307 507 346 472T386 376Q386 356 383 335T375 288L346 110Q341 84 339 61T336 23Q336 18 336 13T338 0H226Q224 8 224 13T223 26Q223 30 223 36T224 50Q213 35 206 29T191 15Q166 -6 122 -6Q69 -6 40 25T10 111Q10 141 23 178Q45 239 95 269T241 308L259 310Q267 348 267 370Q267 420 232 420Q218 420 207 412T190 390Q188 385 187 381T184 371T181 359T177 339L61 358ZM143 130Q143 106 153 93T181 79Q221 79 241 195L247 238Q224 234 213 230T190 219Q169 205 156 180T143 130ZM279 690L389 557H310L264 599L212 557H129L279 690Z"  />
<glyph unicode="&#xE3;" horiz-adv-x="408" d="M61 358Q78 431 123 469T241 507Q307 507 346 472T386 376Q386 356 383 335T375 288L346 110Q341 84 339 61T336 23Q336 18 336 13T338 0H226Q224 8 224 13T223 26Q223 30 223 36T224 50Q213 35 206 29T191 15Q166 -6 122 -6Q69 -6 40 25T10 111Q10 141 23 178Q45 239 95 269T241 308L259 310Q267 348 267 370Q267 420 232 420Q218 420 207 412T190 390Q188 385 187 381T184 371T181 359T177 339L61 358ZM143 130Q143 106 153 93T181 79Q221 79 241 195L247 238Q224 234 213 230T190 219Q169 205 156 180T143 130ZM402 633Q355 564 304 564Q284 564 259 579Q242 589 235 591T216 594Q202 594 192 589T166 569L135 612Q159 642 179 654T225 667Q238 667 248 664T277 651Q293 643 301 640T320 637Q334 637 345 646T371 673L402 633Z"  />
<glyph unicode="&#xE4;" horiz-adv-x="408" d="M61 358Q78 431 123 469T241 507Q307 507 346 472T386 376Q386 356 383 335T375 288L346 110Q341 84 339 61T336 23Q336 18 336 13T338 0H226Q224 8 224 13T223 26Q223 30 223 36T224 50Q213 35 206 29T191 15Q166 -6 122 -6Q69 -6 40 25T10 111Q10 141 23 178Q45 239 95 269T241 308L259 310Q267 348 267 370Q267 420 232 420Q218 420 207 412T190 390Q188 385 187 381T184 371T181 359T177 339L61 358ZM143 130Q143 106 153 93T181 79Q221 79 241 195L247 238Q224 234 213 230T190 219Q169 205 156 180T143 130ZM198 560Q175 560 160 575T144 613Q144 636 159 651T199 666Q222 666 235 652T249 615Q249 590 235 575T198 560ZM339 560Q316 560 301 575T286 613Q286 636 301 651T340 666Q363 666 377 652T391 615Q391 590 377 575T339 560Z"  />
<glyph unicode="&#xE5;" horiz-adv-x="408" d="M61 358Q78 431 123 469T241 507Q307 507 346 472T386 376Q386 356 383 335T375 288L346 110Q341 84 339 61T336 23Q336 18 336 13T338 0H226Q224 8 224 13T223 26Q223 30 223 36T224 50Q213 35 206 29T191 15Q166 -6 122 -6Q69 -6 40 25T10 111Q10 141 23 178Q45 239 95 269T241 308L259 310Q267 348 267 370Q267 420 232 420Q218 420 207 412T190 390Q188 385 187 381T184 371T181 359T177 339L61 358ZM143 130Q143 106 153 93T181 79Q221 79 241 195L247 238Q224 234 213 230T190 219Q169 205 156 180T143 130ZM267 541Q247 541 230 548T200 568T180 598T172 635Q172 675 199 703T267 731Q287 731 304 724T335 703T355 673T363 636Q363 596 335 569T267 541ZM267 599Q283 599 293 609T304 636Q304 651 294 662T267 673Q252 673 242 662T231 636Q231 620 241 610T267 599Z"  />
<glyph unicode="&#xE6;" horiz-adv-x="613" d="M367 224Q365 207 365 191T364 151Q364 112 371 97T397 82Q436 82 456 168L560 148Q556 133 553 123T547 103T540 86T531 69Q508 29 472 8T388 -14Q302 -14 279 80Q251 35 215 14T128 -7Q71 -7 41 23T10 111Q10 127 13 144T23 178Q35 213 60 238Q75 254 92 266T130 286T178 299T241 308L259 310Q263 327 265 340T267 370Q267 420 232 420Q218 420 207 412T190 390Q185 379 183 371T177 339L61 358Q78 430 123 468T236 507Q249 507 260 505T283 500Q300 495 314 485T346 454Q369 482 393 494T450 507Q516 507 550 461T584 326Q584 314 584 303Q584 292 583 281T581 256T578 224H367ZM143 130Q143 107 153 94T180 80Q191 80 200 87T215 105Q222 119 229 144T241 195L248 238Q224 234 213 230T190 219Q170 205 157 180T143 130ZM472 370Q472 420 441 420Q418 420 404 392T379 302H466Q469 322 470 339T472 370Z"  />
<glyph unicode="&#xE7;" horiz-adv-x="374" d="M351 170Q317 -8 175 -13L160 -48Q201 -50 219 -65T237 -116Q237 -156 208 -182T133 -208Q107 -208 86 -200T44 -174L65 -130Q83 -144 96 -149T123 -155Q140 -155 149 -146T159 -119Q159 -85 122 -85Q110 -85 91 -88L131 -10Q86 -3 57 29Q34 54 25 87T16 176Q16 251 31 312T73 416T140 483T228 507Q294 507 333 465T372 351Q372 343 372 336T369 315L258 307Q259 319 259 325T260 340Q260 411 224 411Q207 411 195 396T174 346Q170 328 167 313T160 280T154 242T148 194Q146 176 145 157T143 129Q143 82 177 82Q222 82 243 190L351 170Z"  />
<glyph unicode="&#xE8;" horiz-adv-x="391" d="M146 224L145 213Q143 185 143 175Q143 166 143 156Q143 114 151 98T179 82Q201 82 213 99T238 168L343 148Q339 133 336 122T330 103T324 86T315 69Q293 29 256 8T167 -14Q16 -14 16 184Q16 257 31 316T73 418T139 484T225 507Q295 507 330 461T366 324Q366 301 365 282T360 224H146ZM243 302Q245 324 246 341T247 370Q247 420 217 420Q195 420 180 392T155 302H243H243ZM308 596L273 548L123 643L173 713L308 596Z"  />
<glyph unicode="&#xE9;" horiz-adv-x="391" d="M146 224L145 213Q143 185 143 175Q143 166 143 156Q143 114 151 98T179 82Q201 82 213 99T238 168L343 148Q339 133 336 122T330 103T324 86T315 69Q293 29 256 8T167 -14Q16 -14 16 184Q16 257 31 316T73 418T139 484T225 507Q295 507 330 461T366 324Q366 301 365 282T360 224H146ZM243 302Q245 324 246 341T247 370Q247 420 217 420Q195 420 180 392T155 302H243H243ZM379 640L213 551L181 598L340 709L379 640Z"  />
<glyph unicode="&#xEA;" horiz-adv-x="391" d="M146 224L145 213Q143 185 143 175Q143 166 143 156Q143 114 151 98T179 82Q201 82 213 99T238 168L343 148Q339 133 336 122T330 103T324 86T315 69Q293 29 256 8T167 -14Q16 -14 16 184Q16 257 31 316T73 418T139 484T225 507Q295 507 330 461T366 324Q366 301 365 282T360 224H146ZM243 302Q245 324 246 341T247 370Q247 420 217 420Q195 420 180 392T155 302H243H243ZM258 690L368 557H289L243 599L191 557H108L258 690Z"  />
<glyph unicode="&#xEB;" horiz-adv-x="391" d="M146 224L145 213Q143 185 143 175Q143 166 143 156Q143 114 151 98T179 82Q201 82 213 99T238 168L343 148Q339 133 336 122T330 103T324 86T315 69Q293 29 256 8T167 -14Q16 -14 16 184Q16 257 31 316T73 418T139 484T225 507Q295 507 330 461T366 324Q366 301 365 282T360 224H146ZM243 302Q245 324 246 341T247 370Q247 420 217 420Q195 420 180 392T155 302H243H243ZM179 560Q156 560 141 575T125 613Q125 636 140 651T180 666Q203 666 216 652T230 615Q230 590 216 575T179 560ZM320 560Q297 560 282 575T267 613Q267 636 282 651T321 666Q344 666 358 652T372 615Q372 590 358 575T320 560Z"  />
<glyph unicode="&#xEC;" horiz-adv-x="204" d="M208 493L125 0H-5L77 493H208ZM214 596L179 548L29 643L79 713L214 596Z"  />
<glyph unicode="&#xED;" horiz-adv-x="204" d="M208 493L125 0H-5L77 493H208ZM294 640L128 551L96 598L255 709L294 640Z"  />
<glyph unicode="&#xEE;" horiz-adv-x="204" d="M208 493L125 0H-5L77 493H208ZM172 690L282 557H203L157 599L105 557H22L172 690Z"  />
<glyph unicode="&#xEF;" horiz-adv-x="204" d="M208 493L125 0H-5L77 493H208ZM88 560Q65 560 50 575T34 613Q34 636 49 651T89 666Q112 666 125 652T139 615Q139 590 125 575T88 560ZM229 560Q206 560 191 575T176 613Q176 636 191 651T230 666Q253 666 267 652T281 615Q281 590 267 575T229 560Z"  />
<glyph unicode="&#xF0;" horiz-adv-x="391" d="M247 364Q247 411 220 411Q210 411 203 406T189 390T178 358T167 308Q162 287 159 270T154 236T150 204T147 168Q145 151 145 141T144 123Q144 82 171 82Q181 82 188 87T202 106T214 141T226 198Q230 220 234 244T241 291T245 333T247 364ZM314 598Q340 526 357 454T374 312Q374 256 364 203T335 105Q312 48 269 17T169 -14Q17 -14 17 190Q17 263 31 321T73 421T137 485T220 507Q230 507 234 507T243 505Q241 519 237 534T227 565L126 527L99 598L201 637Q196 648 192 658T184 679L268 712Q273 702 277 692T286 669L400 712L427 641L314 598Z"  />
<glyph unicode="&#xF1;" horiz-adv-x="391" d="M78 493H198L188 434Q213 474 236 490T290 507Q332 507 354 482T376 412Q376 397 373 371T363 304L313 0H189L239 304Q242 324 244 344T247 376Q247 404 226 404Q206 404 195 382T174 304L122 0H-5L78 493ZM380 633Q333 564 282 564Q262 564 237 579Q220 589 213 591T194 594Q180 594 170 589T144 569L113 612Q137 642 157 654T203 667Q216 667 226 664T255 651Q271 643 279 640T298 637Q312 637 323 646T349 673L380 633Z"  />
<glyph unicode="&#xF2;" horiz-adv-x="391" d="M17 190Q17 263 31 321T73 421T138 485T224 507H235Q263 507 288 495T333 458T363 397T374 312Q374 256 364 203T335 105Q312 48 269 17T169 -14Q17 -14 17 190ZM247 364Q247 411 220 411Q210 411 203 406T189 390T178 358T167 308Q163 287 159 259T152 205T146 156T144 123Q144 82 171 82Q181 82 188 87T202 106T214 141T226 198Q230 220 234 244T241 291T245 333T247 364ZM306 596L271 548L121 643L171 713L306 596Z"  />
<glyph unicode="&#xF3;" horiz-adv-x="391" d="M17 190Q17 263 31 321T73 421T138 485T224 507H235Q263 507 288 495T333 458T363 397T374 312Q374 256 364 203T335 105Q312 48 269 17T169 -14Q17 -14 17 190ZM247 364Q247 411 220 411Q210 411 203 406T189 390T178 358T167 308Q163 287 159 259T152 205T146 156T144 123Q144 82 171 82Q181 82 188 87T202 106T214 141T226 198Q230 220 234 244T241 291T245 333T247 364ZM375 640L209 551L177 598L336 709L375 640Z"  />
<glyph unicode="&#xF4;" horiz-adv-x="391" d="M17 190Q17 263 31 321T73 421T138 485T224 507H235Q263 507 288 495T333 458T363 397T374 312Q374 256 364 203T335 105Q312 48 269 17T169 -14Q17 -14 17 190ZM247 364Q247 411 220 411Q210 411 203 406T189 390T178 358T167 308Q163 287 159 259T152 205T146 156T144 123Q144 82 171 82Q181 82 188 87T202 106T214 141T226 198Q230 220 234 244T241 291T245 333T247 364ZM258 690L368 557H289L243 599L191 557H108L258 690Z"  />
<glyph unicode="&#xF5;" horiz-adv-x="391" d="M17 190Q17 263 31 321T73 421T138 485T224 507H235Q263 507 288 495T333 458T363 397T374 312Q374 256 364 203T335 105Q312 48 269 17T169 -14Q17 -14 17 190ZM247 364Q247 411 220 411Q210 411 203 406T189 390T178 358T167 308Q163 287 159 259T152 205T146 156T144 123Q144 82 171 82Q181 82 188 87T202 106T214 141T226 198Q230 220 234 244T241 291T245 333T247 364ZM384 633Q337 564 286 564Q266 564 241 579Q224 589 217 591T198 594Q184 594 174 589T148 569L117 612Q141 642 161 654T207 667Q220 667 230 664T259 651Q275 643 283 640T302 637Q316 637 327 646T353 673L384 633Z"  />
<glyph unicode="&#xF6;" horiz-adv-x="391" d="M17 190Q17 263 31 321T73 421T138 485T224 507H235Q263 507 288 495T333 458T363 397T374 312Q374 256 364 203T335 105Q312 48 269 17T169 -14Q17 -14 17 190ZM247 364Q247 411 220 411Q210 411 203 406T189 390T178 358T167 308Q163 287 159 259T152 205T146 156T144 123Q144 82 171 82Q181 82 188 87T202 106T214 141T226 198Q230 220 234 244T241 291T245 333T247 364ZM178 560Q155 560 140 575T124 613Q124 636 139 651T179 666Q202 666 215 652T229 615Q229 590 215 575T178 560ZM319 560Q296 560 281 575T266 613Q266 636 281 651T320 666Q343 666 357 652T371 615Q371 590 357 575T319 560Z"  />
<glyph unicode="&#xF7;" horiz-adv-x="460" d="M62 281V386H425V281H62ZM185 432V564H303V432H185ZM185 103V235H303V103H185Z"  />
<glyph unicode="&#xF8;" horiz-adv-x="391" d="M333 545H385L336 454Q356 425 365 392T374 311Q374 257 364 203T335 105Q312 48 269 17T170 -14Q147 -14 131 -11T95 4L63 -57H11L60 34Q37 64 27 99T17 191Q17 264 31 322T73 422T138 485T223 507Q248 507 263 503T302 487L333 545ZM222 414Q191 414 172 359Q168 346 163 326T153 281T145 228T142 169L248 383Q248 398 241 406T222 414ZM168 78Q200 78 219 132Q222 139 226 156T236 196T244 247T248 305L145 97Q148 78 168 78Z"  />
<glyph unicode="&#xF9;" horiz-adv-x="392" d="M307 0H189L198 56Q184 35 176 25T154 5Q129 -14 97 -14Q58 -14 36 12T13 85Q13 123 22 177L75 494H199L146 177Q142 153 140 136T137 111Q137 89 159 89Q177 89 189 110Q197 123 202 142T213 197L263 494H390L307 0ZM313 596L278 548L128 643L178 713L313 596Z"  />
<glyph unicode="&#xFA;" horiz-adv-x="392" d="M307 0H189L198 56Q184 35 176 25T154 5Q129 -14 97 -14Q58 -14 36 12T13 85Q13 123 22 177L75 494H199L146 177Q142 153 140 136T137 111Q137 89 159 89Q177 89 189 110Q197 123 202 142T213 197L263 494H390L307 0ZM385 640L219 551L187 598L346 709L385 640Z"  />
<glyph unicode="&#xFB;" horiz-adv-x="392" d="M307 0H189L198 56Q184 35 176 25T154 5Q129 -14 97 -14Q58 -14 36 12T13 85Q13 123 22 177L75 494H199L146 177Q142 153 140 136T137 111Q137 89 159 89Q177 89 189 110Q197 123 202 142T213 197L263 494H390L307 0ZM267 690L377 557H298L252 599L200 557H117L267 690Z"  />
<glyph unicode="&#xFC;" horiz-adv-x="392" d="M307 0H189L198 56Q184 35 176 25T154 5Q129 -14 97 -14Q58 -14 36 12T13 85Q13 123 22 177L75 494H199L146 177Q142 153 140 136T137 111Q137 89 159 89Q177 89 189 110Q197 123 202 142T213 197L263 494H390L307 0ZM177 560Q154 560 139 575T123 613Q123 636 138 651T178 666Q201 666 214 652T228 615Q228 590 214 575T177 560ZM318 560Q295 560 280 575T265 613Q265 636 280 651T319 666Q342 666 356 652T370 615Q370 590 356 575T318 560Z"  />
<glyph unicode="&#xFD;" horiz-adv-x="389" d="M201 -4Q187 -39 177 -62T156 -102T136 -129T112 -150Q94 -164 73 -169T22 -175Q12 -175 6 -175T-11 -172L2 -60Q10 -61 14 -61T24 -62Q42 -62 55 -59T77 -45T95 -18T111 25L54 493H184L195 314Q197 293 197 261Q197 229 198 200Q206 241 213 268T227 314L288 493H398L201 -4ZM403 640L237 551L205 598L364 709L403 640Z"  />
<glyph unicode="&#xFE;" horiz-adv-x="391" d="M234 667L198 454Q217 480 233 490T272 500Q322 500 349 456T377 331Q377 263 363 195T325 76Q305 38 274 16T207 -7Q179 -7 162 4T129 42L94 -167H-32L107 667H234ZM148 160Q146 148 145 142T144 131Q144 112 152 100T175 88Q190 88 201 107T224 171Q234 214 239 256T245 335Q245 374 239 389T217 405Q202 405 194 392T180 348L148 160H148Z"  />
<glyph unicode="&#xFF;" horiz-adv-x="389" d="M201 -4Q187 -39 177 -62T156 -102T136 -129T112 -150Q94 -164 73 -169T22 -175Q12 -175 6 -175T-11 -172L2 -60Q10 -61 14 -61T24 -62Q42 -62 55 -59T77 -45T95 -18T111 25L54 493H184L195 314Q197 293 197 261Q197 229 198 200Q206 241 213 268T227 314L288 493H398L201 -4ZM177 560Q154 560 139 575T123 613Q123 636 138 651T178 666Q201 666 214 652T228 615Q228 590 214 575T177 560ZM318 560Q295 560 280 575T265 613Q265 636 280 651T319 666Q342 666 356 652T370 615Q370 590 356 575T318 560Z"  />
<glyph unicode="&#x131;" horiz-adv-x="204" d="M208 493L125 0H-5L77 493H208Z"  />
<glyph unicode="&#x152;" horiz-adv-x="680" d="M272 0Q264 -3 256 -5T238 -10Q221 -13 203 -13Q124 -13 81 48T38 223Q38 304 53 383T95 526Q126 601 179 640T304 679Q325 679 340 677T384 667H723L704 553H491L466 397H639L621 287H448L419 117H638L618 0H272ZM363 545Q352 555 337 560T304 566Q276 566 258 550T227 499Q216 467 206 426T189 340T177 252T173 173Q173 134 184 118T222 101Q258 101 292 117L363 545Z"  />
<glyph unicode="&#x153;" horiz-adv-x="613" d="M363 224L362 213Q361 196 361 183T360 155Q360 113 368 98T397 82Q420 82 433 99T461 168L560 148Q556 133 553 122T547 103T540 86T531 69Q510 30 473 8T386 -14Q349 -14 323 -1T274 45Q230 -14 160 -14Q92 -14 55 39T17 190Q17 262 31 321T73 421T137 484T221 507Q256 507 280 493T324 444Q351 478 379 492T444 507Q513 507 548 461T583 325Q583 313 583 303Q583 294 582 283T580 257T577 224H363ZM220 411Q210 411 203 406T189 390T178 358T167 308Q162 287 159 270T154 236T150 204T147 168Q145 151 145 141T144 123Q144 82 171 82Q181 82 188 87T202 106T214 141T226 198Q230 220 234 244T241 291T245 333T247 364Q247 411 220 411ZM466 302Q468 320 468 330Q468 341 468 360Q468 392 461 406T436 420Q413 420 398 392T372 302H466H466Z"  />
<glyph unicode="&#x160;" horiz-adv-x="443" d="M326 476Q317 521 301 541T257 561Q232 561 216 543T200 496Q200 478 210 460Q219 445 235 431T287 394Q306 382 319 373T341 356T359 341T375 324Q417 277 417 209Q417 160 402 120T359 50T293 4T209 -13Q122 -13 73 38T14 189L132 212Q134 183 138 170T151 141Q161 125 178 116T215 106Q247 106 264 126T282 183Q282 210 268 228T215 272Q188 290 171 301T143 322T124 338T108 355Q69 399 69 464Q69 510 83 549T123 617T183 662T259 679Q327 679 376 638T440 515L326 476ZM279 719L169 854H248L294 810L348 854H429L279 719Z"  />
<glyph unicode="&#x161;" horiz-adv-x="357" d="M258 347Q250 382 237 398T201 414Q184 414 172 401T159 368Q159 353 166 342Q171 332 180 326T215 305Q261 279 286 257Q329 217 329 153Q329 77 284 32T162 -14Q88 -14 47 19T-9 121L95 150Q114 79 160 79Q182 79 195 94T209 133Q209 150 198 163T158 193L121 215Q79 240 60 272T40 346Q40 381 52 410T87 461T140 495T208 507Q330 507 351 381L258 347ZM212 549L102 684H181L227 640L281 684H362L212 549Z"  />
<glyph unicode="&#x178;" horiz-adv-x="425" d="M201 667L252 426L370 667H496L293 279L246 0H108L155 286L65 667H201ZM233 730Q210 730 195 745T179 783Q179 806 194 821T234 836Q257 836 270 822T284 785Q284 760 270 745T233 730ZM374 730Q351 730 336 745T321 783Q321 806 336 821T375 836Q398 836 412 822T426 785Q426 760 412 745T374 730Z"  />
<glyph unicode="&#x17D;" horiz-adv-x="425" d="M467 667L450 563L156 117H385L365 0H-20L-3 106L293 553H83L101 667H467ZM286 719L176 854H255L301 810L355 854H436L286 719Z"  />
<glyph unicode="&#x17E;" horiz-adv-x="340" d="M333 394L139 98H288L272 0H-18L-1 96L195 394H57L74 493H350L333 394ZM221 549L111 684H190L236 640L290 684H371L221 549Z"  />
<glyph unicode="&#x192;" horiz-adv-x="460" d="M383 372H313L241 94Q230 50 221 20T203 -33T184 -71T162 -101Q144 -122 116 -133T53 -145Q40 -145 29 -144T-4 -138L24 -33Q36 -36 41 -36Q55 -36 66 -30T86 -8T105 34T125 102L194 372H145L173 479H223L230 503Q239 532 247 553T263 590T280 618T300 642Q341 683 413 683Q431 683 441 681T469 673L442 577Q427 581 420 581Q394 581 377 562T346 498L340 479H410L383 372Z"  />
<glyph unicode="&#x2C6;" horiz-adv-x="460" d="M301 690L411 557H332L286 599L234 557H151L301 690Z"  />
<glyph unicode="&#x2C7;" horiz-adv-x="460" d="M282 549L172 684H251L297 640L351 684H432L282 549Z"  />
<glyph unicode="&#x2DA;" horiz-adv-x="460" d="M294 541Q274 541 257 548T227 568T207 598T199 635Q199 675 226 703T294 731Q314 731 331 724T362 703T382 673T390 636Q390 596 362 569T294 541ZM294 599Q310 599 320 609T331 636Q331 651 321 662T294 673Q279 673 269 662T258 636Q258 620 268 610T294 599Z"  />
<glyph unicode="&#x2DC;" horiz-adv-x="460" d="M425 633Q378 564 327 564Q307 564 282 579Q265 589 258 591T239 594Q225 594 215 589T189 569L158 612Q182 642 202 654T248 667Q261 667 271 664T300 651Q316 643 324 640T343 637Q357 637 368 646T394 673L425 633Z"  />
<glyph unicode="&#x2013;" horiz-adv-x="391" d="M367 328L350 220H32L51 328H367Z"  />
<glyph unicode="&#x2014;" horiz-adv-x="579" d="M555 328L536 220H32L51 328H555Z"  />
<glyph unicode="&#x2018;" horiz-adv-x="204" d="M66 396L90 538L175 673H233L158 538H204L180 396H66Z"  />
<glyph unicode="&#x2019;" horiz-adv-x="204" d="M232 667L208 523L123 389H65L140 523H94L118 667H232Z"  />
<glyph unicode="&#x201A;" horiz-adv-x="204" d="M120 0L36 -134H-22L52 0H6L30 144H144L120 0Z"  />
<glyph unicode="&#x201C;" horiz-adv-x="357" d="M220 396L244 538L328 673H385L312 538H358L334 396H220ZM66 396L90 538L175 673H233L158 538H204L180 396H66Z"  />
<glyph unicode="&#x201D;" horiz-adv-x="357" d="M232 667L208 523L123 389H65L140 523H94L118 667H232ZM385 667L362 523L277 389H219L293 523H247L271 667H385Z"  />
<glyph unicode="&#x201E;" horiz-adv-x="357" d="M144 144L120 0L36 -134H-22L52 0H6L30 144H144ZM297 144L273 0L189 -134H132L206 0H160L184 144H297Z"  />
<glyph unicode="&#x2020;" horiz-adv-x="460" d="M361 667L331 486H451L433 380H313L222 -167H98L190 380H70L87 486H208L238 667H361Z"  />
<glyph unicode="&#x2021;" horiz-adv-x="460" d="M362 667L331 486H452L433 380H313L270 120H390L372 14H252L222 -167H98L129 14H9L27 120H146L190 380H70L88 486H208L238 667H362Z"  />
<glyph unicode="&#x2022;" horiz-adv-x="221" d="M43 258V409H178V258H43Z"  />
<glyph unicode="&#x2026;" horiz-adv-x="675" d="M20 149H152L127 0H-5L20 149ZM245 149H377L352 0H220L245 149ZM470 149H602L577 0H445L470 149Z"  />
<glyph unicode="&#x2030;" horiz-adv-x="851" d="M215 679Q311 676 311 553Q311 505 301 465T271 396T226 351T168 335Q120 335 93 369T65 463Q65 511 76 550T106 618T152 663T211 679H215H215ZM203 605Q192 604 183 592T166 560T154 513T150 458Q150 408 173 408Q184 408 193 420T210 453T222 502T227 561Q227 605 205 605H203H203ZM445 331Q541 328 541 205Q541 157 531 117T501 48T456 3T398 -13Q350 -13 323 21T295 115Q295 163 305 202T335 270T382 315T441 331H445H445ZM433 258Q422 257 413 245T396 212T384 165T379 110Q379 62 402 62Q413 62 422 74T439 106T451 154T456 213Q456 258 435 258H433H433ZM718 331Q813 328 813 205Q813 157 803 117T773 48T728 3T671 -13Q622 -13 595 21T568 115Q568 163 578 202T608 270T654 315T713 331H718H718ZM706 258Q695 257 685 245T668 212T656 166T651 110Q651 62 675 62Q686 62 696 74T713 106T725 154T730 213Q730 258 707 258H706H706ZM538 667L134 0H69L473 667H538Z"  />
<glyph unicode="&#x2039;" horiz-adv-x="204" d="M84 108L29 254L121 405H190L128 254L148 108H84Z"  />
<glyph unicode="&#x203A;" horiz-adv-x="204" d="M122 405L178 258L85 108H17L78 258L58 405H122Z"  />
<glyph unicode="&#x20AC;" horiz-adv-x="460" d="M466 481L342 468Q343 476 343 484T344 501Q344 511 343 523T337 546T325 564T303 572Q280 572 269 562T250 531Q229 481 221 427H330L312 365H211Q209 351 207 336T203 307H296L278 245H196Q194 229 193 214T192 183Q192 157 195 133Q198 113 207 104T237 95Q257 95 270 107T291 138T303 176T310 212L430 199Q420 156 405 118T365 52T306 7T225 -10Q176 -10 144 7T94 53T68 121T61 201Q61 212 61 223Q61 234 62 245H7L25 307H67Q69 321 71 336T75 365H27L45 427H87Q97 473 113 518T156 598T221 655T313 677Q356 677 385 663T433 623T458 564T466 490V481Z"  />
<glyph unicode="&#x2122;" horiz-adv-x="817" d="M266 267H177V591H106V667H339V591H266V267ZM368 667H491L523 498Q528 475 531 442T537 384Q540 413 545 447T556 506L593 667H712V267H627V494Q627 509 629 543T632 615Q630 600 628 583T623 550T618 519T613 498L560 267H504L454 501Q451 517 447 549T437 615Q436 577 437 548T439 504V267H368V667Z"  />
<glyph unicode="&#xE300;" horiz-adv-x="460" d="M342 766L307 718L157 813L207 883L342 766Z"  />
<glyph unicode="&#xE301;" horiz-adv-x="460" d="M457 810L291 721L259 768L418 879L457 810Z"  />
<glyph unicode="&#xE302;" horiz-adv-x="460" d="M325 860L435 727H356L310 769L258 727H175L325 860Z"  />
<glyph unicode="&#xE303;" horiz-adv-x="460" d="M306 719L196 854H275L321 810L375 854H456L306 719Z"  />
<glyph unicode="&#xE304;" horiz-adv-x="460" d="M440 803Q393 734 342 734Q322 734 297 749Q280 759 273 761T254 764Q240 764 230 759T204 739L173 782Q197 812 217 824T263 837Q276 837 286 834T315 821Q331 813 339 810T358 807Q372 807 383 816T409 843L440 803Z"  />
<glyph unicode="&#xE305;" horiz-adv-x="460" d="M248 730Q225 730 210 745T194 783Q194 806 209 821T249 836Q272 836 285 822T299 785Q299 760 285 745T248 730ZM389 730Q366 730 351 745T336 783Q336 806 351 821T390 836Q413 836 427 822T441 785Q441 760 427 745T389 730Z"  />
<glyph unicode="&#xE308;" horiz-adv-x="460" d="M314 711Q294 711 277 718T247 738T227 768T219 805Q219 845 246 873T314 901Q334 901 351 894T382 873T402 843T410 806Q410 766 382 739T314 711ZM314 769Q330 769 340 779T351 806Q351 821 341 832T314 843Q299 843 289 832T278 806Q278 790 288 780T314 769Z"  />

</font>
</defs>
</svg>
